<svg width="23" height="24" viewBox="0 0 23 24" fill="none" xmlns="http://www.w3.org/2000/svg">
<path d="M3.83366 5.59684V19.0135H19.167V5.59684H3.83366ZM2.87533 3.68018H20.1253C20.3795 3.68018 20.6232 3.78114 20.803 3.96087C20.9827 4.14059 21.0837 4.38434 21.0837 4.63851V19.9718C21.0837 20.226 20.9827 20.4698 20.803 20.6495C20.6232 20.8292 20.3795 20.9302 20.1253 20.9302H2.87533C2.62116 20.9302 2.3774 20.8292 2.19768 20.6495C2.01796 20.4698 1.91699 20.226 1.91699 19.9718V4.63851C1.91699 4.38434 2.01796 4.14059 2.19768 3.96087C2.3774 3.78114 2.62116 3.68018 2.87533 3.68018ZM5.75033 7.51351H8.62533V17.0968H5.75033V7.51351ZM9.58366 7.51351H11.5003V17.0968H9.58366V7.51351ZM12.4587 7.51351H13.417V17.0968H12.4587V7.51351ZM14.3753 7.51351H17.2503V17.0968H14.3753V7.51351Z" fill="#5C5C5C"/>
</svg>
