<svg width="23" height="24" viewBox="0 0 23 24" fill="none" xmlns="http://www.w3.org/2000/svg">
<path d="M13.7438 11.6509L17.9058 15.813L12.4855 21.2333H10.5688V14.8259L6.38666 19.0081L5.03062 17.653L10.5688 12.1157V11.1861L5.03062 5.64698L6.38666 4.2919L10.5688 8.47407V2.06665H12.4855L17.9058 7.48794L13.7438 11.65V11.6509ZM12.4855 13.1019V18.5232L15.1957 15.813L12.4855 13.1019ZM12.4855 10.1981L15.1957 7.48794L12.4855 4.77778V10.1991V10.1981ZM18.6878 13.0597C18.3066 13.0597 17.9409 12.9082 17.6714 12.6387C17.4018 12.3691 17.2503 12.0034 17.2503 11.6222C17.2503 11.2409 17.4018 10.8753 17.6714 10.6057C17.9409 10.3361 18.3066 10.1847 18.6878 10.1847C19.0691 10.1847 19.4347 10.3361 19.7043 10.6057C19.9739 10.8753 20.1253 11.2409 20.1253 11.6222C20.1253 12.0034 19.9739 12.3691 19.7043 12.6387C19.4347 12.9082 19.0691 13.0597 18.6878 13.0597ZM6.22949 13.0597C5.84824 13.0597 5.48261 12.9082 5.21303 12.6387C4.94344 12.3691 4.79199 12.0034 4.79199 11.6222C4.79199 11.2409 4.94344 10.8753 5.21303 10.6057C5.48261 10.3361 5.84824 10.1847 6.22949 10.1847C6.61074 10.1847 6.97637 10.3361 7.24596 10.6057C7.51554 10.8753 7.66699 11.2409 7.66699 11.6222C7.66699 12.0034 7.51554 12.3691 7.24596 12.6387C6.97637 12.9082 6.61074 13.0597 6.22949 13.0597Z" fill="#5C5C5C"/>
</svg>
