<svg width="23" height="24" viewBox="0 0 23 24" fill="none" xmlns="http://www.w3.org/2000/svg">
<path d="M3.8337 15.9514H19.167V5.15262H3.8337V15.9514ZM12.4587 17.9148V19.8782H16.292V21.8416H6.7087V19.8782H10.542V17.9148H2.8677C2.74186 17.914 2.6174 17.8878 2.50146 17.8377C2.38552 17.7876 2.28038 17.7145 2.19206 17.6227C2.10375 17.5308 2.03399 17.422 1.9868 17.3025C1.9396 17.183 1.91589 17.0551 1.91703 16.9262V4.17779C1.91703 3.63196 2.35307 3.18921 2.8677 3.18921H20.133C20.6582 3.18921 21.0837 3.63 21.0837 4.17779V16.9262C21.0837 17.4721 20.6477 17.9148 20.133 17.9148H12.4587Z" fill="#5C5C5C"/>
</svg>
