<svg width="23" height="25" viewBox="0 0 23 25" fill="none" xmlns="http://www.w3.org/2000/svg">
<path d="M5.75033 18.3538H17.2503V6.57331H5.75033V18.3538ZM13.417 20.3172H9.58366V22.2806H7.66699V20.3172H4.79199C4.53783 20.3172 4.29407 20.2138 4.11435 20.0297C3.93463 19.8456 3.83366 19.5959 3.83366 19.3355V16.3904H1.91699V14.427H3.83366V10.5001H1.91699V8.53673H3.83366V5.59161C3.83366 5.33124 3.93463 5.08154 4.11435 4.89743C4.29407 4.71333 4.53783 4.6099 4.79199 4.6099H7.66699V2.64648H9.58366V4.6099H13.417V2.64648H15.3337V4.6099H18.2087C18.4628 4.6099 18.7066 4.71333 18.8863 4.89743C19.066 5.08154 19.167 5.33124 19.167 5.59161V8.53673H21.0837V10.5001H19.167V14.427H21.0837V16.3904H19.167V19.3355C19.167 19.5959 19.066 19.8456 18.8863 20.0297C18.7066 20.2138 18.4628 20.3172 18.2087 20.3172H15.3337V22.2806H13.417V20.3172ZM7.66699 8.53673H15.3337V16.3904H7.66699V8.53673Z" fill="#5C5C5C"/>
</svg>
