<svg width="23" height="24" viewBox="0 0 23 24" fill="none" xmlns="http://www.w3.org/2000/svg">
<path d="M11.5003 2.03882C16.7932 2.03882 21.0837 6.32928 21.0837 11.6222C21.0837 16.915 16.7932 21.2055 11.5003 21.2055C6.20745 21.2055 1.91699 16.915 1.91699 11.6222C1.91699 6.32928 6.20745 2.03882 11.5003 2.03882ZM11.5003 3.95549C7.26641 3.95549 3.83366 7.38824 3.83366 11.6222C3.83366 15.8561 7.26641 19.2888 11.5003 19.2888C15.7342 19.2888 19.167 15.8561 19.167 11.6222C19.167 7.38824 15.7342 3.95549 11.5003 3.95549ZM11.5003 4.91382C12.4759 4.91382 13.4026 5.12178 14.2392 5.49648L12.7414 6.9934C12.3456 6.88799 11.9297 6.83049 11.5003 6.83049C8.85437 6.83049 6.70866 8.97619 6.70866 11.6222C6.70866 12.9447 7.24533 14.1426 8.11166 15.0108L6.75658 16.3659L6.60708 16.2116C5.48199 15.0118 4.79199 13.397 4.79199 11.6222C4.79199 7.91724 7.79541 4.91382 11.5003 4.91382ZM17.626 8.88419C17.9997 9.71986 18.2087 10.6475 18.2087 11.6222C18.2087 13.4746 17.4573 15.1517 16.2441 16.3659L14.889 15.0108C15.7553 14.1426 16.292 12.9447 16.292 11.6222C16.292 11.1928 16.2355 10.7769 16.1291 10.3811L17.626 8.88419ZM15.5656 6.20086L16.9216 7.55594L13.3528 11.1267C13.395 11.2848 13.417 11.4506 13.417 11.6222C13.417 12.6811 12.5593 13.5388 11.5003 13.5388C10.4414 13.5388 9.58366 12.6811 9.58366 11.6222C9.58366 10.5632 10.4414 9.70549 11.5003 9.70549C11.6719 9.70549 11.8377 9.72753 11.9958 9.76969L15.5665 6.20086H15.5656Z" fill="#5C5C5C"/>
</svg>
