<svg width="23" height="24" viewBox="0 0 23 24" fill="none" xmlns="http://www.w3.org/2000/svg">
<path d="M4.79167 12.7843C4.79167 13.0843 5.23346 13.6066 6.25792 14.1193C7.58425 14.7825 9.46546 15.1802 11.5 15.1802C13.5345 15.1802 15.4157 14.7825 16.7421 14.1193C17.7665 13.6066 18.2083 13.0843 18.2083 12.7843V10.7038C16.6271 11.6813 14.2092 12.3052 11.5 12.3052C8.79079 12.3052 6.37292 11.6803 4.79167 10.7038V12.7843ZM18.2083 15.4955C16.6271 16.473 14.2092 17.0968 11.5 17.0968C8.79079 17.0968 6.37292 16.472 4.79167 15.4955V17.576C4.79167 17.876 5.23346 18.3983 6.25792 18.911C7.58425 19.5741 9.46546 19.9718 11.5 19.9718C13.5345 19.9718 15.4157 19.5741 16.7421 18.911C17.7665 18.3983 18.2083 17.876 18.2083 17.576V15.4955ZM2.875 17.576V7.99268C2.875 5.61122 6.73708 3.68018 11.5 3.68018C16.2629 3.68018 20.125 5.61122 20.125 7.99268V17.576C20.125 19.9575 16.2629 21.8885 11.5 21.8885C6.73708 21.8885 2.875 19.9575 2.875 17.576ZM11.5 10.3885C13.5345 10.3885 15.4157 9.9908 16.7421 9.32763C17.7665 8.81493 18.2083 8.29263 18.2083 7.99268C18.2083 7.69272 17.7665 7.17043 16.7421 6.65772C15.4157 5.99455 13.5345 5.59684 11.5 5.59684C9.46546 5.59684 7.58425 5.99455 6.25792 6.65772C5.23346 7.17043 4.79167 7.69272 4.79167 7.99268C4.79167 8.29263 5.23346 8.81493 6.25792 9.32763C7.58425 9.9908 9.46546 10.3885 11.5 10.3885Z" fill="#5C5C5C"/>
</svg>
