<svg width="23" height="25" viewBox="0 0 23 25" fill="none" xmlns="http://www.w3.org/2000/svg">
<path d="M11.5 1.12721C13.7875 1.12721 15.9813 2.08024 17.5988 3.77664C19.2163 5.47304 20.125 7.77386 20.125 10.1729V14.1933C20.1254 15.649 19.7909 17.0832 19.1498 18.3743C18.5087 19.6654 17.5799 20.7752 16.4424 21.6093C15.3049 22.4435 13.9923 22.9774 12.616 23.1658C11.2397 23.3541 9.84034 23.1913 8.53684 22.6912C8.65951 22.5133 8.77739 22.3324 8.89047 22.1465L9.05338 21.865C9.98268 20.239 10.4944 18.3881 10.5388 16.4929L10.5417 16.2034V9.16786H12.4583V16.2034C12.4604 17.9287 12.1356 19.6373 11.5029 21.2298C12.243 21.2295 12.978 21.1011 13.6783 20.8499C14.1019 19.482 14.3424 18.0276 14.3721 16.518L14.375 16.2034V13.1872H16.2917V16.2034C16.2917 17.297 16.1939 18.3674 16.0061 19.4046C16.6717 18.7734 17.2093 18.0082 17.587 17.1545C17.9647 16.3008 18.1747 15.3761 18.2045 14.4355L18.2083 14.1933V10.1729C18.2083 8.8672 17.8619 7.58723 17.2077 6.47625C16.5536 5.36528 15.6175 4.46715 14.5044 3.88238C13.3912 3.2976 12.1448 3.04925 10.9047 3.16512C9.66463 3.28099 8.47975 3.7565 7.48268 4.53845L6.11705 3.10521C7.64413 1.822 9.54323 1.12416 11.5 1.12721ZM6.70834 10.1729C6.70834 8.84012 7.21318 7.56189 8.11179 6.61944C9.0104 5.67699 10.2292 5.14753 11.5 5.14753C12.7708 5.14753 13.9896 5.67699 14.8882 6.61944C15.7868 7.56189 16.2917 8.84012 16.2917 10.1729V11.178H14.375V10.1729C14.3757 9.38807 14.0846 8.63383 13.5635 8.07049C13.0424 7.50716 12.3324 7.17912 11.5844 7.15609C10.8363 7.13306 10.1092 7.41684 9.5575 7.94715C9.00579 8.47745 8.67299 9.21248 8.6298 9.99604L8.62501 10.1729V16.2034C8.62501 17.7784 8.24168 19.2589 7.56701 20.5484L7.54401 20.5886C7.32359 21.0047 7.07347 21.4007 6.79459 21.7736C6.37317 21.4854 5.97651 21.1592 5.60914 20.7987L5.31301 20.4971C3.74663 18.8104 2.87161 16.5478 2.87501 14.1933V10.1729C2.87501 8.03714 3.58034 6.07422 4.76101 4.5274L6.12759 5.95964C5.30566 7.10867 4.84061 8.49505 4.79551 9.93071L4.79168 10.1729V14.1933C4.79168 15.8768 5.35518 17.4216 6.29626 18.6327C6.54371 17.9315 6.68157 17.193 6.70451 16.4457L6.70834 16.2034V10.1729Z" fill="#5C5C5C"/>
</svg>
