<svg width="23" height="24" viewBox="0 0 23 24" fill="none" xmlns="http://www.w3.org/2000/svg">
<path d="M13.417 17.5225V19.3935L15.3337 20.329V21.2645H7.66703L7.6632 20.3328L9.5837 19.3935V17.5225H2.8677C2.74186 17.5218 2.6174 17.4968 2.50146 17.449C2.38552 17.4012 2.28038 17.3316 2.19206 17.2441C2.10375 17.1566 2.03399 17.0529 1.9868 16.939C1.9396 16.8251 1.91589 16.7033 1.91703 16.5804V4.43181C1.91703 3.91166 2.35307 3.48975 2.8677 3.48975H20.133C20.6582 3.48975 21.0837 3.90979 21.0837 4.43181V16.5804C21.0837 17.1006 20.6477 17.5225 20.133 17.5225H13.417ZM3.8337 5.36078V13.7804H19.167V5.36078H3.8337Z" fill="#5C5C5C"/>
</svg>
