<svg width="23" height="23" viewBox="0 0 23 23" fill="none" xmlns="http://www.w3.org/2000/svg">
<g clip-path="url(#clip0_856_3029)">
<path d="M15.3333 16.339V15.4253H12.4583V12.684H15.3333V14.5115H17.25V16.339H16.2917V18.1665H14.375V19.9941H12.4583V17.2528H14.375V16.339H15.3333ZM20.125 19.9941H16.2917V18.1665H18.2083V16.339H20.125V19.9941ZM2.875 3.54639H10.5417V10.8565H2.875V3.54639ZM4.79167 5.37391V9.02894H8.625V5.37391H4.79167ZM12.4583 3.54639H20.125V10.8565H12.4583V3.54639ZM14.375 5.37391V9.02894H18.2083V5.37391H14.375ZM2.875 12.684H10.5417V19.9941H2.875V12.684ZM4.79167 14.5115V18.1665H8.625V14.5115H4.79167ZM17.25 12.684H20.125V14.5115H17.25V12.684ZM5.75 6.28767H7.66667V8.11518H5.75V6.28767ZM5.75 15.4253H7.66667V17.2528H5.75V15.4253ZM15.3333 6.28767H17.25V8.11518H15.3333V6.28767Z" fill="#5C5C5C"/>
</g>
<defs>
<clipPath id="clip0_856_3029">
<rect width="23" height="21.9302" fill="white" transform="translate(0 0.805176)"/>
</clipPath>
</defs>
</svg>
