<svg width="23" height="23" viewBox="0 0 23 23" fill="none" xmlns="http://www.w3.org/2000/svg">
<path d="M11.9852 3.51147L11.0049 5.1692C8.2161 4.34688 5.7206 4.74822 4.86098 6.20295C3.73206 8.1114 5.61806 11.4905 9.34406 13.5907C13.0701 15.6909 17.0107 15.5946 18.1396 13.6871C19.0002 12.2323 18.108 9.92256 15.9844 7.97575L16.9647 6.31801C19.9183 8.85233 21.2418 12.1837 19.7995 14.6226C18.017 17.6368 12.91 17.7612 8.38573 15.212C3.86144 12.6599 1.41865 8.28073 3.20115 5.26743C4.64344 2.82854 8.26115 2.28126 11.9852 3.51147ZM15.2225 1.78076L16.8823 2.71628L12.0906 10.8178L10.4308 9.88233L15.2225 1.78076ZM6.45181 18.8324H16.292V20.7034H4.80827C4.63721 20.7068 4.46838 20.6651 4.31949 20.5828C4.17061 20.5005 4.04715 20.3806 3.96206 20.2357C3.87842 20.0933 3.83441 19.9321 3.83441 19.7679C3.83441 19.6038 3.87842 19.4425 3.96206 19.3002L6.11831 15.6545L7.77815 16.59L6.45181 18.8324Z" fill="#5C5C5C"/>
</svg>
