<svg width="23" height="24" viewBox="0 0 23 24" fill="none" xmlns="http://www.w3.org/2000/svg">
<path d="M10.5415 13.8659V10.9208H12.4582V13.8659H17.2499C17.504 13.8659 17.7478 13.9694 17.9275 14.1535C18.1072 14.3376 18.2082 14.5873 18.2082 14.8476V20.7379C18.2082 20.9983 18.1072 21.248 17.9275 21.4321C17.7478 21.6162 17.504 21.7196 17.2499 21.7196H5.74986C5.49569 21.7196 5.25194 21.6162 5.07221 21.4321C4.89249 21.248 4.79152 20.9983 4.79152 20.7379V14.8476C4.79152 14.5873 4.89249 14.3376 5.07221 14.1535C5.25194 13.9694 5.49569 13.8659 5.74986 13.8659H10.5415ZM2.40527 8.79738C3.67506 4.89706 7.26786 2.08545 11.4999 2.08545C15.7319 2.08545 19.3256 4.89706 20.5944 8.79738L18.7755 9.41782C18.2663 7.8537 17.2897 6.49331 15.9839 5.52933C14.6781 4.56534 13.1094 4.04661 11.4999 4.04661C9.89031 4.04661 8.32157 4.56534 7.01578 5.52933C5.71 6.49331 4.73336 7.8537 4.22419 9.41782L2.40623 8.79738H2.40527ZM6.04311 10.0392C6.42534 8.86651 7.15796 7.84663 8.13725 7.12395C9.11655 6.40128 10.2929 6.01243 11.4999 6.01243C12.7068 6.01243 13.8832 6.40128 14.8625 7.12395C15.8418 7.84663 16.5744 8.86651 16.9566 10.0392L15.1377 10.6607C14.8829 9.87884 14.3945 9.19892 13.7416 8.71714C13.0887 8.23536 12.3045 7.97612 11.4999 7.97612C10.6952 7.97612 9.91098 8.23536 9.25812 8.71714C8.60526 9.19892 8.11685 9.87884 7.86202 10.6607L6.04311 10.0392ZM6.70819 15.8294V19.7562H16.2915V15.8294H6.70819Z" fill="#5C5C5C"/>
</svg>
