<svg width="23" height="25" viewBox="0 0 23 25" fill="none" xmlns="http://www.w3.org/2000/svg">
<path d="M7.66634 4.6099V10.2969C7.66621 10.9466 7.41463 11.5697 6.96676 12.0296L5.74967 13.2813V20.3172H17.2497V4.6099H7.66634ZM6.70801 2.64648H18.208C18.4622 2.64648 18.7059 2.74991 18.8856 2.93402C19.0654 3.11813 19.1663 3.36783 19.1663 3.62819V21.2989C19.1663 21.5593 19.0654 21.809 18.8856 21.9931C18.7059 22.1772 18.4622 22.2806 18.208 22.2806H4.79134C4.53718 22.2806 4.29342 22.1772 4.1137 21.9931C3.93397 21.809 3.83301 21.5593 3.83301 21.2989V12.8759C3.83306 12.616 3.93369 12.3668 4.11284 12.1828L5.60976 10.6435C5.69933 10.5515 5.74965 10.4269 5.74967 10.2969V3.62819C5.74967 3.36783 5.85064 3.11813 6.03036 2.93402C6.21009 2.74991 6.45384 2.64648 6.70801 2.64648ZM14.3747 5.59161H16.2913V9.51844H14.3747V5.59161ZM11.4997 5.59161H13.4163V9.51844H11.4997V5.59161ZM8.62467 5.59161H10.5413V9.51844H8.62467V5.59161Z" fill="#5C5C5C"/>
</svg>
