<svg width="23" height="24" viewBox="0 0 23 24" fill="none" xmlns="http://www.w3.org/2000/svg">
<path d="M5.74967 4.51652V19.8499H17.2497V8.18502L13.5812 4.51652H5.74967ZM4.79134 2.59985H14.3747L18.8855 7.11073C19.0653 7.29041 19.1663 7.53413 19.1663 7.78827V20.8082C19.1663 21.0624 19.0654 21.3061 18.8857 21.4858C18.7059 21.6656 18.4622 21.7665 18.208 21.7665H4.79134C4.53718 21.7665 4.29342 21.6656 4.1137 21.4858C3.93397 21.3061 3.83301 21.0624 3.83301 20.8082V3.55819C3.83301 3.30402 3.93397 3.06027 4.1137 2.88054C4.29342 2.70082 4.53718 2.59985 4.79134 2.59985ZM12.458 10.2665V17.9332H10.5413V12.1832H7.66634V10.2665H12.458ZM7.66634 13.1415H9.58301V15.0582H7.66634V13.1415ZM13.4163 13.1415H15.333V15.0582H13.4163V13.1415ZM13.4163 10.2665H15.333V12.1832H13.4163V10.2665ZM7.66634 16.0165H9.58301V17.9332H7.66634V16.0165ZM13.4163 16.0165H15.333V17.9332H13.4163V16.0165Z" fill="#5C5C5C"/>
</svg>
