<svg width="23" height="24" viewBox="0 0 23 24" fill="none" xmlns="http://www.w3.org/2000/svg">
<path d="M5.74967 4.17093V19.8783H17.2497V4.17093H5.74967ZM4.79134 2.20752H18.208C18.4622 2.20752 18.7059 2.31095 18.8856 2.49505C19.0654 2.67916 19.1663 2.92886 19.1663 3.18923V20.86C19.1663 21.1203 19.0654 21.37 18.8856 21.5541C18.7059 21.7382 18.4622 21.8417 18.208 21.8417H4.79134C4.53718 21.8417 4.29342 21.7382 4.1137 21.5541C3.93397 21.37 3.83301 21.1203 3.83301 20.86V3.18923C3.83301 2.92886 3.93397 2.67916 4.1137 2.49505C4.29342 2.31095 4.53718 2.20752 4.79134 2.20752ZM11.4997 16.9331C11.7538 16.9331 11.9976 17.0366 12.1773 17.2207C12.357 17.4048 12.458 17.6545 12.458 17.9148C12.458 18.1752 12.357 18.4249 12.1773 18.609C11.9976 18.7931 11.7538 18.8965 11.4997 18.8965C11.2455 18.8965 11.0018 18.7931 10.822 18.609C10.6423 18.4249 10.5413 18.1752 10.5413 17.9148C10.5413 17.6545 10.6423 17.4048 10.822 17.2207C11.0018 17.0366 11.2455 16.9331 11.4997 16.9331Z" fill="#5C5C5C"/>
</svg>
