<svg width="23" height="25" viewBox="0 0 23 25" fill="none" xmlns="http://www.w3.org/2000/svg">
<path d="M14.7721 5.59161H20.133C20.6582 5.59161 21.0837 6.02847 21.0837 6.57332V20.3172C21.0837 20.8591 20.6476 21.2989 20.133 21.2989H2.86768C2.74226 21.2987 2.61812 21.273 2.50239 21.2235C2.38667 21.174 2.28163 21.1016 2.1933 21.0103C2.10497 20.9191 2.03509 20.8109 1.98768 20.692C1.94027 20.5731 1.91625 20.4457 1.91701 20.3172V6.57332C1.91701 6.03142 2.35305 5.59161 2.86768 5.59161H8.22859L5.79826 3.102L7.15334 1.71387L10.9388 5.59161H12.0619L15.8473 1.71387L17.2024 3.102L14.7721 5.59161ZM3.83368 7.55503V19.3355H19.167V7.55503H3.83368Z" fill="#5C5C5C"/>
</svg>
