<svg width="23" height="24" viewBox="0 0 23 24" fill="none" xmlns="http://www.w3.org/2000/svg">
<path d="M11.5003 1.51929L14.3753 6.31095H12.4587V13.3844L15.3337 11.9479L15.3327 11.1026H14.3753V7.26929H18.2087V11.1026H17.2494L17.2503 13.1324L12.4587 15.5282V17.0165C13.5761 17.4113 14.3753 18.476 14.3753 19.7276C14.3753 21.3156 13.0883 22.6026 11.5003 22.6026C9.91237 22.6026 8.62533 21.3156 8.62533 19.7276C8.62533 18.5901 9.28658 17.6068 10.2449 17.1401L5.75033 13.9776L5.74937 11.8041C5.17724 11.4725 4.79199 10.8535 4.79199 10.1443C4.79199 9.08533 5.6497 8.22762 6.70866 8.22762C7.76762 8.22762 8.62533 9.08533 8.62533 10.1443C8.62533 10.8535 8.24008 11.4735 7.66699 11.8041V13.0193L10.542 15.0184V6.31095H8.62533L11.5003 1.51929ZM11.5003 18.7693C10.9713 18.7693 10.542 19.1986 10.542 19.7276C10.542 20.2566 10.9713 20.686 11.5003 20.686C12.0293 20.686 12.4587 20.2566 12.4587 19.7276C12.4587 19.1986 12.0293 18.7693 11.5003 18.7693Z" fill="#5C5C5C"/>
</svg>
