<svg width="23" height="24" viewBox="0 0 23 24" fill="none" xmlns="http://www.w3.org/2000/svg">
<path d="M3.76497 5.28467L5.12005 6.63975C3.73238 8.02742 2.87467 9.94408 2.87467 12.061C2.87467 14.179 3.73238 16.0956 5.12005 17.4823L3.76592 18.8365C2.03038 17.1028 0.958008 14.707 0.958008 12.061C0.958008 9.41508 2.03134 7.01925 3.76497 5.28467ZM19.2344 5.28467C20.969 7.01925 22.0413 9.41508 22.0413 12.061C22.0413 14.707 20.968 17.1038 19.2344 18.8374L17.8793 17.4823C19.267 16.0947 20.1247 14.178 20.1247 12.061C20.1247 9.94408 19.267 8.02838 17.8803 6.64071L19.2334 5.28563L19.2344 5.28467ZM12.458 5.35271V11.1027H15.333L10.5413 18.7694V13.0194H7.66634L12.458 5.35271ZM6.47513 7.99483L7.83117 9.35088C7.13734 10.0438 6.70801 11.0021 6.70801 12.061C6.70801 13.12 7.13734 14.0783 7.83117 14.7712L6.47513 16.1273C5.43534 15.0865 4.79134 13.649 4.79134 12.061C4.79134 10.4731 5.43534 9.03558 6.47513 7.99483ZM16.5252 7.99579C17.565 9.03654 18.208 10.474 18.208 12.061C18.208 13.649 17.564 15.0865 16.5242 16.1273L15.1682 14.7712C15.862 14.0783 16.2913 13.12 16.2913 12.061C16.2913 11.003 15.863 10.0447 15.1701 9.35184L16.5252 7.99579Z" fill="#5C5C5C"/>
</svg>
