<svg width="23" height="22" viewBox="0 0 23 22" fill="none" xmlns="http://www.w3.org/2000/svg">
<g clip-path="url(#clip0_856_2827)">
<path d="M11.5003 1.82764C16.7903 1.82764 21.0837 5.92128 21.0837 10.9652C21.0837 16.0092 16.7903 20.1028 11.5003 20.1028C6.21033 20.1028 1.91699 16.0092 1.91699 10.9652C1.91699 5.92128 6.21033 1.82764 11.5003 1.82764ZM11.5003 3.65516C7.26449 3.65516 3.83366 6.92641 3.83366 10.9652C3.83366 15.0041 7.26449 18.2753 11.5003 18.2753C15.7362 18.2753 19.167 15.0041 19.167 10.9652C19.167 6.92641 15.7362 3.65516 11.5003 3.65516ZM11.5003 6.39643C13.2445 6.39643 14.7711 7.28552 15.6097 8.61504L13.9671 9.5553C13.7086 9.14433 13.3416 8.80515 12.9027 8.57159C12.4639 8.33803 11.9685 8.21824 11.4659 8.22416C10.9634 8.23009 10.4712 8.36153 10.0386 8.60538C9.60592 8.84922 9.24786 9.19695 9.0001 9.61389C8.75235 10.0308 8.62355 10.5024 8.62655 10.9816C8.62956 11.4608 8.76426 11.9309 9.01723 12.345C9.2702 12.7591 9.6326 13.1027 10.0683 13.3416C10.504 13.5805 10.9977 13.7063 11.5003 13.7065C11.9969 13.7068 12.485 13.5844 12.9172 13.3513C13.3493 13.1181 13.7107 12.7821 13.9661 12.3761L15.6097 13.3154C15.0711 14.1731 14.2523 14.8386 13.2789 15.21C12.3055 15.5813 11.2312 15.6379 10.2209 15.3711C9.21046 15.1044 8.31975 14.5289 7.68533 13.7331C7.05091 12.9372 6.70781 11.9649 6.70866 10.9652C6.70866 8.44326 8.85533 6.39643 11.5003 6.39643Z" fill="#5C5C5C"/>
</g>
<defs>
<clipPath id="clip0_856_2827">
<rect width="23" height="21.9302" fill="white"/>
</clipPath>
</defs>
</svg>
