<svg width="23" height="23" viewBox="0 0 23 23" fill="none" xmlns="http://www.w3.org/2000/svg">
<path d="M11.5003 1.91675C16.7932 1.91675 21.0837 6.20721 21.0837 11.5001C21.0837 16.793 16.7932 21.0834 11.5003 21.0834C6.20745 21.0834 1.91699 16.793 1.91699 11.5001C1.91699 6.20721 6.20745 1.91675 11.5003 1.91675ZM11.5003 3.83341C9.467 3.83341 7.51695 4.64115 6.07917 6.07893C4.64139 7.51671 3.83366 9.46676 3.83366 11.5001C3.83366 13.5334 4.64139 15.4835 6.07917 16.9212C7.51695 18.359 9.467 19.1667 11.5003 19.1667C13.5337 19.1667 15.4837 18.359 16.9215 16.9212C18.3593 15.4835 19.167 13.5334 19.167 11.5001C19.167 9.46676 18.3593 7.51671 16.9215 6.07893C15.4837 4.64115 13.5337 3.83341 11.5003 3.83341ZM11.9795 6.70842C12.7113 6.70827 13.4231 6.94747 14.0063 7.38954C14.5895 7.8316 15.0121 8.45227 15.2097 9.15691C15.4073 9.86154 15.3691 10.6115 15.1008 11.2923C14.8325 11.9732 14.3488 12.5476 13.7237 12.928L16.1655 16.2917H13.7965L11.7073 13.4167H9.58366V16.2917H7.66699V6.70842H11.9795ZM11.9795 8.62508H9.58366V11.5001H11.9795C12.3368 11.5001 12.6814 11.367 12.9459 11.1267C13.2104 10.8864 13.376 10.5563 13.4103 10.2006L13.417 10.0626C13.417 9.68133 13.2655 9.3157 12.996 9.04612C12.7264 8.77653 12.3607 8.62508 11.9795 8.62508Z" fill="#5C5C5C"/>
</svg>
