<svg width="23" height="24" viewBox="0 0 23 24" fill="none" xmlns="http://www.w3.org/2000/svg">
<path d="M10.542 1.96338C15.303 1.96338 19.167 5.92162 19.167 10.7987C19.167 15.6759 15.303 19.6341 10.542 19.6341C5.78099 19.6341 1.91699 15.6759 1.91699 10.7987C1.91699 5.92162 5.78099 1.96338 10.542 1.96338ZM10.542 17.6707C14.2479 17.6707 17.2503 14.595 17.2503 10.7987C17.2503 7.0015 14.2479 3.92679 10.542 3.92679C6.83516 3.92679 3.83366 7.0015 3.83366 10.7987C3.83366 14.595 6.83516 17.6707 10.542 17.6707ZM18.6735 17.7404L21.3846 20.5167L20.0285 21.9058L17.3184 19.1285L18.6735 17.7404Z" fill="#5C5C5C"/>
</svg>
