<svg width="23" height="25" viewBox="0 0 23 25" fill="none" xmlns="http://www.w3.org/2000/svg">
<path d="M1.96491 11.3598H6.70866V13.3232H3.89308C4.10639 15.0534 4.8755 16.6617 6.07926 17.8948C7.28302 19.1279 8.85303 19.9158 10.542 20.1343V10.2544C9.64069 10.0131 8.85591 9.44411 8.33418 8.65354C7.81246 7.86296 7.58946 6.90489 7.70683 5.95821C7.82419 5.01153 8.2739 4.14098 8.97197 3.5091C9.67005 2.87721 10.5688 2.5272 11.5003 2.52442C12.434 2.52347 13.3359 2.87163 14.0368 3.50355C14.7376 4.13546 15.1893 5.00769 15.3069 5.95651C15.4245 6.90533 15.2001 7.86551 14.6757 8.65684C14.1512 9.44816 13.3629 10.0162 12.4587 10.2544V20.1343C14.1476 19.9158 15.7176 19.1279 16.9214 17.8948C18.1252 16.6617 18.8943 15.0534 19.1076 13.3232H16.292V11.3598H21.0357C21.0674 11.6828 21.0837 12.0107 21.0837 12.3415C21.0837 17.7635 16.7932 22.1586 11.5003 22.1586C6.20745 22.1586 1.91699 17.7635 1.91699 12.3415C1.91699 12.0107 1.93328 11.6828 1.96491 11.3598ZM11.5003 8.41466C12.0087 8.41466 12.4962 8.2078 12.8556 7.83959C13.2151 7.47138 13.417 6.97197 13.417 6.45125C13.417 5.93052 13.2151 5.43111 12.8556 5.0629C12.4962 4.69469 12.0087 4.48783 11.5003 4.48783C10.992 4.48783 10.5045 4.69469 10.145 5.0629C9.78559 5.43111 9.58366 5.93052 9.58366 6.45125C9.58366 6.97197 9.78559 7.47138 10.145 7.83959C10.5045 8.2078 10.992 8.41466 11.5003 8.41466Z" fill="#5C5C5C"/>
</svg>
