<svg width="23" height="24" viewBox="0 0 23 24" fill="none" xmlns="http://www.w3.org/2000/svg">
<path d="M16.292 19.6341H6.70866V20.6158C6.70866 20.8762 6.60769 21.1259 6.42797 21.31C6.24825 21.4941 6.00449 21.5975 5.75033 21.5975H3.83366C3.57949 21.5975 3.33574 21.4941 3.15601 21.31C2.97629 21.1259 2.87533 20.8762 2.87533 20.6158V11.7804H1.91699V7.85361H2.87533V4.90848C2.87533 4.38775 3.07726 3.88835 3.4367 3.52014C3.79615 3.15193 4.28366 2.94507 4.79199 2.94507H18.2087C18.717 2.94507 19.2045 3.15193 19.5639 3.52014C19.9234 3.88835 20.1253 4.38775 20.1253 4.90848V7.85361H21.0837V11.7804H20.1253V20.6158C20.1253 20.8762 20.0244 21.1259 19.8446 21.31C19.6649 21.4941 19.4212 21.5975 19.167 21.5975H17.2503C16.9962 21.5975 16.7524 21.4941 16.5727 21.31C16.393 21.1259 16.292 20.8762 16.292 20.6158V19.6341ZM4.79199 4.90848V10.7987H18.2087V4.90848H4.79199ZM18.2087 12.7621H4.79199V17.6707H18.2087V12.7621ZM7.18783 16.689C6.80658 16.689 6.44094 16.5338 6.17136 16.2577C5.90178 15.9815 5.75033 15.607 5.75033 15.2164C5.75033 14.8259 5.90178 14.4513 6.17136 14.1752C6.44094 13.899 6.80658 13.7438 7.18783 13.7438C7.56907 13.7438 7.93471 13.899 8.20429 14.1752C8.47388 14.4513 8.62533 14.8259 8.62533 15.2164C8.62533 15.607 8.47388 15.9815 8.20429 16.2577C7.93471 16.5338 7.56907 16.689 7.18783 16.689ZM15.8128 16.689C15.4316 16.689 15.0659 16.5338 14.7964 16.2577C14.5268 15.9815 14.3753 15.607 14.3753 15.2164C14.3753 14.8259 14.5268 14.4513 14.7964 14.1752C15.0659 13.899 15.4316 13.7438 15.8128 13.7438C16.1941 13.7438 16.5597 13.899 16.8293 14.1752C17.0989 14.4513 17.2503 14.8259 17.2503 15.2164C17.2503 15.607 17.0989 15.9815 16.8293 16.2577C16.5597 16.5338 16.1941 16.689 15.8128 16.689Z" fill="#5C5C5C"/>
</svg>
