<svg width="23" height="23" viewBox="0 0 23 23" fill="none" xmlns="http://www.w3.org/2000/svg">
<path d="M18.2087 19.1666H4.79199V20.1249C4.79199 20.3791 4.69103 20.6228 4.5113 20.8026C4.33158 20.9823 4.08782 21.0833 3.83366 21.0833H2.87533C2.62116 21.0833 2.3774 20.9823 2.19768 20.8026C2.01796 20.6228 1.91699 20.3791 1.91699 20.1249V10.5416L4.29366 4.99475C4.44155 4.64975 4.68749 4.35577 5.00096 4.14929C5.31443 3.94281 5.68163 3.83292 6.05699 3.83325H16.9437C17.3187 3.83329 17.6855 3.94336 17.9986 4.14982C18.3117 4.35628 18.5573 4.65005 18.7051 4.99475L21.0837 10.5416V20.1249C21.0837 20.3791 20.9827 20.6228 20.803 20.8026C20.6232 20.9823 20.3795 21.0833 20.1253 21.0833H19.167C18.9128 21.0833 18.6691 20.9823 18.4893 20.8026C18.3096 20.6228 18.2087 20.3791 18.2087 20.1249V19.1666ZM19.167 12.4583H3.83366V17.2499H19.167V12.4583ZM4.00233 10.5416H18.9983L16.9446 5.74992H6.05699L4.00328 10.5416H4.00233ZM6.22949 16.2916C5.84824 16.2916 5.48261 16.1401 5.21303 15.8706C4.94344 15.601 4.79199 15.2353 4.79199 14.8541C4.79199 14.4728 4.94344 14.1072 5.21303 13.8376C5.48261 13.568 5.84824 13.4166 6.22949 13.4166C6.61074 13.4166 6.97637 13.568 7.24596 13.8376C7.51554 14.1072 7.66699 14.4728 7.66699 14.8541C7.66699 15.2353 7.51554 15.601 7.24596 15.8706C6.97637 16.1401 6.61074 16.2916 6.22949 16.2916ZM16.7712 16.2916C16.3899 16.2916 16.0243 16.1401 15.7547 15.8706C15.4851 15.601 15.3337 15.2353 15.3337 14.8541C15.3337 14.4728 15.4851 14.1072 15.7547 13.8376C16.0243 13.568 16.3899 13.4166 16.7712 13.4166C17.1524 13.4166 17.518 13.568 17.7876 13.8376C18.0572 14.1072 18.2087 14.4728 18.2087 14.8541C18.2087 15.2353 18.0572 15.601 17.7876 15.8706C17.518 16.1401 17.1524 16.2916 16.7712 16.2916Z" fill="#5C5C5C"/>
</svg>
