<svg width="23" height="24" viewBox="0 0 23 24" fill="none" xmlns="http://www.w3.org/2000/svg">
<path d="M11.5003 21.6444C6.20745 21.6444 1.91699 17.354 1.91699 12.0611C1.91699 6.76824 6.20745 2.47778 11.5003 2.47778C16.7932 2.47778 21.0837 6.76824 21.0837 12.0611C21.0837 17.354 16.7932 21.6444 11.5003 21.6444ZM11.5003 19.7278C13.5337 19.7278 15.4837 18.92 16.9215 17.4823C18.3593 16.0445 19.167 14.0944 19.167 12.0611C19.167 10.0278 18.3593 8.07774 16.9215 6.63996C15.4837 5.20219 13.5337 4.39445 11.5003 4.39445C9.467 4.39445 7.51695 5.20219 6.07917 6.63996C4.64139 8.07774 3.83366 10.0278 3.83366 12.0611C3.83366 14.0944 4.64139 16.0445 6.07917 17.4823C7.51695 18.92 9.467 19.7278 11.5003 19.7278ZM15.8128 7.74862L13.417 13.9778L7.18783 16.3736L9.58366 10.1444L15.8128 7.74862ZM11.5003 13.0194C11.7545 13.0194 11.9982 12.9185 12.178 12.7388C12.3577 12.559 12.4587 12.3153 12.4587 12.0611C12.4587 11.807 12.3577 11.5632 12.178 11.3835C11.9982 11.2038 11.7545 11.1028 11.5003 11.1028C11.2462 11.1028 11.0024 11.2038 10.8227 11.3835C10.643 11.5632 10.542 11.807 10.542 12.0611C10.542 12.3153 10.643 12.559 10.8227 12.7388C11.0024 12.9185 11.2462 13.0194 11.5003 13.0194Z" fill="#5C5C5C"/>
</svg>
