<svg width="23" height="23" viewBox="0 0 23 23" fill="none" xmlns="http://www.w3.org/2000/svg">
<path d="M15.9326 3.0531L14.4951 4.45638C13.5478 4.06433 12.5292 3.86291 11.5003 3.8642C7.26449 3.8642 3.83366 7.21334 3.83366 11.3483C3.83366 15.4833 7.26449 18.8324 11.5003 18.8324C15.7362 18.8324 19.167 15.4833 19.167 11.3483C19.1683 10.3439 18.962 9.34957 18.5604 8.42483L19.9979 7.02156C20.7132 8.35678 21.0858 9.84154 21.0837 11.3483C21.0837 16.5124 16.7903 20.7035 11.5003 20.7035C6.21033 20.7035 1.91699 16.5124 1.91699 11.3483C1.91699 6.18427 6.21033 1.99316 11.5003 1.99316C13.0988 1.99316 14.6063 2.37673 15.9326 3.0531ZM17.5992 4.07188L18.9542 5.3947L11.5003 12.6711L10.1452 11.3483L17.5992 4.07188Z" fill="#5C5C5C"/>
</svg>
