<svg width="23" height="23" viewBox="0 0 23 23" fill="none" xmlns="http://www.w3.org/2000/svg">
<path d="M15.3337 12.2839V4.79974H5.75033V12.2839C5.75033 12.7801 5.95226 13.256 6.3117 13.6069C6.67115 13.9578 7.15866 14.1549 7.66699 14.1549H13.417C13.9253 14.1549 14.4128 13.9578 14.7723 13.6069C15.1317 13.256 15.3337 12.7801 15.3337 12.2839ZM4.79199 2.92871H19.167C19.6753 2.92871 20.1628 3.12584 20.5223 3.47672C20.8817 3.82761 21.0837 4.30351 21.0837 4.79974V7.60629C21.0837 8.10252 20.8817 8.57842 20.5223 8.92931C20.1628 9.2802 19.6753 9.47732 19.167 9.47732H17.2503V12.2839C17.2503 13.2763 16.8465 14.2281 16.1276 14.9299C15.4087 15.6317 14.4337 16.0259 13.417 16.0259H7.66699C6.65033 16.0259 5.67531 15.6317 4.95642 14.9299C4.23753 14.2281 3.83366 13.2763 3.83366 12.2839V3.86423C3.83366 3.61611 3.93463 3.37816 4.11435 3.20272C4.29407 3.02727 4.53783 2.92871 4.79199 2.92871ZM17.2503 4.79974V7.60629H19.167V4.79974H17.2503ZM1.91699 17.897H19.167V19.768H1.91699V17.897Z" fill="#5C5C5C"/>
</svg>
