<svg width="23" height="23" viewBox="0 0 23 23" fill="none" xmlns="http://www.w3.org/2000/svg">
<path d="M15.3337 0.958252C15.8629 0.958252 16.292 1.38731 16.292 1.91659V2.87492H21.0837V8.62492H19.1491L21.7804 15.8544C21.9493 16.2866 22.042 16.757 22.042 17.249C22.042 19.3661 20.3257 21.0823 18.2087 21.0823C16.4228 21.0823 14.9222 19.8611 14.4963 18.2083H10.4212C9.99568 19.8616 8.49484 21.0833 6.70866 21.0833C4.84518 21.0833 3.29227 19.7536 2.94695 17.9913C2.33479 17.6712 1.91699 17.0302 1.91699 16.2916V6.70825C1.91699 6.17898 2.34605 5.74992 2.87533 5.74992H9.58366C10.1129 5.74992 10.542 6.17898 10.542 6.70825V11.4999C10.542 12.0292 10.9711 12.4583 11.5003 12.4583H13.417C13.9463 12.4583 14.3753 12.0292 14.3753 11.4999V2.87492H11.5003V0.958252H15.3337ZM6.70866 15.3333C5.65011 15.3333 4.79199 16.1914 4.79199 17.2499C4.79199 18.3085 5.65011 19.1666 6.70866 19.1666C7.7672 19.1666 8.62532 18.3085 8.62532 17.2499C8.62532 16.1914 7.7672 15.3333 6.70866 15.3333ZM18.2087 15.3323C17.1501 15.3323 16.292 16.1904 16.292 17.249C16.292 18.3075 17.1501 19.1656 18.2087 19.1656C19.2672 19.1656 20.1253 18.3075 20.1253 17.249C20.1253 17.0187 20.0847 16.7978 20.0102 16.5933L19.9945 16.5517C19.7157 15.8379 19.0212 15.3323 18.2087 15.3323ZM17.1094 8.62492H16.292V11.4999C16.292 13.0877 15.0048 14.3749 13.417 14.3749H11.5003C9.91251 14.3749 8.62532 13.0877 8.62532 11.4999H3.83366V14.7143C4.53606 13.9185 5.56374 13.4166 6.70866 13.4166C8.49484 13.4166 9.99568 14.6382 10.4212 16.2916H14.4958C14.9211 14.6378 16.4221 13.4156 18.2087 13.4156C18.4356 13.4156 18.6579 13.4354 18.8741 13.4732L17.1094 8.62492ZM8.62532 7.66659H3.83366V9.58325H8.62532V7.66659ZM19.167 4.79159H16.292V6.70825H19.167V4.79159Z" fill="#5C5C5C"/>
</svg>
