<svg width="23" height="24" viewBox="0 0 23 24" fill="none" xmlns="http://www.w3.org/2000/svg">
<path d="M5.97553 6.74524C4.7537 8.01339 4.00568 9.66351 3.85721 11.4182C3.70873 13.173 4.16886 14.9253 5.16024 16.3807C6.15162 17.8361 7.61382 18.9059 9.30106 19.4102C10.9883 19.9145 12.7977 19.8226 14.4252 19.1499C14.5354 18.4312 14.2939 17.7412 14.1952 17.4997C13.9747 16.963 13.2483 16.0459 12.036 14.7742C11.7121 14.4339 11.7332 14.1723 11.8492 13.397L11.8616 13.3098C11.9402 12.7789 12.0725 12.4646 13.8597 12.1809C14.7682 12.0372 15.0069 12.3994 15.3375 12.9025L15.4487 13.0674C15.763 13.5274 15.9959 13.6328 16.3476 13.7919C16.5057 13.8637 16.7022 13.9548 16.9657 14.1033C17.5905 14.4608 17.5905 14.8642 17.5905 15.7478V15.8484C17.5905 16.2232 17.5541 16.5528 17.4966 16.8394C18.232 15.9164 18.7445 14.8362 18.9941 13.6828C19.2437 12.5294 19.2238 11.334 18.9359 10.1895C18.6479 9.04509 18.0997 7.98255 17.334 7.08462C16.5682 6.1867 15.6056 5.47761 14.521 5.01257C13.991 5.37003 13.2637 5.87699 13.0097 6.22487C12.8803 6.40216 12.6963 7.3097 12.0993 7.38445C11.944 7.40362 11.7342 7.3902 11.5118 7.37582C10.9157 7.33749 10.1012 7.28478 9.84049 7.99299C9.6747 8.44149 9.64595 9.66049 10.1817 10.293C10.2679 10.3936 10.2842 10.5805 10.2257 10.7904C10.1491 11.0654 9.99478 11.2331 9.94591 11.2676C9.85391 11.2139 9.66991 11.0002 9.54437 10.8555C9.24441 10.5057 8.86874 10.0697 8.38383 9.93553C8.20749 9.88666 8.01391 9.84641 7.82512 9.80616C7.29899 9.69595 6.70387 9.57041 6.56491 9.27524C6.46333 9.05866 6.46428 8.76062 6.46428 8.44628C6.46428 8.04666 6.46428 7.59528 6.26878 7.15732C6.20082 7.00103 6.10093 6.86067 5.97553 6.74524ZM11.5003 21.6444C6.20745 21.6444 1.91699 17.354 1.91699 12.0611C1.91699 6.76824 6.20745 2.47778 11.5003 2.47778C16.7932 2.47778 21.0837 6.76824 21.0837 12.0611C21.0837 17.354 16.7932 21.6444 11.5003 21.6444Z" fill="#5C5C5C"/>
</svg>
