<svg width="23" height="23" viewBox="0 0 23 23" fill="none" xmlns="http://www.w3.org/2000/svg">
<path d="M12.4582 20.1251H17.2499V22.0417H5.7499V20.1251H10.5416V19.1188C9.02211 18.9662 7.56109 18.4528 6.2802 17.6214C4.99932 16.7899 3.93563 15.6644 3.17773 14.3386L4.84236 13.388C5.42769 14.4108 6.24092 15.2848 7.21889 15.9423C8.19685 16.5998 9.31321 17.023 10.4813 17.1791C11.6493 17.3351 12.8376 17.2198 13.9539 16.842C15.0701 16.4643 16.0843 15.8343 16.9176 15.0011C17.7508 14.1678 18.3808 13.1536 18.7585 12.0374C19.1363 10.9211 19.2516 9.73282 19.0956 8.56476C18.9395 7.39671 18.5163 6.28034 17.8588 5.30238C17.2014 4.32442 16.3273 3.51119 15.3045 2.92586L16.2552 1.26123C17.7224 2.09934 18.9418 3.31063 19.7898 4.77221C20.6377 6.2338 21.084 7.89366 21.0832 9.5834C21.0832 14.5524 17.3007 18.6387 12.4582 19.1188V20.1251ZM11.4999 16.2917C10.619 16.2917 9.74663 16.1182 8.93273 15.7811C8.11884 15.444 7.37932 14.9498 6.75639 14.3269C6.13347 13.704 5.63933 12.9645 5.30221 12.1506C4.96508 11.3367 4.79157 10.4643 4.79157 9.5834C4.79157 8.70245 4.96508 7.83012 5.30221 7.01623C5.63933 6.20234 6.13347 5.46282 6.75639 4.83989C7.37932 4.21696 8.11884 3.72283 8.93273 3.38571C9.74663 3.04858 10.619 2.87506 11.4999 2.87506C13.2791 2.87506 14.9854 3.58183 16.2434 4.83989C17.5015 6.09795 18.2082 7.80424 18.2082 9.5834C18.2082 11.3626 17.5015 13.0688 16.2434 14.3269C14.9854 15.585 13.2791 16.2917 11.4999 16.2917ZM11.4999 14.3751C12.7707 14.3751 13.9895 13.8702 14.8881 12.9716C15.7867 12.073 16.2916 10.8542 16.2916 9.5834C16.2916 8.31257 15.7867 7.09379 14.8881 6.19518C13.9895 5.29657 12.7707 4.79173 11.4999 4.79173C10.2291 4.79173 9.01029 5.29657 8.11168 6.19518C7.21307 7.09379 6.70823 8.31257 6.70823 9.5834C6.70823 10.8542 7.21307 12.073 8.11168 12.9716C9.01029 13.8702 10.2291 14.3751 11.4999 14.3751Z" fill="#5C5C5C"/>
</svg>
