<svg width="23" height="24" viewBox="0 0 23 24" fill="none" xmlns="http://www.w3.org/2000/svg">
<path d="M14.3747 3.36768C14.9037 3.36768 15.333 3.78679 15.333 4.30319V6.17422H19.1663C19.6953 6.17422 20.1247 6.59333 20.1247 7.10974V18.3359H22.0413V20.207H0.958008V18.3359H2.87467V7.10974C2.87467 6.59333 3.30401 6.17422 3.83301 6.17422H7.66634V4.30319C7.66634 3.78679 8.09567 3.36768 8.62467 3.36768H14.3747ZM7.66634 8.04526H4.79134V18.3359H7.66634V8.04526ZM13.4163 8.04526H9.58301V18.3359H13.4163V8.04526ZM18.208 8.04526H15.333V18.3359H18.208V8.04526ZM13.4163 5.23871H9.58301V6.17422H13.4163V5.23871Z" fill="#5C5C5C"/>
</svg>
