<svg width="23" height="24" viewBox="0 0 23 24" fill="none" xmlns="http://www.w3.org/2000/svg">
<path d="M13.6736 12.0458L12.8552 12.8842L19.6315 19.8259L18.2765 21.214L11.5001 14.2733L4.7237 21.214L3.36862 19.8259L12.3185 10.6577C11.755 9.22736 12.3377 7.16774 13.871 5.59504C15.7426 3.67875 18.3215 3.21244 19.6315 4.55443C20.9416 5.89643 20.4864 8.5382 18.6157 10.4545C17.0805 12.0272 15.0699 12.6241 13.6736 12.0458ZM4.04616 3.86037L10.4833 10.4545L7.77312 13.2317L4.0452 9.4129C3.32656 8.67651 2.92285 7.67789 2.92285 6.63663C2.92285 5.59538 3.32656 4.59675 4.0452 3.86037H4.04616ZM17.2597 9.06538C18.4652 7.83137 18.7135 6.38924 18.2765 5.94159C17.8395 5.49393 16.4317 5.74819 15.227 6.98219C14.0224 8.21718 13.7742 9.65931 14.2112 10.107C14.6472 10.5536 16.055 10.2994 17.2597 9.06538Z" fill="#5C5C5C"/>
</svg>
