<svg width="23" height="24" viewBox="0 0 23 24" fill="none" xmlns="http://www.w3.org/2000/svg">
<path d="M20.125 2.08545V21.7196H18.2083V14.8476H14.375V7.97569C14.375 6.4135 14.9808 4.9153 16.0591 3.81066C17.1375 2.70603 18.6 2.08545 20.125 2.08545ZM18.2083 4.56917C17.4129 5.03057 16.2917 6.17917 16.2917 7.97569V12.8842H18.2083V4.56917ZM8.625 13.7678V21.7196H6.70833V13.7678C5.62619 13.5411 4.65366 12.9386 3.95518 12.0621C3.2567 11.1856 2.87514 10.0889 2.875 8.9574V3.06716H4.79167V9.93911H6.70833V3.06716H8.625V9.93911H10.5417V3.06716H12.4583V8.9574C12.4582 10.0889 12.0766 11.1856 11.3782 12.0621C10.6797 12.9386 9.70714 13.5411 8.625 13.7678Z" fill="#5C5C5C"/>
</svg>
