<svg width="23" height="23" viewBox="0 0 23 23" fill="none" xmlns="http://www.w3.org/2000/svg">
<path d="M5.27051 20.1249C4.70418 20.1249 4.1434 20.0134 3.62019 19.7966C3.09697 19.5799 2.62156 19.2623 2.22111 18.8618C1.82066 18.4614 1.503 17.986 1.28628 17.4627C1.06955 16.9395 0.958008 16.3787 0.958008 15.8124C0.958008 15.2461 1.06955 14.6853 1.28628 14.1621C1.503 13.6389 1.82066 13.1635 2.22111 12.763C2.62156 12.3626 3.09697 12.0449 3.62019 11.8282C4.1434 11.6115 4.70418 11.4999 5.27051 11.4999C6.41425 11.4999 7.51115 11.9543 8.3199 12.763C9.12866 13.5718 9.58301 14.6687 9.58301 15.8124C9.58301 16.9562 9.12866 18.0531 8.3199 18.8618C7.51115 19.6706 6.41425 20.1249 5.27051 20.1249ZM5.27051 18.2083C5.90592 18.2083 6.51531 17.9558 6.96462 17.5065C7.41392 17.0572 7.66634 16.4478 7.66634 15.8124C7.66634 15.177 7.41392 14.5676 6.96462 14.1183C6.51531 13.669 5.90592 13.4166 5.27051 13.4166C4.63509 13.4166 4.0257 13.669 3.5764 14.1183C3.12709 14.5676 2.87467 15.177 2.87467 15.8124C2.87467 16.4478 3.12709 17.0572 3.5764 17.5065C4.0257 17.9558 4.63509 18.2083 5.27051 18.2083ZM17.7288 20.1249C17.1625 20.1249 16.6017 20.0134 16.0785 19.7966C15.5553 19.5799 15.0799 19.2623 14.6794 18.8618C14.279 18.4614 13.9613 17.986 13.7446 17.4627C13.5279 16.9395 13.4163 16.3787 13.4163 15.8124C13.4163 15.2461 13.5279 14.6853 13.7446 14.1621C13.9613 13.6389 14.279 13.1635 14.6794 12.763C15.0799 12.3626 15.5553 12.0449 16.0785 11.8282C16.6017 11.6115 17.1625 11.4999 17.7288 11.4999C18.8726 11.4999 19.9695 11.9543 20.7782 12.763C21.587 13.5718 22.0413 14.6687 22.0413 15.8124C22.0413 16.9562 21.587 18.0531 20.7782 18.8618C19.9695 19.6706 18.8726 20.1249 17.7288 20.1249ZM17.7288 18.2083C18.3643 18.2083 18.9736 17.9558 19.4229 17.5065C19.8723 17.0572 20.1247 16.4478 20.1247 15.8124C20.1247 15.177 19.8723 14.5676 19.4229 14.1183C18.9736 13.669 18.3643 13.4166 17.7288 13.4166C17.0934 13.4166 16.484 13.669 16.0347 14.1183C15.5854 14.5676 15.333 15.177 15.333 15.8124C15.333 16.4478 15.5854 17.0572 16.0347 17.5065C16.484 17.9558 17.0934 18.2083 17.7288 18.2083ZM10.5634 9.87554L12.458 11.4999V17.2499H10.5413V12.4583L7.93563 10.2867C7.70375 10.1273 7.5098 9.91888 7.36755 9.67614C7.22529 9.4334 7.13822 9.16232 7.11252 8.88214C7.08681 8.60197 7.12311 8.31957 7.21882 8.055C7.31454 7.79043 7.46733 7.55017 7.66634 7.35129L10.3765 4.64113C10.5545 4.46307 10.7658 4.32182 10.9984 4.22545C11.231 4.12908 11.4803 4.07947 11.7321 4.07947C11.9838 4.07947 12.2331 4.12908 12.4657 4.22545C12.6983 4.32182 12.9096 4.46307 13.0876 4.64113L14.4427 5.99621C15.4576 7.01475 16.7741 7.67855 18.1965 7.88892L18.1869 9.81996C16.257 9.59778 14.4594 8.72786 13.0876 7.35225L10.5634 9.87554ZM15.333 4.79159C14.8247 4.79159 14.3372 4.58965 13.9777 4.23021C13.6183 3.87076 13.4163 3.38325 13.4163 2.87492C13.4163 2.36659 13.6183 1.87908 13.9777 1.51963C14.3372 1.16019 14.8247 0.958252 15.333 0.958252C15.8413 0.958252 16.3288 1.16019 16.6883 1.51963C17.0477 1.87908 17.2497 2.36659 17.2497 2.87492C17.2497 3.38325 17.0477 3.87076 16.6883 4.23021C16.3288 4.58965 15.8413 4.79159 15.333 4.79159Z" fill="#5C5C5C"/>
</svg>
