<svg width="23" height="24" viewBox="0 0 23 24" fill="none" xmlns="http://www.w3.org/2000/svg">
<path d="M18.2083 19.6341H4.79167V20.6158C4.79167 20.8761 4.6907 21.1258 4.51098 21.31C4.33125 21.4941 4.0875 21.5975 3.83333 21.5975H2.875C2.62083 21.5975 2.37708 21.4941 2.19736 21.31C2.01763 21.1258 1.91667 20.8761 1.91667 20.6158V13.253L0.725458 12.9486C0.518222 12.8955 0.334275 12.7729 0.202836 12.6003C0.0713979 12.4278 5.61625e-06 12.2152 0 11.9964L0 11.2896C0 11.1594 0.0504835 11.0345 0.140345 10.9425C0.230206 10.8504 0.352084 10.7987 0.479167 10.7987H1.91667L4.29333 5.11659C4.44123 4.76317 4.68717 4.46202 5.00064 4.25051C5.31411 4.03899 5.6813 3.92642 6.05667 3.92676H16.9433C17.3184 3.9268 17.6852 4.03955 17.9982 4.25105C18.3113 4.46254 18.557 4.76348 18.7048 5.11659L21.0833 10.7987H22.5208C22.6479 10.7987 22.7698 10.8504 22.8597 10.9425C22.9495 11.0345 23 11.1594 23 11.2896V11.9964C23 12.2152 22.9286 12.4278 22.7972 12.6003C22.6657 12.7729 22.4818 12.8955 22.2745 12.9486L21.0833 13.253V20.6158C21.0833 20.8761 20.9824 21.1258 20.8026 21.31C20.6229 21.4941 20.3792 21.5975 20.125 21.5975H19.1667C18.9125 21.5975 18.6687 21.4941 18.489 21.31C18.3093 21.1258 18.2083 20.8761 18.2083 20.6158V19.6341ZM19.1667 17.6707V12.7621H3.83333V17.6707H19.1667ZM5.24879 10.7987H17.7512C17.9077 10.7986 18.0619 10.7592 18.2001 10.684C18.3383 10.6088 18.4565 10.5001 18.5442 10.3673C18.632 10.2345 18.6866 10.0817 18.7034 9.92231C18.7202 9.76289 18.6986 9.60169 18.6405 9.45279L17.25 5.89017H5.75L4.35946 9.45279C4.30139 9.60169 4.2798 9.76289 4.29659 9.92231C4.31338 10.0817 4.36804 10.2345 4.45578 10.3673C4.54352 10.5001 4.66167 10.6088 4.79991 10.684C4.93815 10.7592 5.09227 10.7986 5.24879 10.7987ZM4.79167 13.7438C7.01212 13.7438 8.50904 14.485 9.28242 15.9664C9.32151 16.0412 9.34101 16.1251 9.33901 16.2099C9.33701 16.2948 9.31359 16.3776 9.27101 16.4504C9.22844 16.5232 9.16818 16.5834 9.09611 16.6252C9.02404 16.667 8.94262 16.689 8.85979 16.689H5.75C5.49583 16.689 5.25208 16.5855 5.07236 16.4014C4.89263 16.2173 4.79167 15.9676 4.79167 15.7072V13.7438ZM18.2083 13.7438V15.7072C18.2083 15.9676 18.1074 16.2173 17.9276 16.4014C17.7479 16.5855 17.5042 16.689 17.25 16.689H14.1402C14.0575 16.6888 13.9762 16.6667 13.9042 16.6249C13.8323 16.583 13.7722 16.5227 13.7297 16.45C13.6872 16.3772 13.6639 16.2944 13.6619 16.2097C13.66 16.125 13.6795 16.0411 13.7185 15.9664C14.49 14.484 15.9869 13.7438 18.2083 13.7438Z" fill="#5C5C5C"/>
</svg>
