<svg width="23" height="24" viewBox="0 0 23 24" fill="none" xmlns="http://www.w3.org/2000/svg">
<path d="M3.83366 6.03064V18.6201L8.68762 16.4897L14.4376 19.4349L19.167 17.3566V4.76816L20.4157 4.22037C20.4886 4.18835 20.5682 4.17538 20.6472 4.18261C20.7262 4.18985 20.8022 4.21708 20.8684 4.26184C20.9346 4.30661 20.989 4.36751 21.0265 4.43909C21.0641 4.51067 21.0837 4.59069 21.0837 4.67195V18.6524L14.3753 21.5976L8.62533 18.6524L2.58495 21.304C2.51203 21.3361 2.4325 21.349 2.35348 21.3418C2.27446 21.3346 2.19843 21.3073 2.13222 21.2626C2.06601 21.2178 2.01168 21.1569 1.97412 21.0853C1.93655 21.0137 1.91692 20.9337 1.91699 20.8525V6.87196L3.83366 6.03064ZM15.5665 11.0373L11.5003 15.2017L7.43412 11.0373C6.63006 10.2135 6.08252 9.164 5.86074 8.02143C5.63895 6.87886 5.75288 5.69458 6.18811 4.61834C6.62334 3.54209 7.36034 2.62222 8.3059 1.97504C9.25146 1.32785 10.3631 0.982422 11.5003 0.982422C12.6375 0.982422 13.7492 1.32785 14.6948 1.97504C15.6403 2.62222 16.3773 3.54209 16.8125 4.61834C17.2478 5.69458 17.3617 6.87886 17.1399 8.02143C16.9181 9.164 16.3706 10.2135 15.5665 11.0373ZM11.5003 12.4255L14.2105 9.64823C14.7467 9.0991 15.1119 8.39941 15.2599 7.63764C15.4079 6.87588 15.3321 6.08627 15.042 5.36866C14.7519 4.65106 14.2605 4.0377 13.6301 3.60616C12.9997 3.17463 12.2585 2.94429 11.5003 2.94429C10.7421 2.94429 10.0009 3.17463 9.37052 3.60616C8.74011 4.0377 8.24878 4.65106 7.95868 5.36866C7.66857 6.08627 7.59273 6.87588 7.74073 7.63764C7.88874 8.39941 8.25394 9.0991 8.79016 9.64823L11.5003 12.4255Z" fill="#5C5C5C"/>
</svg>
