<svg width="23" height="24" viewBox="0 0 23 24" fill="none" xmlns="http://www.w3.org/2000/svg">
<g clip-path="url(#clip0_856_3352)">
<path d="M3.83301 14.6017V8.51737C3.83301 7.40022 4.28736 6.32883 5.09611 5.53888C5.90486 4.74894 7.00176 4.30516 8.14551 4.30516C9.28925 4.30516 10.3862 4.74894 11.1949 5.53888C12.0037 6.32883 12.458 7.40022 12.458 8.51737V15.0697C12.458 15.6903 12.7104 16.2855 13.1597 16.7244C13.609 17.1633 14.2184 17.4098 14.8538 17.4098C15.4893 17.4098 16.0986 17.1633 16.5479 16.7244C16.9973 16.2855 17.2497 15.6903 17.2497 15.0697V8.82626C16.61 8.60544 16.0708 8.17084 15.7275 7.59929C15.3842 7.02773 15.2587 6.35601 15.3734 5.70287C15.4881 5.04973 15.8355 4.45722 16.3542 4.03008C16.8729 3.60293 17.5296 3.36865 18.208 3.36865C18.8865 3.36865 19.5431 3.60293 20.0618 4.03008C20.5805 4.45722 20.9279 5.04973 21.0426 5.70287C21.1573 6.35601 21.0319 7.02773 20.6885 7.59929C20.3452 8.17084 19.806 8.60544 19.1663 8.82626V15.0697C19.1663 16.1868 18.712 17.2582 17.9032 18.0482C17.0945 18.8381 15.9976 19.2819 14.8538 19.2819C13.7101 19.2819 12.6132 18.8381 11.8044 18.0482C10.9957 17.2582 10.5413 16.1868 10.5413 15.0697V8.51737C10.5413 7.89673 10.2889 7.30151 9.83962 6.86265C9.39031 6.4238 8.78092 6.17725 8.14551 6.17725C7.51009 6.17725 6.9007 6.4238 6.4514 6.86265C6.00209 7.30151 5.74967 7.89673 5.74967 8.51737V14.6017H8.62467L4.79134 19.2819L0.958008 14.6017H3.83301ZM18.208 7.1133C18.4622 7.1133 18.7059 7.01468 18.8857 6.83913C19.0654 6.66359 19.1663 6.4255 19.1663 6.17725C19.1663 5.92899 19.0654 5.69091 18.8857 5.51536C18.7059 5.33982 18.4622 5.2412 18.208 5.2412C17.9538 5.2412 17.7101 5.33982 17.5304 5.51536C17.3506 5.69091 17.2497 5.92899 17.2497 6.17725C17.2497 6.4255 17.3506 6.66359 17.5304 6.83913C17.7101 7.01468 17.9538 7.1133 18.208 7.1133Z" fill="#5C5C5C"/>
</g>
<defs>
<clipPath id="clip0_856_3352">
<rect width="23" height="22.4651" fill="white" transform="translate(0 0.561035)"/>
</clipPath>
</defs>
</svg>
