<svg width="23" height="23" viewBox="0 0 23 23" fill="none" xmlns="http://www.w3.org/2000/svg">
<path d="M2.87467 16.8393H20.1247C20.2137 16.8393 20.3009 16.8635 20.3766 16.9092C20.4523 16.9549 20.5135 17.0202 20.5533 17.0979C20.5931 17.1756 20.6099 17.2626 20.6019 17.3491C20.5939 17.4356 20.5614 17.5183 20.508 17.5878L18.4955 20.2072C18.4062 20.3234 18.2905 20.4177 18.1574 20.4826C18.0244 20.5476 17.8776 20.5814 17.7288 20.5814H5.27051C5.12173 20.5814 4.975 20.5476 4.84193 20.4826C4.70886 20.4177 4.59311 20.3234 4.50384 20.2072L2.49134 17.5878C2.43795 17.5183 2.40544 17.4356 2.39744 17.3491C2.38945 17.2626 2.4063 17.1756 2.44609 17.0979C2.48589 17.0202 2.54707 16.9549 2.62276 16.9092C2.69846 16.8635 2.78569 16.8393 2.87467 16.8393ZM6.8623 13.0973H12.458V6.26989L6.8623 13.0973ZM14.3747 2.26868V14.0328C14.3747 14.2809 14.2737 14.5189 14.094 14.6943C13.9143 14.8697 13.6705 14.9683 13.4163 14.9683H3.87134C3.78118 14.9682 3.69288 14.9432 3.61659 14.8963C3.54031 14.8494 3.47913 14.7824 3.44009 14.7031C3.40106 14.6237 3.38574 14.5352 3.39592 14.4478C3.40609 14.3603 3.44133 14.2775 3.49759 14.2087L13.5218 1.9768C13.5838 1.9013 13.6683 1.84645 13.7637 1.81981C13.859 1.79318 13.9604 1.79607 14.054 1.8281C14.1476 1.86012 14.2287 1.9197 14.2861 1.99861C14.3436 2.07752 14.3745 2.17188 14.3747 2.26868Z" fill="#5C5C5C"/>
</svg>
