<svg width="23" height="23" viewBox="0 0 23 23" fill="none" xmlns="http://www.w3.org/2000/svg">
<path d="M3.83366 9.96659V3.83325C3.83366 3.57909 3.93463 3.33533 4.11435 3.15561C4.29407 2.97589 4.53783 2.87492 4.79199 2.87492H9.58366V0.958252H13.417V2.87492H18.2087C18.4628 2.87492 18.7066 2.97589 18.8863 3.15561C19.066 3.33533 19.167 3.57909 19.167 3.83325V9.96659L20.2077 10.279C20.4436 10.35 20.6431 10.509 20.7648 10.7232C20.8864 10.9373 20.921 11.1901 20.8613 11.429L19.4085 17.2442C18.7898 17.2761 18.1707 17.1876 17.5857 16.9835L18.7837 11.8545L11.5003 9.58325L4.21699 11.8545L5.41491 16.9825C4.83 17.187 4.21095 17.2758 3.59216 17.2442L2.13933 11.429C2.07962 11.1901 2.1142 10.9373 2.2359 10.7232C2.35759 10.509 2.55706 10.35 2.79291 10.279L3.83366 9.96659ZM5.75033 9.39159L11.5003 7.66659L17.2503 9.39159V4.79159H5.75033V9.39159ZM3.83366 19.1666C5.24841 19.1685 6.61386 18.6469 7.66699 17.7023C8.72013 18.6469 10.0856 19.1685 11.5003 19.1666C12.9151 19.1685 14.2805 18.6469 15.3337 17.7023C16.3868 18.6469 17.7522 19.1685 19.167 19.1666H21.0837V21.0833H19.167C17.8211 21.0855 16.4987 20.7317 15.3337 20.0578C14.1687 20.7317 12.8462 21.0855 11.5003 21.0833C10.1545 21.0855 8.83199 20.7317 7.66699 20.0578C6.50199 20.7317 5.1795 21.0855 3.83366 21.0833H1.91699V19.1666H3.83366Z" fill="#5C5C5C"/>
</svg>
