<svg width="23" height="24" viewBox="0 0 23 24" fill="none" xmlns="http://www.w3.org/2000/svg">
<path d="M20.8919 13.5398C20.495 15.4782 19.5084 17.2464 18.0672 18.6021C16.6261 19.9578 14.8009 20.8347 12.8419 21.1125V19.1719C14.2888 18.9139 15.6312 18.2459 16.7096 17.2473C17.788 16.2488 18.5571 14.9616 18.9254 13.5388L20.8919 13.5398ZM4.07508 13.5398C4.43945 14.9461 5.19543 16.2202 6.25518 17.214C7.31493 18.2077 8.63493 18.8804 10.0618 19.1537V21.0991C8.12204 20.8036 6.31957 19.9203 4.89744 18.5684C3.47532 17.2166 2.50194 15.4611 2.10858 13.5388H4.07508V13.5398ZM17.2502 10.6638V12.5805H14.3752C13.8917 12.5803 13.426 12.763 13.0714 13.0918C12.7168 13.4205 12.4996 13.8712 12.4634 14.3534L12.4586 14.4972V17.3722H10.5419V14.4972C10.5421 14.0136 10.3594 13.5479 10.0306 13.1933C9.70185 12.8387 9.25118 12.6215 8.76899 12.5853L8.62524 12.5805H5.75024V10.6638H17.2502ZM11.5002 2.03882C16.4692 2.03882 20.5555 5.82136 21.0357 10.6638H19.1075C18.8736 8.81126 17.9718 7.10771 16.5712 5.8728C15.1706 4.63789 13.3675 3.95652 11.5002 3.95652C9.63298 3.95652 7.82989 4.63789 6.42929 5.8728C5.02869 7.10771 4.12686 8.81126 3.89299 10.6638H1.96387C2.44495 5.82136 6.53128 2.03882 11.5002 2.03882Z" fill="#5C5C5C"/>
</svg>
