<svg width="23" height="24" viewBox="0 0 23 24" fill="none" xmlns="http://www.w3.org/2000/svg">
<path d="M11.5003 2.03882C16.7932 2.03882 21.0837 6.32928 21.0837 11.6222C21.0837 16.915 16.7932 21.2055 11.5003 21.2055C6.20745 21.2055 1.91699 16.915 1.91699 11.6222C1.91699 6.32928 6.20745 2.03882 11.5003 2.03882ZM7.66699 12.5805L3.89308 12.5814C4.10658 14.2702 4.87578 15.84 6.07953 17.0436C7.28327 18.2472 8.85317 19.0161 10.542 19.2294V15.4555C9.77949 15.4555 9.04823 15.1526 8.50906 14.6134C7.96989 14.0743 7.66699 13.343 7.66699 12.5805ZM19.1076 12.5814L15.3337 12.5805C15.3337 13.343 15.0308 14.0743 14.4916 14.6134C13.9524 15.1526 13.2212 15.4555 12.4587 15.4555L12.4596 19.2294C14.1483 19.0159 15.7179 18.2469 16.9215 17.0433C18.1251 15.8398 18.8941 14.2701 19.1076 12.5814ZM13.417 11.6222H9.58366V12.5805C9.58366 12.8347 9.68463 13.0784 9.86435 13.2581C10.0441 13.4379 10.2878 13.5388 10.542 13.5388H12.4587C12.7128 13.5388 12.9566 13.4379 13.1363 13.2581C13.316 13.0784 13.417 12.8347 13.417 12.5805V11.6222ZM11.5003 3.95548C9.63291 3.95552 7.82969 4.63704 6.42907 5.87215C5.02845 7.10727 4.12671 8.81107 3.89308 10.6638H7.66699C7.66699 10.4097 7.76796 10.1659 7.94768 9.98617C8.1274 9.80645 8.37116 9.70548 8.62533 9.70548H14.3753C14.6295 9.70548 14.8732 9.80645 15.053 9.98617C15.2327 10.1659 15.3337 10.4097 15.3337 10.6638H19.1076C18.8739 8.81107 17.9722 7.10727 16.5716 5.87215C15.171 4.63704 13.3677 3.95552 11.5003 3.95548Z" fill="#5C5C5C"/>
</svg>
