<svg width="23" height="23" viewBox="0 0 23 23" fill="none" xmlns="http://www.w3.org/2000/svg">
<path d="M16.4833 19.1667L18.2083 20.6042V21.0833H4.79167V20.6042L6.51667 19.1667H4.79167C4.28333 19.1667 3.79582 18.9647 3.43638 18.6053C3.07693 18.2458 2.875 17.7583 2.875 17.25V6.70833C2.875 5.69167 3.27887 4.71665 3.99776 3.99776C4.71665 3.27887 5.69167 2.875 6.70833 2.875H16.2917C17.3083 2.875 18.2834 3.27887 19.0022 3.99776C19.7211 4.71665 20.125 5.69167 20.125 6.70833V17.25C20.125 17.7583 19.9231 18.2458 19.5636 18.6053C19.2042 18.9647 18.7167 19.1667 18.2083 19.1667H16.4833ZM12.4583 4.79167V10.5417H18.2083V6.70833C18.2083 6.2 18.0064 5.71249 17.647 5.35305C17.2875 4.9936 16.8 4.79167 16.2917 4.79167H12.4583ZM10.5417 4.79167H6.70833C6.2 4.79167 5.71249 4.9936 5.35305 5.35305C4.9936 5.71249 4.79167 6.2 4.79167 6.70833V10.5417H10.5417V4.79167ZM18.2083 12.4583H4.79167V17.25H18.2083V12.4583ZM7.1875 16.2917C6.80625 16.2917 6.44062 16.1402 6.17103 15.8706C5.90145 15.6011 5.75 15.2354 5.75 14.8542C5.75 14.4729 5.90145 14.1073 6.17103 13.8377C6.44062 13.5681 6.80625 13.4167 7.1875 13.4167C7.56875 13.4167 7.93438 13.5681 8.20397 13.8377C8.47355 14.1073 8.625 14.4729 8.625 14.8542C8.625 15.2354 8.47355 15.6011 8.20397 15.8706C7.93438 16.1402 7.56875 16.2917 7.1875 16.2917ZM15.8125 16.2917C15.4313 16.2917 15.0656 16.1402 14.796 15.8706C14.5265 15.6011 14.375 15.2354 14.375 14.8542C14.375 14.4729 14.5265 14.1073 14.796 13.8377C15.0656 13.5681 15.4313 13.4167 15.8125 13.4167C16.1937 13.4167 16.5594 13.5681 16.829 13.8377C17.0985 14.1073 17.25 14.4729 17.25 14.8542C17.25 15.2354 17.0985 15.6011 16.829 15.8706C16.5594 16.1402 16.1937 16.2917 15.8125 16.2917Z" fill="#5C5C5C"/>
</svg>
