<svg width="23" height="24" viewBox="0 0 23 24" fill="none" xmlns="http://www.w3.org/2000/svg">
<path d="M14.375 1.49658C14.904 1.49658 15.3333 1.91569 15.3333 2.4321V7.10968H16.2917V6.17416H18.2083V7.10968H19.1667C19.6957 7.10968 20.125 7.52879 20.125 8.04519V19.2714C20.125 19.7878 19.6957 20.2069 19.1667 20.2069H18.2083V21.1424H16.2917V20.2069H6.70833V21.1424H4.79167V20.2069H3.83333C3.30433 20.2069 2.875 19.7878 2.875 19.2714V8.04519C2.875 7.52879 3.30433 7.10968 3.83333 7.10968H4.79167V6.17416H6.70833V7.10968H7.66667V2.4321C7.66667 1.91569 8.096 1.49658 8.625 1.49658H14.375ZM18.2083 8.98071H4.79167V18.3359H18.2083V8.98071ZM8.625 9.91623V17.4004H6.70833V9.91623H8.625ZM12.4583 9.91623V17.4004H10.5417V9.91623H12.4583ZM16.2917 9.91623V17.4004H14.375V9.91623H16.2917ZM13.4167 3.36761H9.58333V7.10968H13.4167V3.36761Z" fill="#5C5C5C"/>
</svg>
