<svg width="23" height="23" viewBox="0 0 23 23" fill="none" xmlns="http://www.w3.org/2000/svg">
<path d="M7.29961 8.15026L10.3711 5.97238C10.7159 5.72606 11.1352 5.59959 11.5623 5.61314C12.0831 5.62582 12.587 5.7966 13.0038 6.10175C13.4207 6.40689 13.7298 6.83123 13.8882 7.31578C14.0664 7.86119 14.2293 8.22978 14.3769 8.42156C14.8228 9.00233 15.4013 9.47365 16.0663 9.79811C16.7314 10.1226 17.4648 10.2912 18.2083 10.2907V12.1618C17.2186 12.1628 16.241 11.9497 15.3459 11.5376C14.4507 11.1256 13.6603 10.525 13.0314 9.77899L12.3634 13.479L14.3386 15.0974L16.4689 20.8115L14.6673 21.4514L12.7123 16.2088L9.46352 13.5473C9.19692 13.3371 8.9929 13.061 8.87273 12.7477C8.75255 12.4344 8.72061 12.0954 8.78023 11.766L9.26802 9.06707L8.61923 9.52734L6.58086 12.2665L5.03027 11.1664L7.28332 8.13903L7.29961 8.15026ZM12.9375 5.14538C12.4292 5.14538 11.9416 4.94826 11.5822 4.59737C11.2228 4.24648 11.0208 3.77058 11.0208 3.27435C11.0208 2.77812 11.2228 2.30222 11.5822 1.95133C11.9416 1.60045 12.4292 1.40332 12.9375 1.40332C13.4458 1.40332 13.9333 1.60045 14.2928 1.95133C14.6522 2.30222 14.8541 2.77812 14.8541 3.27435C14.8541 3.77058 14.6522 4.24648 14.2928 4.59737C13.9333 4.94826 13.4458 5.14538 12.9375 5.14538ZM10.0893 17.4764L7.00923 21.0594L5.54107 19.8573L8.39307 16.54L9.10798 14.5005L10.8244 15.9038L10.0893 17.4764Z" fill="#5C5C5C"/>
</svg>
