<svg width="23" height="24" viewBox="0 0 23 24" fill="none" xmlns="http://www.w3.org/2000/svg">
<path d="M15.3331 2.43213V4.30316H14.3748V7.33704C14.3748 8.42037 14.6153 9.48966 15.0801 10.4729L19.1837 19.1507C19.5162 19.8552 19.2009 20.6887 18.4803 21.0124C18.2915 21.0985 18.0864 21.1424 17.8784 21.1424H5.12109C4.32759 21.1424 3.68359 20.5138 3.68359 19.7392C3.68359 19.5362 3.72864 19.335 3.81584 19.1507L7.91943 10.4729C8.38422 9.4906 8.62476 8.42037 8.62476 7.33704V4.30316H7.66643V2.43213H15.3331ZM12.8299 9.91719H10.1696C10.0699 10.2568 9.94918 10.5917 9.81118 10.9191L9.65976 11.2568L5.86955 19.2714H17.129L13.3398 11.2568C13.1347 10.8228 12.9641 10.3747 12.8299 9.91719ZM10.5414 7.33704C10.5414 7.57372 10.5318 7.81041 10.5136 8.04616H12.4859C12.4763 7.93296 12.4706 7.81976 12.4658 7.70563L12.4581 7.33704V4.30316H10.5414V7.33704Z" fill="#5C5C5C"/>
</svg>
