<svg width="23" height="24" viewBox="0 0 23 24" fill="none" xmlns="http://www.w3.org/2000/svg">
<path d="M10.5417 2.36914C14.4402 2.36914 17.6583 5.27864 18.1451 9.04393L20.3013 12.4355C20.4432 12.6588 20.4144 12.9913 20.0857 13.1331L18.2083 13.9362V16.7441C18.2083 17.8031 17.3506 18.6608 16.2917 18.6608H14.376L14.375 21.5358H5.75V17.9957C5.75 16.8649 5.33217 15.7944 4.55783 14.8284C3.50463 13.5155 2.875 11.849 2.875 10.0358C2.875 5.80189 6.30775 2.36914 10.5417 2.36914ZM10.5417 4.28581C7.36575 4.28581 4.79167 6.85989 4.79167 10.0358C4.79167 11.3631 5.24017 12.6166 6.05283 13.6296C7.10125 14.9367 7.66667 16.425 7.66667 17.9957V19.6191H12.4583L12.4602 16.7441H16.2917V12.6731L17.7771 12.0368L16.2984 9.71285L16.2438 9.28927C15.8758 6.44302 13.4397 4.28581 10.5417 4.28581ZM10.0338 7.89202L10.5417 8.39993L11.0496 7.89202C11.7051 7.23652 12.7669 7.23652 13.4215 7.89202C14.077 8.54656 14.077 9.60839 13.4215 10.2629L10.5417 13.1437L7.66188 10.2629C7.00637 9.60839 7.00637 8.54656 7.66188 7.89202C8.31642 7.23652 9.37825 7.23652 10.0338 7.89202Z" fill="#5C5C5C"/>
</svg>
