<svg width="23" height="23" viewBox="0 0 23 23" fill="none" xmlns="http://www.w3.org/2000/svg">
<path d="M18.9542 4.04609C21.1995 6.29147 21.1995 9.93218 18.9542 12.1776L12.1788 18.9539C9.93242 21.1993 6.29171 21.1993 4.04634 18.9539C1.80096 16.7086 1.80096 13.0678 4.04634 10.8225L10.8218 4.04609C13.0681 1.80072 16.7088 1.80072 18.9542 4.04609ZM13.5338 14.8877L8.11255 9.46643L5.40142 12.1785C3.9045 13.6745 3.9045 16.1019 5.40142 17.5988C6.89834 19.0958 9.3258 19.0958 10.8227 17.5988L13.5338 14.8868V14.8877ZM17.5991 5.40118C16.1022 3.90426 13.6747 3.90426 12.1778 5.40118L9.46859 8.11134L14.8899 13.5326L17.6 10.8225C19.097 9.32555 19.097 6.89809 17.6 5.40118H17.5991Z" fill="#5C5C5C"/>
</svg>
