<svg width="23" height="23" viewBox="0 0 23 23" fill="none" xmlns="http://www.w3.org/2000/svg">
<path d="M15.8122 2.80664C18.7236 2.80664 21.083 5.14543 21.083 8.41974C21.083 14.9683 13.8955 18.7104 11.4997 20.1137C9.60505 19.0042 4.7118 16.4306 2.74913 12.1627L0.958008 12.1618V10.2908H2.11759C1.98726 9.69578 1.91634 9.07273 1.91634 8.41974C1.91634 5.14543 4.31217 2.80664 7.18717 2.80664C8.96967 2.80664 10.5413 3.74216 11.4997 4.67767C12.458 3.74216 14.0297 2.80664 15.8122 2.80664ZM15.8122 4.67767C14.781 4.67767 13.6655 5.21092 12.8548 6.00049L11.4997 7.32331L10.1446 6.00049C9.33384 5.21092 8.21834 4.67767 7.18717 4.67767C5.32801 4.67767 3.83301 6.22689 3.83301 8.41974C3.83301 9.06056 3.91926 9.68455 4.08888 10.2908H6.16559L8.14551 7.06885L11.0205 11.7464L11.9156 10.2908H16.2913V12.1618H13.0004L11.0205 15.3837L8.14551 10.7061L7.25042 12.1618H4.89484C5.65192 13.4472 6.79713 14.6578 8.28447 15.8131C8.99842 16.3669 9.7603 16.8843 10.6046 17.4035C10.8911 17.5803 11.1748 17.7496 11.4997 17.9386C11.8245 17.7496 12.1082 17.5803 12.3948 17.4044C13.239 16.8843 14.0009 16.3669 14.7139 15.8131C17.5707 13.5959 19.1663 11.173 19.1663 8.41974C19.1663 6.21192 17.6934 4.67767 15.8122 4.67767Z" fill="#5C5C5C"/>
</svg>
