<svg width="23" height="24" viewBox="0 0 23 24" fill="none" xmlns="http://www.w3.org/2000/svg">
<path d="M21.0846 16.8528C21.0837 20.6861 21.0837 20.6861 17.2513 20.6861C13.4179 20.6861 12.4596 17.8111 12.4596 14.9361C12.4596 14.5739 12.4424 14.0564 12.4347 13.4507L14.3734 14.571L14.3753 14.9361C14.3753 17.5964 15.1573 18.7694 17.2503 18.7694C18.3428 18.7694 18.7932 18.7627 19.1315 18.733C19.1603 18.3967 19.167 17.9453 19.167 16.8528C19.167 13.7813 18.4933 11.0712 17.4085 9.28195C16.6054 7.95753 15.8627 7.51574 15.4611 7.64991C15.1803 7.74382 14.8813 8.27282 14.6647 9.20528L12.9493 8.21532C13.3029 7.0682 13.8904 6.15395 14.8545 5.83195C17.7295 4.87362 21.0865 9.66528 21.0837 16.8528H21.0846ZM8.14616 5.83195C9.1112 6.15395 9.69866 7.0682 10.0523 8.21532L8.33687 9.20528C8.12028 8.27282 7.82033 7.74382 7.54049 7.64991C7.13799 7.51574 6.39528 7.95657 5.59316 9.28099C4.50737 11.0712 3.83366 13.7813 3.83366 16.8528C3.83366 17.9453 3.84037 18.3957 3.87008 18.733C4.20645 18.7627 4.65783 18.7694 5.75033 18.7694C7.84333 18.7694 8.62533 17.5964 8.62533 14.9361L8.62916 14.57L10.5679 13.4507C10.5583 14.0573 10.542 14.5739 10.542 14.9361C10.542 17.8111 9.58366 20.6861 5.75033 20.6861C1.91699 20.6861 1.91699 20.6861 1.91699 16.8528C1.91699 9.66528 5.27116 4.87362 8.14616 5.83195ZM12.4587 2.47778V9.59053L16.959 12.1895L16.0007 13.8494L11.5003 11.2513L6.99999 13.8494L6.04166 12.1895L10.542 9.59053V2.47778H12.4587Z" fill="#5C5C5C"/>
</svg>
