<svg width="23" height="24" viewBox="0 0 23 24" fill="none" xmlns="http://www.w3.org/2000/svg">
<path d="M18.208 2.47778V4.39445H16.2913V7.26945C17.8793 7.26945 19.1663 8.55649 19.1663 10.1444V20.6861C19.1663 21.2151 18.737 21.6444 18.208 21.6444H4.79134C4.26234 21.6444 3.83301 21.2151 3.83301 20.6861V10.1444C3.83301 8.55649 5.12005 7.26945 6.70801 7.26945V4.39445H4.79134V2.47778H18.208ZM16.2913 9.18612H6.70801C6.17901 9.18612 5.74967 9.61545 5.74967 10.1444V19.7278H17.2497V10.1444C17.2497 9.61545 16.8203 9.18612 16.2913 9.18612ZM12.458 11.1028V13.0194H14.3747V14.9361H12.457L12.458 16.8528H10.5413L10.5404 14.9361H8.62467V13.0194H10.5413V11.1028H12.458ZM14.3747 4.39445H8.62467V7.26945H14.3747V4.39445Z" fill="#5C5C5C"/>
</svg>
