<svg width="23" height="23" viewBox="0 0 23 23" fill="none" xmlns="http://www.w3.org/2000/svg">
<path d="M12.6462 2.12179L15.7607 7.38875C16.0252 7.83499 15.8681 8.40753 15.41 8.66573L14.1642 9.36736L15.1235 10.9877L13.4636 11.9232L12.5053 10.3019L11.2604 11.0045C10.8023 11.2627 10.2158 11.1093 9.95133 10.6621L8.18992 7.68531C6.22342 8.2672 4.79167 10.0522 4.79167 12.1618C4.79167 12.7464 4.90187 13.3068 5.10217 13.8232C5.84583 13.363 6.72367 13.0973 7.66667 13.0973C9.2805 13.0973 10.7084 13.8766 11.5767 15.0703L18.9443 10.9175L19.9027 12.5378L12.3529 16.7935C12.4219 17.1097 12.4583 17.439 12.4583 17.7748C12.4583 18.0957 12.4257 18.4082 12.3625 18.7104H20.125V20.5814L3.83333 20.5823C3.2315 19.8002 2.875 18.8282 2.875 17.7748C2.875 16.8328 3.16058 15.9553 3.65125 15.2209C3.15579 14.3088 2.875 13.2675 2.875 12.1618C2.875 9.35988 4.67763 6.9687 7.21338 6.03412L6.83675 5.3961C6.30775 4.50081 6.62112 3.35668 7.53825 2.84027L10.028 1.437C10.9451 0.920592 12.1172 1.22651 12.6462 2.12179ZM7.66667 14.9683C6.07871 14.9683 4.79167 16.2247 4.79167 17.7748C4.79167 18.1023 4.84917 18.4175 4.95458 18.7104H10.3787C10.4842 18.4175 10.5417 18.1023 10.5417 17.7748C10.5417 16.2247 9.25462 14.9683 7.66667 14.9683ZM10.9863 3.05731L8.49658 4.46058L11.132 8.91645L13.6217 7.51317L10.9863 3.05731Z" fill="#5C5C5C"/>
</svg>
