<svg width="23" height="23" viewBox="0 0 23 23" fill="none" xmlns="http://www.w3.org/2000/svg">
<path d="M10.5417 1.91675C14.4402 1.91675 17.6583 4.82625 18.1451 8.59154L20.3013 11.9831C20.4432 12.2064 20.4144 12.5389 20.0857 12.6807L18.2083 13.4838V16.2917C18.2083 17.3507 17.3506 18.2084 16.2917 18.2084H14.376L14.375 21.0834H5.75V17.5433C5.75 16.4125 5.33217 15.342 4.55783 14.376C3.50463 13.0631 2.875 11.3966 2.875 9.58342C2.875 5.3495 6.30775 1.91675 10.5417 1.91675ZM10.5417 3.83341C7.36575 3.83341 4.79167 6.4075 4.79167 9.58342C4.79167 10.9107 5.24017 12.1642 6.05283 13.1772C7.10125 14.4843 7.66667 15.9726 7.66667 17.5433V19.1667H12.4583L12.4602 16.2917H16.2917V12.2207L17.7771 11.5844L16.2984 9.26046L16.2438 8.83687C15.8758 5.99062 13.4397 3.83341 10.5417 3.83341ZM10.5417 6.70842C11.0707 6.70842 11.5 7.13775 11.5 7.66675V8.62508H12.4583C12.9873 8.62508 13.4167 9.05442 13.4167 9.58342C13.4167 10.1124 12.9873 10.5417 12.4583 10.5417H11.5V11.5001C11.5 12.0291 11.0707 12.4584 10.5417 12.4584C10.0127 12.4584 9.58333 12.0291 9.58333 11.5001V10.5408L8.625 10.5417C8.096 10.5417 7.66667 10.1124 7.66667 9.58342C7.66667 9.05442 8.096 8.62508 8.625 8.62508L9.58333 8.62412V7.66675C9.58333 7.13775 10.0127 6.70842 10.5417 6.70842Z" fill="#5C5C5C"/>
</svg>
