<svg width="23" height="24" viewBox="0 0 23 24" fill="none" xmlns="http://www.w3.org/2000/svg">
<path d="M7.66634 2.94507V4.90848H5.74967V8.83531C5.74967 11.0049 7.46509 12.7621 9.58301 12.7621C11.7009 12.7621 13.4163 11.0049 13.4163 8.83531V4.90848H11.4997V2.94507H14.3747C14.9037 2.94507 15.333 3.38487 15.333 3.92678V8.83531C15.333 11.7539 13.2611 14.1758 10.5413 14.6441V16.1981C10.5413 18.0958 12.0431 19.6341 13.8955 19.6341C15.3301 19.6341 16.5549 18.7113 17.0341 17.4125C16.0307 16.954 15.333 15.9232 15.333 14.7256C15.333 13.0989 16.6201 11.7804 18.208 11.7804C19.796 11.7804 21.083 13.0989 21.083 14.7256C21.083 16.0715 20.2013 17.2063 18.9977 17.5578C18.4093 19.8815 16.3479 21.5975 13.8955 21.5975C10.9841 21.5975 8.62467 19.1805 8.62467 16.1981V14.6441C5.90492 14.1768 3.83301 11.7539 3.83301 8.83531V3.92678C3.83301 3.38487 4.26234 2.94507 4.79134 2.94507H7.66634ZM18.208 13.7438C17.679 13.7438 17.2497 14.1837 17.2497 14.7256C17.2497 15.2675 17.679 15.7073 18.208 15.7073C18.737 15.7073 19.1663 15.2675 19.1663 14.7256C19.1663 14.1837 18.737 13.7438 18.208 13.7438Z" fill="#5C5C5C"/>
</svg>
