<svg width="23" height="24" viewBox="0 0 23 24" fill="none" xmlns="http://www.w3.org/2000/svg">
<path d="M20.7748 7.83404L19.4188 9.22119L17.3871 7.13997L15.3535 9.22119L18.7412 12.6925L17.3862 14.0806L16.7086 13.3866L10.6098 19.6342H5.18849L3.15586 21.7164L1.80078 20.3282L3.83341 18.246V12.6925L9.93224 6.44493L9.2547 5.75086L10.6098 4.36272L13.9984 7.83306L16.0301 5.75086L13.9984 3.66866L15.3535 2.27954L20.7748 7.83306V7.83404ZM15.3535 11.9984L11.2873 7.83306L9.93224 9.22119L11.9649 11.3044L10.6098 12.6925L8.57716 10.6103L7.22207 11.9984L9.25374 14.0806L7.89961 15.4688L5.86603 13.3866L5.75007 13.5054V17.6707H9.81628L15.3535 11.9984Z" fill="#5C5C5C"/>
</svg>
