<svg width="23" height="23" viewBox="0 0 23 23" fill="none" xmlns="http://www.w3.org/2000/svg">
<path d="M13.1458 1.86597L16.7242 3.24022L16.0371 5.02943L15.142 4.68538L14.4271 6.54934C15.1736 6.99209 15.8109 7.59776 16.291 8.31843L18.1148 7.50672L17.7247 6.6308L19.4756 5.85168L21.0348 9.35343L19.2839 10.1326L18.8939 9.25759L17.0711 10.0693C17.188 10.5264 17.2503 11.0066 17.2503 11.5001C17.2503 11.8892 17.212 12.2696 17.1382 12.6376L19.0012 13.3526L19.3443 12.4584L21.1345 13.1456L19.7602 16.724L17.971 16.0368L18.3141 15.1427L16.4511 14.4268C16.0083 15.1734 15.4027 15.8107 14.682 16.2908L15.4937 18.1145L16.3696 17.7245L17.1488 19.4753L13.647 21.0346L12.8679 19.2837L13.7428 18.8936L12.9311 17.0709C12.474 17.1878 11.9939 17.2501 11.5003 17.2501C11.1103 17.2501 10.7298 17.2118 10.3618 17.137L9.64692 19.001L10.542 19.3441L9.85488 21.1342L6.27646 19.76L6.96359 17.9708L7.85675 18.3138L8.57359 16.4508C7.82704 16.0081 7.18975 15.4024 6.70867 14.6818L4.88496 15.4935L5.275 16.3694L3.52413 17.1485L1.96492 13.6468L3.71579 12.8676L4.10488 13.7436L5.92859 12.9309C5.81263 12.4738 5.75034 11.9936 5.75034 11.5001C5.75034 11.111 5.78867 10.7306 5.86246 10.3626L3.9985 9.64763L3.65638 10.5418L1.86621 9.85463L3.24046 6.27718L5.02967 6.9643L4.68563 7.85843L6.54959 8.5743C6.99234 7.8268 7.598 7.18951 8.31867 6.70843L7.50696 4.88472L6.63104 5.27476L5.85192 3.52388L9.35367 1.96563L10.1328 3.71651L9.25784 4.10655L10.0695 5.9293C10.5267 5.81238 11.0068 5.75009 11.5003 5.75009C11.8894 5.75009 12.2699 5.78843 12.6379 5.86222L13.3518 3.99826L12.4587 3.65613L13.1458 1.86597ZM11.5003 7.66676C9.38242 7.66676 7.667 9.38218 7.667 11.5001C7.667 13.618 9.38242 15.3334 11.5003 15.3334C13.6183 15.3334 15.3337 13.618 15.3337 11.5001C15.3337 9.38218 13.6183 7.66676 11.5003 7.66676ZM11.0212 12.33C11.4793 12.5945 11.6364 13.181 11.3719 13.6391C11.1074 14.0972 10.5209 14.2543 10.0628 13.9898C9.60475 13.7253 9.44759 13.1388 9.71209 12.6808C9.97659 12.2227 10.5631 12.0655 11.0212 12.33ZM13.417 10.5418C13.946 10.5418 14.3753 10.9711 14.3753 11.5001C14.3753 12.0291 13.946 12.4584 13.417 12.4584C12.888 12.4584 12.4587 12.0291 12.4587 11.5001C12.4587 10.9711 12.888 10.5418 13.417 10.5418ZM11.3719 9.36109C11.6364 9.81918 11.4793 10.4057 11.0212 10.6702C10.5631 10.9347 9.97659 10.7775 9.71209 10.3194C9.44759 9.86134 9.60475 9.27484 10.0628 9.01034C10.5209 8.74584 11.1074 8.90301 11.3719 9.36109Z" fill="#5C5C5C"/>
</svg>
