<svg width="23" height="24" viewBox="0 0 23 24" fill="none" xmlns="http://www.w3.org/2000/svg">
<path d="M14.375 4.40706H4.79167V19.7404H18.2083V8.2404H14.375V4.40706ZM2.875 3.44106C2.875 2.9159 3.30338 2.4904 3.83238 2.4904H15.3333L20.125 7.28206V20.692C20.1259 20.8179 20.102 20.9427 20.0546 21.0593C20.0073 21.1759 19.9374 21.282 19.8491 21.3716C19.7607 21.4613 19.6555 21.5326 19.5396 21.5816C19.4237 21.6305 19.2992 21.6562 19.1734 21.6571H3.82663C3.57495 21.6553 3.33406 21.5546 3.156 21.3767C2.97794 21.1989 2.87701 20.9581 2.875 20.7064V3.44106ZM10.5417 11.1154H12.4583V16.8654H10.5417V11.1154ZM10.5417 7.28206H12.4583V9.19873H10.5417V7.28206Z" fill="#5C5C5C"/>
</svg>
