<svg width="23" height="23" viewBox="0 0 23 23" fill="none" xmlns="http://www.w3.org/2000/svg">
<path d="M20.125 20.137H2.875C2.62083 20.137 2.37708 20.0385 2.19736 19.863C2.01763 19.6876 1.91667 19.4496 1.91667 19.2015V12.173C1.91665 12.0393 1.94598 11.9072 2.00268 11.7855C2.05939 11.6638 2.14214 11.5554 2.24537 11.4676L5.75 8.48426V4.23327C5.75 3.98516 5.85097 3.74721 6.03069 3.57176C6.21041 3.39632 6.45417 3.29776 6.70833 3.29776H20.125C20.3792 3.29776 20.6229 3.39632 20.8026 3.57176C20.9824 3.74721 21.0833 3.98516 21.0833 4.23327V19.2015C21.0833 19.4496 20.9824 19.6876 20.8026 19.863C20.6229 20.0385 20.3792 20.137 20.125 20.137ZM8.625 18.266H11.5V12.5987L7.66667 9.33558L3.83333 12.5987V18.266H6.70833V14.5239H8.625V18.266ZM13.4167 18.266H19.1667V5.16879H7.66667V7.15863C7.89092 7.15863 8.11613 7.23534 8.29629 7.3897L13.088 11.4676C13.1912 11.5554 13.2739 11.6638 13.3306 11.7855C13.3874 11.9072 13.4167 12.0393 13.4167 12.173V18.266ZM15.3333 10.7819H17.25V12.6529H15.3333V10.7819ZM15.3333 14.5239H17.25V16.395H15.3333V14.5239ZM15.3333 7.03982H17.25V8.91085H15.3333V7.03982ZM11.5 7.03982H13.4167V8.91085H11.5V7.03982Z" fill="#5C5C5C"/>
</svg>
