<svg width="23" height="24" viewBox="0 0 23 24" fill="none" xmlns="http://www.w3.org/2000/svg">
<path d="M16.2917 1.94279H19.1667C19.4208 1.94279 19.6646 2.04376 19.8443 2.22348C20.024 2.4032 20.125 2.64696 20.125 2.90112V20.1511C20.125 20.4053 20.024 20.649 19.8443 20.8288C19.6646 21.0085 19.4208 21.1095 19.1667 21.1095H3.83333C3.57917 21.1095 3.33541 21.0085 3.15569 20.8288C2.97597 20.649 2.875 20.4053 2.875 20.1511V2.90112C2.875 2.64696 2.97597 2.4032 3.15569 2.22348C3.33541 2.04376 3.57917 1.94279 3.83333 1.94279H6.70833V0.026123H8.625V1.94279H14.375V0.026123H16.2917V1.94279ZM16.2917 3.85946V5.77612H14.375V3.85946H8.625V5.77612H6.70833V3.85946H4.79167V19.1928H18.2083V3.85946H16.2917ZM6.70833 7.69279H16.2917V9.60946H6.70833V7.69279ZM6.70833 11.5261H16.2917V13.4428H6.70833V11.5261Z" fill="#5C5C5C"/>
</svg>
