<svg width="23" height="24" viewBox="0 0 23 24" fill="none" xmlns="http://www.w3.org/2000/svg">
<path d="M11.5 2.46427C16.7929 2.46427 21.0833 6.75473 21.0833 12.0476C21.0833 17.3405 16.7929 21.6309 11.5 21.6309C6.20713 21.6309 1.91667 17.3405 1.91667 12.0476C1.91667 6.75473 6.20713 2.46427 11.5 2.46427ZM13.1004 15.8809H9.89958L8.57708 17.6989L9.108 19.3338C9.88011 19.5867 10.6875 19.7151 11.5 19.7143C12.3347 19.7143 13.1388 19.5801 13.892 19.3338L14.422 17.6989L13.1004 15.8809ZM5.07342 10.9666L3.83525 11.8646L3.83333 12.0476C3.83333 13.7055 4.35946 15.2398 5.25358 16.4943H7.084L8.35188 14.7501L7.36671 11.7122L5.07342 10.9666ZM17.9266 10.9666L15.6333 11.7122L14.6481 14.7501L15.915 16.4943H17.7455C18.672 15.1969 19.169 13.6419 19.1667 12.0476L19.1638 11.8655L17.9266 10.9666ZM11.5 9.68627L9.25367 11.3174L10.1123 13.9643H12.8867L13.7454 11.3174L11.5 9.68627ZM13.6955 4.70007L12.4583 5.6009V8.01302L15.0401 9.88848L17.1858 9.19177L17.7167 7.55973C16.7274 6.19015 15.314 5.18503 13.6955 4.70007ZM9.3035 4.70007C7.68527 5.18547 6.27224 6.19092 5.28329 7.56069L5.81421 9.19177L7.95992 9.88848L10.5417 8.01302V5.6009L9.3035 4.70007Z" fill="#5C5C5C"/>
</svg>
