<svg width="23" height="23" viewBox="0 0 23 23" fill="none" xmlns="http://www.w3.org/2000/svg">
<path d="M20.125 12.4583V19.1667C20.125 19.4208 20.024 19.6646 19.8443 19.8443C19.6646 20.024 19.4208 20.125 19.1667 20.125H3.83333C3.57917 20.125 3.33541 20.024 3.15569 19.8443C2.97597 19.6646 2.875 19.4208 2.875 19.1667V12.4583H1.91667V10.5417L2.875 5.75H20.125L21.0833 10.5417V12.4583H20.125ZM4.79167 12.4583V18.2083H18.2083V12.4583H4.79167ZM3.87167 10.5417H19.1283L18.5533 7.66667H4.44667L3.87167 10.5417ZM5.75 13.4167H13.4167V16.2917H5.75V13.4167ZM2.875 2.875H20.125V4.79167H2.875V2.875Z" fill="#5C5C5C"/>
</svg>
