<svg width="23" height="19" viewBox="0 0 23 19" fill="none" xmlns="http://www.w3.org/2000/svg">
<path d="M20.9091 16.8766H23V18.9177H0V16.8766H2.09091V1.56817C2.09091 1.2975 2.20105 1.03792 2.39712 0.846523C2.59318 0.655131 2.85909 0.547607 3.13636 0.547607H13.5909C13.8682 0.547607 14.1341 0.655131 14.3302 0.846523C14.5262 1.03792 14.6364 1.2975 14.6364 1.56817V16.8766H18.8182V8.71211H16.7273V6.67098H19.8636C20.1409 6.67098 20.4068 6.77851 20.6029 6.9699C20.7989 7.16129 20.9091 7.42088 20.9091 7.69155V16.8766ZM4.18182 2.58873V16.8766H12.5455V2.58873H4.18182ZM6.27273 8.71211H10.4545V10.7532H6.27273V8.71211ZM6.27273 4.62986H10.4545V6.67098H6.27273V4.62986Z" fill="#5C5C5C"/>
</svg>
