<svg width="23" height="24" viewBox="0 0 23 24" fill="none" xmlns="http://www.w3.org/2000/svg">
<path d="M11.5 2.02531C12.9205 2.02386 14.3235 2.33885 15.607 2.94738C16.8905 3.55591 18.0224 4.44271 18.9204 5.54335L12.8551 11.6086L18.9204 17.6739C18.0224 18.7746 16.8905 19.6614 15.607 20.2699C14.3235 20.8784 12.9205 21.1934 11.5 21.192C6.20713 21.192 1.91667 16.9015 1.91667 11.6086C1.91667 6.31577 6.20713 2.02531 11.5 2.02531ZM11.5 3.94198C10.2905 3.94219 9.09824 4.22856 8.02059 4.77768C6.94294 5.32681 6.01051 6.1231 5.29946 7.10151C4.58842 8.07992 4.11895 9.21267 3.92942 10.4072C3.73988 11.6018 3.83565 12.8242 4.20891 13.9746C4.58217 15.1251 5.22232 16.1709 6.07706 17.0266C6.9318 17.8824 7.97688 18.5237 9.12689 18.8983C10.2769 19.2729 11.4992 19.3701 12.694 19.182C13.8888 18.9938 15.0221 18.5257 16.0013 17.8158L16.2006 17.6653L10.144 11.6086L16.2006 5.55102L16.0013 5.40152C14.7735 4.50894 13.3074 4.00278 11.7904 3.94773L11.5 3.94198ZM11.5 4.90031C11.8812 4.90031 12.2469 5.05176 12.5165 5.32134C12.786 5.59093 12.9375 5.95656 12.9375 6.33781C12.9375 6.71906 12.786 7.08469 12.5165 7.35428C12.2469 7.62386 11.8812 7.77531 11.5 7.77531C11.1188 7.77531 10.7531 7.62386 10.4835 7.35428C10.214 7.08469 10.0625 6.71906 10.0625 6.33781C10.0625 5.95656 10.214 5.59093 10.4835 5.32134C10.7531 5.05176 11.1188 4.90031 11.5 4.90031Z" fill="#5C5C5C"/>
</svg>
