<svg width="23" height="22" viewBox="0 0 23 22" fill="none" xmlns="http://www.w3.org/2000/svg">
<path d="M13.4167 12.3358V7.31008C13.4167 6.3407 13.0128 5.41103 12.2939 4.72557C11.575 4.04012 10.6 3.65504 9.58333 3.65504C8.56667 3.65504 7.59165 4.04012 6.87276 4.72557C6.15387 5.41103 5.75 6.3407 5.75 7.31008V12.3358C5.75 13.911 6.40629 15.4217 7.57448 16.5356C8.74268 17.6494 10.3271 18.2752 11.9792 18.2752C13.6312 18.2752 15.2157 17.6494 16.3839 16.5356C17.552 15.4217 18.2083 13.911 18.2083 12.3358V3.65504H20.125V12.3358C20.125 14.3957 19.2668 16.3712 17.7391 17.8278C16.2115 19.2844 14.1396 20.1027 11.9792 20.1027C9.81876 20.1027 7.74683 19.2844 6.21919 17.8278C4.69155 16.3712 3.83333 14.3957 3.83333 12.3358V7.31008C3.83333 5.85601 4.43914 4.4615 5.51747 3.43332C6.5958 2.40514 8.05834 1.82752 9.58333 1.82752C11.1083 1.82752 12.5709 2.40514 13.6492 3.43332C14.7275 4.4615 15.3333 5.85601 15.3333 7.31008V12.3358C15.3333 13.184 14.9799 13.9974 14.3509 14.5972C13.7219 15.197 12.8687 15.5339 11.9792 15.5339C11.0896 15.5339 10.2364 15.197 9.60741 14.5972C8.97838 13.9974 8.625 13.184 8.625 12.3358V7.31008H10.5417V12.3358C10.5417 12.6993 10.6931 13.0479 10.9627 13.3049C11.2323 13.562 11.5979 13.7064 11.9792 13.7064C12.3604 13.7064 12.726 13.562 12.9956 13.3049C13.2652 13.0479 13.4167 12.6993 13.4167 12.3358Z" fill="#5C5C5C"/>
</svg>
