<svg width="23" height="24" viewBox="0 0 23 24" fill="none" xmlns="http://www.w3.org/2000/svg">
<path d="M20.125 4.40706H6.70833C6.2 4.40706 5.71249 4.609 5.35305 4.96844C4.9936 5.32789 4.79167 5.8154 4.79167 6.32373C4.79167 6.83206 4.9936 7.31957 5.35305 7.67902C5.71249 8.03846 6.2 8.2404 6.70833 8.2404H20.125V20.6987C20.125 20.9529 20.024 21.1967 19.8443 21.3764C19.6646 21.5561 19.4208 21.6571 19.1667 21.6571H6.70833C5.69167 21.6571 4.71665 21.2532 3.99776 20.5343C3.27887 19.8154 2.875 18.8404 2.875 17.8237V6.32373C2.875 5.30707 3.27887 4.33204 3.99776 3.61315C4.71665 2.89427 5.69167 2.4904 6.70833 2.4904H19.1667C19.4208 2.4904 19.6646 2.59136 19.8443 2.77109C20.024 2.95081 20.125 3.19456 20.125 3.44873V4.40706ZM4.79167 17.8237C4.79167 18.3321 4.9936 18.8196 5.35305 19.179C5.71249 19.5385 6.2 19.7404 6.70833 19.7404H18.2083V10.1571H6.70833C6.03541 10.1581 5.37418 9.98126 4.79167 9.64436V17.8237ZM19.1667 7.28206H6.70833C6.45417 7.28206 6.21041 7.1811 6.03069 7.00137C5.85097 6.82165 5.75 6.5779 5.75 6.32373C5.75 6.06956 5.85097 5.82581 6.03069 5.64609C6.21041 5.46636 6.45417 5.3654 6.70833 5.3654H19.1667V7.28206Z" fill="#5C5C5C"/>
</svg>
