<svg width="23" height="23" viewBox="0 0 23 23" fill="none" xmlns="http://www.w3.org/2000/svg">
<path d="M3.83333 1.87103H19.1667C19.4208 1.87103 19.6646 1.96959 19.8443 2.14504C20.024 2.32048 20.125 2.55843 20.125 2.80655V19.6458C20.125 19.8939 20.024 20.1319 19.8443 20.3073C19.6646 20.4828 19.4208 20.5813 19.1667 20.5813H3.83333C3.57917 20.5813 3.33541 20.4828 3.15569 20.3073C2.97597 20.1319 2.875 19.8939 2.875 19.6458V2.80655C2.875 2.55843 2.97597 2.32048 3.15569 2.14504C3.33541 1.96959 3.57917 1.87103 3.83333 1.87103ZM4.79167 3.74206V18.7103H18.2083V3.74206H4.79167ZM6.70833 5.61309H16.2917V9.35516H6.70833V5.61309ZM6.70833 11.2262H8.625V13.0972H6.70833V11.2262ZM6.70833 14.9683H8.625V16.8393H6.70833V14.9683ZM10.5417 11.2262H12.4583V13.0972H10.5417V11.2262ZM10.5417 14.9683H12.4583V16.8393H10.5417V14.9683ZM14.375 11.2262H16.2917V16.8393H14.375V11.2262Z" fill="#5C5C5C"/>
</svg>
