<svg width="23" height="24" viewBox="0 0 23 24" fill="none" xmlns="http://www.w3.org/2000/svg">
<path d="M5.75 18.6524H17.25V8.98949L11.5 3.63526L5.75 8.98949V18.6524ZM18.2083 20.6159H4.79167C4.5375 20.6159 4.29375 20.5124 4.11402 20.3283C3.9343 20.1442 3.83333 19.8945 3.83333 19.6341V10.7988H0.958333L10.855 1.58251C11.0315 1.41805 11.2615 1.32692 11.5 1.32692C11.7385 1.32692 11.9685 1.41805 12.145 1.58251L22.0417 10.7988H19.1667V19.6341C19.1667 19.8945 19.0657 20.1442 18.886 20.3283C18.7063 20.5124 18.4625 20.6159 18.2083 20.6159ZM7.66667 9.81707C9.44583 9.81707 11.1521 10.5411 12.4102 11.8298C13.6682 13.1186 14.375 14.8665 14.375 16.689H12.4583C12.4583 15.3872 11.9535 14.1387 11.0549 13.2182C10.1563 12.2976 8.9375 11.7805 7.66667 11.7805V9.81707ZM7.66667 13.7439C8.42916 13.7439 9.16043 14.0542 9.6996 14.6065C10.2388 15.1588 10.5417 15.9079 10.5417 16.689H7.66667V13.7439Z" fill="#5C5C5C"/>
</svg>
