<svg width="23" height="23" viewBox="0 0 23 23" fill="none" xmlns="http://www.w3.org/2000/svg">
<path d="M20.125 12.3951V18.7209H21.0833V20.593H1.91667V18.7209H2.875V12.3951C2.28502 12.0105 1.80139 11.4895 1.46704 10.8785C1.13268 10.2675 0.957942 9.58527 0.958333 8.89244C0.958333 8.11833 1.173 7.3723 1.56496 6.73673L4.16396 2.34012C4.24807 2.19782 4.36904 2.07966 4.51472 1.99751C4.6604 1.91535 4.82566 1.8721 4.99388 1.87209H18.0071C18.1753 1.8721 18.3406 1.91535 18.4862 1.99751C18.6319 2.07966 18.7529 2.19782 18.837 2.34012L21.4264 6.72269C21.9981 7.65019 22.1819 8.75721 21.9395 9.81364C21.6971 10.8701 21.0473 11.7946 20.125 12.3951ZM18.2083 13.0784C17.5494 13.1506 16.8823 13.0733 16.259 12.8525C15.6357 12.6317 15.0729 12.2734 14.6146 11.8054C14.2123 12.2164 13.7289 12.5435 13.1936 12.767C12.6583 12.9904 12.0822 13.1056 11.5 13.1056C10.918 13.1059 10.342 12.991 9.80665 12.7678C9.27135 12.5447 8.78788 12.2179 8.38542 11.8073C7.92698 12.2751 7.36419 12.6333 6.74087 12.8539C6.11755 13.0745 5.45051 13.1517 4.79167 13.0794V18.7209H18.2083V13.0784ZM5.54779 3.74419L3.21617 7.68775C2.9896 8.23454 2.98279 8.84473 3.19713 9.3962C3.41146 9.94768 3.83111 10.3997 4.37209 10.6619C4.91307 10.9241 5.53547 10.9771 6.11472 10.8102C6.69398 10.6434 7.18734 10.269 7.49608 9.76203C7.81713 8.97856 8.95275 8.97856 9.27475 9.76203C9.45233 10.1967 9.75928 10.5695 10.156 10.832C10.5526 11.0946 11.0208 11.2349 11.5 11.2349C11.9792 11.2349 12.4474 11.0946 12.844 10.832C13.2407 10.5695 13.5477 10.1967 13.7253 9.76203C14.0463 8.97856 15.1819 8.97856 15.5039 9.76203C15.6283 10.061 15.8146 10.3317 16.0513 10.557C16.2879 10.7823 16.5697 10.9573 16.8789 11.0711C17.1881 11.1849 17.5181 11.235 17.8481 11.2182C18.178 11.2015 18.5009 11.1182 18.7964 10.9737C19.0918 10.8292 19.3535 10.6265 19.5649 10.3784C19.7763 10.1304 19.9329 9.84231 20.0248 9.5323C20.1168 9.22229 20.142 8.89706 20.0991 8.57704C20.0561 8.25703 19.9459 7.94916 19.7752 7.67277L17.4513 3.74419H5.54779Z" fill="#5C5C5C"/>
</svg>
