<svg width="23" height="23" viewBox="0 0 23 23" fill="none" xmlns="http://www.w3.org/2000/svg">
<path d="M16.2917 2.80655H20.125C20.3792 2.80655 20.6229 2.90511 20.8026 3.08055C20.9824 3.256 21.0833 3.49395 21.0833 3.74206V18.7103C21.0833 18.9584 20.9824 19.1964 20.8026 19.3718C20.6229 19.5473 20.3792 19.6458 20.125 19.6458H2.875C2.62083 19.6458 2.37708 19.5473 2.19736 19.3718C2.01763 19.1964 1.91667 18.9584 1.91667 18.7103V3.74206C1.91667 3.49395 2.01763 3.256 2.19736 3.08055C2.37708 2.90511 2.62083 2.80655 2.875 2.80655H6.70833V0.935516H8.625V2.80655H14.375V0.935516H16.2917V2.80655ZM14.375 4.67758H8.625V6.54861H6.70833V4.67758H3.83333V8.41964H19.1667V4.67758H16.2917V6.54861H14.375V4.67758ZM19.1667 10.2907H3.83333V17.7748H19.1667V10.2907ZM5.75 13.0972H7.66667V14.9683H5.75V13.0972ZM9.58333 13.0972H17.25V14.9683H9.58333V13.0972Z" fill="#5C5C5C"/>
</svg>
