<svg width="23" height="25" viewBox="0 0 23 25" fill="none" xmlns="http://www.w3.org/2000/svg">
<path d="M19.1667 20.6627C19.1667 20.9292 19.0657 21.1849 18.886 21.3734C18.7063 21.5619 18.4625 21.6677 18.2083 21.6677H4.79167C4.5375 21.6677 4.29375 21.5619 4.11402 21.3734C3.9343 21.1849 3.83333 20.9292 3.83333 20.6627V11.6169H0.958333L10.855 2.18123C11.0315 2.01285 11.2615 1.91955 11.5 1.91955C11.7385 1.91955 11.9685 2.01285 12.145 2.18123L22.0417 11.6169H19.1667V20.6627ZM17.25 19.6576V9.76456L11.5 4.28285L5.75 9.76456V19.6576H17.25ZM11.5 17.6474L8.28096 14.2713C8.08073 14.0614 7.9219 13.8121 7.81354 13.5377C7.70518 13.2633 7.6494 12.9692 7.6494 12.6723C7.6494 12.3753 7.70518 12.0812 7.81354 11.8068C7.9219 11.5325 8.08073 11.2832 8.28096 11.0732C8.48118 10.8632 8.71889 10.6966 8.9805 10.583C9.24211 10.4693 9.5225 10.4108 9.80567 10.4108C10.0888 10.4108 10.3692 10.4693 10.6308 10.583C10.8924 10.6966 11.1301 10.8632 11.3304 11.0732L11.5 11.2511L11.6696 11.0732C11.8699 10.8632 12.1076 10.6966 12.3692 10.583C12.6308 10.4693 12.9112 10.4108 13.1943 10.4108C13.4775 10.4108 13.7579 10.4693 14.0195 10.583C14.2811 10.6966 14.5188 10.8632 14.719 11.0732C14.9193 11.2832 15.0781 11.5325 15.1865 11.8068C15.2948 12.0812 15.3506 12.3753 15.3506 12.6723C15.3506 12.9692 15.2948 13.2633 15.1865 13.5377C15.0781 13.8121 14.9193 14.0614 14.719 14.2713L11.5 17.6474Z" fill="#5C5C5C"/>
</svg>
