<svg width="23" height="23" viewBox="0 0 23 23" fill="none" xmlns="http://www.w3.org/2000/svg">
<path d="M2.875 18.2083V5.4625C2.87494 5.26578 2.93542 5.07381 3.04824 4.91264C3.16105 4.75148 3.32072 4.62895 3.50558 4.56167L12.7736 1.19217C12.846 1.16582 12.9237 1.15731 13.0001 1.16738C13.0765 1.17744 13.1493 1.20577 13.2124 1.24997C13.2755 1.29417 13.327 1.35294 13.3626 1.42128C13.3981 1.48963 13.4167 1.56554 13.4167 1.64258V6.38921L19.4695 8.4065C19.6604 8.47009 19.8265 8.59215 19.9441 8.75538C20.0618 8.91862 20.125 9.11474 20.125 9.31596V18.2083H22.0417V20.125H0.958333V18.2083H2.875ZM4.79167 18.2083H11.5V3.69438L4.79167 6.13429V18.2083ZM18.2083 18.2083V10.0069L13.4167 8.40938V18.2083H18.2083Z" fill="#5C5C5C"/>
</svg>
