<svg width="23" height="23" viewBox="0 0 23 23" fill="none" xmlns="http://www.w3.org/2000/svg">
<path d="M12.4583 17.25V19.1667H16.2917V21.0833H6.70833V19.1667H10.5417V17.25H2.875C2.62083 17.25 2.37708 17.149 2.19736 16.9693C2.01763 16.7896 1.91667 16.5458 1.91667 16.2917V3.83333C1.91667 3.57917 2.01763 3.33541 2.19736 3.15569C2.37708 2.97597 2.62083 2.875 2.875 2.875H20.125C20.3792 2.875 20.6229 2.97597 20.8026 3.15569C20.9824 3.33541 21.0833 3.57917 21.0833 3.83333V16.2917C21.0833 16.5458 20.9824 16.7896 20.8026 16.9693C20.6229 17.149 20.3792 17.25 20.125 17.25H12.4583ZM3.83333 4.79167V15.3333H19.1667V4.79167H3.83333ZM9.58333 7.1875L14.375 10.0625L9.58333 12.9375V7.1875Z" fill="#5C5C5C"/>
</svg>
