<svg width="23" height="22" viewBox="0 0 23 22" fill="none" xmlns="http://www.w3.org/2000/svg">
<path d="M15.3333 14.6202C16.9213 14.6202 18.2083 15.8473 18.2083 17.3614C18.2083 18.8755 16.9213 20.1027 15.3333 20.1027C13.7454 20.1027 12.4583 18.8755 12.4583 17.3614C12.4583 15.8473 13.7454 14.6202 15.3333 14.6202ZM5.75 10.9651C7.86792 10.9651 9.58333 12.6007 9.58333 14.6202C9.58333 16.6396 7.86792 18.2752 5.75 18.2752C3.63208 18.2752 1.91667 16.6396 1.91667 14.6202C1.91667 12.6007 3.63208 10.9651 5.75 10.9651ZM15.3333 16.4477C14.8043 16.4477 14.375 16.857 14.375 17.3614C14.375 17.8658 14.8043 18.2752 15.3333 18.2752C15.8623 18.2752 16.2917 17.8658 16.2917 17.3614C16.2917 16.857 15.8623 16.4477 15.3333 16.4477ZM5.75 12.7926C4.69104 12.7926 3.83333 13.6105 3.83333 14.6202C3.83333 15.6299 4.69104 16.4477 5.75 16.4477C6.80896 16.4477 7.66667 15.6299 7.66667 14.6202C7.66667 13.6105 6.80896 12.7926 5.75 12.7926ZM13.8958 1.82752C16.8073 1.82752 19.1667 4.0772 19.1667 6.8532C19.1667 9.6292 16.8073 11.8789 13.8958 11.8789C10.9844 11.8789 8.625 9.6292 8.625 6.8532C8.625 4.0772 10.9844 1.82752 13.8958 1.82752ZM13.8958 3.65504C12.0434 3.65504 10.5417 5.0869 10.5417 6.8532C10.5417 8.6195 12.0434 10.0514 13.8958 10.0514C15.7483 10.0514 17.25 8.6195 17.25 6.8532C17.25 5.0869 15.7483 3.65504 13.8958 3.65504Z" fill="#5C5C5C"/>
</svg>
