<svg width="23" height="25" viewBox="0 0 23 25" fill="none" xmlns="http://www.w3.org/2000/svg">
<path d="M21.0833 9.4091H19.1667V7.44568H11.1033L9.18658 5.48227H3.83333V19.2262H10.97C11.322 20.0141 11.8724 20.6918 12.5647 21.1896H2.875C2.62083 21.1896 2.37708 21.0862 2.19736 20.9021C2.01763 20.7179 1.91667 20.4682 1.91667 20.2079V4.50056C1.91667 4.24019 2.01763 3.99049 2.19736 3.80639C2.37708 3.62228 2.62083 3.51885 2.875 3.51885H9.98008L11.8968 5.48227H20.125C20.3792 5.48227 20.6229 5.5857 20.8026 5.7698C20.9824 5.95391 21.0833 6.20361 21.0833 6.46397V9.4091ZM12.4583 11.3725H21.0833V17.2127C21.0833 18.1846 20.6032 19.0936 19.803 19.6326L16.7708 21.6785L13.7387 19.6326C13.3464 19.3696 13.024 19.0109 12.8005 18.5887C12.577 18.1664 12.4594 17.694 12.4583 17.2137V11.3725ZM14.375 17.2127C14.375 17.5229 14.5302 17.8155 14.7928 17.9931L16.7708 19.3283L18.7488 17.9931C18.8762 17.9088 18.9811 17.7933 19.054 17.657C19.127 17.5208 19.1657 17.3681 19.1667 17.2127V13.3359H14.375V17.2127Z" fill="#5C5C5C"/>
</svg>
