<svg width="23" height="23" viewBox="0 0 23 23" fill="none" xmlns="http://www.w3.org/2000/svg">
<path d="M12.5158 7.58703L13.8719 8.91079C14.4949 9.51889 14.9891 10.2408 15.3262 11.0354C15.6634 11.83 15.8369 12.6816 15.8369 13.5416C15.8369 14.4016 15.6634 15.2532 15.3262 16.0478C14.9891 16.8424 14.4949 17.5643 13.8719 18.1724L13.5326 18.5026C12.2745 19.7308 10.5681 20.4208 8.78887 20.4208C7.00962 20.4208 5.30325 19.7308 4.04513 18.5026C2.787 17.2745 2.0802 15.6087 2.0802 13.8718C2.0802 12.1349 2.787 10.4692 4.04513 9.24103L5.40117 10.5648C4.95302 10.9984 4.59703 11.5142 4.35364 12.0826C4.11025 12.6509 3.98424 13.2605 3.98286 13.8765C3.98148 14.4925 4.10475 15.1027 4.34559 15.6721C4.58643 16.2414 4.9401 16.7588 5.3863 17.1943C5.83249 17.6299 6.36242 17.9752 6.94567 18.2103C7.52892 18.4454 8.15399 18.5657 8.78501 18.5644C9.41602 18.563 10.0406 18.44 10.6227 18.2024C11.2049 17.9648 11.7333 17.6173 12.1775 17.1798L12.5168 16.8486C13.4151 15.9715 13.9197 14.7819 13.9197 13.5416C13.9197 12.3013 13.4151 11.1117 12.5168 10.2345L11.1607 8.91079L12.5168 7.58797L12.5158 7.58703ZM17.5988 11.8876C18.047 11.4539 18.403 10.9381 18.6464 10.3698C18.8898 9.80149 19.0158 9.19183 19.0171 8.57584C19.0185 7.95985 18.8953 7.34966 18.6544 6.7803C18.4136 6.21094 18.0599 5.69362 17.6137 5.25805C17.1675 4.82248 16.6376 4.47723 16.0543 4.24212C15.4711 4.00701 14.846 3.88668 14.215 3.88803C13.584 3.88938 12.9594 4.01238 12.3773 4.24998C11.7951 4.48758 11.2667 4.83509 10.8225 5.27257L10.4832 5.60374C9.58491 6.48092 9.08027 7.67046 9.08027 8.91079C9.08027 10.1511 9.58491 11.3407 10.4832 12.2178L11.8392 13.5416L10.4832 14.8644L9.12812 13.5416C8.50513 12.9335 8.01093 12.2115 7.67376 11.417C7.3366 10.6224 7.16306 9.77082 7.16306 8.91079C7.16306 8.05076 7.3366 7.19915 7.67376 6.40459C8.01093 5.61003 8.50513 4.88809 9.12812 4.27998L9.46737 3.94975C10.7255 2.72158 12.4319 2.03161 14.2111 2.03161C15.9904 2.03161 17.6968 2.72158 18.9549 3.94975C20.213 5.17791 20.9198 6.84366 20.9198 8.58055C20.9198 10.3174 20.213 11.9832 18.9549 13.2114L17.5988 11.8876Z" fill="#5C5C5C"/>
</svg>
