<svg width="23" height="24" viewBox="0 0 23 24" fill="none" xmlns="http://www.w3.org/2000/svg">
<path d="M5.75 20.686C3.89754 20.686 2.39583 19.2193 2.39583 17.4099C2.39583 15.6005 3.89754 14.1337 5.75 14.1337C7.26896 14.1337 8.55217 15.1203 8.96521 16.4738H14.375V14.6017H16.2917V9.21198L14.1421 7.11336H8.625V8.98546H2.875V3.36917H8.625V5.24127H14.1421L17.25 2.20473L21.3162 6.17732L18.2083 9.21104V14.6017H20.125V20.218H14.375V18.3459H8.96521C8.55312 19.6994 7.26896 20.686 5.75 20.686ZM5.75 16.0058C4.9565 16.0058 4.3125 16.6348 4.3125 17.4099C4.3125 18.1849 4.9565 18.8139 5.75 18.8139C6.5435 18.8139 7.1875 18.1849 7.1875 17.4099C7.1875 16.6348 6.5435 16.0058 5.75 16.0058ZM18.2083 16.4738H16.2917V18.3459H18.2083V16.4738ZM17.25 4.85374L15.8949 6.17732L17.25 7.50089L18.6051 6.17732L17.25 4.85374ZM6.70833 5.24127H4.79167V7.11336H6.70833V5.24127Z" fill="#5C5C5C"/>
</svg>
