<svg width="23" height="23" viewBox="0 0 23 23" fill="none" xmlns="http://www.w3.org/2000/svg">
<path d="M5.22771 14.375L0.958333 17.7292V2.875C0.958333 2.62083 1.0593 2.37708 1.23902 2.19736C1.41874 2.01763 1.6625 1.91667 1.91667 1.91667H16.2917C16.5458 1.91667 16.7896 2.01763 16.9693 2.19736C17.149 2.37708 17.25 2.62083 17.25 2.875V14.375H5.22771ZM4.56454 12.4583H15.3333V3.83333H2.875V13.7856L4.56454 12.4583ZM7.66667 16.2917H17.4771L19.1667 17.619V7.66667H20.125C20.3792 7.66667 20.6229 7.76763 20.8026 7.94736C20.9824 8.12708 21.0833 8.37083 21.0833 8.625V21.5625L16.814 18.2083H8.625C8.37083 18.2083 8.12708 18.1074 7.94736 17.9276C7.76763 17.7479 7.66667 17.5042 7.66667 17.25V16.2917Z" fill="#5C5C5C"/>
</svg>
