<svg width="23" height="24" viewBox="0 0 23 24" fill="none" xmlns="http://www.w3.org/2000/svg">
<path d="M20.125 2.94512C20.654 2.94512 21.0833 3.38493 21.0833 3.92683V17.6707C21.0833 18.2126 20.654 18.6524 20.125 18.6524H6.18604L1.91667 22.0884V3.92683C1.91667 3.38493 2.346 2.94512 2.875 2.94512H20.125ZM19.1667 4.90854H3.83333V18.0487L5.52287 16.689H19.1667V4.90854ZM10.0769 7.27641L10.5052 7.95183C8.90675 8.83831 8.93454 10.2608 8.93454 10.5671C9.08308 10.5475 9.23929 10.5435 9.39454 10.5583C10.259 10.6407 10.9403 11.3682 10.9403 12.2713C10.9403 13.2197 10.189 13.9893 9.26325 13.9893C8.74863 13.9893 8.257 13.7488 7.9465 13.4101C7.45296 12.8741 7.1875 12.2713 7.1875 11.2945C7.1875 9.57656 8.36433 8.03724 10.0769 7.27641ZM14.8685 7.27641L15.2969 7.95183C13.6984 8.83831 13.7262 10.2608 13.7262 10.5671C13.8747 10.5475 14.031 10.5435 14.1862 10.5583C15.0506 10.6407 15.732 11.3682 15.732 12.2713C15.732 13.2197 14.9807 13.9893 14.0549 13.9893C13.5403 13.9893 13.0487 13.7488 12.7382 13.4101C12.2446 12.8741 11.9792 12.2713 11.9792 11.2945C11.9792 9.57656 13.156 8.03724 14.8685 7.27641Z" fill="#5C5C5C"/>
</svg>
