<svg width="23" height="23" viewBox="0 0 23 23" fill="none" xmlns="http://www.w3.org/2000/svg">
<path d="M2.875 2.86733C2.875 2.34217 3.30146 1.91667 3.82663 1.91667H19.1734C19.4251 1.91842 19.6659 2.01911 19.844 2.19699C20.0221 2.37487 20.123 2.61566 20.125 2.86733V20.1327C20.1247 20.3849 20.0244 20.6267 19.8459 20.8049C19.6675 20.9832 19.4256 21.0833 19.1734 21.0833H3.82663C3.57495 21.0816 3.33406 20.9809 3.156 20.803C2.97794 20.6251 2.87701 20.3843 2.875 20.1327V2.86733ZM18.2083 10.5417V3.83333H4.79167V10.5417H18.2083ZM18.2083 12.4583H4.79167V19.1667H18.2083V12.4583ZM8.625 5.75H14.375V7.66667H8.625V5.75ZM8.625 14.375H14.375V16.2917H8.625V14.375Z" fill="#5C5C5C"/>
</svg>
