<svg width="23" height="23" viewBox="0 0 23 23" fill="none" xmlns="http://www.w3.org/2000/svg">
<path d="M12.65 11.361L15.3333 15.103H13.0333L11.5 12.9644L9.96667 15.103H7.66667L10.35 11.361L7.66667 7.61889H9.96667L11.5 9.75748L13.0333 7.61889H14.375V3.87683H4.79167V18.8451H18.2083V7.61889H15.3333L12.65 11.361ZM2.875 2.93383C2.875 2.42117 3.30338 2.0058 3.83238 2.0058H15.3333L20.125 6.68338V19.774C20.1259 19.8969 20.102 20.0187 20.0546 20.1326C20.0073 20.2464 19.9374 20.35 19.8491 20.4375C19.7607 20.525 19.6555 20.5946 19.5396 20.6424C19.4237 20.6902 19.2992 20.7153 19.1734 20.7161H3.82663C3.57495 20.7144 3.33406 20.6161 3.156 20.4425C2.97794 20.2688 2.87701 20.0338 2.875 19.7881V2.93383Z" fill="#5C5C5C"/>
</svg>
