<svg width="23" height="24" viewBox="0 0 23 24" fill="none" xmlns="http://www.w3.org/2000/svg">
<path d="M2.875 2.05143H18.2131C19.2692 2.05143 20.125 2.91202 20.125 3.95852V19.311C20.125 20.3642 19.2692 21.2181 18.2131 21.2181H2.875V2.05143ZM6.70833 3.9681H4.79167V19.3014H6.70833V3.9681ZM8.625 19.3014H18.2083V3.9681H8.625V19.3014ZM10.5417 15.4681C10.5417 14.7056 10.8446 13.9743 11.3837 13.4352C11.9229 12.896 12.6542 12.5931 13.4167 12.5931C14.1792 12.5931 14.9104 12.896 15.4496 13.4352C15.9888 13.9743 16.2917 14.7056 16.2917 15.4681H10.5417ZM13.4167 11.6348C12.9083 11.6348 12.4208 11.4328 12.0614 11.0734C11.7019 10.7139 11.5 10.2264 11.5 9.7181C11.5 9.20977 11.7019 8.72226 12.0614 8.36281C12.4208 8.00337 12.9083 7.80143 13.4167 7.80143C13.925 7.80143 14.4125 8.00337 14.772 8.36281C15.1314 8.72226 15.3333 9.20977 15.3333 9.7181C15.3333 10.2264 15.1314 10.7139 14.772 11.0734C14.4125 11.4328 13.925 11.6348 13.4167 11.6348ZM21.0833 5.88477H23V9.7181H21.0833V5.88477ZM21.0833 11.6348H23V15.4681H21.0833V11.6348Z" fill="#5C5C5C"/>
</svg>
