<svg width="23" height="23" viewBox="0 0 23 23" fill="none" xmlns="http://www.w3.org/2000/svg">
<path d="M2.875 2.875H20.125C20.3792 2.875 20.6229 2.97597 20.8026 3.15569C20.9824 3.33541 21.0833 3.57917 21.0833 3.83333V19.1667C21.0833 19.4208 20.9824 19.6646 20.8026 19.8443C20.6229 20.024 20.3792 20.125 20.125 20.125H2.875C2.62083 20.125 2.37708 20.024 2.19736 19.8443C2.01763 19.6646 1.91667 19.4208 1.91667 19.1667V3.83333C1.91667 3.57917 2.01763 3.33541 2.19736 3.15569C2.37708 2.97597 2.62083 2.875 2.875 2.875ZM10.6624 11.5H3.83333V18.2083H19.1667V11.5H18.0876C17.8744 12.3225 17.3942 13.0509 16.7222 13.5709C16.0503 14.0909 15.2247 14.373 14.375 14.373C13.5253 14.373 12.6997 14.0909 12.0278 13.5709C11.3558 13.0509 10.8756 12.3225 10.6624 11.5ZM10.6624 9.58333C10.8756 8.76085 11.3558 8.03244 12.0278 7.51244C12.6997 6.99245 13.5253 6.7103 14.375 6.7103C15.2247 6.7103 16.0503 6.99245 16.7222 7.51244C17.3942 8.03244 17.8744 8.76085 18.0876 9.58333H19.1667V4.79167H3.83333V9.58333H10.6624ZM14.375 12.4583C14.8833 12.4583 15.3708 12.2564 15.7303 11.897C16.0897 11.5375 16.2917 11.05 16.2917 10.5417C16.2917 10.0333 16.0897 9.54582 15.7303 9.18638C15.3708 8.82693 14.8833 8.625 14.375 8.625C13.8667 8.625 13.3792 8.82693 13.0197 9.18638C12.6603 9.54582 12.4583 10.0333 12.4583 10.5417C12.4583 11.05 12.6603 11.5375 13.0197 11.897C13.3792 12.2564 13.8667 12.4583 14.375 12.4583ZM5.75 14.375H7.66667V16.2917H5.75V14.375Z" fill="#5C5C5C"/>
</svg>
