<svg width="23" height="25" viewBox="0 0 23 25" fill="none" xmlns="http://www.w3.org/2000/svg">
<path d="M4.66996 3.49273H18.33C18.4813 3.49271 18.6303 3.52934 18.7651 3.59964C18.8998 3.66994 19.0164 3.7719 19.1053 3.89719L22.769 9.05705C22.8342 9.14886 22.8662 9.26095 22.8598 9.37425C22.8533 9.48755 22.8087 9.59505 22.7336 9.67847L11.8517 21.7544C11.7655 21.8499 11.6458 21.9064 11.519 21.9116C11.3921 21.9167 11.2684 21.8701 11.1751 21.7819C11.1684 21.776 7.53346 17.7422 0.266417 9.67847C0.191287 9.59505 0.146695 9.48755 0.14023 9.37425C0.133765 9.26095 0.165827 9.14886 0.230958 9.05705L3.89467 3.89719C3.98358 3.7719 4.10018 3.66994 4.23492 3.59964C4.36967 3.52934 4.51874 3.49271 4.66996 3.49273ZM5.15871 5.45614L2.47537 9.23572L11.5 19.2491L20.5246 9.23572L17.8413 5.45614H5.15871Z" fill="#5C5C5C"/>
</svg>
