<svg width="23" height="24" viewBox="0 0 23 24" fill="none" xmlns="http://www.w3.org/2000/svg">
<path d="M20.125 17.413H5.75C5.49583 17.413 5.25208 17.5116 5.07236 17.687C4.89263 17.8625 4.79167 18.1004 4.79167 18.3485C4.79167 18.5966 4.89263 18.8346 5.07236 19.01C5.25208 19.1855 5.49583 19.284 5.75 19.284H20.125V21.1551H5.75C4.9875 21.1551 4.25624 20.8594 3.71707 20.3331C3.1779 19.8067 2.875 19.0929 2.875 18.3485V4.31579C2.875 3.81957 3.07693 3.34366 3.43638 2.99277C3.79582 2.64189 4.28334 2.44476 4.79167 2.44476H20.125V17.413ZM4.79167 15.5888C4.94692 15.5579 5.10696 15.542 5.27083 15.542H18.2083V4.31579H4.79167V15.5888ZM15.3333 8.99337H7.66667V7.12234H15.3333V8.99337Z" fill="#5C5C5C"/>
</svg>
