<svg width="23" height="22" viewBox="0 0 23 22" fill="none" xmlns="http://www.w3.org/2000/svg">
<path d="M16.7708 19.189C15.8813 19.189 15.0281 18.852 14.3991 18.2522C13.7701 17.6525 13.4167 16.839 13.4167 15.9908C13.4167 15.1426 13.7701 14.3291 14.3991 13.7294C15.0281 13.1296 15.8813 12.7926 16.7708 12.7926C17.6604 12.7926 18.5136 13.1296 19.1426 13.7294C19.7716 14.3291 20.125 15.1426 20.125 15.9908C20.125 16.839 19.7716 17.6525 19.1426 18.2522C18.5136 18.852 17.6604 19.189 16.7708 19.189ZM16.7708 17.3614C17.1521 17.3614 17.5177 17.217 17.7873 16.96C18.0569 16.7029 18.2083 16.3543 18.2083 15.9908C18.2083 15.6273 18.0569 15.2787 17.7873 15.0216C17.5177 14.7646 17.1521 14.6202 16.7708 14.6202C16.3896 14.6202 16.024 14.7646 15.7544 15.0216C15.4848 15.2787 15.3333 15.6273 15.3333 15.9908C15.3333 16.3543 15.4848 16.7029 15.7544 16.96C16.024 17.217 16.3896 17.3614 16.7708 17.3614ZM6.22917 9.1376C5.78869 9.1376 5.35253 9.05487 4.94558 8.89415C4.53864 8.73343 4.16888 8.49785 3.85741 8.20088C3.54595 7.9039 3.29888 7.55134 3.13032 7.16332C2.96176 6.7753 2.875 6.35943 2.875 5.93944C2.875 5.51945 2.96176 5.10357 3.13032 4.71556C3.29888 4.32754 3.54595 3.97498 3.85741 3.678C4.16888 3.38102 4.53864 3.14545 4.94558 2.98472C5.35253 2.824 5.78869 2.74128 6.22917 2.74128C7.11875 2.74128 7.97189 3.07823 8.60092 3.678C9.22995 4.27777 9.58333 5.09123 9.58333 5.93944C9.58333 6.78764 9.22995 7.60111 8.60092 8.20088C7.97189 8.80065 7.11875 9.1376 6.22917 9.1376ZM6.22917 7.31008C6.61042 7.31008 6.97605 7.16567 7.24563 6.90863C7.51522 6.65158 7.66667 6.30295 7.66667 5.93944C7.66667 5.57592 7.51522 5.22729 7.24563 4.97025C6.97605 4.7132 6.61042 4.5688 6.22917 4.5688C5.84792 4.5688 5.48228 4.7132 5.2127 4.97025C4.94312 5.22729 4.79167 5.57592 4.79167 5.93944C4.79167 6.30295 4.94312 6.65158 5.2127 6.90863C5.48228 7.16567 5.84792 7.31008 6.22917 7.31008ZM18.2764 3.21187L19.6315 4.50392L4.72458 18.7184L3.3695 17.4263L18.2754 3.21187H18.2764Z" fill="#5C5C5C"/>
</svg>
