<svg width="23" height="25" viewBox="0 0 23 25" fill="none" xmlns="http://www.w3.org/2000/svg">
<path d="M11.9916 2.42837C12.6683 4.38589 13.9969 6.03679 15.7442 7.09126C17.4914 8.14573 19.5457 8.53636 21.5462 8.19459C21.4694 9.12807 21.1046 10.0124 20.5045 10.7196C19.9045 11.4269 19.1004 11.9204 18.2083 12.129V19.107L20.125 19.1079V21.0702H2.875V19.1079H4.79167V12.129C3.89959 11.9203 3.09539 11.4268 2.49523 10.7195C1.89507 10.0123 1.53003 9.12811 1.45283 8.19459C3.45356 8.53692 5.50813 8.14666 7.25577 7.09235C9.00341 6.03803 10.3324 4.38707 11.0093 2.42935H11.9916V2.42837ZM16.2917 12.2389H6.70833V19.107H16.2917V12.2389ZM11.5 5.69168L11.3946 5.84376C9.88473 7.96158 7.67418 9.44502 5.175 10.0176L4.83192 10.0892L5.47688 10.2756H17.526L18.1662 10.0892L18.1556 10.0872C15.5249 9.57481 13.183 8.05746 11.6045 5.84278L11.5 5.6907V5.69168Z" fill="#5C5C5C"/>
</svg>
