<svg width="23" height="23" viewBox="0 0 23 23" fill="none" xmlns="http://www.w3.org/2000/svg">
<path d="M19.1667 6.04359H22.0417V7.87111H21.0833V17.9225H22.0417V19.75H0.958333V17.9225H1.91667V7.87111H0.958333V6.04359H3.83333V4.21607C3.83333 3.97373 3.9343 3.74131 4.11402 3.56995C4.29375 3.39859 4.5375 3.30231 4.79167 3.30231H18.2083C18.4625 3.30231 18.7063 3.39859 18.886 3.56995C19.0657 3.74131 19.1667 3.97373 19.1667 4.21607V6.04359ZM19.1667 7.87111H3.83333V17.9225H6.70833V11.5262H8.625V17.9225H10.5417V11.5262H12.4583V17.9225H14.375V11.5262H16.2917V17.9225H19.1667V7.87111ZM5.75 5.12983V6.04359H17.25V5.12983H5.75Z" fill="#5C5C5C"/>
</svg>
