<svg width="21" height="20" viewBox="0 0 21 20" fill="none" xmlns="http://www.w3.org/2000/svg">
<path d="M5.70833 4.67758V1.87103C5.70833 1.62292 5.8093 1.38497 5.98902 1.20952C6.16875 1.03408 6.4125 0.935516 6.66667 0.935516H14.3333C14.5875 0.935516 14.8313 1.03408 15.011 1.20952C15.1907 1.38497 15.2917 1.62292 15.2917 1.87103V4.67758H19.125C19.3792 4.67758 19.6229 4.77614 19.8026 4.95159C19.9824 5.12703 20.0833 5.36498 20.0833 5.6131V18.7103C20.0833 18.9584 19.9824 19.1964 19.8026 19.3718C19.6229 19.5473 19.3792 19.6458 19.125 19.6458H1.875C1.62083 19.6458 1.37708 19.5473 1.19736 19.3718C1.01763 19.1964 0.916667 18.9584 0.916667 18.7103V5.6131C0.916667 5.36498 1.01763 5.12703 1.19736 4.95159C1.37708 4.77614 1.62083 4.67758 1.875 4.67758H5.70833ZM2.83333 14.9683V17.7748H18.1667V14.9683H2.83333ZM2.83333 13.0972H18.1667V6.54861H2.83333V13.0972ZM7.625 2.80655V4.67758H13.375V2.80655H7.625ZM9.54167 10.2907H11.4583V12.1617H9.54167V10.2907Z" fill="#5C5C5C"/>
</svg>
