<svg width="23" height="24" viewBox="0 0 23 24" fill="none" xmlns="http://www.w3.org/2000/svg">
<path d="M18.2083 20.6285H4.79167C4.5375 20.6285 4.29375 20.5251 4.11402 20.341C3.9343 20.1569 3.83333 19.9072 3.83333 19.6468V10.8115H0.958333L10.855 1.59521C11.0315 1.43075 11.2615 1.33961 11.5 1.33961C11.7385 1.33961 11.9685 1.43075 12.145 1.59521L22.0417 10.8115H19.1667V19.6468C19.1667 19.9072 19.0657 20.1569 18.886 20.341C18.7063 20.5251 18.4625 20.6285 18.2083 20.6285ZM5.75 18.6651H17.25V9.00219L11.5 3.64796L5.75 9.00219V18.6651ZM8.23304 13.5691C8.11161 13.0456 8.11161 12.5003 8.23304 11.9768L7.28333 11.4152L8.24167 9.71491L9.19137 10.2774C9.57265 9.90731 10.0336 9.63424 10.5369 9.48028V8.35721H12.4535V9.48028C12.9634 9.63637 13.4215 9.91223 13.799 10.2774L14.7487 9.71491L15.7071 11.4142L14.7574 11.9768C14.8788 12.5003 14.8788 13.0456 14.7574 13.5691L15.7071 14.1306L14.7487 15.83L13.799 15.2684C13.4177 15.6382 12.9568 15.9109 12.4535 16.0646V17.1886H10.5369V16.0636C10.0337 15.9099 9.57275 15.6372 9.19137 15.2674L8.24167 15.829L7.28333 14.1306L8.23304 13.5681V13.5691ZM11.4952 14.2445C11.6883 14.2517 11.8808 14.219 12.0612 14.1483C12.2417 14.0776 12.4063 13.9704 12.5454 13.833C12.6845 13.6957 12.7951 13.531 12.8707 13.3488C12.9462 13.1667 12.9852 12.9708 12.9852 12.7729C12.9852 12.575 12.9462 12.3791 12.8707 12.197C12.7951 12.0149 12.6845 11.8502 12.5454 11.7128C12.4063 11.5755 12.2417 11.4682 12.0612 11.3975C11.8808 11.3268 11.6883 11.2941 11.4952 11.3013C11.1233 11.3153 10.7711 11.4764 10.5128 11.7509C10.2545 12.0253 10.1102 12.3917 10.1102 12.7729C10.1102 13.1542 10.2545 13.5205 10.5128 13.795C10.7711 14.0695 11.1233 14.2306 11.4952 14.2445Z" fill="#5C5C5C"/>
</svg>
