<svg width="23" height="24" viewBox="0 0 23 24" fill="none" xmlns="http://www.w3.org/2000/svg">
<path d="M15.3333 2.05143L20.125 6.8431V20.2531C20.1259 20.3789 20.102 20.5037 20.0546 20.6203C20.0073 20.7369 19.9374 20.8431 19.8491 20.9327C19.7607 21.0223 19.6555 21.0936 19.5396 21.1426C19.4237 21.1916 19.2992 21.2172 19.1734 21.2181H3.82663C3.57495 21.2163 3.33406 21.1157 3.156 20.9378C2.97794 20.7599 2.87701 20.5191 2.875 20.2674V3.0021C2.875 2.47693 3.30338 2.05143 3.83238 2.05143H15.3333ZM15.3333 8.44064H7.66667V7.16222H10.8608V5.88477H12.1392L12.1382 7.16222H14.374L14.375 3.9681H4.79167V19.3014H18.2083V7.80143L15.3333 7.80047V8.44064ZM8.94413 14.1906V16.1063H15.3333V17.3848H7.66667V14.1906H8.94413ZM11.5 13.8706C11.6258 13.8706 11.7505 13.8953 11.8667 13.9435C11.983 13.9917 12.0887 14.0623 12.1776 14.1512C12.2666 14.2402 12.3372 14.3459 12.3854 14.4622C12.4335 14.5784 12.4583 14.703 12.4583 14.8289C12.4583 14.9547 12.4335 15.0794 12.3854 15.1956C12.3372 15.3119 12.2666 15.4175 12.1776 15.5065C12.0887 15.5955 11.983 15.6661 11.8667 15.7143C11.7505 15.7624 11.6258 15.7872 11.5 15.7872C11.2458 15.7872 11.0021 15.6863 10.8224 15.5065C10.6426 15.3268 10.5417 15.0831 10.5417 14.8289C10.5417 14.5747 10.6426 14.331 10.8224 14.1512C11.0021 13.9715 11.2458 13.8706 11.5 13.8706ZM11.5 8.75977C12.1354 8.75977 12.7448 9.01218 13.1941 9.46149C13.6434 9.9108 13.8958 10.5202 13.8958 11.1556C13.8958 11.791 13.6434 12.4004 13.1941 12.8497C12.7448 13.299 12.1354 13.5514 11.5 13.5514C10.8646 13.5514 10.2552 13.299 9.80589 12.8497C9.35658 12.4004 9.10417 11.791 9.10417 11.1556C9.10417 10.5202 9.35658 9.9108 9.80589 9.46149C10.2552 9.01218 10.8646 8.75977 11.5 8.75977ZM11.5 10.0372C11.2034 10.0372 10.9189 10.1551 10.7092 10.3648C10.4995 10.5745 10.3816 10.859 10.3816 11.1556C10.3816 11.4522 10.4995 11.7367 10.7092 11.9464C10.9189 12.1561 11.2034 12.274 11.5 12.274C11.7966 12.274 12.0811 12.1561 12.2908 11.9464C12.5005 11.7367 12.6184 11.4522 12.6184 11.1556C12.6184 10.859 12.5005 10.5745 12.2908 10.3648C12.0811 10.1551 11.7966 10.0372 11.5 10.0372Z" fill="#5C5C5C"/>
</svg>
