<svg width="23" height="24" viewBox="0 0 23 24" fill="none" xmlns="http://www.w3.org/2000/svg">
<path d="M11.0208 2.46427C13.4354 2.46427 15.7511 3.42346 17.4585 5.13082C19.1658 6.83819 20.125 9.15387 20.125 11.5684C20.1272 12.9838 19.798 14.3799 19.1638 15.6452L21.5242 18.0065C21.7038 18.1862 21.8048 18.43 21.8048 18.6841C21.8048 18.9382 21.7038 19.1819 21.5242 19.3616L18.814 22.0718C18.6343 22.2514 18.3906 22.3524 18.1365 22.3524C17.8823 22.3524 17.6386 22.2514 17.4589 22.0718L15.0976 19.7114C13.8323 20.3456 12.4362 20.6748 11.0208 20.6726C8.60626 20.6726 6.29058 19.7134 4.58322 18.0061C2.87585 16.2987 1.91667 13.983 1.91667 11.5684C1.91667 9.15387 2.87585 6.83819 4.58322 5.13082C6.29058 3.42346 8.60626 2.46427 11.0208 2.46427ZM16.1029 15.2944L14.7478 16.6495L18.1365 20.0372L19.4915 18.6822L16.1029 15.2944ZM17.8892 9.44382L8.89621 18.4368C9.56704 18.6438 10.281 18.7559 11.0208 18.7559C11.9194 18.7571 12.8101 18.5894 13.6467 18.2614L12.7152 17.328C12.5355 17.1483 12.4346 16.9046 12.4346 16.6505C12.4346 16.3964 12.5355 16.1527 12.7152 15.9729L15.4253 13.2628C15.6051 13.0831 15.8488 12.9822 16.1029 12.9822C16.357 12.9822 16.6007 13.0831 16.7804 13.2628L17.7138 14.1943C18.0418 13.3577 18.2095 12.467 18.2083 11.5684C18.2083 10.8286 18.0962 10.1156 17.8892 9.44382ZM11.0208 4.38094C9.47569 4.38078 7.97163 4.87855 6.73165 5.80046C5.49167 6.72237 4.5818 8.01933 4.13693 9.49904C3.69205 10.9788 3.73587 12.5624 4.26189 14.0153C4.7879 15.4681 5.76811 16.7128 7.05717 17.5647L17.0171 7.60477C16.3624 6.61327 15.4718 5.79973 14.4253 5.23708C13.3788 4.67443 12.209 4.38026 11.0208 4.38094Z" fill="#5C5C5C"/>
</svg>
