<svg width="23" height="24" viewBox="0 0 23 24" fill="none" xmlns="http://www.w3.org/2000/svg">
<path d="M12.4583 16.7799V18.7559H17.25V20.6726H5.75V18.7559H10.5417V16.7799C8.68892 16.5462 6.98512 15.6445 5.75 14.2439C4.51489 12.8432 3.83336 11.04 3.83333 9.17261V3.42261H19.1667V9.17261C19.1666 11.04 18.4851 12.8432 17.25 14.2439C16.0149 15.6445 14.3111 16.5462 12.4583 16.7799ZM5.75 5.33927V9.17261C5.75 10.6976 6.3558 12.1601 7.43414 13.2385C8.51247 14.3168 9.975 14.9226 11.5 14.9226C13.025 14.9226 14.4875 14.3168 15.5659 13.2385C16.6442 12.1601 17.25 10.6976 17.25 9.17261V5.33927H5.75ZM0.958333 5.33927H2.875V9.17261H0.958333V5.33927ZM20.125 5.33927H22.0417V9.17261H20.125V5.33927Z" fill="#5C5C5C"/>
</svg>
