<svg width="23" height="23" viewBox="0 0 23 23" fill="none" xmlns="http://www.w3.org/2000/svg">
<path d="M20.125 2.875C20.3792 2.875 20.6229 2.97597 20.8026 3.15569C20.9824 3.33541 21.0833 3.57917 21.0833 3.83333V19.1667C21.0833 19.4208 20.9824 19.6646 20.8026 19.8443C20.6229 20.024 20.3792 20.125 20.125 20.125H2.875C2.62083 20.125 2.37708 20.024 2.19736 19.8443C2.01763 19.6646 1.91667 19.4208 1.91667 19.1667V3.83333C1.91667 3.57917 2.01763 3.33541 2.19736 3.15569C2.37708 2.97597 2.62083 2.875 2.875 2.875H20.125ZM19.1667 4.79167H3.83333V18.2083H19.1667V4.79167ZM9.00737 7.66667L12.0731 15.3333H10.0079L9.62454 14.375H6.47162L6.08829 15.3333H4.02404L7.09071 7.66667H9.00737ZM18.2083 7.66667V15.3333H15.3333C14.5708 15.3333 13.8396 15.0304 13.3004 14.4913C12.7612 13.9521 12.4583 13.2208 12.4583 12.4583C12.4583 11.6958 12.7612 10.9646 13.3004 10.4254C13.8396 9.88623 14.5708 9.58333 15.3333 9.58333H16.2907L16.2917 7.66667H18.2083ZM16.2917 11.5H15.3333C15.0891 11.5003 14.8541 11.5938 14.6765 11.7615C14.4989 11.9292 14.392 12.1583 14.3777 12.4022C14.3634 12.646 14.4427 12.8861 14.5995 13.0734C14.7563 13.2607 14.9787 13.3811 15.2212 13.41L15.3333 13.4167H16.2917V11.5ZM8.04904 10.4315L7.23733 12.4583H8.85883L8.04904 10.4315Z" fill="#5C5C5C"/>
</svg>
