<svg width="19" height="20" viewBox="0 0 19 20" fill="none" xmlns="http://www.w3.org/2000/svg">
<path d="M16.2083 11.1617H2.79167V17.7103H16.2083V11.1617ZM16.2083 9.29068C16.2083 7.55388 15.5016 5.88821 14.2435 4.66011C12.9855 3.432 11.2792 2.74206 9.5 2.74206C7.72084 2.74206 6.01455 3.432 4.75649 4.66011C3.49844 5.88821 2.79167 7.55388 2.79167 9.29068H16.2083ZM4.11608 2.71213C5.64342 1.51753 7.5429 0.867986 9.5 0.871032C11.5365 0.871032 13.4081 1.55957 14.8839 2.71213L16.2764 1.35282L17.6315 2.67564L16.239 4.03495C17.4627 5.52592 18.1281 7.38017 18.125 9.29068V18.6458C18.125 18.8939 18.024 19.1319 17.8443 19.3073C17.6646 19.4828 17.4208 19.5814 17.1667 19.5814H1.83333C1.57917 19.5814 1.33541 19.4828 1.15569 19.3073C0.975967 19.1319 0.875 18.8939 0.875 18.6458V9.29068C0.875 7.3027 1.58033 5.47564 2.761 4.03495L1.36854 2.67658L2.72363 1.35376L4.11608 2.71213ZM6.625 7.41964C6.37083 7.41964 6.12708 7.32108 5.94736 7.14564C5.76763 6.97019 5.66667 6.73224 5.66667 6.48413C5.66667 6.23601 5.76763 5.99806 5.94736 5.82262C6.12708 5.64718 6.37083 5.54861 6.625 5.54861C6.87917 5.54861 7.12292 5.64718 7.30264 5.82262C7.48237 5.99806 7.58333 6.23601 7.58333 6.48413C7.58333 6.73224 7.48237 6.97019 7.30264 7.14564C7.12292 7.32108 6.87917 7.41964 6.625 7.41964ZM12.375 7.41964C12.1208 7.41964 11.8771 7.32108 11.6974 7.14564C11.5176 6.97019 11.4167 6.73224 11.4167 6.48413C11.4167 6.23601 11.5176 5.99806 11.6974 5.82262C11.8771 5.64718 12.1208 5.54861 12.375 5.54861C12.6292 5.54861 12.8729 5.64718 13.0526 5.82262C13.2324 5.99806 13.3333 6.23601 13.3333 6.48413C13.3333 6.73224 13.2324 6.97019 13.0526 7.14564C12.8729 7.32108 12.6292 7.41964 12.375 7.41964Z" fill="#5C5C5C"/>
</svg>
