<svg width="23" height="23" viewBox="0 0 23 23" fill="none" xmlns="http://www.w3.org/2000/svg">
<path d="M16.2917 19.6458H6.70833C5.35059 19.6467 4.03635 19.1785 2.99833 18.3241C1.9603 17.4698 1.26545 16.2844 1.03683 14.9779C0.808201 13.6714 1.06055 12.3281 1.74918 11.1858C2.43781 10.0435 3.51831 9.17599 4.79933 8.73678C4.75594 7.85147 4.89709 6.96676 5.21425 6.13627C5.53141 5.30577 6.01797 4.54677 6.64446 3.90524C7.27094 3.2637 8.02431 2.753 8.85893 2.40405C9.69355 2.0551 10.5921 1.87518 11.5 1.87518C12.4079 1.87518 13.3064 2.0551 14.1411 2.40405C14.9757 2.753 15.7291 3.2637 16.3555 3.90524C16.982 4.54677 17.4686 5.30577 17.7857 6.13627C18.1029 6.96676 18.2441 7.85147 18.2007 8.73678C19.4817 9.17599 20.5622 10.0435 21.2508 11.1858C21.9395 12.3281 22.1918 13.6714 21.9632 14.9779C21.7345 16.2844 21.0397 17.4698 20.0017 18.3241C18.9636 19.1785 17.6494 19.6467 16.2917 19.6458ZM16.2917 8.41964C16.2919 7.79566 16.1642 7.17793 15.9162 6.60284C15.6682 6.02775 15.3048 5.50691 14.8474 5.071C14.3901 4.63509 13.848 4.29291 13.2531 4.06462C12.6582 3.83633 12.0225 3.72653 11.3835 3.7417C10.7445 3.75687 10.1151 3.89669 9.53224 4.15294C8.94943 4.40918 8.42502 4.77667 7.9899 5.23377C7.55478 5.69086 7.21774 6.22832 6.99864 6.81451C6.77953 7.40069 6.68278 8.02374 6.71408 8.64697L6.78117 10.039L5.43567 10.5012C4.58323 10.7955 3.86472 11.3743 3.40697 12.1354C2.94922 12.8966 2.78167 13.7912 2.9339 14.6612C3.08613 15.5313 3.54835 16.3208 4.23896 16.8905C4.92957 17.4602 5.80417 17.7734 6.70833 17.7748H16.2917C16.9973 17.7746 17.6892 17.5842 18.2911 17.2247C18.8931 16.8651 19.3816 16.3504 19.7031 15.7371C20.0245 15.1239 20.1662 14.4359 20.1127 13.749C20.0592 13.0622 19.8125 12.403 19.3998 11.8443C18.9872 11.2855 18.4245 10.8488 17.7738 10.5822C17.1231 10.3156 16.4097 10.2296 15.7121 10.3335C15.0145 10.4374 14.3598 10.7273 13.8202 11.1712C13.2806 11.6151 12.877 12.1958 12.6538 12.8493L10.8349 12.2571C11.2171 11.1395 11.9497 10.1676 12.929 9.47893C13.9083 8.79023 15.0847 8.41965 16.2917 8.41964Z" fill="#5C5C5C"/>
</svg>
