<svg width="23" height="24" viewBox="0 0 23 24" fill="none" xmlns="http://www.w3.org/2000/svg">
<path d="M1.91667 19.623H21.0833V21.5853H1.91667V19.623ZM3.83333 11.7738H5.75V18.6419H3.83333V11.7738ZM8.625 11.7738H10.5417V18.6419H8.625V11.7738ZM12.4583 11.7738H14.375V18.6419H12.4583V11.7738ZM17.25 11.7738H19.1667V18.6419H17.25V11.7738ZM1.91667 6.86806L11.5 1.9623L21.0833 6.86806V10.7927H1.91667V6.86806ZM3.83333 8.08076V8.83036H19.1667V8.08076L11.5 4.15616L3.83333 8.08076ZM11.5 7.84921C11.2458 7.84921 11.0021 7.74584 10.8224 7.56183C10.6426 7.37783 10.5417 7.12827 10.5417 6.86806C10.5417 6.60784 10.6426 6.35828 10.8224 6.17428C11.0021 5.99028 11.2458 5.8869 11.5 5.8869C11.7542 5.8869 11.9979 5.99028 12.1776 6.17428C12.3574 6.35828 12.4583 6.60784 12.4583 6.86806C12.4583 7.12827 12.3574 7.37783 12.1776 7.56183C11.9979 7.74584 11.7542 7.84921 11.5 7.84921Z" fill="#5C5C5C"/>
</svg>
