<svg width="23" height="24" viewBox="0 0 23 24" fill="none" xmlns="http://www.w3.org/2000/svg">
<path d="M11.5 2.46427C16.7929 2.46427 21.0833 6.75473 21.0833 12.0476C21.0833 17.3405 16.7929 21.6309 11.5 21.6309C6.20713 21.6309 1.91667 17.3405 1.91667 12.0476C1.91667 6.75473 6.20713 2.46427 11.5 2.46427ZM11.8507 13.3567L8.52629 19.1163C9.8756 19.6808 11.3576 19.8503 12.7995 19.605C12.5448 17.8143 12.8054 15.988 13.5508 14.3399L11.8507 13.3567ZM15.2222 15.3031C14.7249 16.4802 14.5315 17.7634 14.6596 19.0348C15.8228 18.5074 16.8363 17.6985 17.6084 16.6811L15.2222 15.3031ZM8.48987 11.417C7.43532 12.8867 5.9845 14.0261 4.30675 14.7022C4.81361 16.0738 5.70168 17.272 6.86646 18.156L10.1909 12.3984L8.48987 11.417ZM19.1302 11.2924L18.883 11.4074C17.8205 11.9323 16.8951 12.6979 16.1805 13.6432L18.5687 15.0223C19.0647 13.8451 19.2578 12.5634 19.1302 11.2924ZM3.83333 12.0476C3.83333 12.3025 3.84579 12.5555 3.86975 12.8037C5.0346 12.2795 6.04895 11.4708 6.8195 10.452L4.43133 9.0739C4.03533 10.0152 3.83199 11.0264 3.83333 12.0476ZM16.1335 5.93919L12.8091 11.6969L14.5101 12.6791C15.5647 11.2086 17.0159 10.0686 18.6942 9.39207C18.223 8.11963 17.4231 6.99473 16.376 6.13182L16.1335 5.93919ZM11.5 4.38094C11.0563 4.38094 10.6222 4.41927 10.1995 4.49115C10.4547 6.28192 10.1941 8.10831 9.44821 9.75623L11.1493 10.7385L14.4737 4.97894C13.5324 4.58293 12.5212 4.3796 11.5 4.38094ZM8.34037 5.06136L8.15733 5.14569C7.0701 5.67417 6.12261 6.45127 5.39158 7.41407L7.77783 8.79215C8.27494 7.61532 8.46838 6.33244 8.34037 5.06136Z" fill="#5C5C5C"/>
</svg>
