<svg width="23" height="23" viewBox="0 0 23 23" fill="none" xmlns="http://www.w3.org/2000/svg">
<path d="M12.4583 20.125V22.0417H10.5417V20.125H2.875C2.62083 20.125 2.37708 20.024 2.19736 19.8443C2.01763 19.6646 1.91667 19.4208 1.91667 19.1667V5.75H21.0833V19.1667C21.0833 19.4208 20.9824 19.6646 20.8026 19.8443C20.6229 20.024 20.3792 20.125 20.125 20.125H12.4583ZM3.83333 18.2083H19.1667V7.66667H3.83333V18.2083ZM12.4583 9.58333H17.25V11.5H12.4583V9.58333ZM12.4583 13.4167H17.25V15.3333H12.4583V13.4167ZM8.625 9.58333V12.4583H11.5C11.5 13.027 11.3314 13.5828 11.0155 14.0556C10.6996 14.5284 10.2506 14.8969 9.72521 15.1145C9.19988 15.3321 8.62181 15.389 8.06412 15.2781C7.50642 15.1672 6.99414 14.8933 6.59207 14.4913C6.18999 14.0892 5.91617 13.5769 5.80524 13.0192C5.69431 12.4615 5.75125 11.8835 5.96885 11.3581C6.18645 10.8328 6.55494 10.3838 7.02774 10.0679C7.50053 9.75195 8.05638 9.58333 8.625 9.58333ZM1.91667 2.875H21.0833V4.79167H1.91667V2.875Z" fill="#5C5C5C"/>
</svg>
