<svg width="23" height="24" viewBox="0 0 23 24" fill="none" xmlns="http://www.w3.org/2000/svg">
<path d="M16.2917 3.9246C17.8167 3.9246 19.2792 4.54483 20.3575 5.64884C21.4359 6.75285 22.0417 8.2502 22.0417 9.81151V13.7361C22.0417 15.2974 21.4359 16.7948 20.3575 17.8988C19.2792 19.0028 17.8167 19.623 16.2917 19.623H6.70833C5.18334 19.623 3.7208 19.0028 2.64247 17.8988C1.56414 16.7948 0.958333 15.2974 0.958333 13.7361V9.81151C0.958333 8.2502 1.56414 6.75285 2.64247 5.64884C3.7208 4.54483 5.18334 3.9246 6.70833 3.9246H16.2917ZM16.2917 5.8869H6.70833C5.72485 5.8869 4.77899 6.27391 4.06639 6.96786C3.35379 7.66182 2.92897 8.60964 2.87979 9.61528L2.875 9.81151V13.7361C2.875 14.743 3.253 15.7114 3.93082 16.441C4.60864 17.1705 5.53441 17.6055 6.51667 17.6558L6.70833 17.6607H16.2917C17.2751 17.6607 18.221 17.2737 18.9336 16.5798C19.6462 15.8858 20.071 14.938 20.1202 13.9323L20.125 13.7361V9.81151C20.125 8.80461 19.747 7.83623 19.0692 7.10666C18.3914 6.37709 17.4656 5.94216 16.4833 5.89181L16.2917 5.8869ZM9.58333 8.83036V10.7927H11.5V12.755H9.58237L9.58333 14.7173H7.66667L7.66571 12.755H5.75V10.7927H7.66667V8.83036H9.58333ZM17.25 12.755V14.7173H15.3333V12.755H17.25ZM15.3333 8.83036V10.7927H13.4167V8.83036H15.3333Z" fill="#5C5C5C"/>
</svg>
