<svg width="23" height="24" viewBox="0 0 23 24" fill="none" xmlns="http://www.w3.org/2000/svg">
<path d="M7.66667 19.6341V13.7439H15.3333V19.6341H18.2083V3.92683H4.79167V19.6341H7.66667ZM9.58333 19.6341H13.4167V15.7073H9.58333V19.6341ZM20.125 19.6341H22.0417V21.5976H0.958333V19.6341H2.875V2.94512C2.875 2.68476 2.97597 2.43506 3.15569 2.25095C3.33541 2.06684 3.57917 1.96341 3.83333 1.96341H19.1667C19.4208 1.96341 19.6646 2.06684 19.8443 2.25095C20.024 2.43506 20.125 2.68476 20.125 2.94512V19.6341ZM10.5417 7.85366V5.89024H12.4583V7.85366H14.375V9.81707H12.4583V11.7805H10.5417V9.81707H8.625V7.85366H10.5417Z" fill="#5C5C5C"/>
</svg>
