<svg width="23" height="23" viewBox="0 0 23 23" fill="none" xmlns="http://www.w3.org/2000/svg">
<path d="M1.91667 3.73763C1.91842 3.49181 2.01911 3.25652 2.19699 3.08261C2.37487 2.90869 2.61566 2.8101 2.86733 2.80814H20.1327C20.6578 2.80814 21.0833 3.22468 21.0833 3.73763V18.7275C21.0816 18.9733 20.9809 19.2086 20.803 19.3825C20.6251 19.5564 20.3843 19.655 20.1327 19.657H2.86733C2.61511 19.6567 2.37331 19.5587 2.19505 19.3844C2.0168 19.2101 1.91667 18.9738 1.91667 18.7275V3.73763ZM3.83333 4.68023V17.7849H19.1667V4.68023H3.83333ZM5.75 6.55233H11.5V12.1686H5.75V6.55233ZM7.66667 8.42442V10.2965H9.58333V8.42442H7.66667ZM5.75 14.0407H17.25V15.9128H5.75V14.0407ZM13.4167 6.55233H17.25V8.42442H13.4167V6.55233ZM13.4167 10.2965H17.25V12.1686H13.4167V10.2965Z" fill="#5C5C5C"/>
</svg>
