<svg width="23" height="23" viewBox="0 0 23 23" fill="none" xmlns="http://www.w3.org/2000/svg">
<path d="M15.0736 7.866C14.6203 7.83054 14.1335 7.93883 13.3879 8.22346C13.4512 8.1995 12.6768 8.50137 12.4602 8.57804C11.9792 8.74575 11.5834 8.83775 11.1397 8.83775C10.7008 8.83775 10.2963 8.74958 9.83058 8.59337C9.68204 8.54258 9.53254 8.48796 9.34663 8.41512C9.26804 8.38446 8.98054 8.26946 8.91729 8.2455C8.29629 8.00208 7.9465 7.91008 7.65613 7.91775C6.55212 7.93212 5.50658 8.56942 4.89996 9.6255C3.66179 11.776 4.347 15.662 6.15729 18.2802C7.12138 19.664 7.64846 20.1585 7.86121 20.1518C8.07396 20.1422 8.23017 20.0972 8.61158 19.9362L8.77163 19.8682C9.73475 19.457 10.4104 19.2759 11.4272 19.2759C12.4056 19.2759 13.0592 19.4542 13.984 19.8528L14.145 19.9218C14.5264 20.0847 14.6644 20.1212 14.904 20.1154C15.2471 20.1106 15.6697 19.7158 16.6079 18.3387C16.8647 17.964 17.0919 17.5691 17.2883 17.1695C17.1592 17.0631 17.0339 16.9522 16.9127 16.837C15.6774 15.6601 14.9136 14.0731 14.8925 12.1124C14.8719 10.6616 15.3487 9.24755 16.2438 8.10558C15.8681 7.9669 15.4736 7.88612 15.0736 7.866ZM15.2222 5.95508C15.9007 6.00108 17.8442 6.20808 19.1092 8.05958C19.0057 8.11708 16.7862 9.40508 16.8092 12.0961C16.8437 15.3161 19.6267 16.3856 19.6612 16.3971C19.6382 16.4776 19.2127 17.9266 18.1892 19.4216C17.3037 20.7211 16.3837 22.0091 14.9347 22.0321C13.5087 22.0666 13.0487 21.1926 11.4272 21.1926C9.79417 21.1926 9.28817 22.0091 7.94267 22.0666C6.53967 22.1126 5.48167 20.6636 4.58467 19.3756C2.75617 16.7306 1.36467 11.9236 3.23917 8.66908C4.17067 7.04758 5.82667 6.02408 7.63217 6.00108C9.00067 5.96658 10.3002 6.92108 11.1397 6.92108C11.9677 6.92108 13.4512 5.81708 15.2222 5.95508ZM14.1297 4.20708C13.3822 5.10408 12.1632 5.80558 10.9787 5.71358C10.8177 4.49458 11.4157 3.21808 12.1057 2.42458C12.8762 1.52758 14.1642 0.860583 15.2337 0.814583C15.3717 2.05658 14.8772 3.31008 14.1297 4.20708Z" fill="#5C5C5C"/>
</svg>
