<svg width="23" height="24" viewBox="0 0 23 24" fill="none" xmlns="http://www.w3.org/2000/svg">
<path d="M12.4583 20.3416V22.2127H10.5417V20.3416H2.875C2.62083 20.3416 2.37708 20.2431 2.19736 20.0676C2.01763 19.8922 1.91667 19.6542 1.91667 19.4061V4.43786C1.91667 4.18975 2.01763 3.9518 2.19736 3.77635C2.37708 3.60091 2.62083 3.50235 2.875 3.50235H8.625C9.16894 3.50172 9.70675 3.61438 10.2025 3.83282C10.6983 4.05125 11.1406 4.37043 11.5 4.76904C11.8594 4.37043 12.3017 4.05125 12.7975 3.83282C13.2932 3.61438 13.8311 3.50172 14.375 3.50235H20.125C20.3792 3.50235 20.6229 3.60091 20.8026 3.77635C20.9824 3.9518 21.0833 4.18975 21.0833 4.43786V19.4061C21.0833 19.6542 20.9824 19.8922 20.8026 20.0676C20.6229 20.2431 20.3792 20.3416 20.125 20.3416H12.4583ZM19.1667 18.4706V5.37338H14.375C13.8667 5.37338 13.3792 5.57051 13.0197 5.92139C12.6603 6.27228 12.4583 6.74818 12.4583 7.24441V18.4706H19.1667ZM10.5417 18.4706V7.24441C10.5417 6.74818 10.3397 6.27228 9.98029 5.92139C9.62084 5.57051 9.13333 5.37338 8.625 5.37338H3.83333V18.4706H10.5417Z" fill="#5C5C5C"/>
</svg>
