<svg width="23" height="24" viewBox="0 0 23 24" fill="none" xmlns="http://www.w3.org/2000/svg">
<path d="M20.125 11.433V20.6159C20.125 20.8762 20.024 21.1259 19.8443 21.31C19.6646 21.4941 19.4208 21.5976 19.1667 21.5976H3.83333C3.57917 21.5976 3.33541 21.4941 3.15569 21.31C2.97597 21.1259 2.875 20.8762 2.875 20.6159V11.433C2.25622 10.7163 1.91528 9.79215 1.91667 8.83537V2.94512C1.91667 2.68476 2.01763 2.43506 2.19736 2.25095C2.37708 2.06684 2.62083 1.96341 2.875 1.96341H20.125C20.3792 1.96341 20.6229 2.06684 20.8026 2.25095C20.9824 2.43506 21.0833 2.68476 21.0833 2.94512V8.83537C21.0833 9.83082 20.7211 10.7399 20.125 11.433ZM18.2083 12.6385C17.523 12.8189 16.8023 12.8017 16.1259 12.589C15.4494 12.3763 14.8435 11.9762 14.375 11.433C14.0156 11.8513 13.5733 12.1862 13.0775 12.4154C12.5818 12.6446 12.0439 12.7629 11.5 12.7622C10.9561 12.7629 10.4182 12.6446 9.92247 12.4154C9.42669 12.1862 8.98435 11.8513 8.625 11.433C8.15763 11.9777 7.55179 12.3789 6.87497 12.5918C6.19815 12.8046 5.47693 12.8208 4.79167 12.6385V19.6341H18.2083V12.6385ZM13.4167 8.83537C13.4167 8.575 13.5176 8.3253 13.6974 8.14119C13.8771 7.95709 14.1208 7.85366 14.375 7.85366C14.6292 7.85366 14.8729 7.95709 15.0526 8.14119C15.2324 8.3253 15.3333 8.575 15.3333 8.83537C15.3333 9.3561 15.5353 9.8555 15.8947 10.2237C16.2542 10.5919 16.7417 10.7988 17.25 10.7988C17.7583 10.7988 18.2458 10.5919 18.6053 10.2237C18.9647 9.8555 19.1667 9.3561 19.1667 8.83537V3.92683H3.83333V8.83537C3.83333 9.3561 4.03527 9.8555 4.39471 10.2237C4.75416 10.5919 5.24167 10.7988 5.75 10.7988C6.25833 10.7988 6.74584 10.5919 7.10529 10.2237C7.46473 9.8555 7.66667 9.3561 7.66667 8.83537C7.66667 8.575 7.76763 8.3253 7.94736 8.14119C8.12708 7.95709 8.37083 7.85366 8.625 7.85366C8.87917 7.85366 9.12292 7.95709 9.30264 8.14119C9.48237 8.3253 9.58333 8.575 9.58333 8.83537C9.58333 9.3561 9.78527 9.8555 10.1447 10.2237C10.5042 10.5919 10.9917 10.7988 11.5 10.7988C12.0083 10.7988 12.4958 10.5919 12.8553 10.2237C13.2147 9.8555 13.4167 9.3561 13.4167 8.83537Z" fill="#5C5C5C"/>
</svg>
