<svg width="23" height="24" viewBox="0 0 23 24" fill="none" xmlns="http://www.w3.org/2000/svg">
<path d="M11.5 6.86806C13.5333 6.86806 15.4834 7.69502 16.9212 9.16703C18.3589 10.639 19.1667 12.6355 19.1667 14.7173C19.1667 16.799 18.3589 18.7955 16.9212 20.2675C15.4834 21.7395 13.5333 22.5665 11.5 22.5665C9.46667 22.5665 7.51663 21.7395 6.07885 20.2675C4.64107 18.7955 3.83333 16.799 3.83333 14.7173C3.83333 12.6355 4.64107 10.639 6.07885 9.16703C7.51663 7.69502 9.46667 6.86806 11.5 6.86806ZM11.5 8.83036C9.97501 8.83036 8.51247 9.45058 7.43414 10.5546C6.3558 11.6586 5.75 13.156 5.75 14.7173C5.75 16.2786 6.3558 17.7759 7.43414 18.8799C8.51247 19.9839 9.97501 20.6042 11.5 20.6042C13.025 20.6042 14.4875 19.9839 15.5659 18.8799C16.6442 17.7759 17.25 16.2786 17.25 14.7173C17.25 13.156 16.6442 11.6586 15.5659 10.5546C14.4875 9.45058 13.025 8.83036 11.5 8.83036ZM11.5 10.3021L12.7679 12.9316L15.6017 13.3535L13.5508 15.3992L14.0348 18.2896L11.5 16.9249L8.96521 18.2886L9.44917 15.3992L7.39833 13.3525L10.2321 12.9306L11.5 10.3021ZM17.25 1.9623V4.90575L15.9438 6.0223C14.8599 5.44007 13.6764 5.07729 12.4583 4.95383V1.9623H17.25ZM10.5417 1.96132V4.95383C9.32396 5.07711 8.14087 5.43955 7.05717 6.02132L5.75 4.90575V1.9623L10.5417 1.96132Z" fill="#5C5C5C"/>
</svg>
