<svg width="21" height="20" viewBox="0 0 21 20" fill="none" xmlns="http://www.w3.org/2000/svg">
<path d="M2.02929 2.38725C3.14102 1.2482 4.63212 0.581975 6.2034 0.522252C7.77469 0.462529 9.30989 1.01373 10.501 2.06525C11.691 1.01548 13.2241 0.464901 14.7935 0.523736C16.3629 0.582571 17.8527 1.24648 18.9646 2.38254C20.0766 3.51861 20.7286 5.04299 20.7901 6.6505C20.8517 8.25801 20.3182 9.83002 19.2965 11.0518L11.8551 18.6993C11.5132 19.0496 11.0547 19.2547 10.5714 19.2732C10.0882 19.2918 9.61593 19.1226 9.24937 18.7994L9.14396 18.7003L1.70346 11.0518C0.682343 9.83107 0.148639 8.26052 0.209048 6.65412C0.269457 5.04773 0.919528 3.52388 2.02929 2.38725ZM3.38437 3.77538C2.60069 4.57841 2.14894 5.65972 2.12289 6.79489C2.09684 7.93006 2.49848 9.03192 3.24446 9.87179L3.38437 10.023L10.5 17.3121L15.582 12.1052L12.1943 8.63483L11.1785 9.67544C10.9116 9.94901 10.5947 10.166 10.2458 10.3141C9.89704 10.4622 9.52318 10.5385 9.14559 10.5386C8.38303 10.5388 7.65163 10.2287 7.11229 9.67643C6.57295 9.12419 6.26985 8.3751 6.26967 7.59394C6.26949 6.81278 6.57225 6.06354 7.11133 5.51104L9.12575 3.44651C8.32407 2.7911 7.32064 2.44977 6.29549 2.48378C5.27034 2.51778 4.29056 2.92489 3.53196 3.63205L3.38437 3.77538ZM11.5168 6.55165C11.6965 6.36761 11.9402 6.26422 12.1943 6.26422C12.4484 6.26422 12.6922 6.36761 12.8719 6.55165L16.9371 10.7161L17.6156 10.023C18.4124 9.2073 18.8661 8.10463 18.8795 6.95078C18.8929 5.79692 18.4651 4.68348 17.6875 3.84857C16.9099 3.01367 15.8443 2.52358 14.7185 2.48312C13.5928 2.44265 12.4962 2.85503 11.6634 3.63205L11.5168 3.77538L8.46737 6.89918C8.30127 7.06922 8.20189 7.29583 8.18811 7.53597C8.17433 7.77612 8.24711 8.01309 8.39262 8.2019L8.46737 8.28731C8.63337 8.45747 8.85458 8.55927 9.08901 8.57338C9.32344 8.5875 9.55477 8.51295 9.73908 8.36388L9.82246 8.28731L11.5168 6.55165Z" fill="#5C5C5C"/>
</svg>
