<svg width="23" height="24" viewBox="0 0 23 24" fill="none" xmlns="http://www.w3.org/2000/svg">
<path d="M2.875 2.94345H20.125C20.3792 2.94345 20.6229 3.04682 20.8026 3.23082C20.9824 3.41483 21.0833 3.66439 21.0833 3.9246V19.623C21.0833 19.8832 20.9824 20.1328 20.8026 20.3168C20.6229 20.5008 20.3792 20.6042 20.125 20.6042H2.875C2.62083 20.6042 2.37708 20.5008 2.19736 20.3168C2.01763 20.1328 1.91667 19.8832 1.91667 19.623V3.9246C1.91667 3.66439 2.01763 3.41483 2.19736 3.23082C2.37708 3.04682 2.62083 2.94345 2.875 2.94345ZM3.83333 4.90575V18.6419H19.1667V4.90575H3.83333ZM16.1958 12.755C15.9554 13.9435 15.2933 14.9986 14.3374 15.7166C13.3815 16.4345 12.1997 16.7643 11.0201 16.6424C9.84063 16.5204 8.7471 15.9552 7.95077 15.0561C7.15443 14.1569 6.71179 12.9876 6.70833 11.7738C6.70847 10.643 7.09004 9.5469 7.78851 8.67089C8.48699 7.79488 9.45953 7.1927 10.5417 6.96617V12.755H16.1958ZM16.1958 10.7927H12.4583V6.96617C13.3789 7.15916 14.2238 7.62466 14.8882 8.30491C15.5527 8.98516 16.0073 9.8502 16.1958 10.7927Z" fill="#5C5C5C"/>
</svg>
