<svg width="17" height="22" viewBox="0 0 17 22" fill="none" xmlns="http://www.w3.org/2000/svg">
<path d="M13.2917 14.6098V21.1955C13.2917 21.2802 13.2692 21.3635 13.2265 21.4368C13.1839 21.51 13.1225 21.5706 13.0487 21.6124C12.975 21.6542 12.8915 21.6757 12.8067 21.6747C12.7219 21.6737 12.6389 21.6502 12.5662 21.6066L8.5 19.1667L4.43379 21.6066C4.361 21.6502 4.27793 21.6737 4.19307 21.6747C4.10822 21.6757 4.02462 21.6541 3.95083 21.6122C3.87704 21.5703 3.81571 21.5095 3.7731 21.4361C3.7305 21.3627 3.70815 21.2794 3.70833 21.1945V14.6107C2.46839 13.618 1.56741 12.2646 1.1299 10.7377C0.692387 9.21073 0.739949 7.58558 1.26601 6.08683C1.79208 4.58807 2.77066 3.28972 4.06654 2.37118C5.36242 1.45265 6.9116 0.959293 8.5 0.959293C10.0884 0.959293 11.6376 1.45265 12.9335 2.37118C14.2293 3.28972 15.2079 4.58807 15.734 6.08683C16.26 7.58558 16.3076 9.21073 15.8701 10.7377C15.4326 12.2646 14.5316 13.617 13.2917 14.6098ZM5.625 15.7339V18.6568L8.5 16.9318L11.375 18.6568V15.7339C10.4616 16.1034 9.48532 16.2927 8.5 16.2917C7.51468 16.2927 6.53844 16.1034 5.625 15.7339ZM8.5 14.375C10.025 14.375 11.4875 13.7692 12.5659 12.6909C13.6442 11.6125 14.25 10.15 14.25 8.625C14.25 7.1 13.6442 5.63747 12.5659 4.55914C11.4875 3.4808 10.025 2.875 8.5 2.875C6.975 2.875 5.51247 3.4808 4.43414 4.55914C3.3558 5.63747 2.75 7.1 2.75 8.625C2.75 10.15 3.3558 11.6125 4.43414 12.6909C5.51247 13.7692 6.975 14.375 8.5 14.375Z" fill="#5C5C5C"/>
</svg>
