<svg width="23" height="24" viewBox="0 0 23 24" fill="none" xmlns="http://www.w3.org/2000/svg">
<path d="M11.8967 5.3654H20.125C20.3792 5.3654 20.6229 5.46636 20.8026 5.64609C20.9824 5.82581 21.0833 6.06956 21.0833 6.32373V19.7404C21.0833 19.9946 20.9824 20.2383 20.8026 20.418C20.6229 20.5978 20.3792 20.6987 20.125 20.6987H2.875C2.62083 20.6987 2.37708 20.5978 2.19736 20.418C2.01763 20.2383 1.91667 19.9946 1.91667 19.7404V4.40706C1.91667 4.1529 2.01763 3.90914 2.19736 3.72942C2.37708 3.5497 2.62083 3.44873 2.875 3.44873H9.98008L11.8967 5.3654ZM3.83333 5.3654V18.7821H19.1667V7.28206H11.1033L9.18658 5.3654H3.83333ZM10.5417 13.08V9.19873H15.3333V11.1154H12.4583V15.4279C12.4582 15.9223 12.3052 16.4045 12.0202 16.8085C11.7352 17.2125 11.3322 17.5184 10.8665 17.6843C10.4007 17.8502 9.89509 17.868 9.41887 17.7352C8.94265 17.6024 8.51918 17.3255 8.20654 16.9425C7.8939 16.5595 7.70739 16.0892 7.67261 15.596C7.63782 15.1028 7.75645 14.611 8.01223 14.1879C8.26801 13.7648 8.64842 13.4312 9.10127 13.2329C9.55413 13.0345 10.0573 12.9811 10.5417 13.08Z" fill="#5C5C5C"/>
</svg>
