<svg width="23" height="24" viewBox="0 0 23 24" fill="none" xmlns="http://www.w3.org/2000/svg">
<path d="M21.0833 20.6159H1.91667V18.6524H2.875V3.92683C2.875 3.66646 2.97597 3.41676 3.15569 3.23266C3.33541 3.04855 3.57917 2.94512 3.83333 2.94512H17.25C17.5042 2.94512 17.7479 3.04855 17.9276 3.23266C18.1074 3.41676 18.2083 3.66646 18.2083 3.92683V8.83537H20.125V18.6524H21.0833V20.6159ZM16.2917 18.6524H18.2083V10.7988H12.4583V18.6524H14.375V12.7622H16.2917V18.6524ZM16.2917 8.83537V4.90854H4.79167V18.6524H10.5417V8.83537H16.2917ZM6.70833 10.7988H8.625V12.7622H6.70833V10.7988ZM6.70833 14.7256H8.625V16.689H6.70833V14.7256ZM6.70833 6.87195H8.625V8.83537H6.70833V6.87195Z" fill="#5C5C5C"/>
</svg>
