<svg width="23" height="23" viewBox="0 0 23 23" fill="none" xmlns="http://www.w3.org/2000/svg">
<path d="M21.0833 15.9056C21.0829 17.185 20.6349 18.4259 19.8136 19.4228C18.9922 20.4198 17.8467 21.113 16.5667 21.3878L15.9553 19.5972C16.5152 19.5072 17.0476 19.297 17.5143 18.9819C17.981 18.6668 18.3702 18.2545 18.654 17.7748H16.2917C15.7833 17.7748 15.2958 17.5777 14.9364 17.2268C14.5769 16.8759 14.375 16.4 14.375 15.9038V12.1617C14.375 11.6655 14.5769 11.1896 14.9364 10.8387C15.2958 10.4878 15.7833 10.2907 16.2917 10.2907H19.1073C18.8734 8.48222 17.9715 6.81923 16.5709 5.61373C15.1704 4.40823 13.3673 3.74307 11.5 3.74307C9.63274 3.74307 7.82965 4.40823 6.42905 5.61373C5.02845 6.81923 4.12661 8.48222 3.89275 10.2907H6.70833C7.21667 10.2907 7.70418 10.4878 8.06362 10.8387C8.42307 11.1896 8.625 11.6655 8.625 12.1617V15.9038C8.625 16.4 8.42307 16.8759 8.06362 17.2268C7.70418 17.5777 7.21667 17.7748 6.70833 17.7748H3.83333C3.325 17.7748 2.83749 17.5777 2.47805 17.2268C2.1186 16.8759 1.91667 16.4 1.91667 15.9038V11.2262C1.91667 6.05934 6.20713 1.87103 11.5 1.87103C16.7929 1.87103 21.0833 6.05934 21.0833 11.2262V15.9056ZM19.1667 15.9038V12.1617H16.2917V15.9038H19.1667ZM3.83333 12.1617V15.9038H6.70833V12.1617H3.83333Z" fill="#5C5C5C"/>
</svg>
