<svg width="23" height="25" viewBox="0 0 23 25" fill="none" xmlns="http://www.w3.org/2000/svg">
<path d="M18.1135 10.6118C18.492 11.3009 19.1149 11.8051 19.8464 12.0146C20.5779 12.2242 21.3587 12.122 22.0187 11.7305C22.0963 12.4578 21.9557 13.1924 21.6164 13.832C21.2771 14.4715 20.7561 14.9842 20.126 15.2985L20.125 21.6677H13.4167V19.6576C13.4168 19.1504 13.2342 18.662 12.9054 18.2901C12.5766 17.9183 12.1259 17.6905 11.6437 17.6524L11.5 17.6474C11.0164 17.6473 10.5507 17.8388 10.1961 18.1836C9.84158 18.5285 9.62439 19.0011 9.58812 19.5068L9.58333 19.6576V21.6677H2.875V15.2995C2.2436 14.9857 1.72143 14.4728 1.38142 13.8326C1.04141 13.1924 0.900533 12.4568 0.978458 11.7285C1.6384 12.1208 2.41948 12.2236 3.15139 12.0144C3.8833 11.8053 4.50667 11.3011 4.88558 10.6118H18.1135ZM17.1829 12.622H5.81612L5.74329 12.7014C5.33025 13.1235 4.84725 13.4653 4.31921 13.7085L4.22721 13.7477L4.79167 14.0291L4.79071 19.6576L7.66762 19.6566V19.5842L7.67721 19.3601C7.82 17.3338 9.38304 15.7428 11.3706 15.6433L11.57 15.6383L11.7837 15.6483C12.7153 15.7208 13.5896 16.1476 14.2423 16.8484C14.8951 17.5493 15.2814 18.4761 15.3285 19.4546L15.3324 19.6566L18.2083 19.6576L18.2093 14.0291L18.7718 13.7477L18.6808 13.7075C18.1522 13.4648 17.6698 13.1239 17.2567 12.7014L17.1829 12.622ZM16.3262 3.57628C16.3947 4.0749 16.5646 4.55226 16.8243 4.97607C17.084 5.39988 17.4274 5.76025 17.8314 6.0328C18.2354 6.30534 18.6904 6.48371 19.1658 6.55583C19.6412 6.62794 20.1259 6.59213 20.5869 6.45081C20.5049 7.2836 20.1423 8.05839 19.5644 8.63594C18.9865 9.2135 18.2311 9.55594 17.434 9.60174L17.25 9.60677H5.75C4.92006 9.60691 4.11954 9.28434 3.50319 8.70142C2.88685 8.1185 2.49845 7.31662 2.41308 6.45081C2.87414 6.59213 3.35876 6.62794 3.83416 6.55583C4.30956 6.48371 4.76464 6.30534 5.16862 6.0328C5.5726 5.76025 5.91605 5.39988 6.17574 4.97607C6.43542 4.55226 6.60529 4.0749 6.67383 3.57628H16.3262ZM14.95 5.58644H8.04904C7.70377 6.29548 7.21672 6.91805 6.62112 7.41167L6.38346 7.5966H16.6156L16.6041 7.58856C15.9877 7.13154 15.4717 6.54139 15.0909 5.85781L14.95 5.58644Z" fill="#5C5C5C"/>
</svg>
