<svg width="23" height="23" viewBox="0 0 23 23" fill="none" xmlns="http://www.w3.org/2000/svg">
<path d="M15.3333 19.1667V3.83333H3.83333V18.2083C3.83333 18.4625 3.9343 18.7063 4.11402 18.886C4.29375 19.0657 4.5375 19.1667 4.79167 19.1667H15.3333ZM18.2083 21.0833H4.79167C4.02917 21.0833 3.2979 20.7804 2.75873 20.2413C2.21957 19.7021 1.91667 18.9708 1.91667 18.2083V2.875C1.91667 2.62083 2.01763 2.37708 2.19736 2.19736C2.37708 2.01763 2.62083 1.91667 2.875 1.91667H16.2917C16.5458 1.91667 16.7896 2.01763 16.9693 2.19736C17.149 2.37708 17.25 2.62083 17.25 2.875V9.58333H21.0833V18.2083C21.0833 18.9708 20.7804 19.7021 20.2413 20.2413C19.7021 20.7804 18.9708 21.0833 18.2083 21.0833ZM17.25 11.5V18.2083C17.25 18.4625 17.351 18.7063 17.5307 18.886C17.7104 19.0657 17.9542 19.1667 18.2083 19.1667C18.4625 19.1667 18.7063 19.0657 18.886 18.886C19.0657 18.7063 19.1667 18.4625 19.1667 18.2083V11.5H17.25ZM5.75 5.75H11.5V11.5H5.75V5.75ZM7.66667 7.66667V9.58333H9.58333V7.66667H7.66667ZM5.75 12.4583H13.4167V14.375H5.75V12.4583ZM5.75 15.3333H13.4167V17.25H5.75V15.3333Z" fill="#5C5C5C"/>
</svg>
