<svg width="23" height="23" viewBox="0 0 23 23" fill="none" xmlns="http://www.w3.org/2000/svg">
<path d="M12.5952 9.58333H14.5119V10.3088C15.1613 9.87488 15.9164 9.62548 16.6965 9.58722C17.4766 9.54897 18.2525 9.72329 18.9412 10.0916C19.63 10.4599 20.2058 11.0083 20.6072 11.6783C21.0086 12.3483 21.2205 13.1148 21.2202 13.8958V19.1667H19.3036V13.8958C19.3036 12.5254 18.1775 11.5 16.9077 11.5C15.6379 11.5 14.5119 12.5254 14.5119 13.8958V19.1667H12.5952V9.58333ZM10.6786 3.83333V5.75H3.0119V10.5417H10.6786V12.4583H3.0119V17.25H10.6786V19.1667H1.09524V3.83333H10.6786Z" fill="#5C5C5C"/>
</svg>
