<svg width="23" height="24" viewBox="0 0 23 24" fill="none" xmlns="http://www.w3.org/2000/svg">
<path d="M11.5 21.5853C6.20713 21.5853 1.91667 17.1927 1.91667 11.7738C1.91667 7.38022 4.73704 3.66165 8.625 2.41167V4.49563C6.97755 5.18052 5.61372 6.43018 4.76681 8.03083C3.91989 9.63149 3.64251 11.4837 3.98212 13.2706C4.32173 15.0575 5.25722 16.6681 6.62857 17.8268C7.99992 18.9856 9.72192 19.6205 11.5 19.623C13.0274 19.623 14.5199 19.156 15.7865 18.282C17.053 17.408 18.0358 16.1667 18.6089 14.7173H20.6444C19.4235 18.6978 15.7914 21.5853 11.5 21.5853ZM21.0354 12.755H10.5417V2.01136C10.857 1.97898 11.177 1.9623 11.5 1.9623C16.7929 1.9623 21.0833 6.35491 21.0833 11.7738C21.0833 12.1045 21.067 12.4322 21.0354 12.755ZM12.4583 3.98543V10.7927H19.1073C18.8939 9.06349 18.1248 7.45609 16.9211 6.22367C15.7173 4.99125 14.1473 4.20382 12.4583 3.98543Z" fill="#5C5C5C"/>
</svg>
