<svg width="23" height="24" viewBox="0 0 23 24" fill="none" xmlns="http://www.w3.org/2000/svg">
<path d="M14.375 3.43604C14.904 3.43604 15.3333 3.86537 15.3333 4.39437V8.2277C15.3333 8.7567 14.904 9.18604 14.375 9.18604H12.4583V11.1027H16.2917C16.8207 11.1027 17.25 11.532 17.25 12.061V14.936H19.1667C19.6957 14.936 20.125 15.3654 20.125 15.8944V19.7277C20.125 20.2567 19.6957 20.686 19.1667 20.686H13.4167C12.8877 20.686 12.4583 20.2567 12.4583 19.7277V15.8944C12.4583 15.3654 12.8877 14.936 13.4167 14.936H15.3333V13.0194H7.66667V14.936H9.58333C10.1123 14.936 10.5417 15.3654 10.5417 15.8944V19.7277C10.5417 20.2567 10.1123 20.686 9.58333 20.686H3.83333C3.30433 20.686 2.875 20.2567 2.875 19.7277V15.8944C2.875 15.3654 3.30433 14.936 3.83333 14.936H5.75V12.061C5.75 11.532 6.17933 11.1027 6.70833 11.1027H10.5417V9.18604H8.625C8.096 9.18604 7.66667 8.7567 7.66667 8.2277V4.39437C7.66667 3.86537 8.096 3.43604 8.625 3.43604H14.375ZM8.625 16.8527H4.79167V18.7694H8.625V16.8527ZM18.2083 16.8527H14.375V18.7694H18.2083V16.8527ZM13.4167 5.3527H9.58333V7.26937H13.4167V5.3527Z" fill="#5C5C5C"/>
</svg>
