<svg width="23" height="23" viewBox="0 0 23 23" fill="none" xmlns="http://www.w3.org/2000/svg">
<path d="M3.58512 1.34933L21.2779 11.0803C21.353 11.1216 21.4157 11.1824 21.4593 11.2562C21.5029 11.33 21.5259 11.4142 21.5259 11.5C21.5259 11.5858 21.5029 11.67 21.4593 11.7438C21.4157 11.8176 21.353 11.8784 21.2779 11.9198L3.58512 21.6507C3.51217 21.6908 3.43002 21.7112 3.34676 21.7099C3.26351 21.7087 3.18202 21.6857 3.11034 21.6433C3.03866 21.601 2.97926 21.5406 2.93799 21.4683C2.89673 21.396 2.87501 21.3142 2.875 21.2309V1.76908C2.87501 1.68582 2.89673 1.60399 2.93799 1.53168C2.97926 1.45936 3.03866 1.39904 3.11034 1.35667C3.18202 1.3143 3.26351 1.29134 3.34676 1.29006C3.43002 1.28877 3.51217 1.3092 3.58512 1.34933ZM4.79167 12.4583V18.7996L18.0646 11.5L4.79167 4.20038V10.5417H9.58333V12.4583H4.79167Z" fill="#5C5C5C"/>
</svg>
