<svg width="23" height="23" viewBox="0 0 23 23" fill="none" xmlns="http://www.w3.org/2000/svg">
<path d="M2.875 2.875H20.125C20.3792 2.875 20.6229 2.97597 20.8026 3.15569C20.9824 3.33541 21.0833 3.57917 21.0833 3.83333V19.1667C21.0833 19.4208 20.9824 19.6646 20.8026 19.8443C20.6229 20.024 20.3792 20.125 20.125 20.125H2.875C2.62083 20.125 2.37708 20.024 2.19736 19.8443C2.01763 19.6646 1.91667 19.4208 1.91667 19.1667V3.83333C1.91667 3.57917 2.01763 3.33541 2.19736 3.15569C2.37708 2.97597 2.62083 2.875 2.875 2.875ZM19.1667 10.5417H3.83333V18.2083H19.1667V10.5417ZM19.1667 8.625V4.79167H3.83333V8.625H19.1667ZM14.375 5.75H18.2083V7.66667H14.375V5.75Z" fill="#5C5C5C"/>
</svg>
