<svg width="23" height="23" viewBox="0 0 23 23" fill="none" xmlns="http://www.w3.org/2000/svg">
<path d="M19.1072 7.48413H20.125C20.6333 7.48413 21.1208 7.68125 21.4803 8.03214C21.8397 8.38303 22.0417 8.85893 22.0417 9.35516V13.0972C22.0417 13.5935 21.8397 14.0694 21.4803 14.4202C21.1208 14.7711 20.6333 14.9683 20.125 14.9683H19.1072C18.8736 16.7769 17.9719 18.4401 16.5713 19.6458C15.1706 20.8515 13.3674 21.5168 11.5 21.5169V19.6458C13.025 19.6458 14.4875 19.0545 15.5659 18.0018C16.6442 16.9491 17.25 15.5214 17.25 14.0327V8.41964C17.25 6.93096 16.6442 5.50325 15.5659 4.45059C14.4875 3.39793 13.025 2.80655 11.5 2.80655C9.975 2.80655 8.51247 3.39793 7.43414 4.45059C6.3558 5.50325 5.75 6.93096 5.75 8.41964V14.9683H2.875C2.36667 14.9683 1.87916 14.7711 1.51971 14.4202C1.16027 14.0694 0.958333 13.5935 0.958333 13.0972V9.35516C0.958333 8.85893 1.16027 8.38303 1.51971 8.03214C1.87916 7.68125 2.36667 7.48413 2.875 7.48413H3.89275C4.12661 5.67568 5.02845 4.01268 6.42905 2.80718C7.82965 1.60168 9.63274 0.936523 11.5 0.936523C13.3673 0.936523 15.1704 1.60168 16.5709 2.80718C17.9715 4.01268 18.8734 5.67568 19.1072 7.48413ZM2.875 9.35516V13.0972H3.83333V9.35516H2.875ZM19.1667 9.35516V13.0972H20.125V9.35516H19.1667ZM7.43667 14.7671L8.4525 13.1805C9.36586 13.739 10.4222 14.0344 11.5 14.0327C12.5778 14.0344 13.6341 13.739 14.5475 13.1805L15.5633 14.7671C14.3455 15.5119 12.9371 15.9059 11.5 15.9038C10.0629 15.9059 8.65446 15.5119 7.43667 14.7671Z" fill="#5C5C5C"/>
</svg>
