<svg width="23" height="23" viewBox="0 0 23 23" fill="none" xmlns="http://www.w3.org/2000/svg">
<path d="M2.12079 13.4742C1.84518 12.1725 1.84518 10.8275 2.12079 9.52583C3.18454 9.65042 4.11413 9.29871 4.41696 8.56654C4.72075 7.83342 4.31346 6.92779 3.47204 6.26367C4.19754 5.14848 5.14848 4.19754 6.26367 3.47204C6.92683 4.3125 7.83342 4.72075 8.56654 4.41696C9.29967 4.11317 9.65137 3.18454 9.52583 2.12079C10.8275 1.84518 12.1725 1.84518 13.4742 2.12079C13.3496 3.18454 13.7013 4.11413 14.4335 4.41696C15.1666 4.72075 16.0722 4.31346 16.7363 3.47204C17.8515 4.19754 18.8025 5.14848 19.528 6.26367C18.6875 6.92683 18.2793 7.83342 18.583 8.56654C18.8868 9.29967 19.8155 9.65137 20.8792 9.52583C21.1548 10.8275 21.1548 12.1725 20.8792 13.4742C19.8155 13.3496 18.8859 13.7013 18.583 14.4335C18.2793 15.1666 18.6865 16.0722 19.528 16.7363C18.8025 17.8515 17.8515 18.8025 16.7363 19.528C16.0732 18.6875 15.1666 18.2793 14.4335 18.583C13.7003 18.8868 13.3486 19.8155 13.4742 20.8792C12.1725 21.1548 10.8275 21.1548 9.52583 20.8792C9.65042 19.8155 9.29871 18.8859 8.56654 18.583C7.83342 18.2793 6.92779 18.6865 6.26367 19.528C5.14848 18.8025 4.19754 17.8515 3.47204 16.7363C4.3125 16.0732 4.72075 15.1666 4.41696 14.4335C4.11317 13.7003 3.18454 13.3486 2.12079 13.4742ZM3.83333 11.7013C4.8875 11.9935 5.75671 12.6615 6.18796 13.7003C6.61825 14.7401 6.47546 15.8278 5.93687 16.7785C6.02887 16.8762 6.12375 16.9711 6.2215 17.0631C7.17312 16.5245 8.25988 16.3827 9.29967 16.812C10.3385 17.2433 11.0065 18.1125 11.2987 19.1667C11.4329 19.1705 11.5671 19.1705 11.7013 19.1667C11.9935 18.1125 12.6615 17.2433 13.7003 16.812C14.7401 16.3818 15.8278 16.5245 16.7785 17.0631C16.8762 16.9711 16.9711 16.8762 17.0631 16.7785C16.5245 15.8269 16.3827 14.7401 16.812 13.7003C17.2433 12.6615 18.1125 11.9935 19.1667 11.7013C19.1705 11.5671 19.1705 11.4329 19.1667 11.2987C18.1125 11.0065 17.2433 10.3385 16.812 9.29967C16.3818 8.25988 16.5245 7.17217 17.0631 6.2215C16.9708 6.12413 16.8759 6.02922 16.7785 5.93687C15.8269 6.47546 14.7401 6.61729 13.7003 6.18796C12.6615 5.75671 11.9935 4.8875 11.7013 3.83333C11.5671 3.82978 11.4329 3.82978 11.2987 3.83333C11.0065 4.8875 10.3385 5.75671 9.29967 6.18796C8.25988 6.61825 7.17217 6.47546 6.2215 5.93687C6.12375 6.02887 6.02887 6.12375 5.93687 6.2215C6.47546 7.17312 6.61729 8.25988 6.18796 9.29967C5.75671 10.3385 4.8875 11.0065 3.83333 11.2987C3.8295 11.4329 3.8295 11.5671 3.83333 11.7013ZM11.5 14.375C10.7375 14.375 10.0062 14.0721 9.46707 13.5329C8.9279 12.9938 8.625 12.2625 8.625 11.5C8.625 10.7375 8.9279 10.0062 9.46707 9.46707C10.0062 8.9279 10.7375 8.625 11.5 8.625C12.2625 8.625 12.9938 8.9279 13.5329 9.46707C14.0721 10.0062 14.375 10.7375 14.375 11.5C14.375 12.2625 14.0721 12.9938 13.5329 13.5329C12.9938 14.0721 12.2625 14.375 11.5 14.375ZM11.5 12.4583C11.7542 12.4583 11.9979 12.3574 12.1776 12.1776C12.3574 11.9979 12.4583 11.7542 12.4583 11.5C12.4583 11.2458 12.3574 11.0021 12.1776 10.8224C11.9979 10.6426 11.7542 10.5417 11.5 10.5417C11.2458 10.5417 11.0021 10.6426 10.8224 10.8224C10.6426 11.0021 10.5417 11.2458 10.5417 11.5C10.5417 11.7542 10.6426 11.9979 10.8224 12.1776C11.0021 12.3574 11.2458 12.4583 11.5 12.4583Z" fill="#5C5C5C"/>
</svg>
