<svg width="23" height="23" viewBox="0 0 23 23" fill="none" xmlns="http://www.w3.org/2000/svg">
<path d="M6.70833 4.79167V1.91667C6.70833 1.6625 6.8093 1.41874 6.98902 1.23902C7.16875 1.0593 7.4125 0.958333 7.66667 0.958333H15.3333C15.5875 0.958333 15.8313 1.0593 16.011 1.23902C16.1907 1.41874 16.2917 1.6625 16.2917 1.91667V4.79167H20.125C20.3792 4.79167 20.6229 4.89263 20.8026 5.07236C20.9824 5.25208 21.0833 5.49583 21.0833 5.75V19.1667C21.0833 19.4208 20.9824 19.6646 20.8026 19.8443C20.6229 20.024 20.3792 20.125 20.125 20.125H2.875C2.62083 20.125 2.37708 20.024 2.19736 19.8443C2.01763 19.6646 1.91667 19.4208 1.91667 19.1667V5.75C1.91667 5.49583 2.01763 5.25208 2.19736 5.07236C2.37708 4.89263 2.62083 4.79167 2.875 4.79167H6.70833ZM8.625 12.4583H3.83333V18.2083H19.1667V12.4583H14.375V15.3333H8.625V12.4583ZM19.1667 6.70833H3.83333V10.5417H8.625V8.625H14.375V10.5417H19.1667V6.70833ZM10.5417 10.5417V13.4167H12.4583V10.5417H10.5417ZM8.625 2.875V4.79167H14.375V2.875H8.625Z" fill="#5C5C5C"/>
</svg>
