<svg width="23" height="23" viewBox="0 0 23 23" fill="none" xmlns="http://www.w3.org/2000/svg">
<path d="M11.5 20.5814C6.20713 20.5814 1.91667 16.393 1.91667 11.2262C1.91667 6.05934 6.20713 1.87103 11.5 1.87103C16.7929 1.87103 21.0833 6.05934 21.0833 11.2262C21.0833 16.393 16.7929 20.5814 11.5 20.5814ZM9.30542 18.3988C8.35994 16.4411 7.81221 14.3229 7.69254 12.1617H3.89275C4.07923 13.6014 4.69001 14.9572 5.65088 16.0644C6.61175 17.1716 7.88135 17.9826 9.30542 18.3988ZM9.61208 12.1617C9.75679 14.4434 10.4248 16.5867 11.5 18.4783C12.6043 16.5367 13.2494 14.3784 13.3879 12.1617H9.61208ZM19.1072 12.1617H15.3075C15.1878 14.3229 14.6401 16.4411 13.6946 18.3988C15.1187 17.9826 16.3883 17.1716 17.3491 16.0644C18.31 14.9572 18.9208 13.6014 19.1072 12.1617ZM3.89275 10.2907H7.69254C7.81221 8.12943 8.35994 6.01133 9.30542 4.05359C7.88135 4.46978 6.61175 5.28076 5.65088 6.38798C4.69001 7.4952 4.07923 8.85101 3.89275 10.2907ZM13.387 10.2907C13.2487 8.07406 12.604 5.91576 11.5 3.97407C10.3957 5.91569 9.75062 8.07399 9.61208 10.2907H13.387ZM13.6946 4.05359C14.6401 6.01133 15.1878 8.12943 15.3075 10.2907H19.1072C18.9208 8.85101 18.31 7.4952 17.3491 6.38798C16.3883 5.28076 15.1187 4.46978 13.6946 4.05359Z" fill="#5C5C5C"/>
</svg>
