<svg width="23" height="25" viewBox="0 0 23 25" fill="none" xmlns="http://www.w3.org/2000/svg">
<path d="M11.8968 5.48227H20.125C20.3792 5.48227 20.6229 5.5857 20.8026 5.7698C20.9824 5.95391 21.0833 6.20361 21.0833 6.46397V20.2079C21.0833 20.4682 20.9824 20.7179 20.8026 20.9021C20.6229 21.0862 20.3792 21.1896 20.125 21.1896H2.875C2.62083 21.1896 2.37708 21.0862 2.19736 20.9021C2.01763 20.7179 1.91667 20.4682 1.91667 20.2079V4.50056C1.91667 4.24019 2.01763 3.99049 2.19736 3.80639C2.37708 3.62228 2.62083 3.51885 2.875 3.51885H9.98008L11.8968 5.48227ZM3.83333 5.48227V19.2262H19.1667V7.44568H11.1033L9.18658 5.48227H3.83333ZM7.66667 18.2445C7.66667 17.203 8.07053 16.2042 8.78942 15.4678C9.50831 14.7314 10.4833 14.3176 11.5 14.3176C12.5167 14.3176 13.4917 14.7314 14.2106 15.4678C14.9295 16.2042 15.3333 17.203 15.3333 18.2445H7.66667ZM11.5 13.3359C10.8646 13.3359 10.2552 13.0774 9.80589 12.6171C9.35658 12.1568 9.10417 11.5326 9.10417 10.8817C9.10417 10.2307 9.35658 9.60649 9.80589 9.14623C10.2552 8.68596 10.8646 8.42739 11.5 8.42739C12.1354 8.42739 12.7448 8.68596 13.1941 9.14623C13.6434 9.60649 13.8958 10.2307 13.8958 10.8817C13.8958 11.5326 13.6434 12.1568 13.1941 12.6171C12.7448 13.0774 12.1354 13.3359 11.5 13.3359Z" fill="#5C5C5C"/>
</svg>
