<svg width="23" height="24" viewBox="0 0 23 24" fill="none" xmlns="http://www.w3.org/2000/svg">
<path d="M15.3333 2.09818L20.125 7.00672V20.7437C20.125 21.2896 19.6985 21.7323 19.1734 21.7323H3.82662C3.30146 21.7323 2.875 21.2857 2.875 20.7585V3.07203C2.875 2.53406 3.30338 2.09818 3.83238 2.09818H15.3333ZM14.375 4.06159H4.79167V19.7689H18.2083V7.98842H14.375V4.06159ZM12.4583 9.95184V14.8604H11.5V9.95184H12.4583ZM10.5417 9.95184V10.9335H8.625C8.096 10.9335 7.66667 11.3734 7.66667 11.9153V12.897C7.66667 13.4389 8.096 13.8787 8.625 13.8787H9.58333V12.897H8.625V11.9153H10.5417V13.8787C10.5417 14.4206 10.1123 14.8604 9.58333 14.8604H8.625C7.56604 14.8604 6.70833 13.9817 6.70833 12.897V11.9153C6.70833 10.8305 7.56604 9.95184 8.625 9.95184H10.5417ZM16.2917 9.95184V10.9335H14.375V11.9153H16.2917V12.897H14.375V14.8604H13.4167V9.95184H16.2917Z" fill="#5C5C5C"/>
</svg>
