<svg width="23" height="24" viewBox="0 0 23 24" fill="none" xmlns="http://www.w3.org/2000/svg">
<path d="M2.875 17.8942V5.26474C2.875 4.5204 3.1779 3.80654 3.71707 3.28021C4.25624 2.75388 4.9875 2.45819 5.75 2.45819H19.1667C19.4208 2.45819 19.6646 2.55675 19.8443 2.7322C20.024 2.90764 20.125 3.14559 20.125 3.39371V20.233C20.125 20.4811 20.024 20.7191 19.8443 20.8945C19.6646 21.0699 19.4208 21.1685 19.1667 21.1685H6.22917C5.33959 21.1685 4.48644 20.8235 3.85741 20.2095C3.22838 19.5954 2.875 18.7626 2.875 17.8942ZM18.2083 19.2975V16.4909H6.22917C5.84792 16.4909 5.48228 16.6388 5.2127 16.9019C4.94312 17.1651 4.79167 17.522 4.79167 17.8942C4.79167 18.2664 4.94312 18.6233 5.2127 18.8865C5.48228 19.1496 5.84792 19.2975 6.22917 19.2975H18.2083ZM9.58333 4.32922H5.75C5.49583 4.32922 5.25208 4.42778 5.07236 4.60323C4.89263 4.77867 4.79167 5.01662 4.79167 5.26474V14.9352C5.24083 14.727 5.73194 14.6192 6.22917 14.6199H18.2083V4.32922H16.2917V11.8133L12.9375 9.94232L9.58333 11.8133V4.32922Z" fill="#5C5C5C"/>
</svg>
