<svg width="23" height="23" viewBox="0 0 23 23" fill="none" xmlns="http://www.w3.org/2000/svg">
<path d="M4.79134 8.62508C5.04551 8.62508 5.28926 8.72605 5.46899 8.90577C5.64871 9.08549 5.74967 9.32925 5.74967 9.58341C7.25535 9.5812 8.71761 10.0878 9.89926 11.0209H11.9788C13.2563 11.0209 14.4034 11.5767 15.1931 12.4584H18.208C19.1139 12.4582 20.0013 12.7147 20.7673 13.1983C21.5333 13.6819 22.1465 14.3727 22.5358 15.1906C20.2694 18.1816 16.5999 20.1251 12.458 20.1251C9.78426 20.1251 7.52259 19.5472 5.69217 18.5362C5.62513 18.7212 5.50265 18.881 5.34144 18.9939C5.18023 19.1067 4.98813 19.1671 4.79134 19.1667H1.91634C1.66218 19.1667 1.41842 19.0658 1.2387 18.8861C1.05897 18.7063 0.958008 18.4626 0.958008 18.2084V9.58341C0.958008 9.32925 1.05897 9.08549 1.2387 8.90577C1.41842 8.72605 1.66218 8.62508 1.91634 8.62508H4.79134ZM5.75063 11.5001L5.74967 16.3128L5.7928 16.3435C7.51301 17.551 9.75359 18.2084 12.458 18.2084C15.3368 18.2084 18.0154 17.1006 19.9665 15.2088L20.094 15.0814L19.979 14.9855C19.5265 14.6311 18.9779 14.4208 18.4045 14.3818L18.208 14.3751H16.185C16.254 14.6837 16.2913 15.0037 16.2913 15.3334V16.2917H7.66634V14.3751L14.1734 14.3741L14.1408 14.2994C13.9572 13.9156 13.6747 13.5876 13.3223 13.3491C12.97 13.1107 12.5605 12.9703 12.136 12.9424L11.9788 12.9376H9.17092C8.7256 12.4821 8.19368 12.1203 7.60647 11.8734C7.01925 11.6266 6.38859 11.4996 5.75159 11.5001H5.75063ZM3.83301 10.5417H2.87467V17.2501H3.83301V10.5417ZM17.2497 4.79175C18.0122 4.79175 18.7434 5.09465 19.2826 5.63382C19.8218 6.17298 20.1247 6.90425 20.1247 7.66675C20.1247 8.42924 19.8218 9.16051 19.2826 9.69968C18.7434 10.2388 18.0122 10.5417 17.2497 10.5417C16.4872 10.5417 15.7559 10.2388 15.2167 9.69968C14.6776 9.16051 14.3747 8.42924 14.3747 7.66675C14.3747 6.90425 14.6776 6.17298 15.2167 5.63382C15.7559 5.09465 16.4872 4.79175 17.2497 4.79175ZM17.2497 6.70841C16.9955 6.70841 16.7518 6.80938 16.572 6.9891C16.3923 7.16883 16.2913 7.41258 16.2913 7.66675C16.2913 7.92091 16.3923 8.16467 16.572 8.34439C16.7518 8.52411 16.9955 8.62508 17.2497 8.62508C17.5038 8.62508 17.7476 8.52411 17.9273 8.34439C18.107 8.16467 18.208 7.92091 18.208 7.66675C18.208 7.41258 18.107 7.16883 17.9273 6.9891C17.7476 6.80938 17.5038 6.70841 17.2497 6.70841ZM10.5413 1.91675C11.3038 1.91675 12.0351 2.21965 12.5743 2.75882C13.1134 3.29798 13.4163 4.02925 13.4163 4.79175C13.4163 5.55425 13.1134 6.28551 12.5743 6.82468C12.0351 7.36385 11.3038 7.66675 10.5413 7.66675C9.77884 7.66675 9.04758 7.36385 8.50841 6.82468C7.96924 6.28551 7.66634 5.55425 7.66634 4.79175C7.66634 4.02925 7.96924 3.29798 8.50841 2.75882C9.04758 2.21965 9.77884 1.91675 10.5413 1.91675ZM10.5413 3.83341C10.2872 3.83341 10.0434 3.93438 9.8637 4.1141C9.68398 4.29383 9.58301 4.53758 9.58301 4.79175C9.58301 5.04591 9.68398 5.28967 9.8637 5.46939C10.0434 5.64911 10.2872 5.75008 10.5413 5.75008C10.7955 5.75008 11.0393 5.64911 11.219 5.46939C11.3987 5.28967 11.4997 5.04591 11.4997 4.79175C11.4997 4.53758 11.3987 4.29383 11.219 4.1141C11.0393 3.93438 10.7955 3.83341 10.5413 3.83341Z" fill="#5C5C5C"/>
</svg>
