<svg width="23" height="22" viewBox="0 0 23 22" fill="none" xmlns="http://www.w3.org/2000/svg">
<g clip-path="url(#clip0_856_3168)">
<path d="M4.79134 8.22388C5.04551 8.22388 5.28926 8.32015 5.46898 8.49151C5.64871 8.66288 5.74967 8.89529 5.74967 9.13764C7.25535 9.13552 8.71761 9.61852 9.89926 10.5083H11.9788C13.2553 10.5083 14.4034 11.0373 15.1921 11.878L18.208 11.8789C19.1139 11.8787 20.0013 12.1233 20.7673 12.5844C21.5333 13.0455 22.1465 13.7042 22.5358 14.484C20.2694 17.3359 16.5999 19.189 12.458 19.189C9.78426 19.189 7.52259 18.638 5.69217 17.674C5.62513 17.8504 5.50265 18.0028 5.34144 18.1104C5.18023 18.218 4.98813 18.2756 4.79134 18.2752H1.91634C1.66218 18.2752 1.41842 18.179 1.2387 18.0076C1.05897 17.8362 0.958008 17.6038 0.958008 17.3615V9.13764C0.958008 8.89529 1.05897 8.66288 1.2387 8.49151C1.41842 8.32015 1.66218 8.22388 1.91634 8.22388H4.79134ZM5.75063 10.9652L5.74967 15.5531L5.7928 15.5833C7.51301 16.7346 9.75359 17.3615 12.458 17.3615C15.3368 17.3615 18.0154 16.3052 19.9665 14.5014L20.094 14.3799L19.979 14.2885C19.5265 13.9506 18.9779 13.75 18.4045 13.7128L18.208 13.7064L16.184 13.7055C16.254 13.9998 16.2913 14.3059 16.2913 14.6202V15.534H7.66634V13.7064L14.1734 13.7055L14.1408 13.6342C13.9572 13.2683 13.6747 12.9556 13.3223 12.7282C12.97 12.5008 12.5605 12.367 12.136 12.3404L11.9788 12.3358H9.17092C8.7256 11.9015 8.19368 11.5565 7.60647 11.3211C7.01925 11.0858 6.38859 10.9647 5.75159 10.9652H5.75063ZM3.83301 10.0514H2.87467V16.4477H3.83301V10.0514ZM13.0771 3.26673L13.4163 3.59112L13.7556 3.26765C13.9777 3.05403 14.242 2.88435 14.5331 2.76835C14.8242 2.65235 15.1364 2.59233 15.452 2.59171C15.7675 2.59109 16.08 2.6499 16.3716 2.76476C16.6632 2.87962 16.9281 3.04827 17.1512 3.26102C17.3743 3.47377 17.5511 3.72644 17.6715 4.00451C17.7918 4.28259 17.8534 4.58059 17.8527 4.88143C17.852 5.18226 17.7889 5.47999 17.6672 5.75753C17.5454 6.03506 17.3674 6.28694 17.1433 6.4987L13.4163 10.0514L9.68842 6.49687C9.46438 6.28506 9.28643 6.03313 9.16477 5.75556C9.04312 5.47799 8.98016 5.18024 8.97951 4.87941C8.97887 4.57858 9.04055 4.28058 9.16101 4.00254C9.28147 3.7245 9.45834 3.47188 9.68147 3.25919C9.9046 3.0465 10.1696 2.87792 10.4612 2.76314C10.7529 2.64836 11.0654 2.58964 11.3809 2.59034C11.6964 2.59104 12.0087 2.65115 12.2998 2.76723C12.5908 2.8833 12.855 3.05305 13.0771 3.26673ZM11.0454 4.5597C10.966 4.63502 10.9168 4.73448 10.9062 4.84082C10.8957 4.94715 10.9246 5.05364 10.9879 5.14177L11.0435 5.20482L13.4163 7.46546L15.7892 5.20482C15.8685 5.12922 15.9176 5.02946 15.9277 4.92293C15.9379 4.8164 15.9085 4.70984 15.8448 4.62184L15.7892 4.55787C15.7098 4.48233 15.6051 4.43574 15.4934 4.42622C15.3816 4.4167 15.2699 4.44486 15.1778 4.50579L15.1107 4.55879L13.4154 6.17432L11.722 4.55696L11.6568 4.50579C11.5645 4.44498 11.4528 4.41698 11.3411 4.42666C11.2293 4.43635 11.1247 4.4831 11.0454 4.55879V4.5597Z" fill="#5C5C5C"/>
</g>
<defs>
<clipPath id="clip0_856_3168">
<rect width="23" height="21.9302" fill="white"/>
</clipPath>
</defs>
</svg>
