<svg width="23" height="23" viewBox="0 0 23 23" fill="none" xmlns="http://www.w3.org/2000/svg">
<path d="M11.5003 21.0834C6.20745 21.0834 1.91699 16.793 1.91699 11.5001C1.91699 6.20721 6.20745 1.91675 11.5003 1.91675C16.7932 1.91675 21.0837 6.20721 21.0837 11.5001C21.0837 16.793 16.7932 21.0834 11.5003 21.0834ZM11.5003 19.1667C13.5337 19.1667 15.4837 18.359 16.9215 16.9212C18.3593 15.4835 19.167 13.5334 19.167 11.5001C19.167 9.46675 18.3593 7.51671 16.9215 6.07893C15.4837 4.64115 13.5337 3.83341 11.5003 3.83341C9.467 3.83341 7.51695 4.64115 6.07917 6.07893C4.64139 7.51671 3.83366 9.46675 3.83366 11.5001C3.83366 13.5334 4.64139 15.4835 6.07917 16.9212C7.51695 18.359 9.467 19.1667 11.5003 19.1667ZM8.14616 13.4167H13.417C13.5441 13.4167 13.666 13.3663 13.7558 13.2764C13.8457 13.1865 13.8962 13.0647 13.8962 12.9376C13.8962 12.8105 13.8457 12.6886 13.7558 12.5988C13.666 12.5089 13.5441 12.4584 13.417 12.4584H9.58366C8.94824 12.4584 8.33885 12.206 7.88955 11.7567C7.44024 11.3074 7.18783 10.698 7.18783 10.0626C7.18783 9.42717 7.44024 8.81778 7.88955 8.36847C8.33885 7.91917 8.94824 7.66675 9.58366 7.66675H10.542V5.75008H12.4587V7.66675H14.8545V9.58341H9.58366C9.45658 9.58341 9.3347 9.6339 9.24484 9.72376C9.15497 9.81362 9.10449 9.9355 9.10449 10.0626C9.10449 10.1897 9.15497 10.3115 9.24484 10.4014C9.3347 10.4913 9.45658 10.5417 9.58366 10.5417H13.417C14.0524 10.5417 14.6618 10.7942 15.1111 11.2435C15.5604 11.6928 15.8128 12.3022 15.8128 12.9376C15.8128 13.573 15.5604 14.1824 15.1111 14.6317C14.6618 15.081 14.0524 15.3334 13.417 15.3334H12.4587V17.2501H10.542V15.3334H8.14616V13.4167Z" fill="#5C5C5C"/>
</svg>
