<svg width="23" height="23" viewBox="0 0 23 23" fill="none" xmlns="http://www.w3.org/2000/svg">
<path d="M17.2503 18.7104H5.75033V20.5814H3.83366V18.7104H2.87533C2.62116 18.7104 2.3774 18.6118 2.19768 18.4364C2.01796 18.261 1.91699 18.023 1.91699 17.7749V3.74216C1.91699 3.49404 2.01796 3.25609 2.19768 3.08065C2.3774 2.9052 2.62116 2.80664 2.87533 2.80664H20.1253C20.3795 2.80664 20.6232 2.9052 20.803 3.08065C20.9827 3.25609 21.0837 3.49404 21.0837 3.74216V17.7749C21.0837 18.023 20.9827 18.261 20.803 18.4364C20.6232 18.6118 20.3795 18.7104 20.1253 18.7104H19.167V20.5814H17.2503V18.7104ZM3.83366 16.8394H19.167V4.67767H3.83366V16.8394ZM12.4587 12.9794V15.9039H10.542V12.9794C9.64069 12.7496 8.85591 12.2073 8.33418 11.4539C7.81246 10.7005 7.58946 9.78755 7.70683 8.88542C7.82419 7.98328 8.2739 7.15369 8.97197 6.55154C9.67005 5.94938 10.5688 5.61584 11.5003 5.61319C12.434 5.61229 13.3359 5.94406 14.0368 6.54625C14.7376 7.14843 15.1893 7.97962 15.3069 8.88379C15.4245 9.78797 15.2001 10.703 14.6757 11.4571C14.1512 12.2112 13.3629 12.7525 12.4587 12.9794ZM11.5003 11.2263C12.0087 11.2263 12.4962 11.0292 12.8556 10.6783C13.2151 10.3274 13.417 9.85148 13.417 9.35525C13.417 8.85902 13.2151 8.38312 12.8556 8.03223C12.4962 7.68135 12.0087 7.48422 11.5003 7.48422C10.992 7.48422 10.5045 7.68135 10.145 8.03223C9.78559 8.38312 9.58366 8.85902 9.58366 9.35525C9.58366 9.85148 9.78559 10.3274 10.145 10.6783C10.5045 11.0292 10.992 11.2263 11.5003 11.2263Z" fill="#5C5C5C"/>
</svg>
