<svg width="23" height="23" viewBox="0 0 23 23" fill="none" xmlns="http://www.w3.org/2000/svg">
<path d="M10.5417 1.91675L17.5356 4.10175C17.7306 4.16264 17.9011 4.28429 18.0222 4.44894C18.1432 4.61359 18.2084 4.81261 18.2083 5.01696V6.70841H20.125C20.3792 6.70841 20.6229 6.80938 20.8026 6.9891C20.9824 7.16883 21.0833 7.41258 21.0833 7.66675V15.3334C21.0833 15.5876 20.9824 15.8313 20.8026 16.0111C20.6229 16.1908 20.3792 16.2917 20.125 16.2917L17.0392 16.2927C16.6683 16.7815 16.2179 17.2127 15.6975 17.5673L10.5417 21.0834L5.38583 17.5682C4.612 17.0406 3.97876 16.332 3.54118 15.5039C3.10359 14.6758 2.8749 13.7534 2.875 12.8168V5.01696C2.87512 4.81278 2.94044 4.61397 3.06146 4.44951C3.18247 4.28506 3.35285 4.16355 3.54775 4.10271L10.5417 1.91675ZM10.5417 3.9235L4.79167 5.72133V12.8168C4.79153 13.4035 4.92607 13.9825 5.18493 14.509C5.44379 15.0355 5.82006 15.4956 6.28475 15.8538L6.46588 15.9841L10.5417 18.7642L14.1661 16.2917H9.58333C9.32917 16.2917 9.08541 16.1908 8.90569 16.0111C8.72597 15.8313 8.625 15.5876 8.625 15.3334V7.66675C8.625 7.41258 8.72597 7.16883 8.90569 6.9891C9.08541 6.80938 9.32917 6.70841 9.58333 6.70841H16.2917V5.72133L10.5417 3.9235ZM10.5417 11.5001V14.3751H19.1667V11.5001H10.5417ZM10.5417 9.58341H19.1667V8.62508H10.5417V9.58341Z" fill="#5C5C5C"/>
</svg>
