<svg width="23" height="24" viewBox="0 0 23 24" fill="none" xmlns="http://www.w3.org/2000/svg">
<path d="M3.83346 6.29666L0.725586 3.11397L2.08163 1.72485L5.18854 4.90853H19.7955C19.9448 4.90852 20.0921 4.94428 20.2256 5.01295C20.3591 5.08163 20.4751 5.18131 20.5643 5.30406C20.6535 5.4268 20.7134 5.5692 20.7393 5.7199C20.7652 5.87059 20.7564 6.02541 20.7135 6.17199L18.4135 14.0256C18.3544 14.228 18.2331 14.4053 18.0677 14.5314C17.9023 14.6575 17.7016 14.7256 17.4955 14.7256H5.75013V16.689H16.2918V18.6524H4.79179C4.53763 18.6524 4.29387 18.549 4.11415 18.3649C3.93443 18.1808 3.83346 17.9311 3.83346 17.6707V6.29666ZM5.75013 6.87195V12.7622H16.7825L18.5075 6.87195H5.75013ZM5.27096 22.5793C4.88971 22.5793 4.52408 22.4241 4.25449 22.148C3.98491 21.8718 3.83346 21.4972 3.83346 21.1067C3.83346 20.7162 3.98491 20.3416 4.25449 20.0654C4.52408 19.7893 4.88971 19.6341 5.27096 19.6341C5.65221 19.6341 6.01784 19.7893 6.28743 20.0654C6.55701 20.3416 6.70846 20.7162 6.70846 21.1067C6.70846 21.4972 6.55701 21.8718 6.28743 22.148C6.01784 22.4241 5.65221 22.5793 5.27096 22.5793ZM16.771 22.5793C16.3897 22.5793 16.0241 22.4241 15.7545 22.148C15.4849 21.8718 15.3335 21.4972 15.3335 21.1067C15.3335 20.7162 15.4849 20.3416 15.7545 20.0654C16.0241 19.7893 16.3897 19.6341 16.771 19.6341C17.1522 19.6341 17.5178 19.7893 17.7874 20.0654C18.057 20.3416 18.2085 20.7162 18.2085 21.1067C18.2085 21.4972 18.057 21.8718 17.7874 22.148C17.5178 22.4241 17.1522 22.5793 16.771 22.5793Z" fill="#5C5C5C"/>
</svg>
