<svg width="23" height="24" viewBox="0 0 23 24" fill="none" xmlns="http://www.w3.org/2000/svg">
<path d="M11.5003 1.96338C13.0253 1.96338 14.4879 2.58396 15.5662 3.68859C16.6445 4.79323 17.2503 6.29143 17.2503 7.85362V8.83533H21.0837V10.7987H19.9653L19.2398 19.7156C19.2199 19.9609 19.1107 20.1896 18.9339 20.3563C18.7571 20.5231 18.5256 20.6157 18.2853 20.6158H4.71533C4.47502 20.6157 4.24353 20.5231 4.06675 20.3563C3.88996 20.1896 3.78077 19.9609 3.76083 19.7156L3.03441 10.7987H1.91699V8.83533H5.75033V7.85362C5.75033 6.29143 6.35613 4.79323 7.43446 3.68859C8.5128 2.58396 9.97533 1.96338 11.5003 1.96338ZM18.0419 10.7987H4.95778L5.59699 18.6524H17.4027L18.0419 10.7987ZM12.4587 12.7622V16.689H10.542V12.7622H12.4587ZM8.62533 12.7622V16.689H6.70866V12.7622H8.62533ZM16.292 12.7622V16.689H14.3753V12.7622H16.292ZM11.5003 3.92679C10.5168 3.92679 9.57098 4.31401 8.85838 5.00836C8.14578 5.70271 7.72096 6.65107 7.67178 7.65728L7.66699 7.85362V8.83533H15.3337V7.85362C15.3337 6.84615 14.9557 5.87722 14.2778 5.14724C13.6 4.41726 12.6742 3.98208 11.692 3.9317L11.5003 3.92679Z" fill="#5C5C5C"/>
</svg>
