<svg width="23" height="23" viewBox="0 0 23 23" fill="none" xmlns="http://www.w3.org/2000/svg">
<path d="M6.70833 7.66658V5.74992C6.70833 4.47909 7.21317 3.26031 8.11178 2.3617C9.01039 1.46309 10.2292 0.958252 11.5 0.958252C12.7708 0.958252 13.9896 1.46309 14.8882 2.3617C15.7868 3.26031 16.2917 4.47909 16.2917 5.74992V7.66658H19.1667C19.4208 7.66658 19.6646 7.76755 19.8443 7.94727C20.024 8.127 20.125 8.37075 20.125 8.62492V20.1249C20.125 20.3791 20.024 20.6228 19.8443 20.8026C19.6646 20.9823 19.4208 21.0833 19.1667 21.0833H3.83333C3.57917 21.0833 3.33541 20.9823 3.15569 20.8026C2.97597 20.6228 2.875 20.3791 2.875 20.1249V8.62492C2.875 8.37075 2.97597 8.127 3.15569 7.94727C3.33541 7.76755 3.57917 7.66658 3.83333 7.66658H6.70833ZM6.70833 9.58325H4.79167V19.1666H18.2083V9.58325H16.2917V11.4999H14.375V9.58325H8.625V11.4999H6.70833V9.58325ZM8.625 7.66658H14.375V5.74992C14.375 4.98742 14.0721 4.25615 13.5329 3.71699C12.9938 3.17782 12.2625 2.87492 11.5 2.87492C10.7375 2.87492 10.0062 3.17782 9.46707 3.71699C8.9279 4.25615 8.625 4.98742 8.625 5.74992V7.66658Z" fill="#5C5C5C"/>
</svg>
