<svg width="23" height="24" viewBox="0 0 23 24" fill="none" xmlns="http://www.w3.org/2000/svg">
<g clip-path="url(#clip0_856_3204)">
<path d="M20.1253 3.61328C20.3795 3.61328 20.6232 3.7119 20.803 3.88744C20.9827 4.06299 21.0837 4.30107 21.0837 4.54933V9.69758C20.4482 9.69758 19.8389 9.94413 19.3895 10.383C18.9402 10.8218 18.6878 11.4171 18.6878 12.0377C18.6878 12.6583 18.9402 13.2536 19.3895 13.6924C19.8389 14.1313 20.4482 14.3778 21.0837 14.3778V19.5261C21.0837 19.7743 20.9827 20.0124 20.803 20.188C20.6232 20.3635 20.3795 20.4621 20.1253 20.4621H2.87533C2.62116 20.4621 2.3774 20.3635 2.19768 20.188C2.01796 20.0124 1.91699 19.7743 1.91699 19.5261V14.3778C2.55241 14.3778 3.1618 14.1313 3.6111 13.6924C4.06041 13.2536 4.31283 12.6583 4.31283 12.0377C4.31283 11.4171 4.06041 10.8218 3.6111 10.383C3.1618 9.94413 2.55241 9.69758 1.91699 9.69758V4.54933C1.91699 4.30107 2.01796 4.06299 2.19768 3.88744C2.3774 3.7119 2.62116 3.61328 2.87533 3.61328H20.1253ZM19.167 5.48537H3.83366V8.26356L3.98316 8.33938C4.63322 8.68576 5.18101 9.1898 5.57377 9.80295C5.96653 10.4161 6.19104 11.1177 6.22566 11.8402L6.22949 12.0377C6.22961 12.7943 6.02107 13.5369 5.62579 14.1875C5.23051 14.8381 4.66309 15.3727 3.98316 15.7351L3.83366 15.8118V18.59H19.167V15.8109L19.0175 15.736C18.3674 15.3896 17.8196 14.8856 17.4269 14.2724C17.0341 13.6593 16.8096 12.9577 16.775 12.2352L16.7712 12.0377C16.7712 10.4427 17.6787 9.05452 19.0175 8.34032L19.167 8.26262V5.48537ZM15.3337 9.22956V14.8458H7.66699V9.22956H15.3337Z" fill="#5C5C5C"/>
</g>
<defs>
<clipPath id="clip0_856_3204">
<rect width="23" height="22.4651" fill="white" transform="translate(0 0.805176)"/>
</clipPath>
</defs>
</svg>
