<svg width="23" height="25" viewBox="0 0 23 25" fill="none" xmlns="http://www.w3.org/2000/svg">
<path d="M19.167 7.67707V5.71366H3.83366V19.4576H19.167V17.4941H11.5003C11.2462 17.4941 11.0024 17.3907 10.8227 17.2066C10.643 17.0225 10.542 16.7728 10.542 16.5124V8.65878C10.542 8.39842 10.643 8.14872 10.8227 7.96461C11.0024 7.7805 11.2462 7.67707 11.5003 7.67707H19.167ZM2.87533 3.75024H20.1253C20.3795 3.75024 20.6232 3.85367 20.803 4.03778C20.9827 4.22189 21.0837 4.47159 21.0837 4.73195V20.4393C21.0837 20.6996 20.9827 20.9493 20.803 21.1334C20.6232 21.3175 20.3795 21.421 20.1253 21.421H2.87533C2.62116 21.421 2.3774 21.3175 2.19768 21.1334C2.01796 20.9493 1.91699 20.6996 1.91699 20.4393V4.73195C1.91699 4.47159 2.01796 4.22189 2.19768 4.03778C2.3774 3.85367 2.62116 3.75024 2.87533 3.75024ZM12.4587 9.64049V15.5307H19.167V9.64049H12.4587ZM14.3753 11.6039H17.2503V13.5673H14.3753V11.6039Z" fill="#5C5C5C"/>
</svg>
