<svg width="23" height="23" viewBox="0 0 23 23" fill="none" xmlns="http://www.w3.org/2000/svg">
<g clip-path="url(#clip0_856_3220)">
<path d="M11.5 2.90178L6.75625 7.53521C5.81814 8.4516 5.17931 9.61911 4.92052 10.8901C4.66173 12.1611 4.79462 13.4785 5.30238 14.6758C5.81014 15.873 6.66996 16.8963 7.77312 17.6163C8.87629 18.3362 10.1732 18.7205 11.5 18.7205C12.8268 18.7205 14.1237 18.3362 15.2269 17.6163C16.33 16.8963 17.1899 15.873 17.6976 14.6758C18.2054 13.4785 18.3383 12.1611 18.0795 10.8901C17.8207 9.61911 17.1819 8.4516 16.2438 7.53521L11.5 2.90178ZM11.5 0.254639L17.5988 6.21164C18.8051 7.38982 19.6265 8.89091 19.9593 10.5251C20.2921 12.1593 20.1213 13.8531 19.4685 15.3925C18.8156 16.9318 17.7102 18.2475 16.2918 19.1732C14.8734 20.0989 13.2059 20.593 11.5 20.593C9.79414 20.593 8.12659 20.0989 6.70822 19.1732C5.28985 18.2475 4.18436 16.9318 3.53155 15.3925C2.87874 13.8531 2.70793 12.1593 3.04072 10.5251C3.37351 8.89091 4.19495 7.38982 5.40117 6.21164L11.5 0.254639ZM12.4583 10.2965H14.8542L10.5417 16.3808V12.1686H8.14584L12.4583 6.08434V10.2965Z" fill="#5C5C5C"/>
</g>
<defs>
<clipPath id="clip0_856_3220">
<rect width="23" height="22.4651" fill="white"/>
</clipPath>
</defs>
</svg>
