<svg width="23" height="24" viewBox="0 0 23 24" fill="none" xmlns="http://www.w3.org/2000/svg">
<path d="M11.5004 22.1637C13.4066 22.1637 15.2348 21.4065 16.5827 20.0586C17.9306 18.7106 18.6879 16.8825 18.6879 14.9762C18.6879 14.1463 18.4674 13.3499 18.2087 12.6092C16.6112 14.1875 15.3979 14.9762 14.567 14.9762C18.3956 8.2679 16.292 5.3929 10.542 1.55957C11.0212 6.35124 7.86253 8.53049 6.57645 9.74086C5.52739 10.7276 4.79897 12.0068 4.48564 13.4125C4.1723 14.8183 4.28851 16.2857 4.8192 17.6246C5.34988 18.9635 6.27056 20.1121 7.46186 20.9215C8.65316 21.7308 10.0601 22.1636 11.5004 22.1637ZM12.1808 5.13895C15.2867 7.77436 15.3021 9.82232 12.9024 14.0265C12.1731 15.304 13.096 16.8929 14.567 16.8929C15.2264 16.8929 15.8934 16.7012 16.5977 16.3227C16.389 17.1114 15.9999 17.8408 15.4613 18.4536C14.9227 19.0664 14.2492 19.5458 13.4938 19.854C12.7384 20.1623 11.9217 20.2909 11.1082 20.2299C10.2946 20.1689 9.5063 19.9198 8.80534 19.5024C8.10439 19.0849 7.50991 18.5104 7.06873 17.8241C6.62754 17.1378 6.35169 16.3585 6.2629 15.5475C6.1741 14.7365 6.27479 13.9159 6.55703 13.1504C6.83926 12.385 7.29535 11.6954 7.88936 11.1362C8.01011 11.0231 8.62249 10.4797 8.64932 10.4558C9.05566 10.0916 9.39011 9.76865 9.72074 9.41503C10.8995 8.15194 11.7467 6.75086 12.1798 5.13895H12.1808Z" fill="#5C5C5C"/>
</svg>
