<svg width="23" height="24" viewBox="0 0 23 24" fill="none" xmlns="http://www.w3.org/2000/svg">
<path d="M11.5003 18.6524C11.8816 18.6524 12.2472 18.8075 12.5168 19.0837C12.7864 19.3599 12.9378 19.7344 12.9378 20.125C12.9378 20.5155 12.7864 20.8901 12.5168 21.1662C12.2472 21.4424 11.8816 21.5975 11.5003 21.5975C11.1191 21.5975 10.7534 21.4424 10.4839 21.1662C10.2143 20.8901 10.0628 20.5155 10.0628 20.125C10.0628 19.7344 10.2143 19.3599 10.4839 19.0837C10.7534 18.8075 11.1191 18.6524 11.5003 18.6524ZM18.6878 18.6524C19.0691 18.6524 19.4347 18.8075 19.7043 19.0837C19.9739 19.3599 20.1253 19.7344 20.1253 20.125C20.1253 20.5155 19.9739 20.8901 19.7043 21.1662C19.4347 21.4424 19.0691 21.5975 18.6878 21.5975C18.3066 21.5975 17.9409 21.4424 17.6714 21.1662C17.4018 20.8901 17.2503 20.5155 17.2503 20.125C17.2503 19.7344 17.4018 19.3599 17.6714 19.0837C17.9409 18.8075 18.3066 18.6524 18.6878 18.6524ZM4.31283 18.6524C4.69407 18.6524 5.05971 18.8075 5.32929 19.0837C5.59888 19.3599 5.75033 19.7344 5.75033 20.125C5.75033 20.5155 5.59888 20.8901 5.32929 21.1662C5.05971 21.4424 4.69407 21.5975 4.31283 21.5975C3.93158 21.5975 3.56594 21.4424 3.29636 21.1662C3.02678 20.8901 2.87533 20.5155 2.87533 20.125C2.87533 19.7344 3.02678 19.3599 3.29636 19.0837C3.56594 18.8075 3.93158 18.6524 4.31283 18.6524ZM16.292 6.87192C17.5628 6.87192 18.7816 7.38906 19.6802 8.30959C20.5788 9.23012 21.0837 10.4786 21.0837 11.7805C21.0837 13.0823 20.5788 14.3308 19.6802 15.2513C18.7816 16.1718 17.5628 16.689 16.292 16.689C14.5248 16.689 12.9282 15.668 11.5003 13.6241C10.0724 15.668 8.47583 16.689 6.70866 16.689C5.43783 16.689 4.21905 16.1718 3.32044 15.2513C2.42183 14.3308 1.91699 13.0823 1.91699 11.7805C1.91699 10.4786 2.42183 9.23012 3.32044 8.30959C4.21905 7.38906 5.43783 6.87192 6.70866 6.87192C8.47583 6.87192 10.0724 7.89289 11.5003 9.93681C12.9282 7.89289 14.5248 6.87192 16.292 6.87192ZM6.70866 8.83533C5.94616 8.83533 5.21489 9.14562 4.67573 9.69794C4.13656 10.2503 3.83366 10.9994 3.83366 11.7805C3.83366 12.5615 4.13656 13.3106 4.67573 13.863C5.21489 14.4153 5.94616 14.7256 6.70866 14.7256C7.91041 14.7256 9.11408 13.8666 10.311 11.9238L10.3963 11.7795L10.3101 11.6371C9.16295 9.77581 8.01008 8.90798 6.85912 8.83926L6.70866 8.83533ZM16.292 8.83533C15.0902 8.83533 13.8866 9.69432 12.6896 11.6371L12.6034 11.7805L12.6896 11.9238C13.8377 13.7851 14.9896 14.6529 16.1415 14.7216L16.292 14.7256C17.0545 14.7256 17.7858 14.4153 18.3249 13.863C18.8641 13.3106 19.167 12.5615 19.167 11.7805C19.167 10.9994 18.8641 10.2503 18.3249 9.69794C17.7858 9.14562 17.0545 8.83533 16.292 8.83533ZM11.5003 1.96338C11.6891 1.96338 11.876 2.00147 12.0504 2.07547C12.2248 2.14947 12.3833 2.25794 12.5168 2.39468C12.6503 2.53142 12.7562 2.69376 12.8284 2.87242C12.9006 3.05107 12.9378 3.24256 12.9378 3.43594C12.9378 3.62932 12.9006 3.82081 12.8284 3.99946C12.7562 4.17812 12.6503 4.34046 12.5168 4.4772C12.3833 4.61394 12.2248 4.72241 12.0504 4.79641C11.876 4.87041 11.6891 4.9085 11.5003 4.9085C11.1191 4.9085 10.7534 4.75336 10.4839 4.4772C10.2143 4.20104 10.0628 3.82649 10.0628 3.43594C10.0628 3.04539 10.2143 2.67084 10.4839 2.39468C10.7534 2.11852 11.1191 1.96338 11.5003 1.96338ZM4.31283 1.96338C4.5016 1.96338 4.68853 2.00147 4.86293 2.07547C5.03734 2.14947 5.19581 2.25794 5.32929 2.39468C5.46278 2.53142 5.56866 2.69376 5.6409 2.87242C5.71314 3.05107 5.75033 3.24256 5.75033 3.43594C5.75033 3.62932 5.71314 3.82081 5.6409 3.99946C5.56866 4.17812 5.46278 4.34046 5.32929 4.4772C5.19581 4.61394 5.03734 4.72241 4.86293 4.79641C4.68853 4.87041 4.5016 4.9085 4.31283 4.9085C3.93158 4.9085 3.56594 4.75336 3.29636 4.4772C3.02678 4.20104 2.87533 3.82649 2.87533 3.43594C2.87533 3.04539 3.02678 2.67084 3.29636 2.39468C3.56594 2.11852 3.93158 1.96338 4.31283 1.96338ZM18.6878 1.96338C18.8766 1.96338 19.0635 2.00147 19.2379 2.07547C19.4123 2.14947 19.5708 2.25794 19.7043 2.39468C19.8378 2.53142 19.9437 2.69376 20.0159 2.87242C20.0881 3.05107 20.1253 3.24256 20.1253 3.43594C20.1253 3.62932 20.0881 3.82081 20.0159 3.99946C19.9437 4.17812 19.8378 4.34046 19.7043 4.4772C19.5708 4.61394 19.4123 4.72241 19.2379 4.79641C19.0635 4.87041 18.8766 4.9085 18.6878 4.9085C18.3066 4.9085 17.9409 4.75336 17.6714 4.4772C17.4018 4.20104 17.2503 3.82649 17.2503 3.43594C17.2503 3.04539 17.4018 2.67084 17.6714 2.39468C17.9409 2.11852 18.3066 1.96338 18.6878 1.96338Z" fill="#5C5C5C"/>
</svg>
