<svg width="23" height="23" viewBox="0 0 23 23" fill="none" xmlns="http://www.w3.org/2000/svg">
<g clip-path="url(#clip0_856_3620)">
<path d="M9.58366 5.73517C9.58332 7.04495 9.93511 8.33189 10.6039 9.46738C11.2726 10.6029 12.235 11.5471 13.3947 12.2059C14.5544 12.8646 15.8709 13.2146 17.2126 13.2211C18.5543 13.2275 19.8742 12.8901 21.0405 12.2426C20.5796 16.9894 16.4837 20.7034 11.5003 20.7034C6.20745 20.7034 1.91699 16.5151 1.91699 11.3483C1.91699 6.48358 5.72158 2.48518 10.5842 2.0352C9.92632 3.16244 9.58144 4.43784 9.58366 5.73517ZM3.83366 11.3483C3.83366 13.3332 4.64139 15.2368 6.07917 16.6403C7.51695 18.0439 9.467 18.8324 11.5003 18.8324C12.8549 18.8323 14.1853 18.4821 15.3563 17.8175C16.5274 17.1528 17.4973 16.1974 18.1675 15.0482C17.8646 15.0763 17.558 15.0903 17.2503 15.0903C11.9575 15.0903 7.66699 10.902 7.66699 5.73517C7.66699 5.43487 7.68137 5.13644 7.71012 4.83988C6.53294 5.4941 5.55418 6.44091 4.87331 7.58405C4.19244 8.7272 3.83374 10.0259 3.83366 11.3483ZM17.4075 2.26534L18.2087 2.46086V3.39638L17.4075 3.5919C17.0705 3.67416 16.7628 3.84426 16.5172 4.08401C16.2716 4.32376 16.0974 4.62415 16.0131 4.95307L15.8128 5.73517H14.8545L14.6542 4.95307C14.5699 4.62415 14.3957 4.32376 14.1501 4.08401C13.9045 3.84426 13.5968 3.67416 13.2598 3.5919L12.4587 3.39638V2.46086L13.2598 2.26534C13.5966 2.18293 13.9041 2.01276 14.1495 1.77302C14.395 1.53328 14.5691 1.23297 14.6532 0.904162L14.8545 0.12207H15.8128L16.0131 0.904162C16.0974 1.23309 16.2716 1.53348 16.5172 1.77323C16.7628 2.01298 17.0705 2.18307 17.4075 2.26534ZM22.1992 6.94292L23.0003 7.13844V8.07396L22.1992 8.26948C21.8622 8.35174 21.5545 8.52184 21.3089 8.76159C21.0633 9.00134 20.8891 9.30173 20.8048 9.63065L20.6045 10.4127H19.6462L19.4459 9.63065C19.3616 9.30173 19.1874 9.00134 18.9418 8.76159C18.6962 8.52184 18.3884 8.35174 18.0515 8.26948L17.2503 8.07396V7.13844L18.0515 6.94292C18.3884 6.86065 18.6962 6.69056 18.9418 6.45081C19.1874 6.21106 19.3616 5.91067 19.4459 5.58174L19.6462 4.79965H20.6045L20.8048 5.58174C20.8891 5.91067 21.0633 6.21106 21.3089 6.45081C21.5545 6.69056 21.8622 6.86065 22.1992 6.94292Z" fill="#5C5C5C"/>
</g>
<defs>
<clipPath id="clip0_856_3620">
<rect width="23" height="22.4524" fill="white" transform="translate(0 0.12207)"/>
</clipPath>
</defs>
</svg>
