<svg width="23" height="24" viewBox="0 0 23 24" fill="none" xmlns="http://www.w3.org/2000/svg">
<path d="M12.458 15.7123L14.3401 14.6255L15.2985 16.2854L13.4163 17.3721L15.2985 18.4589L14.3401 20.1187L12.458 19.0319V21.2054H10.5413V19.0319L8.65914 20.1187L7.7008 18.4589L9.58297 17.3721L7.7008 16.2854L8.65914 14.6255L10.5413 15.7123V13.5388H12.458V15.7123ZM16.2913 17.3721V15.4554H16.7705C17.3235 15.4554 17.8679 15.3186 18.3552 15.0572C18.8425 14.7959 19.2577 14.4181 19.5637 13.9575C19.8698 13.4969 20.0572 12.9678 20.1092 12.4172C20.1613 11.8667 20.0765 11.3118 19.8623 10.802C19.6481 10.2922 19.3111 9.84323 18.8815 9.49511C18.4518 9.147 17.9427 8.91052 17.3995 8.80673C16.8564 8.70293 16.296 8.73504 15.7682 8.9002C15.2405 9.06536 14.7617 9.35845 14.3746 9.75336V9.70545C14.3743 8.65138 14.0841 7.61769 13.536 6.71735C12.9879 5.81702 12.2028 5.08468 11.2665 4.60037C10.3303 4.11606 9.27899 3.89843 8.22743 3.97124C7.17588 4.04405 6.16457 4.40452 5.30403 5.01324C4.4435 5.62197 3.76684 6.45552 3.34802 7.42281C2.9292 8.39011 2.78433 9.45392 2.92923 10.498C3.07414 11.542 3.50325 12.5262 4.16967 13.3429C4.8361 14.1595 5.71418 14.7773 6.70797 15.1287V17.1306C5.43694 16.8017 4.27167 16.1519 3.32381 15.2435C2.37594 14.3351 1.67724 13.1985 1.29466 11.9425C0.91207 10.6866 0.858413 9.35352 1.13883 8.07092C1.41924 6.78833 2.02434 5.59923 2.89613 4.61757C3.76792 3.6359 4.8772 2.89456 6.11768 2.46458C7.35816 2.0346 8.68828 1.93038 9.9806 2.16191C11.2729 2.39343 12.4841 2.95295 13.4982 3.78686C14.5122 4.62076 15.2951 5.7011 15.7719 6.92436C16.4926 6.78647 17.2342 6.80057 17.9491 6.96578C18.664 7.13098 19.3366 7.44365 19.9238 7.88376C20.5109 8.32387 20.9997 8.88172 21.3588 9.52162C21.718 10.1615 21.9395 10.8693 22.0093 11.5998C22.0792 12.3302 21.9957 13.0672 21.7643 13.7636C21.5329 14.4599 21.1586 15.1002 20.6654 15.6436C20.1723 16.187 19.5711 16.6214 18.9004 16.919C18.2297 17.2167 17.5043 17.371 16.7705 17.3721L16.2913 17.3731V17.3721Z" fill="#5C5C5C"/>
</svg>
