<svg width="23" height="24" viewBox="0 0 23 24" fill="none" xmlns="http://www.w3.org/2000/svg">
<path d="M9.56773 4.97124C9.95649 4.23085 10.4903 3.57632 11.1375 3.04667C11.7846 2.51701 12.5318 2.12308 13.3344 1.88836C14.137 1.65363 14.9787 1.58292 15.8092 1.68044C16.6398 1.77796 17.4422 2.04171 18.1686 2.45596C18.8951 2.87022 19.5306 3.4265 20.0375 4.09165C20.5443 4.7568 20.9121 5.51719 21.1187 6.32749C21.3254 7.13779 21.3668 7.98142 21.2405 8.80807C21.1142 9.63472 20.8227 10.4275 20.3835 11.1391C21.1522 11.863 21.6857 12.801 21.915 13.8317C22.1443 14.8624 22.0587 15.9382 21.6694 16.9197C21.28 17.9012 20.6049 18.7432 19.7314 19.3364C18.858 19.9297 17.8264 20.2469 16.7706 20.2471L8.62473 20.2461C7.57863 20.2453 6.54376 20.0305 5.58381 19.6147C4.62386 19.199 3.75914 18.5912 3.04288 17.8288C2.32662 17.0664 1.77396 16.1655 1.41892 15.1814C1.06388 14.1974 0.91398 13.1512 0.978434 12.1071C1.04289 11.063 1.32034 10.0431 1.79371 9.11022C2.26708 8.17735 2.92635 7.35122 3.73095 6.68269C4.53555 6.01415 5.46845 5.51735 6.47224 5.22285C7.47603 4.92836 8.52947 4.8424 9.56773 4.97028V4.97124ZM11.5524 5.49257C12.5097 5.88935 13.3769 6.47545 14.1019 7.21569C14.827 7.95593 15.3951 8.83505 15.772 9.80028C16.7762 9.60781 17.8146 9.70999 18.762 10.0945C19.2062 9.14647 19.2904 8.06921 18.9989 7.06368C18.7073 6.05814 18.0599 5.193 17.1775 4.62965C16.295 4.06629 15.2378 3.84319 14.2029 4.00197C13.1681 4.16075 12.2264 4.69056 11.5534 5.49257H11.5524ZM16.7706 18.3304C17.3236 18.3303 17.868 18.1935 18.3553 17.9322C18.8426 17.6708 19.2578 17.293 19.5638 16.8324C19.8698 16.3718 20.0572 15.8427 20.1093 15.2922C20.1614 14.7417 20.0766 14.1868 19.8624 13.677C19.6482 13.1671 19.3112 12.7182 18.8816 12.3701C18.4519 12.022 17.9428 11.7855 17.3996 11.6817C16.8565 11.5779 16.2961 11.61 15.7683 11.7752C15.2406 11.9403 14.7618 12.2334 14.3747 12.6283V12.5804C14.3747 11.4432 14.0375 10.3315 13.4057 9.38588C12.7739 8.4403 11.8758 7.7033 10.8252 7.2681C9.77448 6.8329 8.61835 6.71903 7.50296 6.94089C6.38757 7.16276 5.36301 7.71039 4.55886 8.51454C3.75471 9.3187 3.20708 10.3432 2.98521 11.4586C2.76335 12.574 2.87721 13.7302 3.31242 14.7808C3.74762 15.8315 4.48461 16.7295 5.4302 17.3614C6.37578 17.9932 7.48748 18.3304 8.62473 18.3304H16.7706Z" fill="#5C5C5C"/>
</svg>
