<svg width="23" height="23" viewBox="0 0 23 23" fill="none" xmlns="http://www.w3.org/2000/svg">
<path d="M11.4997 16.9614C9.97468 16.9614 8.51214 16.37 7.43381 15.3174C6.35548 14.2647 5.74967 12.837 5.74967 11.3483C5.74967 9.85961 6.35548 8.43189 7.43381 7.37923C8.51214 6.32658 9.97468 5.7352 11.4997 5.7352C13.0247 5.7352 14.4872 6.32658 15.5655 7.37923C16.6439 8.43189 17.2497 9.85961 17.2497 11.3483C17.2497 12.837 16.6439 14.2647 15.5655 15.3174C14.4872 16.37 13.0247 16.9614 11.4997 16.9614ZM11.4997 15.0904C12.5163 15.0904 13.4914 14.6961 14.2102 13.9943C14.9291 13.2926 15.333 12.3407 15.333 11.3483C15.333 10.3558 14.9291 9.40403 14.2102 8.70225C13.4914 8.00048 12.5163 7.60623 11.4997 7.60623C10.483 7.60623 9.50799 8.00048 8.7891 8.70225C8.07021 9.40403 7.66634 10.3558 7.66634 11.3483C7.66634 12.3407 8.07021 13.2926 8.7891 13.9943C9.50799 14.6961 10.483 15.0904 11.4997 15.0904ZM10.5413 1.05762H12.458V3.86417H10.5413V1.05762ZM10.5413 18.8324H12.458V21.639H10.5413V18.8324ZM3.36822 4.73326L4.7233 3.41044L6.75592 5.39467L5.40084 6.71749L3.36822 4.73419V4.73326ZM16.2434 17.3019L17.5985 15.9791L19.6311 17.9633L18.276 19.2861L16.2434 17.3019ZM18.276 3.4095L19.6311 4.73326L17.5985 6.71749L16.2434 5.39467L18.276 3.41044V3.4095ZM5.40084 15.9791L6.75592 17.3019L4.7233 19.2861L3.36822 17.9633L5.40084 15.9791ZM22.0413 10.4128V12.2838H19.1663V10.4128H22.0413ZM3.83301 10.4128V12.2838H0.958008V10.4128H3.83301Z" fill="#5C5C5C"/>
</svg>
