<svg width="23" height="24" viewBox="0 0 23 24" fill="none" xmlns="http://www.w3.org/2000/svg">
<path d="M7.66699 5.15266C7.66699 4.1112 8.07086 3.1124 8.78975 2.37597C9.50864 1.63955 10.4837 1.22583 11.5003 1.22583C12.517 1.22583 13.492 1.63955 14.2109 2.37597C14.9298 3.1124 15.3337 4.1112 15.3337 5.15266V10.3115C16.5057 11.1475 17.3867 12.3449 17.8484 13.7293C18.3101 15.1137 18.3285 16.613 17.9008 18.0089C17.4731 19.4047 16.6218 20.6243 15.4706 21.4902C14.3194 22.3561 12.9285 22.823 11.5003 22.823C10.0722 22.823 8.68127 22.3561 7.53008 21.4902C6.3789 20.6243 5.52751 19.4047 5.09984 18.0089C4.67216 16.613 4.69053 15.1137 5.15225 13.7293C5.61398 12.3449 6.49497 11.1475 7.66699 10.3115V5.15266ZM8.76333 11.9215C7.92591 12.5185 7.29635 13.3737 6.96631 14.3626C6.63627 15.3515 6.62297 16.4226 6.92835 17.4198C7.23373 18.417 7.84184 19.2883 8.66417 19.9069C9.48649 20.5255 10.4801 20.8591 11.5003 20.8591C12.5206 20.8591 13.5142 20.5255 14.3365 19.9069C15.1588 19.2883 15.7669 18.417 16.0723 17.4198C16.3777 16.4226 16.3644 15.3515 16.0343 14.3626C15.7043 13.3737 15.0747 12.5185 14.2373 11.9215L13.417 11.3355V5.15266C13.417 4.63193 13.2151 4.13253 12.8556 3.76432C12.4962 3.3961 12.0087 3.18924 11.5003 3.18924C10.992 3.18924 10.5045 3.3961 10.145 3.76432C9.78559 4.13253 9.58366 4.63193 9.58366 5.15266V11.3355L8.76333 11.9215ZM10.542 12.1483V5.15266H12.4587V12.1483C13.36 12.3895 14.1447 12.9586 14.6665 13.7492C15.1882 14.5397 15.4112 15.4978 15.2938 16.4445C15.1765 17.3912 14.7268 18.2617 14.0287 18.8936C13.3306 19.5255 12.4319 19.8755 11.5003 19.8783C10.5667 19.8792 9.66475 19.5311 8.96388 18.8991C8.26301 18.2672 7.81138 17.395 7.69375 16.4462C7.57612 15.4974 7.80058 14.5372 8.32499 13.7458C8.84941 12.9545 9.63773 12.3865 10.542 12.1483ZM11.5003 17.9149C12.0087 17.9149 12.4962 17.708 12.8556 17.3398C13.2151 16.9716 13.417 16.4722 13.417 15.9514C13.417 15.4307 13.2151 14.9313 12.8556 14.5631C12.4962 14.1949 12.0087 13.988 11.5003 13.988C10.992 13.988 10.5045 14.1949 10.145 14.5631C9.78559 14.9313 9.58366 15.4307 9.58366 15.9514C9.58366 16.4722 9.78559 16.9716 10.145 17.3398C10.5045 17.708 10.992 17.9149 11.5003 17.9149Z" fill="#5C5C5C"/>
</svg>
