<svg width="23" height="24" viewBox="0 0 23 24" fill="none" xmlns="http://www.w3.org/2000/svg">
<path d="M10.0628 16.4137H3.83366V14.497H10.0628C10.675 14.4972 11.2754 14.665 11.799 14.982C12.3226 15.2991 12.7495 15.7534 13.0333 16.2957C13.3172 16.8381 13.4472 17.4478 13.4094 18.0587C13.3715 18.6697 13.1672 19.2586 12.8185 19.7617C12.4698 20.2649 11.9901 20.663 11.4313 20.913C10.8726 21.1629 10.256 21.2552 9.64856 21.1798C9.04108 21.1044 8.46582 20.8643 7.9851 20.4853C7.50438 20.1063 7.13653 19.603 6.92141 19.0299L8.71637 18.3562C8.80854 18.6019 8.96617 18.8176 9.17218 18.98C9.37819 19.1424 9.62472 19.2454 9.88507 19.2777C10.1454 19.3101 10.4096 19.2705 10.6491 19.1634C10.8886 19.0563 11.0942 18.8857 11.2437 18.6701C11.3931 18.4545 11.4807 18.2021 11.497 17.9402C11.5132 17.6784 11.4575 17.4171 11.3359 17.1847C11.2142 16.9522 11.0313 16.7575 10.8069 16.6216C10.5825 16.4857 10.3252 16.4138 10.0628 16.4137ZM4.79199 10.6637H17.7295C18.3416 10.6639 18.942 10.8316 19.4656 11.1487C19.9893 11.4658 20.4161 11.9201 20.7 12.4624C20.9839 13.0047 21.1139 13.6144 21.076 14.2254C21.0382 14.8363 20.8338 15.4253 20.4851 15.9284C20.1365 16.4315 19.6568 16.8297 19.098 17.0796C18.5392 17.3296 17.9227 17.4219 17.3152 17.3465C16.7077 17.2711 16.1325 17.0309 15.6518 16.652C15.171 16.273 14.8032 15.7697 14.5881 15.1966L16.383 14.5229C16.4752 14.7685 16.6328 14.9842 16.8388 15.1467C17.0449 15.3091 17.2914 15.4121 17.5517 15.4444C17.8121 15.4767 18.0763 15.4372 18.3158 15.3301C18.5553 15.223 18.7609 15.0524 18.9103 14.8368C19.0598 14.6211 19.1474 14.3687 19.1636 14.1069C19.1799 13.8451 19.1242 13.5838 19.0025 13.3513C18.8809 13.1189 18.698 12.9242 18.4736 12.7883C18.2492 12.6524 17.9918 12.5805 17.7295 12.5804H4.79199C4.02949 12.5804 3.29823 12.2775 2.75906 11.7383C2.21989 11.1991 1.91699 10.4679 1.91699 9.70536C1.91699 8.94286 2.21989 8.21159 2.75906 7.67243C3.29823 7.13326 4.02949 6.83036 4.79199 6.83036H12.9378C13.2002 6.83025 13.4575 6.75835 13.6819 6.62245C13.9063 6.48655 14.0892 6.29183 14.2109 6.05939C14.3325 5.82695 14.3882 5.56565 14.372 5.30381C14.3557 5.04197 14.2681 4.78957 14.1187 4.57395C13.9692 4.35834 13.7636 4.18773 13.5241 4.08062C13.2846 3.97351 13.0204 3.93398 12.7601 3.96632C12.4997 3.99865 12.2532 4.10161 12.0472 4.26405C11.8412 4.42648 11.6835 4.64219 11.5914 4.88782L9.79641 4.21507C10.0729 3.47984 10.5985 2.86491 11.2818 2.47743C11.965 2.08994 12.7626 1.95447 13.5355 2.09461C14.3083 2.23475 15.0076 2.64162 15.5113 3.24433C16.015 3.84704 16.2913 4.60737 16.292 5.39286C16.292 6.28244 15.9386 7.13558 15.3096 7.76461C14.6806 8.39364 13.8274 8.74702 12.9378 8.74702H4.79199C4.53783 8.74702 4.29407 8.84799 4.11435 9.02771C3.93463 9.20744 3.83366 9.45119 3.83366 9.70536C3.83366 9.95952 3.93463 10.2033 4.11435 10.383C4.29407 10.5627 4.53783 10.6637 4.79199 10.6637Z" fill="#5C5C5C"/>
</svg>
