<svg width="23" height="24" viewBox="0 0 23 24" fill="none" xmlns="http://www.w3.org/2000/svg">
<g clip-path="url(#clip0_856_3544)">
<path d="M8.22825 16.6795H2.875V14.7172H20.125V16.6795H14.7717L17.8796 19.8613L16.5245 21.2487L12.4583 17.0857V19.6229H10.5417V17.0857L6.47546 21.2487L5.12037 19.8613L8.22825 16.6795ZM4.79167 2.94336H18.2083C18.4625 2.94336 18.7063 3.04673 18.886 3.23073C19.0657 3.41473 19.1667 3.66429 19.1667 3.92451V13.736H3.83333V3.92451C3.83333 3.66429 3.9343 3.41473 4.11402 3.23073C4.29375 3.04673 4.5375 2.94336 4.79167 2.94336ZM5.75 4.90566V11.7737H17.25V4.90566H5.75Z" fill="#5C5C5C"/>
</g>
<defs>
<clipPath id="clip0_856_3544">
<rect width="23" height="23.5476" fill="white"/>
</clipPath>
</defs>
</svg>
