<svg width="23" height="25" viewBox="0 0 23 25" fill="none" xmlns="http://www.w3.org/2000/svg">
<path d="M7.66699 8.04074V16.0814H15.3337V8.04074H7.66699ZM5.75033 6.03058H17.2503V18.0916H5.75033V6.03058ZM5.75033 2.01025H7.66699V5.0255H5.75033V2.01025ZM5.75033 19.0966H7.66699V22.1119H5.75033V19.0966ZM1.91699 6.03058H4.79199V8.04074H1.91699V6.03058ZM1.91699 16.0814H4.79199V18.0916H1.91699V16.0814ZM18.2087 6.03058H21.0837V8.04074H18.2087V6.03058ZM18.2087 16.0814H21.0837V18.0916H18.2087V16.0814ZM15.3337 2.01025H17.2503V5.0255H15.3337V2.01025ZM15.3337 19.0966H17.2503V22.1119H15.3337V19.0966Z" fill="#5C5C5C"/>
</svg>
