<svg width="23" height="23" viewBox="0 0 23 23" fill="none" xmlns="http://www.w3.org/2000/svg">
<path d="M17.1053 11.3159L16.4278 10.6384L6.94025 20.1259H2.875V16.0597L13.7166 5.21707L19.1379 10.6384C19.3176 10.8181 19.4185 11.0618 19.4185 11.3159C19.4185 11.57 19.3176 11.8137 19.1379 11.9934L12.3625 18.7698L11.0065 17.4147L17.1053 11.3159ZM15.0727 9.28328L13.7166 7.9282L4.79167 16.8532V18.2092H6.14675L15.0727 9.28328ZM17.7828 2.50691L20.494 5.21707C20.6736 5.39679 20.7745 5.6405 20.7745 5.89461C20.7745 6.14873 20.6736 6.39244 20.494 6.57216L19.1379 7.9282L15.0727 3.86199L16.4278 2.50691C16.6075 2.32725 16.8512 2.22632 17.1053 2.22632C17.3594 2.22632 17.6031 2.32725 17.7828 2.50691Z" fill="#5C5C5C"/>
</svg>
