<svg width="23" height="24" viewBox="0 0 23 24" fill="none" xmlns="http://www.w3.org/2000/svg">
<path d="M15.6497 13.0597C16.4478 12.4324 17.0928 11.632 17.5361 10.7189C17.9794 9.80579 18.2093 8.80385 18.2084 7.78882H20.1251C20.1261 9.14048 19.8089 10.4734 19.1992 11.6797C18.5896 12.8861 17.7045 13.932 16.6157 14.7329L19.0384 18.9285C19.2925 19.3687 19.3614 19.8919 19.2298 20.3828C19.0983 20.8738 18.7771 21.2925 18.3369 21.5467L14.9568 15.6932C13.8669 16.17 12.6898 16.4154 11.5001 16.4138C10.3104 16.4154 9.13335 16.17 8.0434 15.6932L4.66336 21.5467C4.22315 21.2925 3.90194 20.8738 3.77039 20.3828C3.63883 19.8919 3.7077 19.3687 3.96186 18.9285L8.8139 10.5239C8.32991 10.048 7.98088 9.45224 7.80244 8.79736C7.62401 8.14249 7.62257 7.45199 7.79826 6.79637C7.97396 6.14075 8.3205 5.54351 8.80249 5.06562C9.28449 4.58773 9.88468 4.24631 10.5418 4.07623V2.03882H12.4584V4.07623C13.1155 4.24631 13.7157 4.58773 14.1977 5.06562C14.6797 5.54351 15.0263 6.14075 15.202 6.79637C15.3777 7.45199 15.3762 8.14249 15.1978 8.79736C15.0193 9.45224 14.6703 10.048 14.1863 10.5239L15.6497 13.0597ZM13.9918 14.0199L12.5274 11.4832C11.8559 11.6696 11.1462 11.6696 10.4747 11.4832L9.01036 14.0199C9.78086 14.3275 10.6204 14.4972 11.5011 14.4972C12.3808 14.4972 13.2213 14.3275 13.9918 14.0199ZM11.5001 9.70548C12.0084 9.70548 12.496 9.50355 12.8554 9.14411C13.2148 8.78466 13.4168 8.29715 13.4168 7.78882C13.4168 7.28049 13.2148 6.79297 12.8554 6.43353C12.496 6.07409 12.0084 5.87215 11.5001 5.87215C10.9918 5.87215 10.5043 6.07409 10.1448 6.43353C9.78538 6.79297 9.58344 7.28049 9.58344 7.78882C9.58344 8.29715 9.78538 8.78466 10.1448 9.14411C10.5043 9.50355 10.9918 9.70548 11.5001 9.70548Z" fill="#5C5C5C"/>
</svg>
