<svg width="23" height="24" viewBox="0 0 23 24" fill="none" xmlns="http://www.w3.org/2000/svg">
<path d="M10.542 10.9208V5.84342L8.79016 7.63897L7.43412 6.25083L11.5003 2.08545L15.5665 6.25083L14.2105 7.63897L12.4587 5.84342V10.9208H17.4152L15.6624 9.12625L17.0175 7.73714L21.0837 11.9025L17.0175 16.0679L15.6624 14.6788L17.4152 12.8842H12.4587V17.9616L14.2105 16.1661L15.5665 17.5542L11.5003 21.7196L7.43412 17.5542L8.79016 16.1661L10.542 17.9616V12.8842H5.58549L7.33828 14.6788L5.9832 16.0679L1.91699 11.9025L5.9832 7.73714L7.33828 9.12625L5.58549 10.9208H10.542Z" fill="#5C5C5C"/>
</svg>
