<svg width="23" height="24" viewBox="0 0 23 24" fill="none" xmlns="http://www.w3.org/2000/svg">
<path d="M12.458 1.08032L12.459 4.01474C14.1478 4.22825 15.7175 4.99744 16.9211 6.20119C18.1247 7.40494 18.8937 8.97484 19.1069 10.6637H22.0413V12.5803L19.1069 12.5813C18.8935 14.2699 18.1244 15.8396 16.9208 17.0432C15.7173 18.2467 14.1476 19.0158 12.459 19.2292L12.458 22.1637H10.5413V19.2292C8.85252 19.016 7.28262 18.247 6.07888 17.0434C4.87513 15.8399 4.10593 14.2701 3.89242 12.5813L0.958008 12.5803V10.6637H3.89242C4.10574 8.97469 4.87485 7.40468 6.07861 6.20092C7.28237 4.99716 8.85238 4.22805 10.5413 4.01474V1.08032H12.458ZM11.4997 5.87199C9.97468 5.87199 8.51214 6.47779 7.43381 7.55612C6.35548 8.63446 5.74967 10.097 5.74967 11.622C5.74967 13.147 6.35548 14.6095 7.43381 15.6879C8.51214 16.7662 9.97468 17.372 11.4997 17.372C13.0247 17.372 14.4872 16.7662 15.5655 15.6879C16.6439 14.6095 17.2497 13.147 17.2497 11.622C17.2497 10.097 16.6439 8.63446 15.5655 7.55612C14.4872 6.47779 13.0247 5.87199 11.4997 5.87199ZM11.4997 9.70532C12.008 9.70532 12.4955 9.90726 12.855 10.2667C13.2144 10.6261 13.4163 11.1137 13.4163 11.622C13.4163 12.1303 13.2144 12.6178 12.855 12.9773C12.4955 13.3367 12.008 13.5387 11.4997 13.5387C10.9913 13.5387 10.5038 13.3367 10.1444 12.9773C9.78494 12.6178 9.58301 12.1303 9.58301 11.622C9.58301 11.1137 9.78494 10.6261 10.1444 10.2667C10.5038 9.90726 10.9913 9.70532 11.4997 9.70532Z" fill="#5C5C5C"/>
</svg>
