<svg width="23" height="23" viewBox="0 0 23 23" fill="none" xmlns="http://www.w3.org/2000/svg">
<g clip-path="url(#clip0_856_3568)">
<path d="M19.1663 1.87207C19.4205 1.87207 19.6643 1.97069 19.844 2.14623C20.0237 2.32177 20.1247 2.55986 20.1247 2.80812V7.48835C20.1247 7.7366 20.0237 7.97469 19.844 8.15023C19.6643 8.32578 19.4205 8.4244 19.1663 8.4244H14.3747V20.593C14.3747 20.8413 14.2737 21.0793 14.094 21.2549C13.9143 21.4304 13.6705 21.529 13.4163 21.529H9.58301C9.32884 21.529 9.08509 21.4304 8.90536 21.2549C8.72564 21.0793 8.62467 20.8413 8.62467 20.593V8.4244H3.35384C3.09968 8.4244 2.85592 8.32578 2.6762 8.15023C2.49647 7.97469 2.39551 7.7366 2.39551 7.48835V5.25869C2.3956 5.0849 2.44523 4.91457 2.53883 4.76677C2.63243 4.61897 2.76631 4.49954 2.92547 4.42186L8.14551 1.87207H19.1663ZM14.3747 3.74416H8.59784L4.31217 5.83716V6.5523H10.5413V19.657H12.458V6.5523H14.3747V3.74416ZM18.208 3.74416H16.2913V6.5523H18.208V3.74416Z" fill="#5C5C5C"/>
</g>
<defs>
<clipPath id="clip0_856_3568">
<rect width="23" height="22.4651" fill="white"/>
</clipPath>
</defs>
</svg>
