<svg width="23" height="24" viewBox="0 0 23 24" fill="none" xmlns="http://www.w3.org/2000/svg">
<path d="M15.3333 8.74707L19.5222 10.4232C19.8864 10.5679 20.125 10.9215 20.125 11.3125V20.2471C20.125 20.7761 19.6957 21.2054 19.1667 21.2054H3.83333C3.30433 21.2054 2.875 20.7761 2.875 20.2471V11.3125C2.875 10.9206 3.11362 10.5679 3.47779 10.4232L7.66667 8.74707H15.3333ZM14.9644 10.6637H8.03562L4.79167 11.9613V19.2887H18.2083V18.3304H7.66667V13.5387H18.2083V11.9613L14.9644 10.6637ZM15.3333 2.99707C15.8623 2.99707 16.2917 3.4264 16.2917 3.9554V7.78874H6.70833V3.9554C6.70833 3.4264 7.13767 2.99707 7.66667 2.99707H15.3333ZM14.375 4.91374H8.625V5.87207H14.375V4.91374Z" fill="#5C5C5C"/>
</svg>
