<svg width="23" height="24" viewBox="0 0 23 24" fill="none" xmlns="http://www.w3.org/2000/svg">
<g clip-path="url(#clip0_856_3576)">
<path d="M11.5003 2.08447C16.7922 2.08447 21.0837 5.98749 21.0837 10.8059C21.0829 12.2514 20.5217 13.6374 19.5232 14.6593C18.5248 15.6813 17.171 16.2557 15.7592 16.2562H13.8751C12.9915 16.2562 12.2775 16.9872 12.2775 17.8918C12.2775 18.3058 12.4376 18.6875 12.682 18.9711C12.9378 19.2654 13.0979 19.6471 13.0979 20.0719C13.0979 20.9775 12.3628 21.7075 11.5003 21.7075C6.20841 21.7075 1.91699 17.3139 1.91699 11.896C1.91699 6.47807 6.20841 2.08447 11.5003 2.08447ZM10.3609 17.8918C10.3605 17.4192 10.4511 16.9512 10.6276 16.5145C10.8041 16.0778 11.0629 15.681 11.3893 15.3468C11.7157 15.0127 12.1033 14.7477 12.5298 14.567C12.9563 14.3863 13.4135 14.2935 13.8751 14.2939H15.7592C16.6625 14.2934 17.5287 13.9259 18.1676 13.2721C18.8066 12.6184 19.166 11.7317 19.167 10.8069C19.167 7.12661 15.7822 4.04677 11.5003 4.04677C9.52192 4.04493 7.6194 4.82616 6.19056 6.22714C4.76172 7.62812 3.91718 9.54036 3.83352 11.5641C3.74986 13.5878 4.43356 15.5662 5.74167 17.0858C7.04977 18.6054 8.88101 19.5484 10.8525 19.7177C10.5316 19.1656 10.3618 18.5352 10.3609 17.8928V17.8918ZM7.18783 11.896C6.80658 11.896 6.44094 11.7409 6.17136 11.4649C5.90178 11.1889 5.75033 10.8146 5.75033 10.4243C5.75033 10.0339 5.90178 9.65959 6.17136 9.38359C6.44094 9.10758 6.80658 8.95253 7.18783 8.95253C7.56907 8.95253 7.93471 9.10758 8.20429 9.38359C8.47388 9.65959 8.62533 10.0339 8.62533 10.4243C8.62533 10.8146 8.47388 11.1889 8.20429 11.4649C7.93471 11.7409 7.56907 11.896 7.18783 11.896ZM15.8128 11.896C15.4316 11.896 15.0659 11.7409 14.7964 11.4649C14.5268 11.1889 14.3753 10.8146 14.3753 10.4243C14.3753 10.0339 14.5268 9.65959 14.7964 9.38359C15.0659 9.10758 15.4316 8.95253 15.8128 8.95253C16.1941 8.95253 16.5597 9.10758 16.8293 9.38359C17.0989 9.65959 17.2503 10.0339 17.2503 10.4243C17.2503 10.8146 17.0989 11.1889 16.8293 11.4649C16.5597 11.7409 16.1941 11.896 15.8128 11.896ZM11.5003 8.95253C11.1191 8.95253 10.7534 8.79747 10.4839 8.52147C10.2143 8.24547 10.0628 7.87113 10.0628 7.4808C10.0628 7.09048 10.2143 6.71614 10.4839 6.44013C10.7534 6.16413 11.1191 6.00908 11.5003 6.00908C11.8816 6.00908 12.2472 6.16413 12.5168 6.44013C12.7864 6.71614 12.9378 7.09048 12.9378 7.4808C12.9378 7.87113 12.7864 8.24547 12.5168 8.52147C12.2472 8.79747 11.8816 8.95253 11.5003 8.95253Z" fill="#5C5C5C"/>
</g>
<defs>
<clipPath id="clip0_856_3576">
<rect width="23" height="23.5476" fill="white" transform="translate(0 0.12207)"/>
</clipPath>
</defs>
</svg>
