<svg width="23" height="24" viewBox="0 0 23 24" fill="none" xmlns="http://www.w3.org/2000/svg">
<g clip-path="url(#clip0_856_3580)">
<path d="M5.52361 7.9713L5.2409 7.25506C5.19374 7.13556 5.17003 7.00771 5.17114 6.87883C5.17225 6.74995 5.19816 6.62255 5.24737 6.50392C5.29659 6.38529 5.36815 6.27775 5.45797 6.18744C5.54779 6.09713 5.65411 6.02583 5.77086 5.9776L14.6565 2.30221C14.892 2.20494 15.1556 2.20735 15.3894 2.30889C15.6231 2.41044 15.808 2.60283 15.9033 2.84381L21.2892 16.4897C21.3363 16.6092 21.36 16.737 21.3589 16.8659C21.3578 16.9948 21.3319 17.1222 21.2827 17.2408C21.2335 17.3594 21.1619 17.467 21.0721 17.5573C20.9823 17.6476 20.8759 17.7189 20.7592 17.7671L11.8735 21.4425C11.7568 21.4908 11.6319 21.5151 11.506 21.5139C11.3802 21.5128 11.2557 21.4863 11.1399 21.4359C11.024 21.3855 10.9189 21.3122 10.8307 21.2203C10.7425 21.1283 10.6729 21.0194 10.6258 20.8999L10.5414 20.687V20.7263H6.70811C6.45394 20.7263 6.21019 20.6229 6.03047 20.4389C5.85074 20.2549 5.74978 20.0053 5.74978 19.7451V19.4802L2.53936 18.1527C2.30375 18.0551 2.11566 17.8657 2.01645 17.6261C1.91724 17.3866 1.91505 17.1165 2.01036 16.8752L5.52361 7.9713ZM7.66644 18.764H9.7834L7.66644 13.4V18.764ZM5.74978 12.6377L4.14648 16.7006L5.74978 17.3982V12.6377ZM7.37703 7.42872L12.0441 19.2555L19.153 16.315L14.4859 4.4892L7.37703 7.42872ZM10.2309 9.4234C9.9952 9.52085 9.73131 9.51844 9.49731 9.41669C9.26331 9.31493 9.07838 9.12218 8.98319 8.88083C8.88801 8.63948 8.89037 8.3693 8.98976 8.12973C9.08914 7.89016 9.27741 7.70082 9.51315 7.60337C9.74889 7.50579 10.0128 7.50808 10.2469 7.60974C10.481 7.7114 10.6661 7.9041 10.7614 8.14545C10.8567 8.38681 10.8545 8.65704 10.7552 8.8967C10.6559 9.13636 10.4676 9.32582 10.2319 9.4234H10.2309Z" fill="#5C5C5C"/>
</g>
<defs>
<clipPath id="clip0_856_3580">
<rect width="23" height="23.5476" fill="white" transform="translate(0 0.12207)"/>
</clipPath>
</defs>
</svg>
