<svg width="23" height="23" viewBox="0 0 23 23" fill="none" xmlns="http://www.w3.org/2000/svg">
<path d="M4.79167 7.66675V19.1667H8.625V7.66675H4.79167ZM2.875 6.70842L6.70833 1.91675L10.5417 6.70842V21.0834H2.875V6.70842ZM18.2083 15.3334V13.4167H15.3333V11.5001H18.2083V9.58342H16.2917V7.66675H18.2083V5.75008H14.375V19.1667H18.2083V17.2501H16.2917V15.3334H18.2083ZM13.4167 3.83341H19.1667C19.4208 3.83341 19.6646 3.93438 19.8443 4.1141C20.024 4.29383 20.125 4.53758 20.125 4.79175V20.1251C20.125 20.3792 20.024 20.623 19.8443 20.8027C19.6646 20.9824 19.4208 21.0834 19.1667 21.0834H13.4167C13.1625 21.0834 12.9187 20.9824 12.739 20.8027C12.5593 20.623 12.4583 20.3792 12.4583 20.1251V4.79175C12.4583 4.53758 12.5593 4.29383 12.739 4.1141C12.9187 3.93438 13.1625 3.83341 13.4167 3.83341Z" fill="#5C5C5C"/>
</svg>
