<svg width="23" height="24" viewBox="0 0 23 24" fill="none" xmlns="http://www.w3.org/2000/svg">
<path d="M6.65083 13.5733C6.42754 14.1713 6.23875 14.7233 6.07008 15.282C6.99008 14.6141 8.08354 14.1905 9.34567 14.0324C11.754 13.7314 13.8939 12.1416 14.9768 10.1434L13.5815 8.74907L14.9356 7.39303L15.894 6.43374C16.306 6.02165 16.7708 5.26074 17.2625 4.1644C11.9025 4.99528 8.62021 8.27757 6.64988 13.5733H6.65083ZM16.2917 8.74811L17.25 9.70549C16.2917 12.5805 13.4167 15.4555 9.58333 15.9347C7.02554 16.2547 5.428 18.0114 4.78975 21.2055H2.875C3.83333 15.4555 5.75 2.03882 20.125 2.03882C19.1667 4.91094 18.2102 6.82665 17.2529 7.78594L16.2917 8.74811Z" fill="#5C5C5C"/>
</svg>
