<svg width="23" height="24" viewBox="0 0 23 24" fill="none" xmlns="http://www.w3.org/2000/svg">
<path d="M9.0524 7.81939L11.5 10.267L17.9477 3.81931C18.3071 3.45999 18.7945 3.25813 19.3027 3.25813C19.811 3.25813 20.2984 3.45999 20.6578 3.81931L9.0524 15.4247C9.52629 16.2284 9.69079 17.1774 9.51505 18.0937C9.33932 19.01 8.83542 19.8308 8.09782 20.4022C7.36021 20.9735 6.43954 21.2563 5.50838 21.1974C4.57722 21.1385 3.6995 20.742 3.03975 20.0823C2.38001 19.4225 1.98353 18.5448 1.92464 17.6137C1.86575 16.6825 2.14849 15.7618 2.71986 15.0242C3.29123 14.2866 4.112 13.7827 5.02833 13.607C5.94465 13.4313 6.8936 13.5957 7.69732 14.0696L10.1449 11.6221L7.69732 9.17447C6.8936 9.64836 5.94465 9.81286 5.02833 9.63712C4.112 9.46139 3.29123 8.95749 2.71986 8.21989C2.14849 7.48228 1.86575 6.56161 1.92464 5.63045C1.98353 4.69929 2.38001 3.82157 3.03975 3.16182C3.6995 2.50208 4.57722 2.1056 5.50838 2.04671C6.43954 1.98782 7.36021 2.27056 8.09782 2.84193C8.83542 3.4133 9.33932 4.23407 9.51505 5.15039C9.69079 6.06672 9.52629 7.01567 9.0524 7.81939ZM14.2082 12.9752L20.6578 19.4248C20.2984 19.7841 19.811 19.986 19.3027 19.986C18.7945 19.986 18.3071 19.7841 17.9477 19.4248L12.8522 14.3303L14.2082 12.9743V12.9752ZM7.10507 16.017C6.92826 15.8339 6.71677 15.6879 6.48293 15.5874C6.24909 15.487 5.99758 15.4341 5.74309 15.4319C5.48859 15.4297 5.23621 15.4782 5.00066 15.5746C4.76511 15.6709 4.55111 15.8133 4.37115 15.9932C4.19118 16.1732 4.04887 16.3872 3.95249 16.6227C3.85612 16.8583 3.80763 17.1107 3.80984 17.3652C3.81205 17.6196 3.86492 17.8712 3.96537 18.105C4.06583 18.3388 4.21184 18.5503 4.3949 18.7271C4.75639 19.0763 5.24054 19.2695 5.74309 19.2651C6.24563 19.2607 6.72636 19.0592 7.08172 18.7038C7.43709 18.3484 7.63866 17.8677 7.64303 17.3652C7.64739 16.8626 7.45421 16.3785 7.10507 16.017ZM7.10507 7.22714C7.28813 7.05033 7.43415 6.83884 7.5346 6.605C7.63505 6.37116 7.68792 6.11965 7.69013 5.86516C7.69234 5.61066 7.64385 5.35828 7.54748 5.12273C7.45111 4.88718 7.30879 4.67318 7.12883 4.49322C6.94886 4.31325 6.73487 4.17094 6.49931 4.07456C6.26376 3.97819 6.01138 3.9297 5.75688 3.93191C5.50239 3.93412 5.25088 3.98699 5.01704 4.08744C4.7832 4.1879 4.57171 4.33391 4.3949 4.51697C4.04577 4.87846 3.85258 5.36261 3.85694 5.86516C3.86131 6.3677 4.06288 6.84842 4.41825 7.20379C4.77362 7.55916 5.25434 7.76073 5.75688 7.7651C6.25943 7.76946 6.74358 7.57627 7.10507 7.22714Z" fill="#5C5C5C"/>
</svg>
