<svg width="23" height="23" viewBox="0 0 23 23" fill="none" xmlns="http://www.w3.org/2000/svg">
<path d="M5.10815 3.13479C5.74739 2.90669 6.44079 2.87789 7.09675 3.05218C7.75271 3.22648 8.34036 3.59568 8.78206 4.111C9.22377 4.62632 9.49874 5.26352 9.57067 5.93842C9.64259 6.61332 9.50808 7.29416 9.1849 7.891L19.4477 18.1547L18.0926 19.5098L7.82886 9.24608C7.23188 9.56799 6.55139 9.70147 5.87705 9.62894C5.20271 9.5564 4.56616 9.28126 4.05131 8.83976C3.53645 8.39826 3.16744 7.81113 2.99291 7.15574C2.81838 6.50035 2.84651 5.80745 3.0736 5.16837L5.2174 7.31216C5.35 7.44946 5.50862 7.55897 5.684 7.63431C5.85938 7.70965 6.04801 7.7493 6.23888 7.75096C6.42975 7.75262 6.61904 7.71625 6.79571 7.64397C6.97237 7.57169 7.13287 7.46495 7.26784 7.32998C7.40281 7.19501 7.50955 7.03451 7.58183 6.85785C7.65411 6.68118 7.69048 6.49189 7.68882 6.30102C7.68716 6.11015 7.64751 5.92153 7.57217 5.74614C7.49683 5.57076 7.38732 5.41214 7.25002 5.27954L5.10719 3.13383L5.10815 3.13479ZM15.0432 4.94029L18.0926 3.24596L19.4477 4.60104L17.7534 7.65046L16.059 7.98971L14.0274 10.0223L12.6713 8.66725L14.7039 6.63462L15.0432 4.94029ZM8.60511 12.7335L9.96019 14.0885L4.87815 19.1706C4.70536 19.3439 4.47283 19.4445 4.22823 19.4518C3.98364 19.4591 3.74551 19.3726 3.56266 19.21C3.37981 19.0473 3.2661 18.8209 3.24484 18.5772C3.22358 18.3334 3.29638 18.0907 3.44831 17.8989L3.52306 17.8155L8.60511 12.7335Z" fill="#5C5C5C"/>
</svg>
