<svg width="100" height="100" viewBox="0 0 100 100" fill="none" xmlns="http://www.w3.org/2000/svg">
<path d="M54.1665 25V16.6667H20.8332V8.33337H62.4998V25H66.6665C67.7716 25 68.8314 25.439 69.6128 26.2204C70.3942 27.0018 70.8332 28.0616 70.8332 29.1667V38.3334L92.554 23.125C92.8663 22.9061 93.2328 22.7771 93.6134 22.7521C93.994 22.7271 94.3741 22.8071 94.7124 22.9833C95.0507 23.1596 95.3341 23.4253 95.5317 23.7515C95.7293 24.0777 95.8336 24.452 95.8332 24.8334V75.1667C95.8336 75.5481 95.7293 75.9223 95.5317 76.2486C95.3341 76.5748 95.0507 76.8405 94.7124 77.0167C94.3741 77.1929 93.994 77.2729 93.6134 77.2479C93.2328 77.223 92.8663 77.094 92.554 76.875L70.8332 61.6667V79.1667C70.8332 80.2718 70.3942 81.3316 69.6128 82.113C68.8314 82.8944 67.7716 83.3334 66.6665 83.3334H8.33317C7.2281 83.3334 6.16829 82.8944 5.38689 82.113C4.60549 81.3316 4.1665 80.2718 4.1665 79.1667V29.1667C4.1665 28.0616 4.60549 27.0018 5.38689 26.2204C6.16829 25.439 7.2281 25 8.33317 25H54.1665ZM62.4998 33.3334H12.4998V75H62.4998V33.3334ZM70.8332 51.4959L87.4998 63.1625V36.8334L70.8332 48.5V51.4917V51.4959ZM20.8332 41.6667H29.1665V50H20.8332V41.6667Z" fill="#09121F"/>
</svg>
