<svg width="167" height="45" viewBox="0 0 167 45" fill="none" xmlns="http://www.w3.org/2000/svg">
<rect width="167" height="45" rx="22.5" fill="white"/>
<path d="M20.3435 13.664C20.3435 13.2973 20.6409 13 21.0076 13H24.9924C25.3591 13 25.6565 13.2973 25.6565 13.664V18.692L30.0114 16.178C30.329 15.9947 30.7352 16.1035 30.9186 16.4211L32.9109 19.8716C33.0943 20.1892 32.9855 20.5953 32.6678 20.7787L28.3129 23.2927L32.6678 25.8067C32.9855 25.9901 33.0943 26.3962 32.9109 26.7138L30.9185 30.1643C30.7352 30.4819 30.329 30.5907 30.0113 30.4073L25.6565 27.8933V32.9213C25.6565 33.2881 25.3591 33.5854 24.9924 33.5854H21.0076C20.6409 33.5854 20.3435 33.2881 20.3435 32.9213V27.8933L15.9887 30.4073C15.671 30.5907 15.2648 30.4819 15.0815 30.1643L13.0891 26.7138C12.9057 26.3962 13.0145 25.9901 13.3322 25.8067L17.687 23.2927L13.3322 20.7787C13.0145 20.5953 12.9057 20.1892 13.0891 19.8716L15.0814 16.4211C15.2648 16.1035 15.671 15.9947 15.9886 16.1781L20.3435 18.6921V13.664Z" fill="#7BA0FF"/>
</svg>
