<svg width="100" height="100" viewBox="0 0 100 100" fill="none" xmlns="http://www.w3.org/2000/svg">
<path d="M20.8333 33.3334V83.3334H37.5V33.3334H20.8333ZM12.5 29.1667L29.1667 8.33337L45.8333 29.1667V91.6667H12.5V29.1667ZM79.1667 66.6667V58.3334H66.6667V50H79.1667V41.6667H70.8333V33.3334H79.1667V25H62.5V83.3334H79.1667V75H70.8333V66.6667H79.1667ZM58.3333 16.6667H83.3333C84.4384 16.6667 85.4982 17.1057 86.2796 17.8871C87.061 18.6685 87.5 19.7283 87.5 20.8334V87.5C87.5 88.6051 87.061 89.6649 86.2796 90.4463C85.4982 91.2277 84.4384 91.6667 83.3333 91.6667H58.3333C57.2283 91.6667 56.1685 91.2277 55.3871 90.4463C54.6057 89.6649 54.1667 88.6051 54.1667 87.5V20.8334C54.1667 19.7283 54.6057 18.6685 55.3871 17.8871C56.1685 17.1057 57.2283 16.6667 58.3333 16.6667V16.6667Z" fill="#09121F"/>
</svg>
