<svg width="100" height="100" viewBox="0 0 100 100" fill="none" xmlns="http://www.w3.org/2000/svg">
<path d="M87.5 75H25C23.8949 75 22.8351 75.439 22.0537 76.2204C21.2723 77.0018 20.8333 78.0616 20.8333 79.1667C20.8333 80.2718 21.2723 81.3316 22.0537 82.113C22.8351 82.8944 23.8949 83.3334 25 83.3334H87.5V91.6667H25C21.6848 91.6667 18.5054 90.3498 16.1612 88.0055C13.817 85.6613 12.5 82.4819 12.5 79.1667V16.6667C12.5 14.4566 13.378 12.337 14.9408 10.7742C16.5036 9.21135 18.6232 8.33337 20.8333 8.33337H87.5V75ZM20.8333 66.875C21.5083 66.7375 22.2042 66.6667 22.9167 66.6667H79.1667V16.6667H20.8333V66.875ZM66.6667 37.5H33.3333V29.1667H66.6667V37.5Z" fill="#09121F"/>
</svg>
