<svg width="238" height="92" viewBox="0 0 238 92" fill="none" xmlns="http://www.w3.org/2000/svg">
<path d="M35.3672 52.8164H15.1172V66.5273H38.8828V75H4.57031V23.8125H38.8125V32.3555H15.1172V44.5547H35.3672V52.8164ZM58.8516 23.8125L72 60.9375L85.0781 23.8125H98.9297V75H88.3477V61.0078L89.4023 36.8555L75.5859 75H68.3438L54.5625 36.8906L55.6172 61.0078V75H45.0703V23.8125H58.8516ZM121.922 23.8125L135.07 60.9375L148.148 23.8125H162V75H151.418V61.0078L152.473 36.8555L138.656 75H131.414L117.633 36.8906L118.688 61.0078V75H108.141V23.8125H121.922ZM200.742 64.4531H182.25L178.734 75H167.52L186.574 23.8125H196.348L215.508 75H204.293L200.742 64.4531ZM185.098 55.9102H197.895L191.461 36.75L185.098 55.9102Z" fill="black"/>
<path fill-rule="evenodd" clip-rule="evenodd" d="M218.058 1C218.058 0.447716 218.505 0 219.058 0H225.058C225.61 0 226.058 0.447715 226.058 1V8.57179L232.615 4.78589C233.093 4.50975 233.705 4.67362 233.981 5.15191L236.981 10.3481C237.257 10.8264 237.093 11.4379 236.615 11.7141L230.058 15.5L236.615 19.2859C237.093 19.562 237.257 20.1736 236.981 20.6519L233.981 25.8481C233.705 26.3264 233.093 26.4903 232.615 26.2141L226.058 22.4282V30C226.058 30.5523 225.61 31 225.058 31H219.058C218.505 31 218.058 30.5523 218.058 30V22.4282L211.5 26.2141C211.022 26.4902 210.41 26.3264 210.134 25.8481L207.134 20.6519C206.858 20.1736 207.022 19.562 207.5 19.2859L214.058 15.5L207.5 11.7141C207.022 11.438 206.858 10.8264 207.134 10.3481L210.134 5.15193C210.41 4.67364 211.022 4.50977 211.5 4.78591L218.058 8.57181V1Z" fill="#7BA0FF"/>
<path d="M14.0781 12.1875L15.8281 3.625H17.7891L15.1641 15H13.2734L11.1094 6.69531L8.89844 15H7L4.375 3.625H6.33594L8.10156 12.1719L10.2734 3.625H11.9297L14.0781 12.1875ZM28.2656 15H26.2969V9.94531H21.2109V15H19.2344V3.625H21.2109V8.35938H26.2969V3.625H28.2656V15ZM39.6875 9.60938C39.6875 10.724 39.4948 11.7031 39.1094 12.5469C38.724 13.3854 38.1719 14.0312 37.4531 14.4844C36.7396 14.9323 35.9167 15.1562 34.9844 15.1562C34.0625 15.1562 33.2396 14.9323 32.5156 14.4844C31.7969 14.0312 31.2396 13.388 30.8438 12.5547C30.4531 11.7214 30.2552 10.7604 30.25 9.67188V9.03125C30.25 7.92188 30.4453 6.94271 30.8359 6.09375C31.2318 5.24479 31.7865 4.59635 32.5 4.14844C33.2188 3.69531 34.0417 3.46875 34.9688 3.46875C35.8958 3.46875 36.7161 3.69271 37.4297 4.14062C38.1484 4.58333 38.7031 5.22396 39.0938 6.0625C39.4844 6.89583 39.6823 7.86719 39.6875 8.97656V9.60938ZM37.7109 9.01562C37.7109 7.75521 37.4714 6.78906 36.9922 6.11719C36.5182 5.44531 35.8438 5.10938 34.9688 5.10938C34.1146 5.10938 33.4453 5.44531 32.9609 6.11719C32.4818 6.78385 32.237 7.72917 32.2266 8.95312V9.60938C32.2266 10.8594 32.4688 11.8255 32.9531 12.5078C33.4427 13.1901 34.1198 13.5312 34.9844 13.5312C35.8594 13.5312 36.5312 13.1979 37 12.5312C37.474 11.8646 37.7109 10.8906 37.7109 9.60938V9.01562ZM80.3906 11.6562C80.3906 10.9635 80.4766 10.4115 80.6484 10C80.8203 9.58854 81.1589 9.13802 81.6641 8.64844C82.1745 8.15365 82.4974 7.80208 82.6328 7.59375C82.8411 7.27604 82.9453 6.93229 82.9453 6.5625C82.9453 6.07292 82.8229 5.70052 82.5781 5.44531C82.3385 5.1849 81.9844 5.05469 81.5156 5.05469C81.0677 5.05469 80.7057 5.18229 80.4297 5.4375C80.1589 5.6875 80.0234 6.02865 80.0234 6.46094H78.125C78.1354 5.53906 78.4479 4.8099 79.0625 4.27344C79.6823 3.73698 80.5 3.46875 81.5156 3.46875C82.5625 3.46875 83.3776 3.73438 83.9609 4.26562C84.5495 4.79688 84.8438 5.53906 84.8438 6.49219C84.8438 7.34115 84.4479 8.17708 83.6562 9L82.6953 9.94531C82.3516 10.3359 82.1745 10.9062 82.1641 11.6562H80.3906ZM80.2578 14.0859C80.2578 13.7786 80.3542 13.5312 80.5469 13.3438C80.7396 13.151 81 13.0547 81.3281 13.0547C81.6615 13.0547 81.9245 13.1536 82.1172 13.3516C82.3099 13.5443 82.4062 13.7891 82.4062 14.0859C82.4062 14.3724 82.3125 14.612 82.125 14.8047C81.9375 14.9974 81.6719 15.0938 81.3281 15.0938C80.9844 15.0938 80.7188 14.9974 80.5312 14.8047C80.349 14.612 80.2578 14.3724 80.2578 14.0859Z" fill="#262626"/>
<path d="M52.0078 12.3516H47.6016L46.6797 15H44.625L48.9219 3.625H50.6953L55 15H52.9375L52.0078 12.3516ZM48.1562 10.7578H51.4531L49.8047 6.03906L48.1562 10.7578ZM58.8594 3.625L62.1406 12.3438L65.4141 3.625H67.9688V15H66V11.25L66.1953 6.23438L62.8359 15H61.4219L58.0703 6.24219L58.2656 11.25V15H56.2969V3.625H58.8594ZM76.3828 15H74.4141V3.625H76.3828V15Z" fill="#7BA0FF"/>
</svg>
