<svg width="32" height="33" viewBox="0 0 32 33" fill="none" xmlns="http://www.w3.org/2000/svg">
<path d="M11.7496 1.06452C11.7496 0.476601 12.2254 0 12.8122 0H19.1878C19.7746 0 20.2504 0.4766 20.2504 1.06452V9.12481L27.2182 5.09466C27.7264 4.8007 28.3763 4.97515 28.6697 5.4843L31.8575 11.0157C32.1509 11.5248 31.9768 12.1759 31.4685 12.4698L24.5007 16.5L31.4685 20.5302C31.9767 20.8241 32.1509 21.4752 31.8574 21.9843L28.6697 27.5157C28.3762 28.0249 27.7264 28.1993 27.2181 27.9053L20.2504 23.8752V31.9355C20.2504 32.5234 19.7746 33 19.1878 33H12.8122C12.2254 33 11.7496 32.5234 11.7496 31.9355V23.8752L4.78185 27.9053C4.27362 28.1993 3.62375 28.0248 3.33032 27.5157L0.142554 21.9843C-0.150873 21.4751 0.0232594 20.8241 0.531489 20.5301L7.49926 16.5L0.531473 12.4699C0.0232441 12.1759 -0.150889 11.5249 0.142537 11.0157L3.33031 5.48432C3.62373 4.97517 4.2736 4.80072 4.78183 5.09468L11.7496 9.12483V1.06452Z" fill="#C8D7FF"/>
</svg>
