<svg width="86" height="89" viewBox="0 0 86 89" fill="none" xmlns="http://www.w3.org/2000/svg">
<path d="M31.5772 2.87097C31.5772 1.28538 32.8557 0 34.4329 0H51.5671C53.1443 0 54.4228 1.28538 54.4228 2.87097V24.6093L73.1488 13.7401C74.5147 12.9473 76.2612 13.4178 77.0498 14.791L85.6169 29.709C86.4055 31.0821 85.9375 32.838 84.5717 33.6308L65.8456 44.5L84.5716 55.3692C85.9375 56.162 86.4055 57.9179 85.6169 59.291L77.0498 74.209C76.2612 75.5822 74.5146 76.0527 73.1488 75.2599L54.4228 64.3907V86.129C54.4228 87.7146 53.1443 89 51.5671 89H34.4329C32.8557 89 31.5772 87.7146 31.5772 86.129V64.3906L12.8512 75.2598C11.4854 76.0526 9.73883 75.5821 8.95025 74.209L0.383113 59.291C-0.40547 57.9178 0.0625098 56.162 1.42838 55.3692L20.1543 44.5L1.42833 33.6308C0.0624685 32.838 -0.405514 31.0822 0.383069 29.709L8.9502 14.791C9.73879 13.4179 11.4853 12.9474 12.8512 13.7402L31.5772 24.6094V2.87097Z" fill="#C8D7FF"/>
</svg>
