<svg width="44" height="44" viewBox="0 0 44 44" fill="none" xmlns="http://www.w3.org/2000/svg">
<g filter="url(#filter0_d_272_509)">
<circle cx="22" cy="18" r="18" fill="#C8D7FF"/>
<path d="M12.002 18.002C12.0032 22.9214 15.5804 27.1101 20.439 27.881V20.892H17.902V18.002H20.442V15.802C20.3285 14.7596 20.6845 13.7206 21.4136 12.967C22.1428 12.2133 23.1694 11.8231 24.215 11.902C24.9655 11.9142 25.7142 11.981 26.455 12.102V14.561H25.191C24.7558 14.504 24.3184 14.6478 24.0018 14.9517C23.6852 15.2557 23.5238 15.6869 23.563 16.124V18.002H26.334L25.891 20.893H23.563V27.881C28.8175 27.0506 32.5021 22.2518 31.9475 16.9611C31.3929 11.6704 26.7933 7.73997 21.4808 8.01722C16.1684 8.29447 12.0028 12.6824 12.002 18.002Z" fill="#2E3A59"/>
</g>
<defs>
<filter id="filter0_d_272_509" x="0" y="0" width="44" height="44" filterUnits="userSpaceOnUse" color-interpolation-filters="sRGB">
<feFlood flood-opacity="0" result="BackgroundImageFix"/>
<feColorMatrix in="SourceAlpha" type="matrix" values="0 0 0 0 0 0 0 0 0 0 0 0 0 0 0 0 0 0 127 0" result="hardAlpha"/>
<feOffset dy="4"/>
<feGaussianBlur stdDeviation="2"/>
<feComposite in2="hardAlpha" operator="out"/>
<feColorMatrix type="matrix" values="0 0 0 0 0 0 0 0 0 0 0 0 0 0 0 0 0 0 0.25 0"/>
<feBlend mode="normal" in2="BackgroundImageFix" result="effect1_dropShadow_272_509"/>
<feBlend mode="normal" in="SourceGraphic" in2="effect1_dropShadow_272_509" result="shape"/>
</filter>
</defs>
</svg>
