<svg width="107" height="107" viewBox="0 0 107 107" fill="none" xmlns="http://www.w3.org/2000/svg">
<path d="M22.2917 49.4875L31.2083 40.5708L55.7292 65.0917L71.3333 49.4875L84.7083 62.8625V22.2917H22.2917V49.4875ZM22.2917 62.1001V84.7083H36.1125L49.4251 71.4002L31.2083 53.1835L22.2917 62.1001ZM48.7251 84.7083H84.7083V75.4751L71.3333 62.1001L48.7251 84.7083ZM17.8333 13.375H89.1667C90.3491 13.375 91.4831 13.8447 92.3192 14.6808C93.1553 15.5169 93.625 16.6509 93.625 17.8333V89.1667C93.625 90.3491 93.1553 91.4831 92.3192 92.3192C91.4831 93.1553 90.3491 93.625 89.1667 93.625H17.8333C16.6509 93.625 15.5169 93.1553 14.6808 92.3192C13.8447 91.4831 13.375 90.3491 13.375 89.1667V17.8333C13.375 16.6509 13.8447 15.5169 14.6808 14.6808C15.5169 13.8447 16.6509 13.375 17.8333 13.375ZM69.1042 44.5833C67.3305 44.5833 65.6295 43.8788 64.3754 42.6246C63.1212 41.3705 62.4167 39.6695 62.4167 37.8958C62.4167 36.1222 63.1212 34.4212 64.3754 33.1671C65.6295 31.9129 67.3305 31.2083 69.1042 31.2083C70.8778 31.2083 72.5788 31.9129 73.8329 33.1671C75.0871 34.4212 75.7917 36.1222 75.7917 37.8958C75.7917 39.6695 75.0871 41.3705 73.8329 42.6246C72.5788 43.8788 70.8778 44.5833 69.1042 44.5833Z" fill="#C8D7FF"/>
</svg>
