<svg width="100" height="100" viewBox="0 0 100 100" fill="none" xmlns="http://www.w3.org/2000/svg">
<path d="M50.0002 8.33327C56.1762 8.32699 62.276 9.69649 67.8566 12.3423C73.4372 14.9881 78.3584 18.8437 82.2627 23.6291L55.8918 49.9999L82.2627 76.3708C78.3584 81.1562 73.4372 85.0118 67.8566 87.6576C62.276 90.3034 56.1762 91.6729 50.0002 91.6666C26.9877 91.6666 8.3335 73.0124 8.3335 49.9999C8.3335 26.9874 26.9877 8.33327 50.0002 8.33327ZM50.0002 16.6666C44.7415 16.6675 39.5577 17.9126 34.8723 20.3001C30.1869 22.6876 26.1328 26.1498 23.0413 30.4037C19.9498 34.6576 17.9087 39.5827 17.0846 44.7763C16.2605 49.97 16.6769 55.285 18.2998 60.2869C19.9226 65.2889 22.7059 69.8359 26.4222 73.5565C30.1384 77.2771 34.6822 80.0656 39.6823 81.6943C44.6824 83.3229 49.9968 83.7455 55.1915 82.9275C60.3861 82.1094 65.3135 80.074 69.571 76.9874L70.4377 76.3333L44.1043 49.9999L70.4377 23.6624L69.571 23.0124C64.2326 19.1317 57.8582 16.931 51.2627 16.6916L50.0002 16.6666ZM50.0002 20.8333C51.6578 20.8333 53.2475 21.4918 54.4196 22.6639C55.5917 23.836 56.2502 25.4257 56.2502 27.0833C56.2502 28.7409 55.5917 30.3306 54.4196 31.5027C53.2475 32.6748 51.6578 33.3333 50.0002 33.3333C48.3426 33.3333 46.7528 32.6748 45.5807 31.5027C44.4086 30.3306 43.7502 28.7409 43.7502 27.0833C43.7502 25.4257 44.4086 23.836 45.5807 22.6639C46.7528 21.4918 48.3426 20.8333 50.0002 20.8333Z" fill="#09121F"/>
</svg>
