<svg width="36" height="36" viewBox="0 0 36 36" fill="none" xmlns="http://www.w3.org/2000/svg">
<circle cx="18" cy="18" r="18" fill="#C8D7FF"/>
<path d="M17.956 16.3562V19.8072H22.748C22.302 22.0002 20.435 23.2602 17.956 23.2602C15.0685 23.2205 12.7487 20.8685 12.7487 17.9807C12.7487 15.093 15.0685 12.741 17.956 12.7012C19.1562 12.6998 20.3195 13.1163 21.246 13.8792L23.846 11.2792C20.8636 8.65729 16.508 8.32006 13.1575 10.4517C9.8071 12.5833 8.26702 16.6714 9.37824 20.4838C10.4895 24.2962 13.9849 26.9167 17.956 26.9142C22.423 26.9142 26.485 23.6652 26.485 17.9802C26.4781 17.4329 26.411 16.8879 26.285 16.3552L17.956 16.3562Z" fill="#2E3A59"/>
</svg>
