<svg width="36" height="36" viewBox="0 0 36 36" fill="none" xmlns="http://www.w3.org/2000/svg">
<circle cx="18" cy="18" r="18" fill="#C8D7FF"/>
<path d="M11.0874 27V23.811C8.53679 22.2964 7.021 19.8937 7 17.332C7 12.738 11.938 9 17.9994 9C24.0608 9 28.9988 12.738 29 17.332C29.0012 21.926 24.062 25.662 18.0006 25.662C16.9328 25.6632 15.8699 25.5457 14.8415 25.313L11.0899 27H11.0874Z" fill="#2E3A59"/>
<path d="M27.8754 18C27.8754 21.3137 23.7301 24 18.6166 24C13.5032 24 9.35789 21.3137 9.35789 18C9.35789 14.6863 13.5032 12 18.6166 12C23.7301 12 27.8754 14.6863 27.8754 18Z" fill="#2E3A59"/>
<path d="M14.5918 16.4463H13.2852V20H12.4062V16.4463H11.1172V15.7344H14.5918V16.4463ZM16.7923 19.1211H15.2513L14.9584 20H14.0238L15.6117 15.7344H16.4261L18.0228 20H17.0882L16.7923 19.1211ZM15.4886 18.4092H16.555L16.0189 16.8125L15.4886 18.4092ZM18.9402 19.2939H20.8064V20H18.0612V15.7344H18.9402V19.2939ZM22.2891 18.2891L21.8321 18.7812V20H20.9532V15.7344H21.8321V17.668L22.2188 17.1377L23.3057 15.7344H24.3868L22.8721 17.6299L24.4307 20H23.3848L22.2891 18.2891Z" fill="#C8D7FF"/>
</svg>
