<svg width="100" height="100" viewBox="0 0 100 100" fill="none" xmlns="http://www.w3.org/2000/svg">
<path d="M54.1666 8.33325V13.6583L74.9999 20.6083L90.1332 15.5666L92.7707 23.4666L80.1374 27.6791L93.0374 63.1457C88.4874 67.8832 82.0832 70.8332 74.9999 70.8332C67.9124 70.8332 61.5124 67.8832 56.9624 63.1457L69.8541 27.6791L54.1666 22.4458V79.1666H70.8332V87.4999H29.1666V79.1666H45.8332V22.4458L30.1332 27.6791L43.0332 63.1457C38.4874 67.8832 32.0832 70.8332 24.9999 70.8332C17.9124 70.8332 11.5124 67.8832 6.9624 63.1457L19.8541 27.6791L7.22907 23.4708L9.86657 15.5624L24.9999 20.6041L45.8332 13.6583V8.33325H54.1666ZM74.9999 37.9291L66.8416 60.3708C69.2874 61.7499 72.0791 62.4999 74.9999 62.4999C77.9166 62.4999 80.7082 61.7499 83.1582 60.3749L74.9999 37.9249V37.9291ZM24.9999 37.9291L16.8416 60.3708C19.2874 61.7499 22.0791 62.4999 24.9999 62.4999C27.9166 62.4999 30.7082 61.7499 33.1582 60.3749L24.9999 37.9249V37.9291Z" fill="#09121F"/>
</svg>
