<svg width="100" height="100" viewBox="0 0 100 100" fill="none" xmlns="http://www.w3.org/2000/svg">
<path d="M9.22098 58.5832C8.02269 52.9238 8.02269 47.0761 9.22098 41.4166C13.846 41.9582 17.8877 40.4291 19.2043 37.2457C20.5252 34.0582 18.7543 30.1207 15.096 27.2332C18.2503 22.3846 22.3848 18.2501 27.2335 15.0957C30.1168 18.7499 34.0585 20.5249 37.246 19.2041C40.4335 17.8832 41.9627 13.8457 41.4168 9.22074C47.0763 8.02245 52.924 8.02245 58.5835 9.22074C58.0418 13.8457 59.571 17.8874 62.7543 19.2041C65.9418 20.5249 69.8793 18.7541 72.7668 15.0957C77.6155 18.2501 81.75 22.3846 84.9043 27.2332C81.2502 30.1166 79.4752 34.0582 80.796 37.2457C82.1168 40.4332 86.1543 41.9624 90.7793 41.4166C91.9776 47.0761 91.9776 52.9238 90.7793 58.5832C86.1543 58.0416 82.1127 59.5707 80.796 62.7541C79.4752 65.9416 81.246 69.8791 84.9043 72.7666C81.75 77.6152 77.6155 81.7498 72.7668 84.9041C69.8835 81.2499 65.9418 79.4749 62.7543 80.7958C59.5668 82.1166 58.0377 86.1541 58.5835 90.7791C52.924 91.9774 47.0763 91.9774 41.4168 90.7791C41.9585 86.1541 40.4293 82.1124 37.246 80.7958C34.0585 79.4749 30.121 81.2458 27.2335 84.9041C22.3848 81.7498 18.2503 77.6152 15.096 72.7666C18.7502 69.8832 20.5252 65.9416 19.2043 62.7541C17.8835 59.5666 13.846 58.0374 9.22098 58.5832ZM16.6668 50.8749C21.2502 52.1457 25.0293 55.0499 26.9043 59.5666C28.7752 64.0874 28.1543 68.8166 25.8127 72.9499C26.2127 73.3749 26.6252 73.7874 27.0502 74.1874C31.1877 71.8457 35.9127 71.2291 40.4335 73.0957C44.9502 74.9707 47.8543 78.7499 49.1252 83.3333C49.7085 83.3499 50.2918 83.3499 50.8752 83.3333C52.146 78.7499 55.0502 74.9707 59.5668 73.0957C64.0877 71.2249 68.8168 71.8457 72.9501 74.1874C73.3752 73.7874 73.7877 73.3749 74.1877 72.9499C71.846 68.8124 71.2293 64.0874 73.096 59.5666C74.971 55.0499 78.7502 52.1457 83.3335 50.8749C83.3502 50.2916 83.3502 49.7082 83.3335 49.1249C78.7502 47.8541 74.971 44.9499 73.096 40.4332C71.2252 35.9124 71.846 31.1832 74.1877 27.0499C73.7861 26.6266 73.3735 26.2139 72.9501 25.8124C68.8127 28.1541 64.0877 28.7707 59.5668 26.9041C55.0502 25.0291 52.146 21.2499 50.8752 16.6666C50.2919 16.6511 49.7084 16.6511 49.1252 16.6666C47.8543 21.2499 44.9502 25.0291 40.4335 26.9041C35.9127 28.7749 31.1835 28.1541 27.0502 25.8124C26.6252 26.2124 26.2127 26.6249 25.8127 27.0499C28.1543 31.1874 28.771 35.9124 26.9043 40.4332C25.0293 44.9499 21.2502 47.8541 16.6668 49.1249C16.6502 49.7082 16.6502 50.2916 16.6668 50.8749ZM50.0002 62.4999C46.6849 62.4999 43.5055 61.1829 41.1613 58.8387C38.8171 56.4945 37.5002 53.3151 37.5002 49.9999C37.5002 46.6847 38.8171 43.5053 41.1613 41.1611C43.5055 38.8169 46.6849 37.4999 50.0002 37.4999C53.3154 37.4999 56.4948 38.8169 58.839 41.1611C61.1832 43.5053 62.5002 46.6847 62.5002 49.9999C62.5002 53.3151 61.1832 56.4945 58.839 58.8387C56.4948 61.1829 53.3154 62.4999 50.0002 62.4999ZM50.0002 54.1666C51.1052 54.1666 52.165 53.7276 52.9464 52.9462C53.7278 52.1648 54.1668 51.105 54.1668 49.9999C54.1668 48.8948 53.7278 47.835 52.9464 47.0536C52.165 46.2722 51.1052 45.8332 50.0002 45.8332C48.8951 45.8332 47.8353 46.2722 47.0539 47.0536C46.2725 47.835 45.8335 48.8948 45.8335 49.9999C45.8335 51.105 46.2725 52.1648 47.0539 52.9462C47.8353 53.7276 48.8951 54.1666 50.0002 54.1666Z" fill="#09121F"/>
</svg>
