<svg width="100" height="100" viewBox="0 0 100 100" fill="none" xmlns="http://www.w3.org/2000/svg">
<path d="M41.5544 74.9999H45.8335V54.1666H54.1669V74.9999H58.446C58.996 69.9916 61.5502 65.8582 65.696 61.3457C66.1669 60.8374 69.1627 57.7332 69.5169 57.2916C72.4597 53.615 74.3043 49.182 74.8382 44.5031C75.3721 39.8242 74.5735 35.0896 72.5346 30.8446C70.4956 26.5997 67.2991 23.0169 63.3131 20.509C59.3272 18.001 54.714 16.6699 50.0047 16.6689C45.2954 16.6679 40.6816 17.997 36.6946 20.5033C32.7076 23.0095 29.5096 26.5909 27.4688 30.835C25.428 35.0791 24.6274 39.8134 25.1593 44.4925C25.6912 49.1717 27.5339 53.6054 30.4752 57.2832C30.8335 57.7291 33.8377 60.8374 34.3002 61.3416C38.4502 65.8582 41.0044 69.9916 41.5544 74.9999ZM41.6669 83.3332V87.4999H58.3335V83.3332H41.6669ZM23.9752 62.4999C20.051 57.5969 17.5916 51.6852 16.8805 45.4456C16.1693 39.206 17.2352 32.8924 19.9554 27.2322C22.6756 21.5719 26.9395 16.7952 32.2558 13.4523C37.5722 10.1095 43.7247 8.3364 50.0047 8.3374C56.2847 8.33841 62.4367 10.1134 67.7519 13.458C73.0672 16.8026 77.3295 21.5806 80.0479 27.2418C82.7663 32.9029 83.8302 39.2168 83.1171 45.4562C82.4039 51.6956 79.9426 57.6065 76.0169 62.5082C73.4335 65.7249 66.6669 70.8332 66.6669 77.0832V87.4999C66.6669 89.71 65.7889 91.8296 64.2261 93.3924C62.6633 94.9552 60.5437 95.8332 58.3335 95.8332H41.6669C39.4567 95.8332 37.3371 94.9552 35.7743 93.3924C34.2115 91.8296 33.3335 89.71 33.3335 87.4999V77.0832C33.3335 70.8332 26.5627 65.7249 23.9752 62.4999Z" fill="#09121F"/>
</svg>
