<svg width="100" height="100" viewBox="0 0 100 100" fill="none" xmlns="http://www.w3.org/2000/svg">
<path d="M66.6668 4.16675C68.9668 4.16675 70.8335 6.03341 70.8335 8.33342V20.8334H87.5002C89.8002 20.8334 91.6668 22.7001 91.6668 25.0001V83.3334C91.6668 85.6334 89.8002 87.5001 87.5002 87.5001H12.5002C10.2002 87.5001 8.3335 85.6334 8.3335 83.3334V25.0001C8.3335 22.7001 10.2002 20.8334 12.5002 20.8334H29.1668V8.33342C29.1668 6.03341 31.0335 4.16675 33.3335 4.16675H66.6668ZM83.3335 29.1667H16.6668V79.1668H83.3335V29.1667ZM54.1668 37.5001V50.0001H66.6668V58.3334H54.1627L54.1668 70.8334H45.8335L45.8293 58.3334H33.3335V50.0001H45.8335V37.5001H54.1668ZM62.5002 12.5001H37.5002V20.8334H62.5002V12.5001Z" fill="#09121F"/>
</svg>
