<svg width="22" height="24" viewBox="0 0 22 24" fill="none" xmlns="http://www.w3.org/2000/svg">
<path d="M8.07788 0.752633C8.07788 0.336965 8.40495 0 8.80841 0H13.1916C13.5951 0 13.9221 0.336965 13.9221 0.752632V6.45141L18.7125 3.60201C19.0619 3.39418 19.5087 3.51752 19.7104 3.8775L21.902 7.78829C22.1037 8.14826 21.984 8.60857 21.6346 8.8164L16.8442 11.6658L21.6346 14.5152C21.984 14.723 22.1037 15.1833 21.902 15.5433L19.7104 19.4541C19.5087 19.8141 19.0619 19.9374 18.7125 19.7296L13.9221 16.8802V22.579C13.9221 22.9946 13.5951 23.3316 13.1916 23.3316H8.80841C8.40495 23.3316 8.07788 22.9946 8.07788 22.579V16.8802L3.28752 19.7296C2.93812 19.9374 2.49133 19.8141 2.2896 19.4541L0.0980056 15.5433C-0.103725 15.1833 0.0159909 14.723 0.365398 14.5152L5.15574 11.6658L0.365388 8.81641C0.0159803 8.60858 -0.103736 8.14828 0.0979944 7.7883L2.28959 3.87751C2.49132 3.51753 2.9381 3.39419 3.28751 3.60203L8.07788 6.45142V0.752633Z" fill="#7BA0FF"/>
</svg>
