<svg width="100" height="100" viewBox="0 0 100 100" fill="none" xmlns="http://www.w3.org/2000/svg">
<path d="M54.9833 9.44998L68.525 32.9083C69.675 34.8958 68.9917 37.4458 67 38.5958L61.5833 41.7208L65.7542 48.9375L58.5375 53.1041L54.3708 45.8833L48.9583 49.0125C46.9667 50.1625 44.4167 49.4791 43.2667 47.4875L35.6083 34.2291C27.0583 36.8208 20.8333 44.7708 20.8333 54.1666C20.8333 56.7708 21.3125 59.2666 22.1833 61.5666C25.4167 59.5166 29.2333 58.3333 33.3333 58.3333C40.35 58.3333 46.5583 61.8041 50.3333 67.1208L82.3667 48.625L86.5333 55.8416L53.7083 74.7958C54.0083 76.2041 54.1667 77.6708 54.1667 79.1666C54.1667 80.5958 54.025 81.9875 53.75 83.3333H87.5V91.6666L16.6667 91.6708C14.05 88.1875 12.5 83.8583 12.5 79.1666C12.5 74.9708 13.7417 71.0625 15.875 67.7916C13.7208 63.7291 12.5 59.0916 12.5 54.1666C12.5 41.6875 20.3375 31.0375 31.3625 26.875L29.725 24.0333C27.425 20.0458 28.7875 14.95 32.775 12.65L43.6 6.39998C47.5875 4.09998 52.6833 5.46248 54.9833 9.44998ZM33.3333 66.6666C26.4292 66.6666 20.8333 72.2625 20.8333 79.1666C20.8333 80.625 21.0833 82.0291 21.5417 83.3333H45.125C45.5833 82.0291 45.8333 80.625 45.8333 79.1666C45.8333 72.2625 40.2375 66.6666 33.3333 66.6666ZM47.7667 13.6166L36.9417 19.8666L48.4 39.7125L59.225 33.4625L47.7667 13.6166Z" fill="#09121F"/>
</svg>
