<svg width="100" height="100" viewBox="0 0 100 100" fill="none" xmlns="http://www.w3.org/2000/svg">
<path d="M83.0748 33.3333H87.4998C89.71 33.3333 91.8296 34.2113 93.3924 35.7741C94.9552 37.3369 95.8332 39.4565 95.8332 41.6667V58.3333C95.8332 60.5435 94.9552 62.6631 93.3924 64.2259C91.8296 65.7887 89.71 66.6667 87.4998 66.6667H83.0748C82.059 74.7221 78.1384 82.1299 72.0488 87.5C65.9591 92.87 58.119 95.8332 49.9998 95.8333V87.5C56.6302 87.5 62.9891 84.8661 67.6775 80.1777C72.3659 75.4893 74.9998 69.1304 74.9998 62.5V37.5C74.9998 30.8696 72.3659 24.5107 67.6775 19.8223C62.9891 15.1339 56.6302 12.5 49.9998 12.5C43.3694 12.5 37.0106 15.1339 32.3222 19.8223C27.6338 24.5107 24.9998 30.8696 24.9998 37.5V66.6667H12.4998C10.2897 66.6667 8.17008 65.7887 6.60728 64.2259C5.04448 62.6631 4.1665 60.5435 4.1665 58.3333V41.6667C4.1665 39.4565 5.04448 37.3369 6.60728 35.7741C8.17008 34.2113 10.2897 33.3333 12.4998 33.3333H16.9248C17.9416 25.2787 21.8627 17.872 27.9522 12.5028C34.0418 7.13365 41.8813 4.17114 49.9998 4.17114C58.1184 4.17114 65.9579 7.13365 72.0474 12.5028C78.137 17.872 82.058 25.2787 83.0748 33.3333ZM12.4998 41.6667V58.3333H16.6665V41.6667H12.4998ZM83.3332 41.6667V58.3333H87.4998V41.6667H83.3332ZM32.3332 65.7708L36.7498 58.7042C40.721 61.1918 45.3139 62.5076 49.9998 62.5C54.6858 62.5076 59.2787 61.1918 63.2498 58.7042L67.6665 65.7708C62.3717 69.0881 56.2479 70.8429 49.9998 70.8333C43.7517 70.8429 37.6279 69.0881 32.3332 65.7708Z" fill="#09121F"/>
</svg>
