<svg width="24" height="24" viewBox="0 0 24 24" fill="none" xmlns="http://www.w3.org/2000/svg">
<path fill-rule="evenodd" clip-rule="evenodd" d="M17 5C16.4477 5 16 5.44772 16 6C16 6.55228 16.4477 7 17 7C17.5523 7 18 6.55228 18 6C18 5.44772 17.5523 5 17 5ZM14 6C14 4.34315 15.3431 3 17 3C18.6569 3 20 4.34315 20 6C20 7.65685 18.6569 9 17 9C15.3431 9 14 7.65685 14 6Z" fill="black"/>
<path fill-rule="evenodd" clip-rule="evenodd" d="M15.8682 6.50379C16.1422 6.98331 15.9756 7.59416 15.4961 7.86817L8.49613 11.8682C8.01661 12.1422 7.40575 11.9756 7.13174 11.4961C6.85773 11.0165 7.02433 10.4057 7.50385 10.1317L14.5038 6.13168C14.9834 5.85767 15.5942 6.02427 15.8682 6.50379Z" fill="black"/>
<path fill-rule="evenodd" clip-rule="evenodd" d="M7.18628 12.4188C7.50729 11.9694 8.13184 11.8653 8.58125 12.1863L15.5813 17.1863C16.0307 17.5074 16.1348 18.1319 15.8138 18.5813C15.4927 19.0307 14.8682 19.1348 14.4188 18.8138L7.41878 13.8138C6.96937 13.4928 6.86527 12.8683 7.18628 12.4188Z" fill="black"/>
<path fill-rule="evenodd" clip-rule="evenodd" d="M6 11C5.44772 11 5 11.4477 5 12C5 12.5523 5.44772 13 6 13C6.55228 13 7 12.5523 7 12C7 11.4477 6.55228 11 6 11ZM3 12C3 10.3431 4.34315 9 6 9C7.65685 9 9 10.3431 9 12C9 13.6569 7.65685 15 6 15C4.34315 15 3 13.6569 3 12Z" fill="black"/>
<path fill-rule="evenodd" clip-rule="evenodd" d="M17 17C16.4477 17 16 17.4477 16 18C16 18.5523 16.4477 19 17 19C17.5523 19 18 18.5523 18 18C18 17.4477 17.5523 17 17 17ZM14 18C14 16.3431 15.3431 15 17 15C18.6569 15 20 16.3431 20 18C20 19.6569 18.6569 21 17 21C15.3431 21 14 19.6569 14 18Z" fill="black"/>
</svg>
