<svg width="45" height="45" viewBox="0 0 45 45" fill="none" xmlns="http://www.w3.org/2000/svg">
<rect width="45" height="45" rx="22.5" fill="white"/>
<path d="M23.0025 34.3012C19.9275 34.3012 19.565 34.285 18.365 34.2325C17.4292 34.2017 16.5055 34.0115 15.6338 33.67C14.1254 33.083 12.9327 31.8898 12.3463 30.3812C12.0179 29.5063 11.8408 28.5818 11.8225 27.6475C11.7525 26.45 11.7525 26.0575 11.7525 23.0062C11.7525 19.9225 11.7688 19.5625 11.8225 18.3687C11.8412 17.4356 12.0183 16.5125 12.3463 15.6387C12.932 14.1281 14.1267 12.9339 15.6375 12.3487C16.5108 12.019 17.4342 11.8414 18.3675 11.8237C19.5613 11.7562 19.9538 11.7562 23.0025 11.7562C26.1025 11.7562 26.4588 11.7725 27.64 11.8237C28.5757 11.8416 29.5016 12.0191 30.3775 12.3487C31.8879 12.9346 33.0823 14.1286 33.6688 15.6387C34.0027 16.5252 34.1807 17.4628 34.195 18.41C34.265 19.6075 34.265 19.9987 34.265 23.0487C34.265 26.0987 34.2475 26.4987 34.195 27.6825C34.1764 28.6177 33.9989 29.543 33.67 30.4187C33.0821 31.9284 31.8876 33.122 30.3775 33.7087C29.5028 34.0365 28.5789 34.2136 27.645 34.2325C26.4513 34.3012 26.06 34.3012 23.0025 34.3012ZM22.96 13.735C19.9025 13.735 19.585 13.75 18.3913 13.8037C17.6787 13.8132 16.9731 13.9447 16.305 14.1925C15.3184 14.57 14.5378 15.3475 14.1563 16.3325C13.9065 17.0078 13.775 17.7212 13.7675 18.4412C13.7013 19.6525 13.7013 19.97 13.7013 23.0062C13.7013 26.0062 13.7125 26.37 13.7675 27.5737C13.7787 28.2865 13.9101 28.9922 14.1563 29.6612C14.5383 30.6456 15.3189 31.4225 16.305 31.8C16.9726 32.0494 17.6786 32.181 18.3913 32.1887C19.6013 32.2587 19.92 32.2587 22.96 32.2587C26.0263 32.2587 26.3438 32.2437 27.5275 32.1887C28.2405 32.1801 28.9467 32.0485 29.615 31.8C30.5956 31.4192 31.3712 30.6441 31.7525 29.6637C32.0018 28.9878 32.1332 28.2741 32.1413 27.5537H32.155C32.2087 26.3587 32.2088 26.04 32.2088 22.9862C32.2088 19.9325 32.195 19.6112 32.1413 18.4175C32.13 17.7055 31.9986 17.0006 31.7525 16.3325C31.372 15.3507 30.5963 14.5741 29.615 14.1925C28.9468 13.9434 28.2406 13.8119 27.5275 13.8037C26.3188 13.735 26.0025 13.735 22.96 13.735ZM23.0025 28.78C20.665 28.7815 18.5568 27.3746 17.6611 25.2155C16.7654 23.0564 17.2586 20.5704 18.9108 18.9168C20.5629 17.2632 23.0486 16.7678 25.2085 17.6616C27.3683 18.5555 28.777 20.6625 28.7775 23C28.7741 26.1888 26.1913 28.7738 23.0025 28.78ZM23.0025 19.2475C20.9314 19.2475 19.2525 20.9264 19.2525 22.9975C19.2525 25.0685 20.9314 26.7475 23.0025 26.7475C25.0736 26.7475 26.7525 25.0685 26.7525 22.9975C26.7477 20.9284 25.0716 19.2523 23.0025 19.2475ZM29.0025 18.3562C28.2593 18.3535 27.6586 17.7495 27.66 17.0062C27.6614 16.263 28.2643 15.6612 29.0075 15.6612C29.7507 15.6612 30.3536 16.263 30.355 17.0062C30.3553 17.3648 30.2129 17.7088 29.9591 17.9621C29.7053 18.2154 29.3611 18.3572 29.0025 18.3562Z" fill="black"/>
</svg>
