<svg width="45" height="45" viewBox="0 0 45 45" fill="none" xmlns="http://www.w3.org/2000/svg">
<rect width="45" height="45" rx="22.5" fill="white"/>
<path d="M15 14H31C31.2652 14 31.5196 14.1054 31.7071 14.2929C31.8946 14.4804 32 14.7348 32 15V31C32 31.2652 31.8946 31.5196 31.7071 31.7071C31.5196 31.8946 31.2652 32 31 32H15C14.7348 32 14.4804 31.8946 14.2929 31.7071C14.1054 31.5196 14 31.2652 14 31V15C14 14.7348 14.1054 14.4804 14.2929 14.2929C14.4804 14.1054 14.7348 14 15 14ZM16 16V30H30V16H16ZM18.5 20C18.1022 20 17.7206 19.842 17.4393 19.5607C17.158 19.2794 17 18.8978 17 18.5C17 18.1022 17.158 17.7206 17.4393 17.4393C17.7206 17.158 18.1022 17 18.5 17C18.8978 17 19.2794 17.158 19.5607 17.4393C19.842 17.7206 20 18.1022 20 18.5C20 18.8978 19.842 19.2794 19.5607 19.5607C19.2794 19.842 18.8978 20 18.5 20ZM17.5 21H19.5V28.5H17.5V21ZM23 21.43C23.584 20.865 24.266 20.5 25 20.5C27.071 20.5 28.5 22.179 28.5 24.25V28.5H26.5V24.25C26.5 23.7859 26.3156 23.3408 25.9874 23.0126C25.6592 22.6844 25.2141 22.5 24.75 22.5C24.2859 22.5 23.8408 22.6844 23.5126 23.0126C23.1844 23.3408 23 23.7859 23 24.25V28.5H21V21H23V21.43Z" fill="#09121F"/>
</svg>
