<svg width="23" height="23" viewBox="0 0 23 23" fill="none" xmlns="http://www.w3.org/2000/svg">
<path d="M4.72396 2.74023L6.07904 4.06305C5.36607 4.75728 4.80067 5.5822 4.41534 6.49042C4.03 7.39863 3.83232 8.37223 3.83367 9.35527C3.83367 11.4228 4.69138 13.2938 6.07904 14.6475L4.72492 15.9694C3.83364 15.1018 3.12676 14.0709 2.64489 12.9358C2.16301 11.8008 1.91565 10.5839 1.917 9.35527C1.9154 8.1265 2.16255 6.90954 2.64426 5.77431C3.12597 4.63909 3.83274 3.60798 4.72396 2.74023ZM18.2767 2.74023C19.1679 3.60798 19.8747 4.63909 20.3564 5.77431C20.8381 6.90954 21.0853 8.1265 21.0837 9.35527C21.0853 10.584 20.8381 11.801 20.3564 12.9362C19.8747 14.0714 19.1679 15.1026 18.2767 15.9703L16.9216 14.6475C17.6346 13.9533 18.2 13.1283 18.5853 12.2201C18.9707 11.3119 19.1683 10.3383 19.167 9.35527C19.167 7.28778 18.3093 5.41675 16.9216 4.06305L18.2758 2.74117L18.2767 2.74023ZM7.43413 5.38587L8.79017 6.70963C8.43363 7.05663 8.15086 7.469 7.95811 7.92303C7.76536 8.37705 7.66643 8.86379 7.667 9.35527C7.667 10.389 8.09633 11.3245 8.79017 12.0009L7.43413 13.3247C6.8994 12.804 6.47537 12.1852 6.18641 11.504C5.89745 10.8228 5.74925 10.0926 5.75033 9.35527C5.75033 7.80512 6.39433 6.40184 7.43413 5.38587ZM15.5665 5.38587C16.1013 5.90658 16.5253 6.52532 16.8143 7.20652C17.1032 7.88773 17.2514 8.61797 17.2503 9.35527C17.2514 10.0926 17.1032 10.8228 16.8143 11.504C16.5253 12.1852 16.1013 12.804 15.5665 13.3247L14.2105 12.0009C14.567 11.6539 14.8498 11.2415 15.0426 10.7875C15.2353 10.3335 15.3342 9.84674 15.3337 9.35527C15.3342 8.86379 15.2353 8.37705 15.0426 7.92303C14.8498 7.469 14.567 7.05663 14.2105 6.70963L15.5665 5.38587ZM11.5003 11.2263C10.992 11.2263 10.5045 11.0292 10.145 10.6783C9.7856 10.3274 9.58367 9.8515 9.58367 9.35527C9.58367 8.85904 9.7856 8.38313 10.145 8.03225C10.5045 7.68136 10.992 7.48424 11.5003 7.48424C12.0087 7.48424 12.4962 7.68136 12.8556 8.03225C13.2151 8.38313 13.417 8.85904 13.417 9.35527C13.417 9.8515 13.2151 10.3274 12.8556 10.6783C12.4962 11.0292 12.0087 11.2263 11.5003 11.2263ZM10.542 13.0973H12.4587V20.5815H10.542V13.0973Z" fill="#5C5C5C"/>
</svg>
