<svg width="23" height="22" viewBox="0 0 23 22" fill="none" xmlns="http://www.w3.org/2000/svg">
<g clip-path="url(#clip0_856_3388)">
<path d="M1.91701 5.48267C1.91701 4.97828 2.35305 4.56892 2.86768 4.56892H20.133C20.6582 4.56892 21.0837 4.97554 21.0837 5.48267V18.2753C21.0837 18.7797 20.6476 19.1891 20.133 19.1891H2.86768C2.74226 19.1888 2.61812 19.165 2.50239 19.1189C2.38667 19.0728 2.28163 19.0054 2.1933 18.9205C2.10497 18.8356 2.03509 18.7349 1.98768 18.6242C1.94027 18.5134 1.91625 18.3949 1.91701 18.2753V5.48267ZM3.83368 6.39643V17.3615H19.167V6.39643H3.83368ZM13.417 14.6203C14.1795 14.6203 14.9108 14.3315 15.4499 13.8174C15.9891 13.3033 16.292 12.606 16.292 11.879C16.292 11.152 15.9891 10.4547 15.4499 9.94061C14.9108 9.42653 14.1795 9.13771 13.417 9.13771C12.6545 9.13771 11.9232 9.42653 11.3841 9.94061C10.8449 10.4547 10.542 11.152 10.542 11.879C10.542 12.606 10.8449 13.3033 11.3841 13.8174C11.9232 14.3315 12.6545 14.6203 13.417 14.6203ZM13.417 16.4478C12.1462 16.4478 10.9274 15.9664 10.0288 15.1096C9.13018 14.2528 8.62534 13.0907 8.62534 11.879C8.62534 10.6673 9.13018 9.50518 10.0288 8.64836C10.9274 7.79155 12.1462 7.31019 13.417 7.31019C14.6878 7.31019 15.9066 7.79155 16.8052 8.64836C17.7038 9.50518 18.2087 10.6673 18.2087 11.879C18.2087 13.0907 17.7038 14.2528 16.8052 15.1096C15.9066 15.9664 14.6878 16.4478 13.417 16.4478ZM3.83368 1.82764H9.58368V3.65516H3.83368V1.82764Z" fill="#5C5C5C"/>
</g>
<defs>
<clipPath id="clip0_856_3388">
<rect width="23" height="21.9302" fill="white"/>
</clipPath>
</defs>
</svg>
