<svg width="23" height="23" viewBox="0 0 23 23" fill="none" xmlns="http://www.w3.org/2000/svg">
<path d="M11.5003 21.0834C6.20745 21.0834 1.91699 16.793 1.91699 11.5001C1.91699 6.20721 6.20745 1.91675 11.5003 1.91675C16.7932 1.91675 21.0837 6.20721 21.0837 11.5001C21.0837 16.793 16.7932 21.0834 11.5003 21.0834ZM11.5003 19.1667C13.5337 19.1667 15.4837 18.359 16.9215 16.9212C18.3593 15.4835 19.167 13.5334 19.167 11.5001C19.167 9.46676 18.3593 7.51671 16.9215 6.07893C15.4837 4.64115 13.5337 3.83341 11.5003 3.83341C9.467 3.83341 7.51695 4.64115 6.07917 6.07893C4.64139 7.51671 3.83366 9.46676 3.83366 11.5001C3.83366 13.5334 4.64139 15.4835 6.07917 16.9212C7.51695 18.359 9.467 19.1667 11.5003 19.1667ZM12.4587 10.5417H15.3337L10.542 17.2501V12.4584H7.66699L12.4587 5.75008V10.5417Z" fill="#5C5C5C"/>
</svg>
