<svg width="23" height="22" viewBox="0 0 23 22" fill="none" xmlns="http://www.w3.org/2000/svg">
<g clip-path="url(#clip0_856_3396)">
<path d="M7.4143 11.879H15.5851L11.4997 6.0364L7.4143 11.879ZM11.8983 3.31157L18.6699 12.9965C18.7179 13.0653 18.7455 13.1452 18.7496 13.2278C18.7538 13.3103 18.7344 13.3924 18.6934 13.4653C18.6525 13.5381 18.5917 13.599 18.5173 13.6415C18.443 13.684 18.3579 13.7065 18.2713 13.7065H4.72809C4.64142 13.7065 4.55638 13.684 4.48203 13.6415C4.40769 13.599 4.34682 13.5381 4.30591 13.4653C4.265 13.3924 4.24558 13.3103 4.24972 13.2278C4.25386 13.1452 4.28141 13.0653 4.32942 12.9965L11.101 3.31157C11.1448 3.249 11.2041 3.19769 11.2736 3.1622C11.3431 3.12672 11.4208 3.10815 11.4997 3.10815C11.5786 3.10815 11.6562 3.12672 11.7258 3.1622C11.7953 3.19769 11.8546 3.249 11.8983 3.31157ZM4.79134 15.534H18.208C18.4622 15.534 18.7059 15.6303 18.8857 15.8016C19.0654 15.973 19.1663 16.2054 19.1663 16.4478C19.1663 16.6901 19.0654 16.9225 18.8857 17.0939C18.7059 17.2653 18.4622 17.3615 18.208 17.3615H4.79134C4.53718 17.3615 4.29342 17.2653 4.1137 17.0939C3.93397 16.9225 3.83301 16.6901 3.83301 16.4478C3.83301 16.2054 3.93397 15.973 4.1137 15.8016C4.29342 15.6303 4.53718 15.534 4.79134 15.534Z" fill="#5C5C5C"/>
</g>
<defs>
<clipPath id="clip0_856_3396">
<rect width="23" height="21.9302" fill="white"/>
</clipPath>
</defs>
</svg>
