<svg width="23" height="23" viewBox="0 0 23 23" fill="none" xmlns="http://www.w3.org/2000/svg">
<path d="M5.91324 16.8392C6.11124 16.2914 6.47841 15.8171 6.96415 15.4816C7.44989 15.1461 8.03028 14.9659 8.62533 14.9659C9.22037 14.9659 9.80076 15.1461 10.2865 15.4816C10.7722 15.8171 11.1394 16.2914 11.3374 16.8392H21.0837V18.7102H11.3374C11.1394 19.258 10.7722 19.7323 10.2865 20.0679C9.80076 20.4034 9.22037 20.5836 8.62533 20.5836C8.03028 20.5836 7.44989 20.4034 6.96415 20.0679C6.47841 19.7323 6.11124 19.258 5.91324 18.7102H1.91699V16.8392H5.91324ZM11.6632 10.2906C11.8612 9.74281 12.2284 9.26847 12.7142 8.93296C13.1999 8.59744 13.7803 8.41726 14.3753 8.41726C14.9704 8.41726 15.5508 8.59744 16.0365 8.93296C16.5222 9.26847 16.8894 9.74281 17.0874 10.2906H21.0837V12.1616H17.0874C16.8894 12.7094 16.5222 13.1837 16.0365 13.5193C15.5508 13.8548 14.9704 14.0349 14.3753 14.0349C13.7803 14.0349 13.1999 13.8548 12.7142 13.5193C12.2284 13.1837 11.8612 12.7094 11.6632 12.1616H1.91699V10.2906H11.6632ZM5.91324 3.74198C6.11124 3.1942 6.47841 2.71986 6.96415 2.38435C7.44989 2.04883 8.03028 1.86865 8.62533 1.86865C9.22037 1.86865 9.80076 2.04883 10.2865 2.38435C10.7722 2.71986 11.1394 3.1942 11.3374 3.74198H21.0837V5.61301H11.3374C11.1394 6.16078 10.7722 6.63512 10.2865 6.97064C9.80076 7.30616 9.22037 7.48633 8.62533 7.48633C8.03028 7.48633 7.44989 7.30616 6.96415 6.97064C6.47841 6.63512 6.11124 6.16078 5.91324 5.61301H1.91699V3.74198H5.91324ZM8.62533 5.61301C8.87949 5.61301 9.12325 5.51445 9.30297 5.339C9.48269 5.16356 9.58366 4.92561 9.58366 4.67749C9.58366 4.42938 9.48269 4.19143 9.30297 4.01598C9.12325 3.84054 8.87949 3.74198 8.62533 3.74198C8.37116 3.74198 8.1274 3.84054 7.94768 4.01598C7.76796 4.19143 7.66699 4.42938 7.66699 4.67749C7.66699 4.92561 7.76796 5.16356 7.94768 5.339C8.1274 5.51445 8.37116 5.61301 8.62533 5.61301ZM14.3753 12.1616C14.6295 12.1616 14.8732 12.0631 15.053 11.8876C15.2327 11.7122 15.3337 11.4742 15.3337 11.2261C15.3337 10.978 15.2327 10.74 15.053 10.5646C14.8732 10.3892 14.6295 10.2906 14.3753 10.2906C14.1212 10.2906 13.8774 10.3892 13.6977 10.5646C13.518 10.74 13.417 10.978 13.417 11.2261C13.417 11.4742 13.518 11.7122 13.6977 11.8876C13.8774 12.0631 14.1212 12.1616 14.3753 12.1616ZM8.62533 18.7102C8.87949 18.7102 9.12325 18.6117 9.30297 18.4362C9.48269 18.2608 9.58366 18.0228 9.58366 17.7747C9.58366 17.5266 9.48269 17.2886 9.30297 17.1132C9.12325 16.9378 8.87949 16.8392 8.62533 16.8392C8.37116 16.8392 8.1274 16.9378 7.94768 17.1132C7.76796 17.2886 7.66699 17.5266 7.66699 17.7747C7.66699 18.0228 7.76796 18.2608 7.94768 18.4362C8.1274 18.6117 8.37116 18.7102 8.62533 18.7102Z" fill="#5C5C5C"/>
</svg>
