<svg width="23" height="23" viewBox="0 0 23 23" fill="none" xmlns="http://www.w3.org/2000/svg">
<path d="M1.91699 3.73561C1.91875 3.48992 2.01944 3.25477 2.19732 3.08095C2.3752 2.90713 2.61598 2.8086 2.86766 2.80664H20.133C20.6582 2.80664 21.0837 3.22295 21.0837 3.73561V18.717C21.0819 18.9626 20.9812 19.1978 20.8033 19.3716C20.6255 19.5454 20.3847 19.644 20.133 19.6459H2.86766C2.61544 19.6457 2.37363 19.5477 2.19538 19.3735C2.01712 19.1993 1.91699 18.9632 1.91699 18.717V3.73561ZM7.66699 4.67767V17.7749H15.3337V4.67767H7.66699ZM3.83366 4.67767V6.5487H5.75033V4.67767H3.83366ZM17.2503 4.67767V6.5487H19.167V4.67767H17.2503ZM3.83366 8.41974V10.2908H5.75033V8.41974H3.83366ZM17.2503 8.41974V10.2908H19.167V8.41974H17.2503ZM3.83366 12.1618V14.0328H5.75033V12.1618H3.83366ZM17.2503 12.1618V14.0328H19.167V12.1618H17.2503ZM3.83366 15.9039V17.7749H5.75033V15.9039H3.83366ZM17.2503 15.9039V17.7749H19.167V15.9039H17.2503Z" fill="#5C5C5C"/>
</svg>
