<svg width="23" height="22" viewBox="0 0 23 22" fill="none" xmlns="http://www.w3.org/2000/svg">
<path d="M4.79167 10.1427L6.70833 8.31515L11.9792 13.3408L15.3333 10.1427L18.2083 12.8839V4.56873H4.79167V10.1427ZM4.79167 12.7277V17.3614H7.7625L10.6241 14.6338L6.70833 10.9002L4.79167 12.7277ZM10.4736 17.3614H18.2083V15.469L15.3333 12.7277L10.4736 17.3614ZM3.83333 2.74121H19.1667C19.4208 2.74121 19.6646 2.83748 19.8443 3.00884C20.024 3.18021 20.125 3.41263 20.125 3.65497V18.2751C20.125 18.5175 20.024 18.7499 19.8443 18.9213C19.6646 19.0926 19.4208 19.1889 19.1667 19.1889H3.83333C3.57917 19.1889 3.33541 19.0926 3.15569 18.9213C2.97597 18.7499 2.875 18.5175 2.875 18.2751V3.65497C2.875 3.41263 2.97597 3.18021 3.15569 3.00884C3.33541 2.83748 3.57917 2.74121 3.83333 2.74121ZM14.8542 9.13753C14.4729 9.13753 14.1073 8.99312 13.8377 8.73608C13.5681 8.47903 13.4167 8.13041 13.4167 7.76689C13.4167 7.40337 13.5681 7.05475 13.8377 6.7977C14.1073 6.54066 14.4729 6.39625 14.8542 6.39625C15.2354 6.39625 15.601 6.54066 15.8706 6.7977C16.1402 7.05475 16.2917 7.40337 16.2917 7.76689C16.2917 8.13041 16.1402 8.47903 15.8706 8.73608C15.601 8.99312 15.2354 9.13753 14.8542 9.13753Z" fill="#5C5C5C"/>
</svg>
