<svg width="23" height="23" viewBox="0 0 23 23" fill="none" xmlns="http://www.w3.org/2000/svg">
<path d="M11.5003 3.74213C9.467 3.74213 7.51695 4.53063 6.07917 5.93418C4.64139 7.33772 3.83366 9.24134 3.83366 11.2263H6.70866C7.21699 11.2263 7.7045 11.4234 8.06395 11.7743C8.42339 12.1252 8.62533 12.6011 8.62533 13.0973V17.7749C8.62533 18.2711 8.42339 18.747 8.06395 19.0979C7.7045 19.4488 7.21699 19.6459 6.70866 19.6459H3.83366C3.32533 19.6459 2.83782 19.4488 2.47837 19.0979C2.11893 18.747 1.91699 18.2711 1.91699 17.7749V11.2263C1.91699 6.0594 6.20745 1.87109 11.5003 1.87109C16.7932 1.87109 21.0837 6.0594 21.0837 11.2263V17.7749C21.0837 18.2711 20.8817 18.747 20.5223 19.0979C20.1628 19.4488 19.6753 19.6459 19.167 19.6459H16.292C15.7837 19.6459 15.2962 19.4488 14.9367 19.0979C14.5773 18.747 14.3753 18.2711 14.3753 17.7749V13.0973C14.3753 12.6011 14.5773 12.1252 14.9367 11.7743C15.2962 11.4234 15.7837 11.2263 16.292 11.2263H19.167C19.167 9.24134 18.3593 7.33772 16.9215 5.93418C15.4837 4.53063 13.5337 3.74213 11.5003 3.74213ZM3.83366 13.0973V17.7749H6.70866V13.0973H3.83366ZM16.292 13.0973V17.7749H19.167V13.0973H16.292Z" fill="#5C5C5C"/>
</svg>
