<svg width="23" height="23" viewBox="0 0 23 23" fill="none" xmlns="http://www.w3.org/2000/svg">
<path d="M4.62716 19.6459L4.60799 19.6646L4.58787 19.6459H2.86766C2.61544 19.6457 2.37363 19.5477 2.19538 19.3735C2.01712 19.1993 1.91699 18.9632 1.91699 18.717V3.73561C1.91875 3.48992 2.01944 3.25477 2.19732 3.08095C2.3752 2.90713 2.61598 2.8086 2.86766 2.80664H20.133C20.6582 2.80664 21.0837 3.22295 21.0837 3.73561V18.717C21.0819 18.9626 20.9812 19.1978 20.8033 19.3716C20.6255 19.5454 20.3847 19.644 20.133 19.6459H4.62716ZM19.167 14.0328V4.67767H3.83366V17.7749L13.417 8.41974L19.167 14.0328ZM19.167 16.6785L13.417 11.0654L6.54383 17.7749H19.167V16.6785ZM7.66699 10.2908C7.15866 10.2908 6.67115 10.0936 6.3117 9.74276C5.95226 9.39187 5.75033 8.91596 5.75033 8.41974C5.75033 7.92351 5.95226 7.4476 6.3117 7.09672C6.67115 6.74583 7.15866 6.5487 7.66699 6.5487C8.17532 6.5487 8.66284 6.74583 9.02228 7.09672C9.38172 7.4476 9.58366 7.92351 9.58366 8.41974C9.58366 8.91596 9.38172 9.39187 9.02228 9.74276C8.66284 10.0936 8.17532 10.2908 7.66699 10.2908Z" fill="#5C5C5C"/>
</svg>
