<svg width="23" height="22" viewBox="0 0 23 22" fill="none" xmlns="http://www.w3.org/2000/svg">
<g clip-path="url(#clip0_856_3420)">
<path d="M1.91699 3.64857C1.91875 3.4086 2.01944 3.17892 2.19732 3.00914C2.3752 2.83937 2.61598 2.74312 2.86766 2.74121H20.133C20.6582 2.74121 21.0837 3.14783 21.0837 3.64857V18.2815C21.0819 18.5215 20.9812 18.7512 20.8033 18.921C20.6255 19.0907 20.3847 19.187 20.133 19.1889H2.86766C2.61544 19.1886 2.37363 19.0929 2.19538 18.9228C2.01712 18.7527 1.91699 18.522 1.91699 18.2815V3.64857ZM3.83366 4.56873V17.3614H19.167V4.56873H3.83366ZM10.1797 7.68922L14.8555 10.6608C14.908 10.6941 14.9512 10.7394 14.981 10.7925C15.0108 10.8455 15.0264 10.9048 15.0264 10.965C15.0264 11.0253 15.0108 11.0846 14.981 11.1376C14.9512 11.1907 14.908 11.236 14.8555 11.2693L10.1788 14.2409C10.1211 14.2773 10.0542 14.2982 9.98508 14.3013C9.91597 14.3044 9.84727 14.2897 9.78626 14.2586C9.72525 14.2275 9.6742 14.1812 9.63853 14.1247C9.60286 14.0681 9.5839 14.0035 9.58366 13.9375V7.99259C9.58379 7.92648 9.60272 7.86164 9.63844 7.80498C9.67415 7.74831 9.72532 7.70195 9.78649 7.67082C9.84765 7.63969 9.91653 7.62496 9.98578 7.6282C10.055 7.63144 10.1221 7.65253 10.1797 7.68922Z" fill="#5C5C5C"/>
</g>
<defs>
<clipPath id="clip0_856_3420">
<rect width="23" height="21.9302" fill="white"/>
</clipPath>
</defs>
</svg>
