<svg width="23" height="23" viewBox="0 0 23 23" fill="none" xmlns="http://www.w3.org/2000/svg">
<path d="M19.1663 2.80664V15.9039C19.1662 16.7276 18.8876 17.5282 18.3737 18.1816C17.8599 18.835 17.1396 19.3047 16.3245 19.5177C15.5094 19.7308 14.6451 19.6754 13.8656 19.36C13.086 19.0447 12.4349 18.4871 12.013 17.7737C11.5912 17.0603 11.4223 16.2309 11.5325 15.4143C11.6427 14.5976 12.0259 13.8393 12.6226 13.2568C13.2193 12.6744 13.9962 12.3005 14.8328 12.193C15.6694 12.0855 16.5189 12.2504 17.2497 12.6623V4.67767H8.62468V15.9039C8.62449 16.7276 8.34589 17.5282 7.83208 18.1816C7.31827 18.835 6.59796 19.3047 5.78286 19.5177C4.96777 19.7308 4.10343 19.6754 3.3239 19.36C2.54436 19.0447 1.89319 18.4871 1.47137 17.7737C1.04954 17.0603 0.88064 16.2309 0.99085 15.4143C1.10106 14.5976 1.48422 13.8393 2.08092 13.2568C2.67762 12.6744 3.45451 12.3005 4.2911 12.193C5.1277 12.0855 5.97725 12.2504 6.70801 12.6623V2.80664H19.1663ZM4.79135 17.7749C5.29968 17.7749 5.78719 17.5778 6.14664 17.2269C6.50608 16.876 6.70801 16.4001 6.70801 15.9039C6.70801 15.4076 6.50608 14.9317 6.14664 14.5808C5.78719 14.23 5.29968 14.0328 4.79135 14.0328C4.28302 14.0328 3.7955 14.23 3.43606 14.5808C3.07661 14.9317 2.87468 15.4076 2.87468 15.9039C2.87468 16.4001 3.07661 16.876 3.43606 17.2269C3.7955 17.5778 4.28302 17.7749 4.79135 17.7749ZM15.333 17.7749C15.8413 17.7749 16.3289 17.5778 16.6883 17.2269C17.0477 16.876 17.2497 16.4001 17.2497 15.9039C17.2497 15.4076 17.0477 14.9317 16.6883 14.5808C16.3289 14.23 15.8413 14.0328 15.333 14.0328C14.8247 14.0328 14.3372 14.23 13.9777 14.5808C13.6183 14.9317 13.4163 15.4076 13.4163 15.9039C13.4163 16.4001 13.6183 16.876 13.9777 17.2269C14.3372 17.5778 14.8247 17.7749 15.333 17.7749Z" fill="#5C5C5C"/>
</svg>
