<svg width="23" height="23" viewBox="0 0 23 23" fill="none" xmlns="http://www.w3.org/2000/svg">
<path d="M1.91699 3.82662C1.91875 3.57495 2.01944 3.33406 2.19732 3.156C2.3752 2.97794 2.61598 2.87701 2.86766 2.875H20.133C20.6582 2.875 21.0837 3.30146 21.0837 3.82662V19.1734C21.0819 19.4251 20.9812 19.6659 20.8033 19.844C20.6255 20.0221 20.3847 20.123 20.133 20.125H2.86766C2.61544 20.1247 2.37363 20.0244 2.19538 19.8459C2.01712 19.6675 1.91699 19.4256 1.91699 19.1734V3.82662ZM3.83366 4.79167V18.2083H19.167V4.79167H3.83366ZM11.5003 11.6629V5.75H16.292V7.66667H13.417V14.375C13.4167 14.9852 13.2222 15.5795 12.8617 16.0719C12.5012 16.5643 11.9934 16.9292 11.4118 17.1138C10.8301 17.2984 10.2048 17.2931 9.62639 17.0988C9.04793 16.9045 8.54632 16.5311 8.19413 16.0328C7.84194 15.5344 7.65746 14.9369 7.66737 14.3268C7.67729 13.7166 7.88108 13.1255 8.24927 12.6388C8.61746 12.1522 9.13094 11.7953 9.7154 11.6199C10.2999 11.4444 10.925 11.4595 11.5003 11.6629Z" fill="#5C5C5C"/>
</svg>
