<svg width="23" height="23" viewBox="0 0 23 23" fill="none" xmlns="http://www.w3.org/2000/svg">
<g clip-path="url(#clip0_856_3436)">
<path d="M19.167 15.9128H21.0837V17.7849H1.91699V15.9128H3.83366V9.36044C3.83366 7.3744 4.64139 5.46971 6.07917 4.06536C7.51695 2.66102 9.467 1.87207 11.5003 1.87207C13.5337 1.87207 15.4837 2.66102 16.9215 4.06536C18.3593 5.46971 19.167 7.3744 19.167 9.36044V15.9128ZM17.2503 15.9128V9.36044C17.2503 7.87091 16.6445 6.44239 15.5662 5.38913C14.4879 4.33588 13.0253 3.74416 11.5003 3.74416C9.97533 3.74416 8.5128 4.33588 7.43446 5.38913C6.35613 6.44239 5.75033 7.87091 5.75033 9.36044V15.9128H17.2503ZM8.62533 19.657H14.3753V21.529H8.62533V19.657Z" fill="#5C5C5C"/>
</g>
<defs>
<clipPath id="clip0_856_3436">
<rect width="23" height="22.4651" fill="white"/>
</clipPath>
</defs>
</svg>
