<svg width="23" height="23" viewBox="0 0 23 23" fill="none" xmlns="http://www.w3.org/2000/svg">
<path d="M21.0837 19.1667H1.91699V17.2501H2.87533V10.5715C2.87533 5.79129 6.73741 1.91675 11.5003 1.91675C16.2632 1.91675 20.1253 5.79129 20.1253 10.5715V17.2501H21.0837V19.1667ZM4.79199 17.2501H18.2087V10.5715C18.2087 6.85025 15.2052 3.83341 11.5003 3.83341C7.79541 3.83341 4.79199 6.85025 4.79199 10.5715V17.2501ZM9.10449 20.1251H13.8962C13.8962 20.7605 13.6437 21.3699 13.1944 21.8192C12.7451 22.2685 12.1357 22.5209 11.5003 22.5209C10.8649 22.5209 10.2555 22.2685 9.80622 21.8192C9.35691 21.3699 9.10449 20.7605 9.10449 20.1251Z" fill="#5C5C5C"/>
</svg>
