<svg width="23" height="23" viewBox="0 0 23 23" fill="none" xmlns="http://www.w3.org/2000/svg">
<path d="M15.7112 11.5L9.58366 7.41464V15.5854L15.7112 11.5ZM18.569 11.8987L8.41162 18.6703C8.33946 18.7183 8.25563 18.7458 8.16905 18.75C8.08248 18.7541 7.9964 18.7347 7.91999 18.6938C7.84358 18.6529 7.7797 18.592 7.73514 18.5177C7.69059 18.4433 7.66704 18.3583 7.66699 18.2716V4.72843C7.66704 4.64176 7.69059 4.55672 7.73514 4.48237C7.7797 4.40803 7.84358 4.34716 7.91999 4.30625C7.9964 4.26534 8.08248 4.24592 8.16905 4.25006C8.25563 4.2542 8.33946 4.28175 8.41162 4.32976L18.569 11.1013C18.6346 11.1451 18.6884 11.2044 18.7256 11.2739C18.7629 11.3435 18.7823 11.4211 18.7823 11.5C18.7823 11.5789 18.7629 11.6565 18.7256 11.7261C18.6884 11.7956 18.6346 11.8549 18.569 11.8987Z" fill="#5C5C5C"/>
</svg>
