<svg width="23" height="23" viewBox="0 0 23 23" fill="none" xmlns="http://www.w3.org/2000/svg">
<path d="M16.292 9.35519V7.48416H14.3753V9.35519H4.79199V5.61313H18.2087V9.35519H16.292ZM5.75033 2.80658V0.935547H7.66699V2.80658H20.133C20.6582 2.80658 21.0837 3.22288 21.0837 3.73555V18.7169C21.0819 18.9626 20.9812 19.1977 20.8033 19.3716C20.6255 19.5454 20.3847 19.6439 20.133 19.6459H2.86766C2.61544 19.6456 2.37363 19.5476 2.19538 19.3734C2.01712 19.1993 1.91699 18.9631 1.91699 18.7169V3.73555C1.91875 3.48986 2.01944 3.25471 2.19732 3.08089C2.3752 2.90707 2.61598 2.80854 2.86766 2.80658H5.75033ZM3.83366 4.67761V17.7748H19.167V4.67761H3.83366ZM7.66699 16.8393C6.90449 16.8393 6.17323 16.5436 5.63406 16.0173C5.09489 15.491 4.79199 14.7771 4.79199 14.0328C4.79199 13.2884 5.09489 12.5746 5.63406 12.0482C6.17323 11.5219 6.90449 11.2262 7.66699 11.2262C8.42949 11.2262 9.16076 11.5219 9.69992 12.0482C10.2391 12.5746 10.542 13.2884 10.542 14.0328C10.542 14.7771 10.2391 15.491 9.69992 16.0173C9.16076 16.5436 8.42949 16.8393 7.66699 16.8393Z" fill="#5C5C5C"/>
</svg>
