<svg width="23" height="22" viewBox="0 0 23 22" fill="none" xmlns="http://www.w3.org/2000/svg">
<g clip-path="url(#clip0_856_3448)">
<path d="M5.75033 2.74134V0.913818H7.66699V2.74134H20.133C20.6582 2.74134 21.0837 3.14796 21.0837 3.6487V18.2816C21.0819 18.5216 20.9812 18.7513 20.8033 18.9211C20.6255 19.0909 20.3847 19.1871 20.133 19.189H2.86766C2.61544 19.1888 2.37363 19.0931 2.19538 18.9229C2.01712 18.7528 1.91699 18.5221 1.91699 18.2816V3.6487C1.91875 3.40873 2.01944 3.17904 2.19732 3.00927C2.3752 2.83949 2.61598 2.74325 2.86766 2.74134H5.75033ZM3.83366 4.56886V17.3615H19.167V4.56886H3.83366ZM8.62533 13.7065C7.86283 13.7065 7.13156 13.4176 6.59239 12.9036C6.05323 12.3895 5.75033 11.6922 5.75033 10.9652C5.75033 10.2381 6.05323 9.54089 6.59239 9.0268C7.13156 8.51271 7.86283 8.2239 8.62533 8.2239C9.38782 8.2239 10.1191 8.51271 10.6583 9.0268C11.1974 9.54089 11.5003 10.2381 11.5003 10.9652C11.5003 11.6922 11.1974 12.3895 10.6583 12.9036C10.1191 13.4176 9.38782 13.7065 8.62533 13.7065ZM13.417 8.2239H17.2503V10.0514H13.417V8.2239ZM13.417 11.8789H17.2503V13.7065H13.417V11.8789Z" fill="#5C5C5C"/>
</g>
<defs>
<clipPath id="clip0_856_3448">
<rect width="23" height="21.9302" fill="white"/>
</clipPath>
</defs>
</svg>
