<svg width="23" height="23" viewBox="0 0 23 23" fill="none" xmlns="http://www.w3.org/2000/svg">
<path d="M4.79167 3.74213V18.7104H18.2083V3.74213H4.79167ZM3.83333 1.87109H19.1667C19.4208 1.87109 19.6646 1.96966 19.8443 2.1451C20.024 2.32054 20.125 2.5585 20.125 2.80661V19.6459C20.125 19.894 20.024 20.132 19.8443 20.3074C19.6646 20.4828 19.4208 20.5814 19.1667 20.5814H3.83333C3.57917 20.5814 3.33541 20.4828 3.15569 20.3074C2.97597 20.132 2.875 19.894 2.875 19.6459V2.80661C2.875 2.5585 2.97597 2.32054 3.15569 2.1451C3.33541 1.96966 3.57917 1.87109 3.83333 1.87109ZM11.5 15.9038C12.1354 15.9038 12.7448 15.6574 13.1941 15.2188C13.6434 14.7802 13.8958 14.1853 13.8958 13.565C13.8958 12.9448 13.6434 12.3499 13.1941 11.9113C12.7448 11.4727 12.1354 11.2263 11.5 11.2263C10.8646 11.2263 10.2552 11.4727 9.80589 11.9113C9.35658 12.3499 9.10417 12.9448 9.10417 13.565C9.10417 14.1853 9.35658 14.7802 9.80589 15.2188C10.2552 15.6574 10.8646 15.9038 11.5 15.9038ZM11.5 17.7749C10.3563 17.7749 9.25935 17.3313 8.4506 16.5418C7.64185 15.7523 7.1875 14.6816 7.1875 13.565C7.1875 12.4485 7.64185 11.3777 8.4506 10.5882C9.25935 9.79875 10.3563 9.35522 11.5 9.35522C12.6437 9.35522 13.7406 9.79875 14.5494 10.5882C15.3581 11.3777 15.8125 12.4485 15.8125 13.565C15.8125 14.6816 15.3581 15.7523 14.5494 16.5418C13.7406 17.3313 12.6437 17.7749 11.5 17.7749ZM11.5 7.95195C11.3112 7.95195 11.1243 7.91565 10.9499 7.84513C10.7755 7.77461 10.617 7.67124 10.4835 7.54094C10.35 7.41063 10.2442 7.25594 10.1719 7.08568C10.0997 6.91543 10.0625 6.73295 10.0625 6.54867C10.0625 6.36439 10.0997 6.18192 10.1719 6.01166C10.2442 5.84141 10.35 5.68671 10.4835 5.55641C10.617 5.4261 10.7755 5.32274 10.9499 5.25222C11.1243 5.1817 11.3112 5.1454 11.5 5.1454C11.8812 5.1454 12.2469 5.29324 12.5165 5.55641C12.786 5.81957 12.9375 6.1765 12.9375 6.54867C12.9375 6.92084 12.786 7.27777 12.5165 7.54094C12.2469 7.8041 11.8812 7.95195 11.5 7.95195Z" fill="#5C5C5C"/>
</svg>
