<svg width="23" height="24" viewBox="0 0 23 24" fill="none" xmlns="http://www.w3.org/2000/svg">
<g clip-path="url(#clip0_856_3464)">
<path d="M12.458 5.88701V3.9247H4.79134V1.9624H14.3747V5.88701H15.333C15.5872 5.88701 15.8309 5.99038 16.0107 6.17438C16.1904 6.35838 16.2913 6.60794 16.2913 6.86816V9.02669L21.2871 5.44549C21.359 5.39393 21.4432 5.36356 21.5308 5.35768C21.6183 5.35179 21.7058 5.37063 21.7836 5.41212C21.8614 5.45362 21.9265 5.51619 21.972 5.59301C22.0175 5.66982 22.0414 5.75794 22.0413 5.84776V17.7001C22.0414 17.7899 22.0175 17.878 21.972 17.9548C21.9265 18.0316 21.8614 18.0942 21.7836 18.1357C21.7058 18.1772 21.6183 18.196 21.5308 18.1901C21.4432 18.1843 21.359 18.1539 21.2871 18.1023L16.2913 14.5211V18.642C16.2913 18.9022 16.1904 19.1517 16.0107 19.3357C15.8309 19.5197 15.5872 19.6231 15.333 19.6231H1.91634C1.66218 19.6231 1.41842 19.5197 1.2387 19.3357C1.05897 19.1517 0.958008 18.9022 0.958008 18.642V6.86816C0.958008 6.60794 1.05897 6.35838 1.2387 6.17438C1.41842 5.99038 1.66218 5.88701 1.91634 5.88701H12.458ZM14.3747 7.84931H2.87467V17.6608H14.3747V7.84931ZM16.2913 12.1261L20.1247 14.8734V8.67347L16.2913 11.4207V12.1252V12.1261ZM4.79134 9.81161H6.70801V11.7739H4.79134V9.81161Z" fill="#5C5C5C"/>
</g>
<defs>
<clipPath id="clip0_856_3464">
<rect width="23" height="23.5476" fill="white"/>
</clipPath>
</defs>
</svg>
