<svg width="23" height="23" viewBox="0 0 23 23" fill="none" xmlns="http://www.w3.org/2000/svg">
<path d="M10.1219 3.97516C11.0308 3.78523 11.9692 3.78523 12.8781 3.97516L14.491 2.36133L15.847 3.71737L14.8407 4.72362C16.0256 5.40576 16.9748 6.43222 17.5624 7.66666H20.125V9.58333H18.1412C18.1853 9.8967 18.2083 10.2158 18.2083 10.5417V11.5H20.125V13.4167H18.2083V14.375C18.2083 14.7008 18.1853 15.02 18.1412 15.3333H20.125V17.25H17.5624C17.0187 18.3977 16.1603 19.3675 15.0871 20.0466C14.0139 20.7257 12.77 21.0862 11.5 21.0862C10.23 21.0862 8.98607 20.7257 7.91288 20.0466C6.83969 19.3675 5.98132 18.3977 5.43758 17.25H2.875V15.3333H4.85875C4.81371 15.0159 4.79129 14.6956 4.79167 14.375V13.4167H2.875V11.5H4.79167V10.5417C4.79167 10.2158 4.81467 9.8967 4.85875 9.58333H2.875V7.66666H5.43758C6.02501 6.43186 6.97428 5.40505 8.15925 4.72266L7.153 3.71641L8.51 2.36229L10.1229 3.97612L10.1219 3.97516ZM11.5 5.74999C10.2292 5.74999 9.01039 6.25483 8.11178 7.15344C7.21317 8.05205 6.70833 9.27083 6.70833 10.5417V14.375C6.70833 15.6458 7.21317 16.8646 8.11178 17.7632C9.01039 18.6618 10.2292 19.1667 11.5 19.1667C12.7708 19.1667 13.9896 18.6618 14.8882 17.7632C15.7868 16.8646 16.2917 15.6458 16.2917 14.375V10.5417C16.2917 9.27083 15.7868 8.05205 14.8882 7.15344C13.9896 6.25483 12.7708 5.74999 11.5 5.74999ZM8.625 13.4167H14.375V15.3333H8.625V13.4167ZM8.625 9.58333H14.375V11.5H8.625V9.58333Z" fill="#5C5C5C"/>
</svg>
