<svg width="23" height="25" viewBox="0 0 23 25" fill="none" xmlns="http://www.w3.org/2000/svg">
<path d="M9.58334 8.41464H13.4167V6.94208C13.4167 6.26251 13.6134 5.5982 13.9819 5.03316C14.3505 4.46811 14.8744 4.02771 15.4873 3.76765C16.1001 3.50759 16.7746 3.43955 17.4252 3.57213C18.0758 3.7047 18.6735 4.03195 19.1426 4.51248C19.6117 4.99301 19.9311 5.60524 20.0606 6.27176C20.19 6.93827 20.1236 7.62913 19.8697 8.25697C19.6158 8.88481 19.1859 9.42144 18.6343 9.79899C18.0827 10.1765 17.4342 10.3781 16.7708 10.3781H15.3333V14.3049H16.7708C17.4342 14.3049 18.0827 14.5064 18.6343 14.884C19.1859 15.2615 19.6158 15.7981 19.8697 16.426C20.1236 17.0538 20.19 17.7447 20.0606 18.4112C19.9311 19.0777 19.6117 19.6899 19.1426 20.1705C18.6735 20.651 18.0758 20.9782 17.4252 21.1108C16.7746 21.2434 16.1001 21.1754 15.4873 20.9153C14.8744 20.6552 14.3505 20.2148 13.9819 19.6498C13.6134 19.0847 13.4167 18.4204 13.4167 17.7409V16.2683H9.58334V17.7409C9.58334 18.4204 9.38662 19.0847 9.01806 19.6498C8.6495 20.2148 8.12565 20.6552 7.51275 20.9153C6.89986 21.1754 6.22545 21.2434 5.5748 21.1108C4.92416 20.9782 4.3265 20.651 3.85741 20.1705C3.38833 19.6899 3.06887 19.0777 2.93945 18.4112C2.81003 17.7447 2.87645 17.0538 3.13032 16.426C3.38419 15.7981 3.8141 15.2615 4.36569 14.884C4.91728 14.5064 5.56578 14.3049 6.22917 14.3049H7.66667V10.3781H6.22917C5.56578 10.3781 4.91728 10.1765 4.36569 9.79899C3.8141 9.42144 3.38419 8.88481 3.13032 8.25697C2.87645 7.62913 2.81003 6.93827 2.93945 6.27176C3.06887 5.60524 3.38833 4.99301 3.85741 4.51248C4.3265 4.03195 4.92416 3.7047 5.5748 3.57213C6.22545 3.43955 6.89986 3.50759 7.51275 3.76765C8.12565 4.02771 8.6495 4.46811 9.01806 5.03316C9.38662 5.5982 9.58334 6.26251 9.58334 6.94208V8.41464ZM7.66667 8.41464V6.94208C7.66667 6.65084 7.58236 6.36613 7.42441 6.12397C7.26645 5.88181 7.04194 5.69307 6.77928 5.58161C6.51661 5.47016 6.22757 5.441 5.94873 5.49781C5.66988 5.55463 5.41374 5.69488 5.2127 5.90082C5.01166 6.10676 4.87476 6.36915 4.81929 6.6548C4.76382 6.94045 4.79229 7.23653 4.90109 7.50561C5.00989 7.77468 5.19414 8.00466 5.43054 8.16647C5.66693 8.32828 5.94486 8.41464 6.22917 8.41464H7.66667ZM7.66667 16.2683H6.22917C5.94486 16.2683 5.66693 16.3547 5.43054 16.5165C5.19414 16.6783 5.00989 16.9083 4.90109 17.1773C4.79229 17.4464 4.76382 17.7425 4.81929 18.0281C4.87476 18.3138 5.01166 18.5762 5.2127 18.7821C5.41374 18.9881 5.66988 19.1283 5.94873 19.1851C6.22757 19.2419 6.51661 19.2128 6.77928 19.1013C7.04194 18.9899 7.26645 18.8011 7.42441 18.559C7.58236 18.3168 7.66667 18.0321 7.66667 17.7409V16.2683ZM15.3333 8.41464H16.7708C17.0551 8.41464 17.3331 8.32828 17.5695 8.16647C17.8059 8.00466 17.9901 7.77468 18.0989 7.50561C18.2077 7.23653 18.2362 6.94045 18.1807 6.6548C18.1252 6.36915 17.9883 6.10676 17.7873 5.90082C17.5863 5.69488 17.3301 5.55463 17.0513 5.49781C16.7724 5.441 16.4834 5.47016 16.2207 5.58161C15.9581 5.69307 15.7336 5.88181 15.5756 6.12397C15.4176 6.36613 15.3333 6.65084 15.3333 6.94208V8.41464ZM15.3333 16.2683V17.7409C15.3333 18.0321 15.4176 18.3168 15.5756 18.559C15.7336 18.8011 15.9581 18.9899 16.2207 19.1013C16.4834 19.2128 16.7724 19.2419 17.0513 19.1851C17.3301 19.1283 17.5863 18.9881 17.7873 18.7821C17.9883 18.5762 18.1252 18.3138 18.1807 18.0281C18.2362 17.7425 18.2077 17.4464 18.0989 17.1773C17.9901 16.9083 17.8059 16.6783 17.5695 16.5165C17.3331 16.3547 17.0551 16.2683 16.7708 16.2683H15.3333ZM9.58334 10.3781V14.3049H13.4167V10.3781H9.58334Z" fill="#5C5C5C"/>
</svg>
