<svg width="23" height="24" viewBox="0 0 23 24" fill="none" xmlns="http://www.w3.org/2000/svg">
<path d="M5.75 9.81706V19.6341H18.2083V9.81706H5.75ZM17.25 7.85364H19.1667C19.4208 7.85364 19.6646 7.95707 19.8443 8.14118C20.024 8.32528 20.125 8.57498 20.125 8.83535V20.6158C20.125 20.8762 20.024 21.1259 19.8443 21.31C19.6646 21.4941 19.4208 21.5975 19.1667 21.5975H3.83333C3.57917 21.5975 3.33541 21.4941 3.15569 21.31C2.97597 21.1259 2.875 20.8762 2.875 20.6158V8.83535C2.875 8.57498 2.97597 8.32528 3.15569 8.14118C3.33541 7.95707 3.57917 7.85364 3.83333 7.85364H5.75V6.87193C5.75 5.30974 6.3558 3.81154 7.43414 2.7069C8.51247 1.60227 9.97501 0.981689 11.5 0.981689C13.025 0.981689 14.4875 1.60227 15.5659 2.7069C16.6442 3.81154 17.25 5.30974 17.25 6.87193V7.85364ZM15.3333 7.85364V6.87193C15.3333 5.83047 14.9295 4.83167 14.2106 4.09525C13.4917 3.35882 12.5167 2.9451 11.5 2.9451C10.4833 2.9451 9.50831 3.35882 8.78942 4.09525C8.07053 4.83167 7.66667 5.83047 7.66667 6.87193V7.85364H15.3333ZM6.70833 10.7988H8.625V12.7622H6.70833V10.7988ZM6.70833 13.7439H8.625V15.7073H6.70833V13.7439ZM6.70833 16.689H8.625V18.6524H6.70833V16.689Z" fill="#5C5C5C"/>
</svg>
