<svg width="23" height="24" viewBox="0 0 23 24" fill="none" xmlns="http://www.w3.org/2000/svg">
<path d="M14.375 5.35278H16.2917C16.8 5.35278 17.2875 5.55472 17.6469 5.91416C18.0064 6.27361 18.2083 6.76112 18.2083 7.26945V15.099C18.848 15.3251 19.3872 15.7701 19.7305 16.3552C20.0738 16.9404 20.1992 17.6281 20.0846 18.2968C19.9699 18.9655 19.6225 19.5721 19.1038 20.0094C18.5851 20.4467 17.9284 20.6866 17.25 20.6866C16.5715 20.6866 15.9149 20.4467 15.3962 20.0094C14.8775 19.5721 14.5301 18.9655 14.4154 18.2968C14.3007 17.6281 14.4261 16.9404 14.7695 16.3552C15.1128 15.7701 15.652 15.3251 16.2917 15.099V7.26945H14.375V10.1444L10.0625 6.31112L14.375 2.47778V5.35278ZM4.79165 9.0232C4.15197 8.79712 3.61281 8.35218 3.26948 7.76701C2.92614 7.18184 2.80073 6.49414 2.91542 5.82544C3.03011 5.15675 3.37751 4.55014 3.89621 4.11282C4.41492 3.67551 5.07153 3.43565 5.74999 3.43565C6.42844 3.43565 7.08505 3.67551 7.60376 4.11282C8.12247 4.55014 8.46987 5.15675 8.58456 5.82544C8.69924 6.49414 8.57384 7.18184 8.2305 7.76701C7.88716 8.35218 7.348 8.79712 6.70832 9.0232V15.099C7.348 15.3251 7.88716 15.7701 8.2305 16.3552C8.57384 16.9404 8.69924 17.6281 8.58456 18.2968C8.46987 18.9655 8.12247 19.5721 7.60376 20.0094C7.08505 20.4467 6.42844 20.6866 5.74999 20.6866C5.07153 20.6866 4.41492 20.4467 3.89621 20.0094C3.37751 19.5721 3.03011 18.9655 2.91542 18.2968C2.80073 17.6281 2.92614 16.9404 3.26948 16.3552C3.61281 15.7701 4.15197 15.3251 4.79165 15.099V9.0232ZM5.74999 7.26945C6.00415 7.26945 6.24791 7.16848 6.42763 6.98876C6.60735 6.80904 6.70832 6.56528 6.70832 6.31112C6.70832 6.05695 6.60735 5.81319 6.42763 5.63347C6.24791 5.45375 6.00415 5.35278 5.74999 5.35278C5.49582 5.35278 5.25207 5.45375 5.07234 5.63347C4.89262 5.81319 4.79165 6.05695 4.79165 6.31112C4.79165 6.56528 4.89262 6.80904 5.07234 6.98876C5.25207 7.16848 5.49582 7.26945 5.74999 7.26945ZM5.74999 18.7694C6.00415 18.7694 6.24791 18.6685 6.42763 18.4888C6.60735 18.309 6.70832 18.0653 6.70832 17.8111C6.70832 17.557 6.60735 17.3132 6.42763 17.1335C6.24791 16.9537 6.00415 16.8528 5.74999 16.8528C5.49582 16.8528 5.25207 16.9537 5.07234 17.1335C4.89262 17.3132 4.79165 17.557 4.79165 17.8111C4.79165 18.0653 4.89262 18.309 5.07234 18.4888C5.25207 18.6685 5.49582 18.7694 5.74999 18.7694ZM17.25 18.7694C17.5042 18.7694 17.7479 18.6685 17.9276 18.4888C18.1074 18.309 18.2083 18.0653 18.2083 17.8111C18.2083 17.557 18.1074 17.3132 17.9276 17.1335C17.7479 16.9537 17.5042 16.8528 17.25 16.8528C16.9958 16.8528 16.7521 16.9537 16.5723 17.1335C16.3926 17.3132 16.2917 17.557 16.2917 17.8111C16.2917 18.0653 16.3926 18.309 16.5723 18.4888C16.7521 18.6685 16.9958 18.7694 17.25 18.7694Z" fill="#5C5C5C"/>
</svg>
