<svg width="23" height="25" viewBox="0 0 23 25" fill="none" xmlns="http://www.w3.org/2000/svg">
<path d="M6.80882 15.4927C7.43524 15.7471 7.95458 16.2187 8.27621 16.8253C8.59784 17.4318 8.70135 18.1348 8.56866 18.8116C8.43598 19.4883 8.07553 20.0959 7.55022 20.5282C7.02491 20.9605 6.36809 21.1902 5.69437 21.1771C5.02065 21.1639 4.37282 20.9089 3.86392 20.4565C3.35502 20.004 3.01737 19.3829 2.90988 18.7014C2.80239 18.02 2.93189 17.3215 3.27579 16.7279C3.61968 16.1343 4.15614 15.6833 4.79153 15.4534V9.22942C4.15185 8.99783 3.61269 8.54203 3.26936 7.94259C2.92602 7.34315 2.80061 6.63867 2.9153 5.95367C3.02999 5.26867 3.37739 4.64726 3.89609 4.19927C4.4148 3.75129 5.07141 3.50558 5.74987 3.50558C6.42832 3.50558 7.08493 3.75129 7.60364 4.19927C8.12235 4.64726 8.46975 5.26867 8.58444 5.95367C8.69912 6.63867 8.57372 7.34315 8.23038 7.94259C7.88704 8.54203 7.34788 8.99783 6.7082 9.22942V12.3414C7.50937 11.7249 8.50412 11.3597 9.5832 11.3597H13.4165C14.0472 11.3597 14.6604 11.1474 15.1617 10.7554C15.6631 10.3633 16.0247 9.81337 16.1909 9.19015C15.5615 8.93481 15.0401 8.46018 14.7187 7.84982C14.3972 7.23945 14.2963 6.53249 14.4336 5.85338C14.5709 5.17427 14.9377 4.56656 15.4694 4.13724C16.0011 3.70792 16.6636 3.48451 17.3403 3.50634C18.017 3.52818 18.6644 3.79385 19.1687 4.2566C19.673 4.71934 20.0017 5.34949 20.0971 6.03611C20.1924 6.72272 20.0482 7.42178 19.6899 8.01021C19.3316 8.59864 18.7821 9.03872 18.1382 9.25298C17.9452 10.3924 17.3658 11.4255 16.502 12.1701C15.6381 12.9147 14.5455 13.3231 13.4165 13.3231H9.5832C8.95251 13.3231 8.3393 13.5355 7.83799 13.9275C7.33668 14.3195 6.97506 14.8695 6.80882 15.4927ZM5.74987 17.25C5.4957 17.25 5.25195 17.3534 5.07222 17.5375C4.8925 17.7216 4.79153 17.9713 4.79153 18.2317C4.79153 18.492 4.8925 18.7417 5.07222 18.9258C5.25195 19.11 5.4957 19.2134 5.74987 19.2134C6.00403 19.2134 6.24779 19.11 6.42751 18.9258C6.60723 18.7417 6.7082 18.492 6.7082 18.2317C6.7082 17.9713 6.60723 17.7216 6.42751 17.5375C6.24779 17.3534 6.00403 17.25 5.74987 17.25ZM5.74987 5.46948C5.4957 5.46948 5.25195 5.57291 5.07222 5.75701C4.8925 5.94112 4.79153 6.19082 4.79153 6.45119C4.79153 6.71155 4.8925 6.96125 5.07222 7.14536C5.25195 7.32946 5.4957 7.43289 5.74987 7.43289C6.00403 7.43289 6.24779 7.32946 6.42751 7.14536C6.60723 6.96125 6.7082 6.71155 6.7082 6.45119C6.7082 6.19082 6.60723 5.94112 6.42751 5.75701C6.24779 5.57291 6.00403 5.46948 5.74987 5.46948ZM17.2499 5.46948C16.9957 5.46948 16.7519 5.57291 16.5722 5.75701C16.3925 5.94112 16.2915 6.19082 16.2915 6.45119C16.2915 6.71155 16.3925 6.96125 16.5722 7.14536C16.7519 7.32946 16.9957 7.43289 17.2499 7.43289C17.504 7.43289 17.7478 7.32946 17.9275 7.14536C18.1072 6.96125 18.2082 6.71155 18.2082 6.45119C18.2082 6.19082 18.1072 5.94112 17.9275 5.75701C17.7478 5.57291 17.504 5.46948 17.2499 5.46948Z" fill="#5C5C5C"/>
</svg>
