<svg width="23" height="24" viewBox="0 0 23 24" fill="none" xmlns="http://www.w3.org/2000/svg">
<path d="M19.167 8.83531V4.90848H3.83366V8.83531H19.167ZM19.167 10.7987H3.83366V18.6524H19.167V10.7987ZM2.87533 2.94507H20.1253C20.3795 2.94507 20.6232 3.0485 20.803 3.2326C20.9827 3.41671 21.0837 3.66641 21.0837 3.92678V19.6341C21.0837 19.8945 20.9827 20.1442 20.803 20.3283C20.6232 20.5124 20.3795 20.6158 20.1253 20.6158H2.87533C2.62116 20.6158 2.3774 20.5124 2.19768 20.3283C2.01796 20.1442 1.91699 19.8945 1.91699 19.6341V3.92678C1.91699 3.66641 2.01796 3.41671 2.19768 3.2326C2.3774 3.0485 2.62116 2.94507 2.87533 2.94507ZM4.79199 11.7804H7.66699V16.689H4.79199V11.7804ZM4.79199 5.89019H6.70866V7.85361H4.79199V5.89019ZM8.62533 5.89019H10.542V7.85361H8.62533V5.89019Z" fill="#5C5C5C"/>
</svg>
