<svg width="23" height="24" viewBox="0 0 23 24" fill="none" xmlns="http://www.w3.org/2000/svg">
<path d="M11.4997 2.03882C13.6176 2.03882 15.333 3.75423 15.333 5.87215V14.4972H16.2913C16.8184 14.4972 17.2497 14.0659 17.2497 13.5388V7.78882C17.2497 7.25982 17.679 6.83048 18.208 6.83048C18.737 6.83048 19.1663 7.25982 19.1663 7.78882V13.5388C19.1663 15.1297 17.8822 16.4138 16.2913 16.4138H15.333V19.2888H17.2497V21.2055H5.74967V19.2888H7.66634V13.5388H6.70801C5.12005 13.5388 3.83301 12.2518 3.83301 10.6638V8.74715C3.83301 8.21815 4.26234 7.78882 4.79134 7.78882C5.32034 7.78882 5.74967 8.21815 5.74967 8.74715V10.6638C5.74967 11.1909 6.18092 11.6222 6.70801 11.6222H7.66634V5.87215C7.66634 3.75423 9.38176 2.03882 11.4997 2.03882ZM11.4997 3.95548C10.4407 3.95548 9.58301 4.81319 9.58301 5.87215V19.2888H13.4163V5.87215C13.4163 4.81319 12.5586 3.95548 11.4997 3.95548Z" fill="#5C5C5C"/>
</svg>
