<svg width="23" height="24" viewBox="0 0 23 24" fill="none" xmlns="http://www.w3.org/2000/svg">
<path d="M7.66699 5.99406V9.82644H10.542V5.99406H12.4587V9.82644H15.3337V5.99406H17.2503V9.82644L18.2087 9.82739C18.942 9.82735 19.6476 10.1075 20.1812 10.6106C20.7147 11.1137 21.0358 11.8017 21.0789 12.5337L21.0837 12.7024V13.6607C21.0837 14.6325 20.7224 15.5199 20.1263 16.1955L20.1253 20.3691C20.1253 20.6232 20.0244 20.867 19.8446 21.0467C19.6649 21.2264 19.4212 21.3274 19.167 21.3274H3.83366C3.57949 21.3274 3.33574 21.2264 3.15601 21.0467C2.97629 20.867 2.87533 20.6232 2.87533 20.3691V16.1907C2.36038 15.604 2.03558 14.8749 1.94383 14.0996L1.92274 13.8572L1.91699 13.6607V12.7024C1.91695 11.9691 2.19714 11.2634 2.70022 10.7299C3.20331 10.1963 3.89126 9.87521 4.62333 9.83219L4.79199 9.82739L5.75033 9.82644V5.99406H7.66699ZM8.62724 16.1917L8.57549 16.2521C7.9473 16.9379 7.09087 17.3716 6.16624 17.472L5.94583 17.4893L5.75033 17.4941C5.4197 17.4941 5.09866 17.4519 4.79199 17.3733V19.4107H18.2087V17.3733C17.5813 17.5346 16.9233 17.5345 16.296 17.3732C15.6687 17.2118 15.0923 16.8944 14.6207 16.4504L14.4769 16.3067L14.3753 16.1946L14.2728 16.3076C13.6514 16.9601 12.8195 17.3721 11.9239 17.4711L11.692 17.4902L11.5003 17.4941C10.4974 17.4955 9.5343 17.1016 8.81987 16.3977L8.67612 16.2473L8.62724 16.1917ZM18.2087 11.7441H4.79199C4.55726 11.7441 4.33071 11.8303 4.1553 11.9862C3.97989 12.1422 3.86783 12.3572 3.84037 12.5903L3.83366 12.7024V13.6329L3.83653 13.7738C3.86537 14.2618 4.07958 14.7203 4.43533 15.0556C4.79108 15.3908 5.26149 15.5775 5.75033 15.5774C6.20932 15.5782 6.65335 15.4142 7.0016 15.1152C7.34985 14.8162 7.57917 14.4021 7.64783 13.9482L7.6622 13.8016L7.66699 13.6329C7.70149 12.4369 9.41787 12.3938 9.57312 13.5045L9.5827 13.6329L9.58653 13.7738C9.61334 14.2606 9.82463 14.7189 10.1774 15.0553C10.5302 15.3918 10.9979 15.5812 11.4854 15.585C11.9729 15.5888 12.4435 15.4067 12.8015 15.0757C13.1595 14.7448 13.3778 14.2898 13.4122 13.8035L13.4237 13.5333C13.5425 12.4254 15.2081 12.4254 15.327 13.5333L15.3384 13.8035C15.3727 14.2872 15.589 14.7399 15.9438 15.0704C16.2986 15.401 16.7654 15.5847 17.2503 15.5847C17.7352 15.5847 18.2021 15.401 18.5568 15.0704C18.9116 14.7399 19.1279 14.2872 19.1622 13.8035L19.167 13.6607V12.7024C19.167 12.4677 19.0808 12.2411 18.9248 12.0657C18.7688 11.8903 18.5539 11.7782 18.3208 11.7508L18.2087 11.7441ZM6.70866 1.20239C7.97366 2.0371 8.30237 3.20339 8.09728 3.97006C7.99867 4.33835 7.75779 4.65237 7.42764 4.84306C7.09749 5.03374 6.70511 5.08547 6.33683 4.98685C5.96854 4.88824 5.65451 4.64736 5.46383 4.31721C5.27314 3.98706 5.22142 3.59468 5.32003 3.22639C5.60658 2.16264 6.70866 2.63989 6.70866 1.20239ZM11.5003 1.20239C12.7653 2.0371 13.094 3.20339 12.889 3.97006C12.7903 4.33835 12.5495 4.65237 12.2193 4.84306C11.8892 5.03374 11.4968 5.08547 11.1285 4.98685C10.7602 4.88824 10.4462 4.64736 10.2555 4.31721C10.0648 3.98706 10.0131 3.59468 10.1117 3.22639C10.3982 2.16264 11.5003 2.63989 11.5003 1.20239ZM16.292 1.20239C17.557 2.0371 17.8857 3.20339 17.6806 3.97006C17.582 4.33835 17.3411 4.65237 17.011 4.84306C16.6808 5.03374 16.2884 5.08547 15.9202 4.98685C15.5519 4.88824 15.2378 4.64736 15.0472 4.31721C14.8565 3.98706 14.8048 3.59468 14.9034 3.22639C15.1899 2.16264 16.292 2.63989 16.292 1.20239Z" fill="#5C5C5C"/>
</svg>
