<svg width="23" height="24" viewBox="0 0 23 24" fill="none" xmlns="http://www.w3.org/2000/svg">
<path d="M14.8546 2.16089C15.349 2.16084 15.8372 2.27006 16.2845 2.48075C16.7317 2.69143 17.1268 2.99837 17.4415 3.37959C17.7563 3.76081 17.9828 4.20689 18.1051 4.6859C18.2273 5.16492 18.2421 5.66502 18.1484 6.15043L18.134 6.21368C18.9678 6.49179 19.6967 7.0179 20.2232 7.72161C20.7498 8.42532 21.0489 9.27306 21.0805 10.1514C21.112 11.0297 20.8746 11.8967 20.3999 12.6364C19.9253 13.3762 19.236 13.9532 18.4244 14.2905L17.3837 20.5264C17.3465 20.7502 17.2311 20.9535 17.0581 21.1002C16.885 21.2469 16.6656 21.3274 16.4388 21.3276H6.56217C6.33533 21.3274 6.11587 21.2469 5.94285 21.1002C5.76983 20.9535 5.65446 20.7502 5.61725 20.5264L4.63113 14.6135C3.96789 14.5759 3.33815 14.3097 2.84894 13.8603C2.35973 13.4109 2.04126 12.8059 1.94764 12.1482C1.85403 11.4906 1.99105 10.8208 2.33543 10.2527C2.6798 9.68462 3.21027 9.25333 3.83667 9.03214L3.83379 8.86922C3.8336 7.89887 4.07899 6.94425 4.54709 6.09427C5.0152 5.24429 5.6908 4.5266 6.51097 4.00803C7.33114 3.48947 8.26921 3.18691 9.2378 3.12852C10.2064 3.07013 11.174 3.25782 12.0505 3.6741C12.3556 3.20891 12.7716 2.82699 13.2612 2.56281C13.7507 2.29863 14.2984 2.1605 14.8546 2.16089ZM8.62546 14.6192H6.57463L7.37388 19.4109H8.62546V14.6192ZM12.4588 14.6192H10.5421V19.4109H12.4588V14.6192ZM16.4253 14.6192H14.3755V19.4109H15.6261L16.4253 14.6192ZM9.5838 5.03589C7.53104 5.03589 5.85492 6.64972 5.75525 8.64593L5.75046 8.83472L5.75334 8.99764C5.76011 9.37395 5.65594 9.74393 5.45382 10.0614C5.2517 10.3789 4.96057 10.6299 4.61675 10.783L4.473 10.8396C4.26021 10.9153 4.08098 11.0638 3.96688 11.2587C3.85278 11.4536 3.81113 11.6826 3.84927 11.9052C3.8874 12.1279 4.00288 12.3299 4.17536 12.4758C4.34784 12.6216 4.56625 12.7019 4.79213 12.7026H16.7713C17.1255 12.7026 17.4753 12.624 17.7956 12.4726C18.1158 12.3211 18.3984 12.1006 18.6232 11.8268C18.8479 11.553 19.0091 11.2327 19.0952 10.8891C19.1814 10.5455 19.1902 10.1871 19.1211 9.83968C19.0521 9.49225 18.9069 9.16446 18.6959 8.8799C18.485 8.59534 18.2135 8.3611 17.9012 8.19405C17.5888 8.027 17.2433 7.93129 16.8895 7.91381C16.5357 7.89633 16.1824 7.95752 15.8551 8.09297L15.6874 8.1706C15.2452 8.39846 14.7317 8.44547 14.2555 8.30169C13.7793 8.15791 13.3776 7.8346 13.1354 7.4001L13.0683 7.26881C12.762 6.60222 12.2709 6.03751 11.6533 5.64171C11.0356 5.24591 10.3174 5.03565 9.5838 5.03589ZM14.8546 4.07756C14.6062 4.0775 14.362 4.14183 14.1458 4.26427C13.9297 4.38671 13.7489 4.56308 13.6213 4.77618C14.1161 5.26338 14.5187 5.83611 14.8096 6.46668C15.2351 6.24818 15.7008 6.09868 16.1953 6.03256C16.2794 5.81481 16.3091 5.57988 16.282 5.34807C16.2549 5.11626 16.1717 4.89453 16.0397 4.70205C15.9077 4.50957 15.7308 4.35213 15.5244 4.24332C15.3179 4.13452 15.088 4.07762 14.8546 4.07756Z" fill="#5C5C5C"/>
</svg>
