<svg width="23" height="24" viewBox="0 0 23 24" fill="none" xmlns="http://www.w3.org/2000/svg">
<path d="M4.16093 1.59351L21.4406 18.8742C21.7103 19.1437 21.8619 19.5093 21.862 19.8906C21.862 20.2719 21.7107 20.6376 21.4411 20.9073C21.1716 21.1769 20.806 21.3285 20.4247 21.3286C20.0434 21.3287 19.6777 21.1773 19.408 20.9078L15.0035 16.5023L11.6149 19.89L4.16093 12.4361C2.75226 11.0276 1.9471 9.12613 1.91598 7.13435C1.88485 5.14256 2.6302 3.21686 3.99418 1.76505L4.16093 1.59351ZM4.39189 4.53559L4.34302 4.64101C3.87831 5.66839 3.72567 6.80967 3.90405 7.92306C4.08243 9.03646 4.58398 10.0729 5.34639 10.9037L5.51602 11.081L11.6139 17.1789L14.325 14.4687L4.39189 4.53559Z" fill="#5C5C5C"/>
</svg>
