<svg width="23" height="24" viewBox="0 0 23 24" fill="none" xmlns="http://www.w3.org/2000/svg">
<path d="M20.125 2.99707V4.91374C20.125 14.1396 14.9759 18.3304 8.625 18.3304H5.02454C4.86833 19.2044 4.79167 20.1579 4.79167 21.2054H2.875C2.875 19.8992 2.98617 18.7137 3.20658 17.6289C2.98617 16.3888 2.875 14.706 2.875 12.5804C2.875 7.28753 7.16546 2.99707 12.4583 2.99707C14.375 2.99707 16.2917 3.9554 20.125 2.99707ZM12.4583 4.91374C8.22442 4.91374 4.79167 8.34649 4.79167 12.5804C4.79167 12.9273 4.79454 13.2618 4.80125 13.5828C6.003 11.6872 7.76346 10.1894 10.0663 8.87357L11.017 10.5372C8.28096 12.1012 6.46587 13.878 5.53533 16.4137H8.625C14.3894 16.4137 18.0847 12.6063 18.2055 5.28557C16.8906 5.41303 15.6687 5.33157 14.1613 5.1054C13.0592 4.93961 12.8426 4.91374 12.4583 4.91374Z" fill="#5C5C5C"/>
</svg>
