<svg width="23" height="24" viewBox="0 0 23 24" fill="none" xmlns="http://www.w3.org/2000/svg">
<path d="M9.55733 17.3722H10.5415V12.5805H12.4582V17.3722H13.4424C13.5689 16.2203 14.1564 15.2696 15.1099 14.2317C15.2182 14.1148 15.9072 13.4008 15.9887 13.2992C16.6656 12.4536 17.0898 11.4341 17.2126 10.3579C17.3354 9.28176 17.1517 8.19281 16.6828 7.21646C16.2138 6.24011 15.4786 5.41608 14.5618 4.83925C13.6451 4.26243 12.584 3.95627 11.5009 3.95604C10.4178 3.95581 9.3566 4.26151 8.43959 4.83795C7.52258 5.41438 6.78703 6.2381 6.31765 7.21425C5.84826 8.19039 5.66414 9.27927 5.78647 10.3555C5.9088 11.4317 6.33262 12.4514 7.00912 13.2973C7.09154 13.3999 7.7825 14.1148 7.88887 14.2308C8.84337 15.2696 9.43083 16.2203 9.55733 17.3722ZM9.5832 19.2888V20.2472H13.4165V19.2888H9.5832ZM5.51412 14.4972C4.61155 13.3695 4.0459 12.0098 3.88233 10.5747C3.71876 9.13957 3.96392 7.68745 4.58957 6.38559C5.21522 5.08373 6.19591 3.98509 7.41867 3.21623C8.64143 2.44737 10.0565 2.03956 11.5009 2.0398C12.9453 2.04003 14.3603 2.44828 15.5828 3.21753C16.8053 3.98679 17.7856 5.08574 18.4108 6.3878C19.0361 7.68986 19.2808 9.14206 19.1167 10.5771C18.9527 12.0122 18.3866 13.3717 17.4837 14.4991C16.8895 15.2389 15.3332 16.4138 15.3332 17.8513V20.2472C15.3332 20.7555 15.1313 21.243 14.7718 21.6025C14.4124 21.9619 13.9249 22.1638 13.4165 22.1638H9.5832C9.07487 22.1638 8.58736 21.9619 8.22792 21.6025C7.86847 21.243 7.66654 20.7555 7.66654 20.2472V17.8513C7.66654 16.4138 6.10925 15.2389 5.51412 14.4972Z" fill="#5C5C5C"/>
</svg>
