<svg width="23" height="24" viewBox="0 0 23 24" fill="none" xmlns="http://www.w3.org/2000/svg">
<path d="M18.747 11.9979L20.2142 14.6023C21.1409 16.2457 20.5908 18.3475 18.9876 19.2959C18.4768 19.5972 17.8989 19.7563 17.3105 19.7563H15.3334V22.2106L10.5418 18.7746L15.3334 15.3386V17.7929H17.3095C17.5616 17.7929 17.8098 17.7241 18.0283 17.5955C18.7163 17.1891 18.9511 16.2879 18.5553 15.584L17.0872 12.9796L18.747 11.9979ZM6.99976 9.08905L7.50768 15.0578L5.43384 13.8307L4.4458 15.584C4.3193 15.8079 4.25318 16.0621 4.25318 16.3203C4.25318 17.1332 4.89622 17.7929 5.69068 17.7929H8.62509V19.7563H5.69068C3.83822 19.7563 2.33651 18.2179 2.33651 16.3203C2.33651 15.7175 2.49176 15.1246 2.78597 14.6023L3.77305 12.848L1.69922 11.6219L6.9988 9.08905H6.99976ZM13.1772 3.03683C13.687 3.33821 14.1106 3.77213 14.4048 4.29439L15.3919 6.04674L17.4676 4.81961L16.9597 10.7894L11.6582 8.25656L13.733 7.02943L12.745 5.2761C12.6185 5.05227 12.4373 4.86673 12.2188 4.73714C11.5317 4.33072 10.652 4.57222 10.2552 5.2761L8.78705 7.88057L7.12722 6.89886L8.59634 4.29439C9.5221 2.65102 11.5739 2.08752 13.1781 3.03683H13.1772Z" fill="#5C5C5C"/>
</svg>
