<svg width="23" height="24" viewBox="0 0 23 24" fill="none" xmlns="http://www.w3.org/2000/svg">
<path d="M12.4585 1.96338V3.218L17.2502 4.85549L20.7309 3.66762L21.3375 5.52894L18.4318 6.52145L21.3988 14.8777C20.3523 15.9939 18.8794 16.689 17.2502 16.689C15.6201 16.689 14.1481 15.9939 13.1016 14.8777L16.0666 6.52145L12.4585 5.28842V18.6524H16.2919V20.6158H6.70852V18.6524H10.5419V5.28842L6.93085 6.52145L9.89785 14.8777C8.85231 15.9939 7.37935 16.689 5.75019 16.689C4.12006 16.689 2.64806 15.9939 1.60156 14.8777L4.56665 6.52145L1.6629 5.52992L2.26952 3.66664L5.75019 4.85451L10.5419 3.218V1.96338H12.4585ZM17.2502 8.93645L15.3738 14.2239C15.9363 14.5489 16.5784 14.7256 17.2502 14.7256C17.921 14.7256 18.5631 14.5489 19.1266 14.2249L17.2502 8.93546V8.93645ZM5.75019 8.93645L3.87377 14.2239C4.43631 14.5489 5.0784 14.7256 5.75019 14.7256C6.42102 14.7256 7.0631 14.5489 7.6266 14.2249L5.75019 8.93546V8.93645Z" fill="#5C5C5C"/>
</svg>
