<svg width="23" height="25" viewBox="0 0 23 25" fill="none" xmlns="http://www.w3.org/2000/svg">
<path d="M5.75033 3.13721C9.09491 3.13721 11.8674 5.70419 12.3753 9.06216C13.5013 7.88521 15.0557 7.15753 16.7712 7.15753H21.0837V9.67024C21.0837 13.2785 18.2949 16.2033 14.8545 16.2033H12.4587V21.2287H10.542V13.188H8.62533C4.92041 13.188 1.91699 10.0381 1.91699 6.15245V3.13721H5.75033ZM19.167 9.1677H16.7712C14.3897 9.1677 12.4587 11.1929 12.4587 13.6906V14.1931H14.8545C17.236 14.1931 19.167 12.1679 19.167 9.67024V9.1677ZM5.75033 5.14737H3.83366V6.15245C3.83366 8.92748 5.97937 11.1779 8.62533 11.1779H10.542V10.1728C10.542 7.39775 8.39628 5.14737 5.75033 5.14737Z" fill="#5C5C5C"/>
</svg>
