<svg width="23" height="25" viewBox="0 0 23 25" fill="none" xmlns="http://www.w3.org/2000/svg">
<path d="M8.62533 3.25928C8.62533 4.05897 8.92823 4.82591 9.46739 5.39138C10.0066 5.95684 10.7378 6.27452 11.5003 6.27452C12.2628 6.27452 12.9941 5.95684 13.5333 5.39138C14.0724 4.82591 14.3753 4.05897 14.3753 3.25928H20.1253C20.3795 3.25928 20.6232 3.36517 20.803 3.55366C20.9827 3.74215 21.0837 3.99779 21.0837 4.26436V11.2999C21.0837 11.5665 20.9827 11.8221 20.803 12.0106C20.6232 12.1991 20.3795 12.305 20.1253 12.305H18.2077L18.2087 20.3457C18.2087 20.6122 18.1077 20.8679 17.928 21.0564C17.7482 21.2449 17.5045 21.3507 17.2503 21.3507H5.75033C5.49616 21.3507 5.2524 21.2449 5.07268 21.0564C4.89296 20.8679 4.79199 20.6122 4.79199 20.3457L4.79103 12.304L2.87533 12.305C2.62116 12.305 2.3774 12.1991 2.19768 12.0106C2.01796 11.8221 1.91699 11.5665 1.91699 11.2999V4.26436C1.91699 3.99779 2.01796 3.74215 2.19768 3.55366C2.3774 3.36517 2.62116 3.25928 2.87533 3.25928H8.62533ZM19.167 5.26844H15.8924L15.8761 5.30964C15.5126 6.1618 14.9302 6.89101 14.1939 7.41557C13.4576 7.94013 12.5966 8.23934 11.7073 8.27966L11.5003 8.28468C10.575 8.28477 9.66935 8.00389 8.89287 7.47597C8.11639 6.94804 7.50224 6.19565 7.12458 5.30964L7.10733 5.26944H3.83366V10.2948L6.7077 10.2938V19.3406H16.292L16.291 10.2948L19.167 10.2938V5.26844Z" fill="#5C5C5C"/>
</svg>
