<svg width="23" height="24" viewBox="0 0 23 24" fill="none" xmlns="http://www.w3.org/2000/svg">
<g clip-path="url(#clip0_856_3488)">
<path d="M12.4587 2.13348C17.3011 2.62504 21.0837 6.80866 21.0837 11.8959V12.8771H12.4587V18.764C12.4587 19.2844 12.6606 19.7835 13.02 20.1515C13.3795 20.5195 13.867 20.7263 14.3753 20.7263C14.8837 20.7263 15.3712 20.5195 15.7306 20.1515C16.0901 19.7835 16.292 19.2844 16.292 18.764V17.7828H18.2087V18.764C18.2087 19.8049 17.8048 20.8031 17.0859 21.5391C16.367 22.2751 15.392 22.6886 14.3753 22.6886C13.3587 22.6886 12.3836 22.2751 11.6648 21.5391C10.9459 20.8031 10.542 19.8049 10.542 18.764V12.8771H1.91699V11.8959C1.91699 6.80866 5.69953 2.62504 10.542 2.13348V2.08442C10.542 1.8242 10.643 1.57465 10.8227 1.39064C11.0024 1.20664 11.2462 1.10327 11.5003 1.10327C11.7545 1.10327 11.9982 1.20664 12.178 1.39064C12.3577 1.57465 12.4587 1.8242 12.4587 2.08442V2.13348ZM19.1076 10.9148C18.8737 9.01811 17.9719 7.274 16.5713 6.00969C15.1707 4.74538 13.3676 4.04778 11.5003 4.04778C9.63306 4.04778 7.82997 4.74538 6.42938 6.00969C5.02878 7.274 4.12694 9.01811 3.89308 10.9148H19.1076Z" fill="#5C5C5C"/>
</g>
<defs>
<clipPath id="clip0_856_3488">
<rect width="23" height="23.5476" fill="white" transform="translate(0 0.12207)"/>
</clipPath>
</defs>
</svg>
