<svg width="23" height="25" viewBox="0 0 23 25" fill="none" xmlns="http://www.w3.org/2000/svg">
<path d="M7.66634 10.3936V12.5988C6.52017 13.2943 5.74967 14.5939 5.74967 16.0814C5.74967 18.3026 7.46509 20.1017 9.58301 20.1017C11.0013 20.1017 12.2405 19.2936 12.9036 18.0916H15.0053C14.2165 20.4334 12.0862 22.1119 9.58301 22.1119C6.40709 22.1119 3.83301 19.4122 3.83301 16.0814C3.83301 13.4551 5.43342 11.2218 7.66634 10.3936ZM11.4997 17.0865C9.91172 17.0865 8.62467 15.7367 8.62467 14.0712V10.0509C8.62467 9.0016 9.13642 8.07693 9.91172 7.5372C9.13547 6.99948 8.62467 6.0748 8.62467 5.0255C8.62467 3.36008 9.91172 2.01025 11.4997 2.01025C13.0876 2.01025 14.3747 3.36008 14.3747 5.0255C14.3747 6.0748 13.8629 6.99948 13.0876 7.53921C13.8639 8.07693 14.3747 9.0016 14.3747 10.0509V15.0753L15.7489 15.0763C16.3699 15.0763 16.9497 15.3919 17.3072 15.9166L17.3925 16.0522L19.9876 20.5902L18.345 21.6234L15.748 17.0865L14.3747 17.0855L11.4997 17.0865ZM11.4997 9.04582C10.9707 9.04582 10.5413 9.4961 10.5413 10.0509V14.0712C10.5413 14.626 10.9707 15.0763 11.4997 15.0763H12.457L12.458 10.0509C12.458 9.4961 12.0287 9.04582 11.4997 9.04582ZM11.4997 4.02042C10.9707 4.02042 10.5413 4.47069 10.5413 5.0255C10.5413 5.5803 10.9707 6.03058 11.4997 6.03058C12.0287 6.03058 12.458 5.5803 12.458 5.0255C12.458 4.47069 12.0287 4.02042 11.4997 4.02042Z" fill="#5C5C5C"/>
</svg>
