<svg width="23" height="23" viewBox="0 0 23 23" fill="none" xmlns="http://www.w3.org/2000/svg">
<path d="M6.70866 8.62508C7.34407 8.62508 7.95346 8.37266 8.40277 7.92336C8.85208 7.47405 9.10449 6.86466 9.10449 6.22925C9.10449 5.59383 8.85208 4.98444 8.40277 4.53514C7.95346 4.08583 7.34407 3.83341 6.70866 3.83341C6.07324 3.83341 5.46386 4.08583 5.01455 4.53514C4.56524 4.98444 4.31283 5.59383 4.31283 6.22925C4.31283 6.86466 4.56524 7.47405 5.01455 7.92336C5.46386 8.37266 6.07324 8.62508 6.70866 8.62508ZM6.70866 10.5417C6.14233 10.5417 5.58155 10.4302 5.05834 10.2135C4.53512 9.99676 4.05971 9.6791 3.65926 9.27865C3.25881 8.87819 2.94115 8.40279 2.72443 7.87957C2.5077 7.35635 2.39616 6.79557 2.39616 6.22925C2.39616 5.66292 2.5077 5.10214 2.72443 4.57893C2.94115 4.05571 3.25881 3.5803 3.65926 3.17985C4.05971 2.7794 4.53512 2.46174 5.05834 2.24502C5.58155 2.02829 6.14233 1.91675 6.70866 1.91675C7.85241 1.91675 8.94931 2.3711 9.75806 3.17985C10.5668 3.9886 11.0212 5.0855 11.0212 6.22925C11.0212 7.37299 10.5668 8.4699 9.75806 9.27865C8.94931 10.0874 7.85241 10.5417 6.70866 10.5417ZM16.7712 12.4584C17.2795 12.4584 17.767 12.2565 18.1264 11.897C18.4859 11.5376 18.6878 11.0501 18.6878 10.5417C18.6878 10.0334 18.4859 9.54591 18.1264 9.18646C17.767 8.82702 17.2795 8.62508 16.7712 8.62508C16.2628 8.62508 15.7753 8.82702 15.4159 9.18646C15.0564 9.54591 14.8545 10.0334 14.8545 10.5417C14.8545 11.0501 15.0564 11.5376 15.4159 11.897C15.7753 12.2565 16.2628 12.4584 16.7712 12.4584ZM16.7712 14.3751C15.7545 14.3751 14.7795 13.9712 14.0606 13.2523C13.3417 12.5334 12.9378 11.5584 12.9378 10.5417C12.9378 9.52508 13.3417 8.55006 14.0606 7.83117C14.7795 7.11228 15.7545 6.70842 16.7712 6.70842C17.7878 6.70842 18.7628 7.11228 19.4817 7.83117C20.2006 8.55006 20.6045 9.52508 20.6045 10.5417C20.6045 11.5584 20.2006 12.5334 19.4817 13.2523C18.7628 13.9712 17.7878 14.3751 16.7712 14.3751ZM19.167 20.1251V19.6459C19.167 19.0105 18.9146 18.4011 18.4653 17.9518C18.016 17.5025 17.4066 17.2501 16.7712 17.2501C16.1357 17.2501 15.5264 17.5025 15.077 17.9518C14.6277 18.4011 14.3753 19.0105 14.3753 19.6459V20.1251H12.4587V19.6459C12.4587 19.0796 12.5702 18.5188 12.7869 17.9956C13.0037 17.4724 13.3213 16.997 13.7218 16.5965C14.1222 16.1961 14.5976 15.8784 15.1208 15.6617C15.6441 15.445 16.2048 15.3334 16.7712 15.3334C17.3375 15.3334 17.8983 15.445 18.4215 15.6617C18.9447 15.8784 19.4201 16.1961 19.8206 16.5965C20.221 16.997 20.5387 17.4724 20.7554 17.9956C20.9721 18.5188 21.0837 19.0796 21.0837 19.6459V20.1251H19.167ZM9.58366 20.1251V16.2917C9.58366 15.5293 9.28076 14.798 8.74159 14.2588C8.20242 13.7196 7.47116 13.4167 6.70866 13.4167C5.94616 13.4167 5.21489 13.7196 4.67573 14.2588C4.13656 14.798 3.83366 15.5293 3.83366 16.2917V20.1251H1.91699V16.2917C1.91699 15.0209 2.42183 13.8021 3.32044 12.9035C4.21905 12.0049 5.43783 11.5001 6.70866 11.5001C7.97949 11.5001 9.19827 12.0049 10.0969 12.9035C10.9955 13.8021 11.5003 15.0209 11.5003 16.2917V20.1251H9.58366Z" fill="#5C5C5C"/>
</svg>
