<svg width="23" height="23" viewBox="0 0 23 23" fill="none" xmlns="http://www.w3.org/2000/svg">
<g clip-path="url(#clip0_856_3604)">
<path d="M11.5003 10.2965C12.7712 10.2965 13.9899 10.7896 14.8885 11.6673C15.7872 12.545 16.292 13.7354 16.292 14.9767V20.593H14.3753V14.9767C14.3754 14.2604 14.0952 13.5712 13.5921 13.0501C13.089 12.529 12.4011 12.2153 11.669 12.1733L11.5003 12.1686C10.767 12.1685 10.0614 12.4422 9.52783 12.9336C8.99428 13.425 8.67314 14.0969 8.63012 14.812L8.62533 14.9767V20.593H6.70866V14.9767C6.70866 13.7354 7.21349 12.545 8.11211 11.6673C9.01072 10.7896 10.2295 10.2965 11.5003 10.2965ZM5.27116 13.1046C5.53853 13.1046 5.79824 13.1355 6.04741 13.1926C5.88356 13.6691 5.78652 14.165 5.75895 14.6669L5.75033 14.9767V15.0572C5.64017 15.0187 5.52559 14.9936 5.40916 14.9823L5.27116 14.9767C4.91381 14.9767 4.56928 15.1068 4.30476 15.3414C4.04023 15.5761 3.87467 15.8986 3.84037 16.246L3.83366 16.3808V20.593H1.91699V16.3808C1.91699 15.5119 2.27038 14.6786 2.8994 14.0642C3.52843 13.4498 4.38158 13.1046 5.27116 13.1046ZM17.7295 13.1046C18.6191 13.1046 19.4722 13.4498 20.1012 14.0642C20.7303 14.6786 21.0837 15.5119 21.0837 16.3808V20.593H19.167V16.3808C19.167 16.0318 19.0339 15.6952 18.7936 15.4369C18.5534 15.1785 18.2232 15.0168 17.8675 14.9833L17.7295 14.9767C17.5618 14.9767 17.4008 15.0048 17.2503 15.0563V14.9767C17.2503 14.3533 17.1468 13.7542 16.9542 13.1945C17.2024 13.1355 17.4621 13.1046 17.7295 13.1046ZM5.27116 7.48835C5.90657 7.48835 6.51596 7.7349 6.96527 8.17375C7.41458 8.61261 7.66699 9.20783 7.66699 9.82847C7.66699 10.4491 7.41458 11.0443 6.96527 11.4832C6.51596 11.922 5.90657 12.1686 5.27116 12.1686C4.63574 12.1686 4.02635 11.922 3.57705 11.4832C3.12774 11.0443 2.87533 10.4491 2.87533 9.82847C2.87533 9.20783 3.12774 8.61261 3.57705 8.17375C4.02635 7.7349 4.63574 7.48835 5.27116 7.48835ZM17.7295 7.48835C18.3649 7.48835 18.9743 7.7349 19.4236 8.17375C19.8729 8.61261 20.1253 9.20783 20.1253 9.82847C20.1253 10.4491 19.8729 11.0443 19.4236 11.4832C18.9743 11.922 18.3649 12.1686 17.7295 12.1686C17.0941 12.1686 16.4847 11.922 16.0354 11.4832C15.5861 11.0443 15.3337 10.4491 15.3337 9.82847C15.3337 9.20783 15.5861 8.61261 16.0354 8.17375C16.4847 7.7349 17.0941 7.48835 17.7295 7.48835ZM5.27116 9.36044C5.14408 9.36044 5.0222 9.40975 4.93234 9.49752C4.84248 9.58529 4.79199 9.70434 4.79199 9.82847C4.79199 9.95259 4.84248 10.0716 4.93234 10.1594C5.0222 10.2472 5.14408 10.2965 5.27116 10.2965C5.39824 10.2965 5.52012 10.2472 5.60998 10.1594C5.69984 10.0716 5.75033 9.95259 5.75033 9.82847C5.75033 9.70434 5.69984 9.58529 5.60998 9.49752C5.52012 9.40975 5.39824 9.36044 5.27116 9.36044ZM17.7295 9.36044C17.6024 9.36044 17.4805 9.40975 17.3907 9.49752C17.3008 9.58529 17.2503 9.70434 17.2503 9.82847C17.2503 9.95259 17.3008 10.0716 17.3907 10.1594C17.4805 10.2472 17.6024 10.2965 17.7295 10.2965C17.8566 10.2965 17.9785 10.2472 18.0683 10.1594C18.1582 10.0716 18.2087 9.95259 18.2087 9.82847C18.2087 9.70434 18.1582 9.58529 18.0683 9.49752C17.9785 9.40975 17.8566 9.36044 17.7295 9.36044ZM11.5003 1.87207C12.517 1.87207 13.492 2.26655 14.2109 2.96872C14.9298 3.67089 15.3337 4.62324 15.3337 5.61626C15.3337 6.60928 14.9298 7.56162 14.2109 8.2638C13.492 8.96597 12.517 9.36044 11.5003 9.36044C10.4837 9.36044 9.50864 8.96597 8.78975 8.2638C8.07086 7.56162 7.66699 6.60928 7.66699 5.61626C7.66699 4.62324 8.07086 3.67089 8.78975 2.96872C9.50864 2.26655 10.4837 1.87207 11.5003 1.87207ZM11.5003 3.74416C10.992 3.74416 10.5045 3.9414 10.145 4.29249C9.78559 4.64357 9.58366 5.11975 9.58366 5.61626C9.58366 6.11277 9.78559 6.58894 10.145 6.94003C10.5045 7.29111 10.992 7.48835 11.5003 7.48835C12.0087 7.48835 12.4962 7.29111 12.8556 6.94003C13.2151 6.58894 13.417 6.11277 13.417 5.61626C13.417 5.11975 13.2151 4.64357 12.8556 4.29249C12.4962 3.9414 12.0087 3.74416 11.5003 3.74416Z" fill="#5C5C5C"/>
</g>
<defs>
<clipPath id="clip0_856_3604">
<rect width="23" height="22.4651" fill="white"/>
</clipPath>
</defs>
</svg>
